M48
; DRILL file {KiCad 9.0.6-1.fc42} date 2025-12-08T13:43:21+0100
; FORMAT={-:-/ absolute / metric / decimal}
; #@! TF.CreationDate,2025-12-08T13:43:21+01:00
; #@! TF.GenerationSoftware,Kicad,Pcbnew,9.0.6-1.fc42
; #@! TF.FileFunction,Plated,1,4,PTH
FMAT,2
METRIC
; #@! TA.AperFunction,Plated,PTH,ViaDrill
T1C0.100
; #@! TA.AperFunction,Plated,PTH,ViaDrill
T2C0.200
; #@! TA.AperFunction,Plated,PTH,ViaDrill
T3C0.300
; #@! TA.AperFunction,Plated,PTH,ComponentDrill
T4C1.100
%
G90
G05
T1
X136.0Y-122.6
X136.0Y-123.04
X136.175Y-116.975
X136.975Y-98.35
X136.975Y-100.225
X137.877Y-119.63
X139.09Y-104.5
X139.09Y-104.88
X139.11Y-126.39
X139.17Y-113.62
X139.33Y-122.41
X139.48Y-104.5
X139.48Y-104.88
X139.55Y-126.39
X139.77Y-122.41
X139.91Y-119.71
X140.912Y-126.39
X141.674Y-126.39
X142.134Y-125.35
X142.174Y-126.39
X142.33Y-120.55
X142.936Y-126.39
X142.95Y-117.425
X143.037Y-113.65
X143.037Y-114.158
X143.037Y-114.658
X143.037Y-115.166
X143.037Y-115.674
X143.1Y-116.45
X143.404Y-125.35
X143.407Y-120.082
X143.442Y-117.553
X143.51Y-118.8
X143.598Y-116.175
X143.598Y-117.975
X143.672Y-95.143
X143.904Y-125.35
X144.719Y-119.031
X145.174Y-125.35
X145.225Y-126.125
X145.425Y-113.65
X145.425Y-114.158
X145.425Y-114.658
X145.425Y-115.166
X145.425Y-115.674
X145.425Y-118.05
X145.43Y-116.62
X145.45Y-117.225
X145.506Y-110.667
X145.52Y-121.275
X145.58Y-112.28
X145.9Y-101.2
X146.031Y-112.306
X146.07Y-113.12
X146.206Y-121.275
X146.25Y-110.68
X146.581Y-112.306
X146.706Y-121.275
X146.972Y-120.552
X147.131Y-112.306
X147.131Y-118.844
X147.25Y-109.7
X147.325Y-108.425
X147.391Y-121.275
X147.593Y-108.899
X147.906Y-110.667
X147.982Y-109.126
X148.231Y-112.306
X148.231Y-118.844
X148.41Y-121.275
X148.904Y-126.32
X148.91Y-121.275
X149.1Y-112.51
X149.331Y-118.844
X149.505Y-120.62
X149.706Y-110.413
X149.928Y-121.275
X150.183Y-112.55
X150.21Y-110.52
X150.69Y-114.09
X151.107Y-121.11
X151.775Y-113.1
X151.775Y-116.95
X151.85Y-120.925
X152.0Y-112.031
X152.15Y-119.125
X152.275Y-105.975
X152.275Y-107.125
X152.275Y-109.025
X152.275Y-110.168
X152.51Y-103.6
X152.51Y-104.4
X153.414Y-114.375
X153.414Y-116.175
X153.414Y-117.375
X153.414Y-117.975
X153.525Y-113.025
X153.91Y-126.32
X153.95Y-115.54
X154.76Y-114.42
X154.775Y-105.975
X154.775Y-107.125
X154.775Y-109.025
X154.775Y-110.168
X156.41Y-114.42
X156.41Y-116.58
X156.41Y-119.32
X156.41Y-121.16
X156.41Y-122.732
T2
X143.673Y-51.509
X144.064Y-87.687
X144.067Y-89.54
X144.07Y-69.691
X144.074Y-71.544
X144.463Y-52.547
X144.566Y-86.967
X144.571Y-90.258
X144.572Y-68.972
X144.578Y-72.262
X145.253Y-53.027
X145.294Y-86.496
X145.298Y-90.731
X145.3Y-68.5
X145.304Y-72.736
X146.15Y-86.33
X146.15Y-90.902
X146.153Y-53.201
X146.156Y-68.334
X146.156Y-72.906
X147.006Y-90.735
X147.01Y-86.492
X147.013Y-72.739
X147.017Y-68.497
X147.05Y-53.025
X147.742Y-90.256
X147.747Y-86.969
X147.748Y-72.26
X147.754Y-68.973
X147.84Y-52.545
X148.24Y-89.547
X148.244Y-87.68
X148.247Y-71.551
X148.25Y-69.684
X148.63Y-51.507
T3
X136.21Y-103.51
X136.21Y-104.17
X136.83Y-103.51
X136.83Y-104.17
X136.905Y-92.19
X136.905Y-92.85
X137.213Y-111.625
X137.213Y-112.387
X137.525Y-92.19
X137.525Y-92.85
X137.555Y-124.312
X137.555Y-124.887
X137.975Y-111.625
X137.975Y-112.387
X137.975Y-113.149
X138.23Y-124.312
X138.23Y-124.887
X141.64Y-102.9
X141.64Y-104.76
X141.64Y-106.67
X146.02Y-103.81
X146.02Y-104.47
X146.57Y-116.39
X146.57Y-117.05
X146.64Y-103.81
X146.64Y-104.47
X147.19Y-116.39
X147.19Y-117.05
X150.46Y-116.08
X154.15Y-100.6
X154.15Y-101.65
X154.948Y-90.632
X154.948Y-91.521
X154.948Y-98.252
X155.246Y-125.098
X155.246Y-125.673
X155.837Y-90.632
X155.837Y-91.521
X155.921Y-125.098
X155.921Y-125.673
T4
X145.234Y-93.667
X145.234Y-96.207
X147.774Y-93.647
X147.774Y-96.207
X150.314Y-93.667
X150.314Y-96.227
X152.854Y-93.647
X152.854Y-96.207
X155.374Y-93.647
X155.374Y-96.187
M30
