%TF.GenerationSoftware,KiCad,Pcbnew,9.0.8-1.fc42*%
%TF.CreationDate,2026-03-27T09:51:17+01:00*%
%TF.ProjectId,PCI2USB,50434932-5553-4422-9e6b-696361645f70,1.1.0*%
%TF.SameCoordinates,Original*%
%TF.FileFunction,Copper,L3,Inr*%
%TF.FilePolarity,Positive*%
%FSLAX46Y46*%
G04 Gerber Fmt 4.6, Leading zero omitted, Abs format (unit mm)*
G04 Created by KiCad (PCBNEW 9.0.8-1.fc42) date 2026-03-27 09:51:17*
%MOMM*%
%LPD*%
G01*
G04 APERTURE LIST*
%TA.AperFunction,ComponentPad*%
%ADD10R,2.000000X2.100000*%
%TD*%
%TA.AperFunction,ComponentPad*%
%ADD11C,2.000000*%
%TD*%
%TA.AperFunction,ViaPad*%
%ADD12C,0.500000*%
%TD*%
%TA.AperFunction,ViaPad*%
%ADD13C,0.300000*%
%TD*%
%TA.AperFunction,ViaPad*%
%ADD14C,0.558800*%
%TD*%
G04 APERTURE END LIST*
D10*
%TO.N,DS2_VBUS*%
%TO.C,J2*%
X145234000Y-96207200D03*
D11*
%TO.N,DS1_VBUS*%
X145234000Y-93667200D03*
%TO.N,Net-(FL2-Pad4)*%
X147774000Y-96207200D03*
%TO.N,Net-(FL1-Pad3)*%
X147774000Y-93647200D03*
%TO.N,Net-(FL2-Pad3)*%
X150314000Y-96227200D03*
%TO.N,Net-(FL1-Pad4)*%
X150314000Y-93667200D03*
%TO.N,GND*%
X152854000Y-96207200D03*
X152854000Y-93647200D03*
%TO.N,unconnected-(J2-Key-Pad9)*%
X155374000Y-96187200D03*
%TO.N,unconnected-(J2-NC-Pad10)*%
X155374000Y-93647200D03*
%TD*%
D12*
%TO.N,GND*%
X155837000Y-90632200D03*
D13*
X152275000Y-110168000D03*
D14*
X148240376Y-89546741D03*
D12*
X155837000Y-91521200D03*
X150460000Y-116080000D03*
D14*
X148629776Y-51506955D03*
X147741638Y-90256220D03*
D12*
X154150000Y-100600000D03*
D14*
X147753596Y-68973103D03*
D12*
X146640000Y-103810000D03*
D14*
X147840000Y-52545000D03*
D13*
X137530000Y-115040000D03*
X147391060Y-121275000D03*
X149928140Y-121275000D03*
D12*
X136905000Y-92850000D03*
X141640000Y-102900000D03*
D13*
X139170000Y-113620000D03*
X139110000Y-126390000D03*
X139770000Y-122410000D03*
D12*
X146640000Y-104470000D03*
D13*
X154775000Y-105975000D03*
X146070000Y-113120000D03*
X140912000Y-126390000D03*
D12*
X146020000Y-104470000D03*
D14*
X144063646Y-87687143D03*
D13*
X139910000Y-119710000D03*
X154775000Y-110168000D03*
X156410000Y-121160000D03*
D14*
X147050000Y-53025000D03*
X144067225Y-89539601D03*
X146156352Y-72905746D03*
D12*
X154948000Y-91521200D03*
D13*
X139460000Y-117910000D03*
X138220000Y-116550000D03*
D12*
X146570000Y-116390000D03*
D14*
X144073576Y-71543791D03*
X145304072Y-72735598D03*
D12*
X136830000Y-103510000D03*
D13*
X151290000Y-100700000D03*
D14*
X144572011Y-68971590D03*
D13*
X142936000Y-126390000D03*
D12*
X154948000Y-98252200D03*
D14*
X148246727Y-71550931D03*
X147012702Y-72739084D03*
D12*
X137525000Y-92850000D03*
D14*
X144069997Y-69691333D03*
D13*
X153910000Y-126320000D03*
X152040000Y-101600000D03*
X136175000Y-116975000D03*
X145173515Y-125349812D03*
D14*
X147006351Y-90734894D03*
X147010421Y-86492323D03*
X144565660Y-86967400D03*
D13*
X152040000Y-100700000D03*
X151290000Y-101600000D03*
X136000000Y-122600000D03*
D12*
X154150000Y-101650000D03*
D14*
X148243954Y-87680000D03*
D13*
X148903515Y-126320000D03*
D12*
X137525000Y-92190000D03*
X141640000Y-106670000D03*
D14*
X145293649Y-86495810D03*
X145297721Y-90731408D03*
D12*
X147190000Y-116390000D03*
D13*
X152790000Y-100700000D03*
X150690000Y-114090000D03*
X156410000Y-122731618D03*
D14*
X143673000Y-51508910D03*
D13*
X152510000Y-104400000D03*
D12*
X141640000Y-104760000D03*
X147190000Y-117050000D03*
D14*
X146152776Y-53200865D03*
X148250305Y-69684190D03*
D13*
X143672322Y-95142792D03*
X156410000Y-116580000D03*
X145519800Y-121275000D03*
D12*
X136830000Y-104170000D03*
X136210000Y-104170000D03*
D13*
X137530000Y-117230000D03*
X139550000Y-126390000D03*
D14*
X147747989Y-72260410D03*
X145252776Y-53026955D03*
D13*
X136000000Y-123040000D03*
X142133515Y-125349812D03*
X152510000Y-103600000D03*
D12*
X146020000Y-103810000D03*
X136905000Y-92190000D03*
D13*
X152790000Y-101600000D03*
D14*
X147747245Y-86968913D03*
D13*
X136975000Y-98350000D03*
X139330000Y-122410000D03*
D12*
X146570000Y-117050000D03*
D14*
X146150001Y-86329556D03*
X147016772Y-68496513D03*
X144577620Y-72261924D03*
D13*
X142330000Y-120550000D03*
X137400000Y-110770000D03*
D14*
X144571269Y-90257734D03*
X145300000Y-68500000D03*
D12*
X136210000Y-103510000D03*
D13*
X150182500Y-112550000D03*
X154760000Y-114420000D03*
D12*
X154948000Y-90632200D03*
D14*
X144462776Y-52546955D03*
X146156352Y-68333746D03*
D13*
X153950000Y-115540000D03*
X136975000Y-100225000D03*
D14*
X146150001Y-90901556D03*
D13*
X152275000Y-105975000D03*
X156410000Y-119320000D03*
X156410000Y-114420000D03*
%TO.N,PCIE_REFCLKP*%
X148909600Y-121275000D03*
X141674000Y-126390000D03*
%TO.N,PERSTZ*%
X145225000Y-126125000D03*
X143407420Y-120082420D03*
%TO.N,PCIE_REFCLKN*%
X148409600Y-121275000D03*
X142174000Y-126390000D03*
%TO.N,PCIE_RXN*%
X146205600Y-121275000D03*
X143903515Y-125349812D03*
%TO.N,PCIE_RXP*%
X143403515Y-125349812D03*
X146705600Y-121275000D03*
%TO.N,+3.3V*%
X143510000Y-118800000D03*
X153413600Y-117975000D03*
D12*
X137975000Y-113149000D03*
X137213000Y-111625000D03*
D13*
X149505100Y-120620000D03*
X143597600Y-116175000D03*
X151850000Y-120925000D03*
D12*
X137975000Y-111625000D03*
X137975000Y-112387000D03*
X137213000Y-112387000D03*
D13*
%TO.N,GRSTZ*%
X152000000Y-112030587D03*
%TO.N,+1.1V*%
X149100000Y-112510000D03*
X148230600Y-118844000D03*
X153413600Y-116175000D03*
X149330600Y-118844000D03*
X153525000Y-113025000D03*
X151106996Y-121110379D03*
X148230600Y-112306000D03*
X147130600Y-118844000D03*
X152150000Y-119125000D03*
X139480000Y-104500000D03*
X139090000Y-104500000D03*
X145580000Y-112280000D03*
X150210000Y-110520000D03*
X153413600Y-117375000D03*
X139480000Y-104880000D03*
X153413600Y-114375000D03*
X144718900Y-119031100D03*
X139090000Y-104880000D03*
%TO.N,WAKEZ*%
X145425000Y-118050000D03*
%TO.N,Net-(IC1-VSS_OSC)*%
X137877148Y-119630000D03*
X147130600Y-112306000D03*
%TO.N,VDDA_3P3*%
X149705600Y-110413000D03*
X147905600Y-110667000D03*
X145505600Y-110667000D03*
X146580600Y-112306000D03*
X151774600Y-113100000D03*
X146972341Y-120552346D03*
X151774600Y-116950000D03*
%TO.N,Net-(D4-K)*%
X147250000Y-109700000D03*
%TO.N,OVERCUR2Z*%
X143597600Y-117975000D03*
X147982255Y-109125571D03*
%TO.N,PWRON2Z*%
X145450000Y-117225000D03*
X147593230Y-108899381D03*
%TO.N,Net-(IC1-R1EXTRTN)*%
X146030600Y-112306000D03*
%TO.N,Net-(IC1-R1EXT)*%
X146250000Y-110680000D03*
%TO.N,OVERCUR1Z*%
X143441817Y-117552823D03*
X145900000Y-101200000D03*
%TO.N,PWRON1Z*%
X145430000Y-116620000D03*
X147325000Y-108425000D03*
%TO.N,Net-(U3-BIAS)*%
X143100000Y-116450000D03*
X142950000Y-117425000D03*
D12*
%TO.N,Net-(C17-Pad1)*%
X155246000Y-125673000D03*
X155921000Y-125673000D03*
D13*
X143037400Y-114158000D03*
D12*
X137555000Y-124887500D03*
D13*
X143037400Y-114658000D03*
D12*
X155246000Y-125098000D03*
D13*
X143037400Y-115674000D03*
X145425000Y-113650000D03*
D12*
X155921000Y-125098000D03*
X137555000Y-124312500D03*
D13*
X143037400Y-113650000D03*
X143037400Y-115166000D03*
D12*
X138230000Y-124312500D03*
D13*
X145425000Y-114158000D03*
X145425000Y-115166000D03*
D12*
X138230000Y-124887500D03*
D13*
X145425000Y-114658000D03*
X145425000Y-115674000D03*
%TO.N,DM2*%
X154775000Y-109025000D03*
%TO.N,DP2*%
X154775000Y-107125000D03*
%TO.N,DM1*%
X152275000Y-109025000D03*
%TO.N,DP1*%
X152275000Y-107125000D03*
%TD*%
%TA.AperFunction,Conductor*%
%TO.N,GND*%
G36*
X148270277Y-88662025D02*
G01*
X148290625Y-88661783D01*
X148303585Y-88669896D01*
X148318469Y-88673413D01*
X148332600Y-88688058D01*
X148349849Y-88698855D01*
X148357098Y-88713446D01*
X148366985Y-88723692D01*
X148378726Y-88756976D01*
X148388265Y-88804931D01*
X148388267Y-88804939D01*
X148440142Y-88930177D01*
X148515456Y-89042892D01*
X148515459Y-89042896D01*
X148611308Y-89138745D01*
X148611312Y-89138748D01*
X148724025Y-89214061D01*
X148849266Y-89265938D01*
X148982216Y-89292383D01*
X148982220Y-89292384D01*
X148982221Y-89292384D01*
X149117782Y-89292384D01*
X149117783Y-89292383D01*
X149250736Y-89265938D01*
X149375977Y-89214061D01*
X149488690Y-89138748D01*
X149584545Y-89042893D01*
X149659858Y-88930180D01*
X149685440Y-88868419D01*
X149729281Y-88814017D01*
X149795575Y-88791952D01*
X149863274Y-88809231D01*
X149910885Y-88860368D01*
X149914562Y-88868420D01*
X149940142Y-88930177D01*
X150015456Y-89042892D01*
X150015459Y-89042896D01*
X150111308Y-89138745D01*
X150111312Y-89138748D01*
X150224025Y-89214061D01*
X150349266Y-89265938D01*
X150482216Y-89292383D01*
X150482220Y-89292384D01*
X150482221Y-89292384D01*
X150617782Y-89292384D01*
X150617783Y-89292383D01*
X150750736Y-89265938D01*
X150875977Y-89214061D01*
X150988690Y-89138748D01*
X151084545Y-89042893D01*
X151159858Y-88930180D01*
X151185440Y-88868419D01*
X151229281Y-88814017D01*
X151295575Y-88791952D01*
X151363274Y-88809231D01*
X151410885Y-88860368D01*
X151414562Y-88868420D01*
X151440142Y-88930177D01*
X151515456Y-89042892D01*
X151515459Y-89042896D01*
X151611308Y-89138745D01*
X151611312Y-89138748D01*
X151724025Y-89214061D01*
X151849266Y-89265938D01*
X151982216Y-89292383D01*
X151982220Y-89292384D01*
X151982221Y-89292384D01*
X152117782Y-89292384D01*
X152117783Y-89292383D01*
X152250736Y-89265938D01*
X152375977Y-89214061D01*
X152488690Y-89138748D01*
X152584545Y-89042893D01*
X152659858Y-88930180D01*
X152685440Y-88868419D01*
X152729281Y-88814017D01*
X152795575Y-88791952D01*
X152863274Y-88809231D01*
X152910885Y-88860368D01*
X152914562Y-88868420D01*
X152940142Y-88930177D01*
X153015456Y-89042892D01*
X153015459Y-89042896D01*
X153111308Y-89138745D01*
X153111312Y-89138748D01*
X153224025Y-89214061D01*
X153349266Y-89265938D01*
X153482216Y-89292383D01*
X153482220Y-89292384D01*
X153482221Y-89292384D01*
X153617782Y-89292384D01*
X153617783Y-89292383D01*
X153750736Y-89265938D01*
X153875977Y-89214061D01*
X153988690Y-89138748D01*
X154084545Y-89042893D01*
X154159858Y-88930180D01*
X154185440Y-88868419D01*
X154229281Y-88814017D01*
X154295575Y-88791952D01*
X154363274Y-88809231D01*
X154410885Y-88860368D01*
X154414562Y-88868420D01*
X154440142Y-88930177D01*
X154515456Y-89042892D01*
X154515459Y-89042896D01*
X154611308Y-89138745D01*
X154611312Y-89138748D01*
X154724025Y-89214061D01*
X154849266Y-89265938D01*
X154982216Y-89292383D01*
X154982220Y-89292384D01*
X154982221Y-89292384D01*
X155117782Y-89292384D01*
X155117783Y-89292383D01*
X155250736Y-89265938D01*
X155375977Y-89214061D01*
X155488690Y-89138748D01*
X155584545Y-89042893D01*
X155659858Y-88930180D01*
X155685440Y-88868419D01*
X155729281Y-88814017D01*
X155795575Y-88791952D01*
X155863274Y-88809231D01*
X155910885Y-88860368D01*
X155914562Y-88868420D01*
X155940142Y-88930177D01*
X156015456Y-89042892D01*
X156015459Y-89042896D01*
X156111308Y-89138745D01*
X156111312Y-89138748D01*
X156224025Y-89214061D01*
X156349266Y-89265938D01*
X156482216Y-89292383D01*
X156482220Y-89292384D01*
X156537820Y-89292384D01*
X156604859Y-89312069D01*
X156650614Y-89364873D01*
X156661820Y-89416384D01*
X156661820Y-93013862D01*
X156642135Y-93080901D01*
X156589331Y-93126656D01*
X156520173Y-93136600D01*
X156456617Y-93107575D01*
X156427335Y-93070157D01*
X156410950Y-93038000D01*
X156400760Y-93018001D01*
X156289690Y-92865127D01*
X156156073Y-92731510D01*
X156003199Y-92620440D01*
X155834836Y-92534654D01*
X155655118Y-92476259D01*
X155468486Y-92446700D01*
X155468481Y-92446700D01*
X155279519Y-92446700D01*
X155279514Y-92446700D01*
X155092881Y-92476259D01*
X154913163Y-92534654D01*
X154744800Y-92620440D01*
X154717273Y-92640440D01*
X154591927Y-92731510D01*
X154591925Y-92731512D01*
X154591924Y-92731512D01*
X154458309Y-92865127D01*
X154389562Y-92959748D01*
X154334231Y-93002413D01*
X154264618Y-93008391D01*
X154202823Y-92975784D01*
X154178760Y-92943155D01*
X154136916Y-92861030D01*
X154076658Y-92778094D01*
X154076658Y-92778093D01*
X153377787Y-93476965D01*
X153366518Y-93434908D01*
X153294110Y-93309492D01*
X153191708Y-93207090D01*
X153066292Y-93134682D01*
X153024234Y-93123412D01*
X153723105Y-92424540D01*
X153723104Y-92424538D01*
X153640174Y-92364287D01*
X153429802Y-92257097D01*
X153205247Y-92184134D01*
X153205248Y-92184134D01*
X152972052Y-92147200D01*
X152735948Y-92147200D01*
X152502752Y-92184134D01*
X152278197Y-92257097D01*
X152067830Y-92364284D01*
X151984894Y-92424540D01*
X152683766Y-93123412D01*
X152641708Y-93134682D01*
X152516292Y-93207090D01*
X152413890Y-93309492D01*
X152341482Y-93434908D01*
X152330212Y-93476966D01*
X151631340Y-92778094D01*
X151571084Y-92861030D01*
X151515005Y-92971092D01*
X151467030Y-93021888D01*
X151399209Y-93038683D01*
X151333074Y-93016145D01*
X151304203Y-92987683D01*
X151229694Y-92885133D01*
X151229690Y-92885127D01*
X151096073Y-92751510D01*
X150943199Y-92640440D01*
X150827449Y-92581462D01*
X150774836Y-92554654D01*
X150595118Y-92496259D01*
X150408486Y-92466700D01*
X150408481Y-92466700D01*
X150219519Y-92466700D01*
X150219514Y-92466700D01*
X150032881Y-92496259D01*
X149853163Y-92554654D01*
X149684800Y-92640440D01*
X149597579Y-92703810D01*
X149531927Y-92751510D01*
X149531925Y-92751512D01*
X149531924Y-92751512D01*
X149398312Y-92885124D01*
X149398312Y-92885125D01*
X149398310Y-92885127D01*
X149398306Y-92885133D01*
X149287240Y-93038000D01*
X149201454Y-93206363D01*
X149165180Y-93318003D01*
X149125742Y-93375678D01*
X149061383Y-93402876D01*
X148992537Y-93390961D01*
X148941061Y-93343716D01*
X148929318Y-93318003D01*
X148893044Y-93206365D01*
X148886547Y-93186368D01*
X148886545Y-93186365D01*
X148886545Y-93186363D01*
X148810950Y-93038000D01*
X148800760Y-93018001D01*
X148689690Y-92865127D01*
X148556073Y-92731510D01*
X148403199Y-92620440D01*
X148234836Y-92534654D01*
X148055118Y-92476259D01*
X147868486Y-92446700D01*
X147868481Y-92446700D01*
X147679519Y-92446700D01*
X147679514Y-92446700D01*
X147492881Y-92476259D01*
X147313163Y-92534654D01*
X147144800Y-92620440D01*
X147117273Y-92640440D01*
X146991927Y-92731510D01*
X146991925Y-92731512D01*
X146991924Y-92731512D01*
X146858312Y-92865124D01*
X146858312Y-92865125D01*
X146858310Y-92865127D01*
X146843781Y-92885125D01*
X146747240Y-93018000D01*
X146661455Y-93186362D01*
X146618681Y-93318004D01*
X146579242Y-93375679D01*
X146514883Y-93402876D01*
X146446037Y-93390961D01*
X146394562Y-93343716D01*
X146382820Y-93318004D01*
X146346547Y-93206368D01*
X146260760Y-93038001D01*
X146149690Y-92885127D01*
X146016073Y-92751510D01*
X145863199Y-92640440D01*
X145823947Y-92620440D01*
X145694836Y-92554654D01*
X145515118Y-92496259D01*
X145328486Y-92466700D01*
X145328481Y-92466700D01*
X145139519Y-92466700D01*
X145139514Y-92466700D01*
X144952881Y-92496259D01*
X144773163Y-92554654D01*
X144604800Y-92640440D01*
X144517579Y-92703810D01*
X144451927Y-92751510D01*
X144451925Y-92751512D01*
X144451924Y-92751512D01*
X144318312Y-92885124D01*
X144318312Y-92885125D01*
X144318310Y-92885127D01*
X144318306Y-92885133D01*
X144207240Y-93038000D01*
X144121454Y-93206363D01*
X144063059Y-93386081D01*
X144033500Y-93572713D01*
X144033500Y-93761686D01*
X144063059Y-93948318D01*
X144121454Y-94128036D01*
X144199158Y-94280537D01*
X144207240Y-94296399D01*
X144318310Y-94449273D01*
X144451927Y-94582890D01*
X144604801Y-94693960D01*
X144660255Y-94722215D01*
X144711051Y-94770189D01*
X144727846Y-94838010D01*
X144705309Y-94904145D01*
X144650594Y-94947597D01*
X144603960Y-94956700D01*
X144214247Y-94956700D01*
X144155770Y-94968331D01*
X144155769Y-94968332D01*
X144089447Y-95012647D01*
X144045132Y-95078969D01*
X144045131Y-95078970D01*
X144033500Y-95137447D01*
X144033500Y-97276952D01*
X144045131Y-97335429D01*
X144045132Y-97335430D01*
X144089447Y-97401752D01*
X144155769Y-97446067D01*
X144155770Y-97446068D01*
X144214247Y-97457699D01*
X144214250Y-97457700D01*
X144214252Y-97457700D01*
X146253750Y-97457700D01*
X146253751Y-97457699D01*
X146268568Y-97454752D01*
X146312229Y-97446068D01*
X146312229Y-97446067D01*
X146312231Y-97446067D01*
X146378552Y-97401752D01*
X146422867Y-97335431D01*
X146422867Y-97335429D01*
X146422868Y-97335429D01*
X146434499Y-97276952D01*
X146434500Y-97276950D01*
X146434500Y-96739109D01*
X146454185Y-96672070D01*
X146506989Y-96626315D01*
X146576147Y-96616371D01*
X146639703Y-96645396D01*
X146668984Y-96682813D01*
X146747240Y-96836399D01*
X146858310Y-96989273D01*
X146991927Y-97122890D01*
X147144801Y-97233960D01*
X147219681Y-97272113D01*
X147313163Y-97319745D01*
X147313165Y-97319745D01*
X147313168Y-97319747D01*
X147409497Y-97351046D01*
X147492881Y-97378140D01*
X147679514Y-97407700D01*
X147679519Y-97407700D01*
X147868486Y-97407700D01*
X148055118Y-97378140D01*
X148116671Y-97358140D01*
X148234832Y-97319747D01*
X148403199Y-97233960D01*
X148556073Y-97122890D01*
X148689690Y-96989273D01*
X148800760Y-96836399D01*
X148886547Y-96668032D01*
X148922820Y-96556395D01*
X148962256Y-96498721D01*
X149026615Y-96471523D01*
X149095461Y-96483438D01*
X149146937Y-96530682D01*
X149158681Y-96556396D01*
X149201454Y-96688036D01*
X149279691Y-96841583D01*
X149287240Y-96856399D01*
X149398310Y-97009273D01*
X149531927Y-97142890D01*
X149684801Y-97253960D01*
X149764347Y-97294490D01*
X149853163Y-97339745D01*
X149853165Y-97339745D01*
X149853168Y-97339747D01*
X149949497Y-97371046D01*
X150032881Y-97398140D01*
X150219514Y-97427700D01*
X150219519Y-97427700D01*
X150408486Y-97427700D01*
X150595118Y-97398140D01*
X150774832Y-97339747D01*
X150943199Y-97253960D01*
X151096073Y-97142890D01*
X151229690Y-97009273D01*
X151316182Y-96890226D01*
X151371511Y-96847562D01*
X151441124Y-96841583D01*
X151502919Y-96874189D01*
X151526984Y-96906818D01*
X151571087Y-96993374D01*
X151631338Y-97076304D01*
X151631340Y-97076305D01*
X152330212Y-96377433D01*
X152341482Y-96419492D01*
X152413890Y-96544908D01*
X152516292Y-96647310D01*
X152641708Y-96719718D01*
X152683765Y-96730987D01*
X151984893Y-97429858D01*
X152067828Y-97490114D01*
X152278197Y-97597302D01*
X152502752Y-97670265D01*
X152502751Y-97670265D01*
X152735948Y-97707200D01*
X152972052Y-97707200D01*
X153205247Y-97670265D01*
X153429802Y-97597302D01*
X153640163Y-97490118D01*
X153640169Y-97490114D01*
X153723104Y-97429858D01*
X153723105Y-97429858D01*
X153024233Y-96730987D01*
X153066292Y-96719718D01*
X153191708Y-96647310D01*
X153294110Y-96544908D01*
X153366518Y-96419492D01*
X153377787Y-96377434D01*
X154076658Y-97076305D01*
X154076658Y-97076304D01*
X154136914Y-96993369D01*
X154136921Y-96993359D01*
X154184750Y-96899488D01*
X154232724Y-96848692D01*
X154300544Y-96831896D01*
X154366680Y-96854433D01*
X154395553Y-96882896D01*
X154458310Y-96969273D01*
X154591927Y-97102890D01*
X154744801Y-97213960D01*
X154823304Y-97253959D01*
X154913163Y-97299745D01*
X154913165Y-97299745D01*
X154913168Y-97299747D01*
X155009497Y-97331046D01*
X155092881Y-97358140D01*
X155279514Y-97387700D01*
X155279519Y-97387700D01*
X155468486Y-97387700D01*
X155655118Y-97358140D01*
X155711725Y-97339747D01*
X155834832Y-97299747D01*
X156003199Y-97213960D01*
X156156073Y-97102890D01*
X156289690Y-96969273D01*
X156400760Y-96816399D01*
X156427335Y-96764241D01*
X156475309Y-96713446D01*
X156543130Y-96696651D01*
X156609265Y-96719188D01*
X156652717Y-96773903D01*
X156661820Y-96820537D01*
X156661820Y-125991373D01*
X156642135Y-126058412D01*
X156589331Y-126104167D01*
X156537820Y-126115373D01*
X156495729Y-126115373D01*
X156493014Y-126115730D01*
X156486017Y-126117197D01*
X156479190Y-126118239D01*
X156456459Y-126119159D01*
X156414388Y-126128140D01*
X156410777Y-126128692D01*
X156379610Y-126124490D01*
X156348264Y-126122126D01*
X156345262Y-126119860D01*
X156341534Y-126119358D01*
X156317592Y-126098978D01*
X156292494Y-126080037D01*
X156291192Y-126076506D01*
X156288329Y-126074069D01*
X156279208Y-126043989D01*
X156268332Y-126014479D01*
X156269146Y-126010804D01*
X156268055Y-126007206D01*
X156276646Y-125976963D01*
X156283450Y-125946264D01*
X156284619Y-125944190D01*
X156340799Y-125846886D01*
X156371500Y-125732309D01*
X156371500Y-125613691D01*
X156340799Y-125499114D01*
X156310999Y-125447500D01*
X156294526Y-125379602D01*
X156310999Y-125323499D01*
X156340799Y-125271886D01*
X156371500Y-125157309D01*
X156371500Y-125038691D01*
X156340799Y-124924114D01*
X156281489Y-124821387D01*
X156197613Y-124737511D01*
X156094886Y-124678201D01*
X155980309Y-124647500D01*
X155861691Y-124647500D01*
X155747114Y-124678201D01*
X155685778Y-124713614D01*
X155645501Y-124736868D01*
X155577600Y-124753341D01*
X155521499Y-124736868D01*
X155419886Y-124678201D01*
X155305309Y-124647500D01*
X155186691Y-124647500D01*
X155072114Y-124678201D01*
X155072112Y-124678201D01*
X155072112Y-124678202D01*
X154969387Y-124737511D01*
X154969384Y-124737513D01*
X154885513Y-124821384D01*
X154885511Y-124821387D01*
X154826201Y-124924114D01*
X154795500Y-125038691D01*
X154795500Y-125157309D01*
X154815556Y-125232158D01*
X154826202Y-125271889D01*
X154856000Y-125323500D01*
X154872473Y-125391400D01*
X154856000Y-125447500D01*
X154826202Y-125499110D01*
X154826201Y-125499114D01*
X154795500Y-125613691D01*
X154795500Y-125732309D01*
X154826201Y-125846886D01*
X154885511Y-125949613D01*
X154969387Y-126033489D01*
X155072114Y-126092799D01*
X155186691Y-126123500D01*
X155186694Y-126123500D01*
X155305306Y-126123500D01*
X155305309Y-126123500D01*
X155419886Y-126092799D01*
X155419888Y-126092797D01*
X155419890Y-126092797D01*
X155419891Y-126092796D01*
X155452327Y-126074069D01*
X155521499Y-126034131D01*
X155589399Y-126017658D01*
X155645500Y-126034131D01*
X155662573Y-126043989D01*
X155747108Y-126092796D01*
X155747109Y-126092797D01*
X155747111Y-126092797D01*
X155747114Y-126092799D01*
X155861691Y-126123500D01*
X155861694Y-126123500D01*
X155870067Y-126123500D01*
X155937106Y-126143185D01*
X155982861Y-126195989D01*
X155992805Y-126265147D01*
X155963780Y-126328703D01*
X155951877Y-126340683D01*
X155867033Y-126415171D01*
X155761411Y-126545721D01*
X155679415Y-126692252D01*
X155665713Y-126730973D01*
X155644124Y-126791983D01*
X155643988Y-126792366D01*
X155603066Y-126848999D01*
X155538023Y-126874517D01*
X155527091Y-126875000D01*
X154375810Y-126875000D01*
X154374220Y-126874990D01*
X152468806Y-126850561D01*
X152402025Y-126830018D01*
X152395676Y-126825530D01*
X152354586Y-126794500D01*
X152323266Y-126770848D01*
X152323258Y-126770843D01*
X152142740Y-126680956D01*
X152142737Y-126680955D01*
X151948766Y-126625766D01*
X151948763Y-126625765D01*
X151948761Y-126625765D01*
X151747958Y-126607158D01*
X151747956Y-126607158D01*
X151547152Y-126625765D01*
X151353173Y-126680956D01*
X151172649Y-126770847D01*
X151011711Y-126892381D01*
X150875851Y-127041414D01*
X150769685Y-127212877D01*
X150769684Y-127212879D01*
X150752628Y-127256907D01*
X150696834Y-127400930D01*
X150659777Y-127599165D01*
X150659777Y-127599167D01*
X150659777Y-129987820D01*
X150640092Y-130054859D01*
X150587288Y-130100614D01*
X150535777Y-130111820D01*
X141242180Y-130111820D01*
X141175141Y-130092135D01*
X141129386Y-130039331D01*
X141118180Y-129987820D01*
X141118180Y-127599167D01*
X141118180Y-127599165D01*
X141081123Y-127400930D01*
X141008272Y-127212878D01*
X140902107Y-127041416D01*
X140843256Y-126976859D01*
X140766245Y-126892381D01*
X140605307Y-126770847D01*
X140424783Y-126680956D01*
X140424780Y-126680955D01*
X140230809Y-126625766D01*
X140230806Y-126625765D01*
X140230804Y-126625765D01*
X140030001Y-126607158D01*
X140029999Y-126607158D01*
X139829195Y-126625765D01*
X139635221Y-126680954D01*
X139635220Y-126680955D01*
X139498864Y-126748851D01*
X139442184Y-126761842D01*
X136725682Y-126730973D01*
X136658871Y-126710528D01*
X136616864Y-126660921D01*
X136615809Y-126661451D01*
X136613444Y-126656745D01*
X136613439Y-126656731D01*
X136525608Y-126513618D01*
X136471171Y-126451614D01*
X136435014Y-126410430D01*
X136435013Y-126410429D01*
X136414825Y-126387435D01*
X136357039Y-126340683D01*
X136352174Y-126336747D01*
X141269500Y-126336747D01*
X141269500Y-126443253D01*
X141297066Y-126546131D01*
X141350320Y-126638369D01*
X141425631Y-126713680D01*
X141517869Y-126766934D01*
X141620747Y-126794500D01*
X141620749Y-126794500D01*
X141727251Y-126794500D01*
X141727253Y-126794500D01*
X141830131Y-126766934D01*
X141861999Y-126748534D01*
X141929898Y-126732061D01*
X141986000Y-126748534D01*
X142017869Y-126766934D01*
X142120747Y-126794500D01*
X142120749Y-126794500D01*
X142227251Y-126794500D01*
X142227253Y-126794500D01*
X142330131Y-126766934D01*
X142422369Y-126713680D01*
X142497680Y-126638369D01*
X142550934Y-126546131D01*
X142578500Y-126443253D01*
X142578500Y-126336747D01*
X142550934Y-126233869D01*
X142497680Y-126141631D01*
X142434905Y-126078856D01*
X144874500Y-126078856D01*
X144874500Y-126171144D01*
X144881157Y-126195989D01*
X144898387Y-126260290D01*
X144898388Y-126260293D01*
X144944526Y-126340205D01*
X144944529Y-126340209D01*
X144944531Y-126340212D01*
X145009788Y-126405469D01*
X145009791Y-126405470D01*
X145009794Y-126405473D01*
X145089706Y-126451611D01*
X145089707Y-126451611D01*
X145089712Y-126451614D01*
X145178856Y-126475500D01*
X145178858Y-126475500D01*
X145271142Y-126475500D01*
X145271144Y-126475500D01*
X145360288Y-126451614D01*
X145440212Y-126405469D01*
X145505469Y-126340212D01*
X145551614Y-126260288D01*
X145575500Y-126171144D01*
X145575500Y-126078856D01*
X145551614Y-125989712D01*
X145551611Y-125989706D01*
X145505473Y-125909794D01*
X145505470Y-125909791D01*
X145505469Y-125909788D01*
X145440212Y-125844531D01*
X145440209Y-125844529D01*
X145440205Y-125844526D01*
X145360293Y-125798388D01*
X145360290Y-125798387D01*
X145360289Y-125798386D01*
X145360288Y-125798386D01*
X145271144Y-125774500D01*
X145178856Y-125774500D01*
X145089712Y-125798386D01*
X145089711Y-125798386D01*
X145089709Y-125798387D01*
X145089706Y-125798388D01*
X145009794Y-125844526D01*
X145009785Y-125844533D01*
X144944533Y-125909785D01*
X144944526Y-125909794D01*
X144898388Y-125989706D01*
X144898387Y-125989709D01*
X144898386Y-125989711D01*
X144898386Y-125989712D01*
X144874500Y-126078856D01*
X142434905Y-126078856D01*
X142422369Y-126066320D01*
X142330131Y-126013066D01*
X142227253Y-125985500D01*
X142120747Y-125985500D01*
X142017869Y-126013066D01*
X142017868Y-126013066D01*
X142017866Y-126013067D01*
X142017865Y-126013067D01*
X141986000Y-126031465D01*
X141918100Y-126047938D01*
X141862000Y-126031465D01*
X141830134Y-126013067D01*
X141830131Y-126013066D01*
X141727253Y-125985500D01*
X141620747Y-125985500D01*
X141517868Y-126013066D01*
X141425631Y-126066320D01*
X141425628Y-126066322D01*
X141350322Y-126141628D01*
X141350320Y-126141631D01*
X141297066Y-126233868D01*
X141289986Y-126260293D01*
X141269500Y-126336747D01*
X136352174Y-126336747D01*
X136284283Y-126281819D01*
X136284281Y-126281818D01*
X136284280Y-126281817D01*
X136245807Y-126260288D01*
X136137751Y-126199821D01*
X135979455Y-126143804D01*
X135979452Y-126143803D01*
X135979451Y-126143803D01*
X135813962Y-126115384D01*
X135802160Y-126115382D01*
X135802154Y-126115382D01*
X135794298Y-126115380D01*
X135794270Y-126115373D01*
X135762152Y-126115373D01*
X135728077Y-126105359D01*
X135695141Y-126095688D01*
X135695131Y-126095677D01*
X135695117Y-126095673D01*
X135670762Y-126067553D01*
X135649386Y-126042884D01*
X135649382Y-126042869D01*
X135649374Y-126042859D01*
X135649361Y-126042770D01*
X135638180Y-125991373D01*
X135638180Y-124253191D01*
X137104500Y-124253191D01*
X137104500Y-124371809D01*
X137135201Y-124486386D01*
X137135202Y-124486389D01*
X137165000Y-124538000D01*
X137181473Y-124605900D01*
X137165000Y-124662000D01*
X137135202Y-124713610D01*
X137135201Y-124713614D01*
X137104500Y-124828191D01*
X137104500Y-124946809D01*
X137135201Y-125061386D01*
X137194511Y-125164113D01*
X137278387Y-125247989D01*
X137381114Y-125307299D01*
X137495691Y-125338000D01*
X137495694Y-125338000D01*
X137614306Y-125338000D01*
X137614309Y-125338000D01*
X137728886Y-125307299D01*
X137728888Y-125307297D01*
X137728890Y-125307297D01*
X137728891Y-125307296D01*
X137830499Y-125248631D01*
X137898399Y-125232158D01*
X137954501Y-125248632D01*
X138056108Y-125307296D01*
X138056109Y-125307297D01*
X138056111Y-125307297D01*
X138056114Y-125307299D01*
X138170691Y-125338000D01*
X138170694Y-125338000D01*
X138289306Y-125338000D01*
X138289309Y-125338000D01*
X138403886Y-125307299D01*
X138422488Y-125296559D01*
X142999015Y-125296559D01*
X142999015Y-125403065D01*
X143026581Y-125505943D01*
X143079835Y-125598181D01*
X143155146Y-125673492D01*
X143247384Y-125726746D01*
X143350262Y-125754312D01*
X143350264Y-125754312D01*
X143456766Y-125754312D01*
X143456768Y-125754312D01*
X143559646Y-125726746D01*
X143591514Y-125708346D01*
X143659413Y-125691873D01*
X143715515Y-125708346D01*
X143747384Y-125726746D01*
X143850262Y-125754312D01*
X143850264Y-125754312D01*
X143956766Y-125754312D01*
X143956768Y-125754312D01*
X144059646Y-125726746D01*
X144151884Y-125673492D01*
X144227195Y-125598181D01*
X144280449Y-125505943D01*
X144308015Y-125403065D01*
X144308015Y-125296559D01*
X144280449Y-125193681D01*
X144227195Y-125101443D01*
X144151884Y-125026132D01*
X144059646Y-124972878D01*
X143956768Y-124945312D01*
X143850262Y-124945312D01*
X143747384Y-124972878D01*
X143747383Y-124972878D01*
X143747381Y-124972879D01*
X143747380Y-124972879D01*
X143715515Y-124991277D01*
X143647615Y-125007750D01*
X143591515Y-124991277D01*
X143559649Y-124972879D01*
X143559646Y-124972878D01*
X143456768Y-124945312D01*
X143350262Y-124945312D01*
X143247383Y-124972878D01*
X143155146Y-125026132D01*
X143155143Y-125026134D01*
X143079837Y-125101440D01*
X143079835Y-125101443D01*
X143026581Y-125193680D01*
X143005625Y-125271889D01*
X142999015Y-125296559D01*
X138422488Y-125296559D01*
X138506613Y-125247989D01*
X138590489Y-125164113D01*
X138649799Y-125061386D01*
X138680500Y-124946809D01*
X138680500Y-124828191D01*
X138649799Y-124713614D01*
X138619999Y-124662000D01*
X138603526Y-124594102D01*
X138619999Y-124537999D01*
X138649799Y-124486386D01*
X138680500Y-124371809D01*
X138680500Y-124253191D01*
X138649799Y-124138614D01*
X138590489Y-124035887D01*
X138506613Y-123952011D01*
X138403886Y-123892701D01*
X138289309Y-123862000D01*
X138170691Y-123862000D01*
X138056114Y-123892701D01*
X138056112Y-123892701D01*
X138056112Y-123892702D01*
X137954501Y-123951368D01*
X137886600Y-123967841D01*
X137830499Y-123951368D01*
X137728886Y-123892701D01*
X137614309Y-123862000D01*
X137495691Y-123862000D01*
X137381114Y-123892701D01*
X137381112Y-123892701D01*
X137381112Y-123892702D01*
X137278387Y-123952011D01*
X137278384Y-123952013D01*
X137194513Y-124035884D01*
X137194511Y-124035887D01*
X137135201Y-124138614D01*
X137104500Y-124253191D01*
X135638180Y-124253191D01*
X135638180Y-121221747D01*
X145801100Y-121221747D01*
X145801100Y-121328253D01*
X145828666Y-121431131D01*
X145881920Y-121523369D01*
X145957231Y-121598680D01*
X146049469Y-121651934D01*
X146152347Y-121679500D01*
X146152349Y-121679500D01*
X146258851Y-121679500D01*
X146258853Y-121679500D01*
X146361731Y-121651934D01*
X146393599Y-121633534D01*
X146461498Y-121617061D01*
X146517600Y-121633534D01*
X146549469Y-121651934D01*
X146652347Y-121679500D01*
X146652349Y-121679500D01*
X146758851Y-121679500D01*
X146758853Y-121679500D01*
X146861731Y-121651934D01*
X146953969Y-121598680D01*
X147029280Y-121523369D01*
X147082534Y-121431131D01*
X147110100Y-121328253D01*
X147110100Y-121221747D01*
X148005100Y-121221747D01*
X148005100Y-121328253D01*
X148032666Y-121431131D01*
X148085920Y-121523369D01*
X148161231Y-121598680D01*
X148253469Y-121651934D01*
X148356347Y-121679500D01*
X148356349Y-121679500D01*
X148462851Y-121679500D01*
X148462853Y-121679500D01*
X148565731Y-121651934D01*
X148597599Y-121633534D01*
X148665498Y-121617061D01*
X148721600Y-121633534D01*
X148753469Y-121651934D01*
X148856347Y-121679500D01*
X148856349Y-121679500D01*
X148962851Y-121679500D01*
X148962853Y-121679500D01*
X149065731Y-121651934D01*
X149157969Y-121598680D01*
X149233280Y-121523369D01*
X149286534Y-121431131D01*
X149314100Y-121328253D01*
X149314100Y-121221747D01*
X149286534Y-121118869D01*
X149286531Y-121118865D01*
X149285953Y-121116705D01*
X149287202Y-121064235D01*
X150756496Y-121064235D01*
X150756496Y-121156523D01*
X150777689Y-121235618D01*
X150780383Y-121245669D01*
X150780384Y-121245672D01*
X150826522Y-121325584D01*
X150826525Y-121325588D01*
X150826527Y-121325591D01*
X150891784Y-121390848D01*
X150891787Y-121390849D01*
X150891790Y-121390852D01*
X150971702Y-121436990D01*
X150971703Y-121436990D01*
X150971708Y-121436993D01*
X151060852Y-121460879D01*
X151060854Y-121460879D01*
X151153138Y-121460879D01*
X151153140Y-121460879D01*
X151242284Y-121436993D01*
X151322208Y-121390848D01*
X151387465Y-121325591D01*
X151416386Y-121275500D01*
X151437675Y-121238628D01*
X151438981Y-121239382D01*
X151477115Y-121192047D01*
X151543406Y-121169973D01*
X151611108Y-121187242D01*
X151628290Y-121200588D01*
X151628342Y-121200522D01*
X151634785Y-121205466D01*
X151634788Y-121205469D01*
X151634791Y-121205470D01*
X151634794Y-121205473D01*
X151714706Y-121251611D01*
X151714707Y-121251611D01*
X151714712Y-121251614D01*
X151803856Y-121275500D01*
X151803858Y-121275500D01*
X151896142Y-121275500D01*
X151896144Y-121275500D01*
X151985288Y-121251614D01*
X152065212Y-121205469D01*
X152130469Y-121140212D01*
X152176614Y-121060288D01*
X152200500Y-120971144D01*
X152200500Y-120878856D01*
X152176614Y-120789712D01*
X152173181Y-120783766D01*
X152130473Y-120709794D01*
X152130470Y-120709791D01*
X152130469Y-120709788D01*
X152065212Y-120644531D01*
X152065209Y-120644529D01*
X152065205Y-120644526D01*
X151985293Y-120598388D01*
X151985290Y-120598387D01*
X151985289Y-120598386D01*
X151985288Y-120598386D01*
X151896144Y-120574500D01*
X151803856Y-120574500D01*
X151714712Y-120598386D01*
X151714711Y-120598386D01*
X151714709Y-120598387D01*
X151714706Y-120598388D01*
X151634794Y-120644526D01*
X151634785Y-120644533D01*
X151569533Y-120709785D01*
X151569526Y-120709794D01*
X151519321Y-120796751D01*
X151518017Y-120795998D01*
X151479862Y-120843344D01*
X151413567Y-120865406D01*
X151345868Y-120848125D01*
X151328704Y-120834791D01*
X151328654Y-120834857D01*
X151322201Y-120829905D01*
X151242289Y-120783767D01*
X151242286Y-120783766D01*
X151242285Y-120783765D01*
X151242284Y-120783765D01*
X151153140Y-120759879D01*
X151060852Y-120759879D01*
X150971708Y-120783765D01*
X150971707Y-120783765D01*
X150971705Y-120783766D01*
X150971702Y-120783767D01*
X150891790Y-120829905D01*
X150891781Y-120829912D01*
X150826529Y-120895164D01*
X150826522Y-120895173D01*
X150780384Y-120975085D01*
X150780383Y-120975088D01*
X150780382Y-120975090D01*
X150780382Y-120975091D01*
X150756496Y-121064235D01*
X149287202Y-121064235D01*
X149287616Y-121046855D01*
X149326778Y-120988992D01*
X149391006Y-120961488D01*
X149437820Y-120964836D01*
X149458956Y-120970500D01*
X149458958Y-120970500D01*
X149551242Y-120970500D01*
X149551244Y-120970500D01*
X149640388Y-120946614D01*
X149720312Y-120900469D01*
X149785569Y-120835212D01*
X149831714Y-120755288D01*
X149855600Y-120666144D01*
X149855600Y-120573856D01*
X149831714Y-120484712D01*
X149831711Y-120484706D01*
X149785573Y-120404794D01*
X149785570Y-120404791D01*
X149785569Y-120404788D01*
X149720312Y-120339531D01*
X149720309Y-120339529D01*
X149720305Y-120339526D01*
X149640393Y-120293388D01*
X149640390Y-120293387D01*
X149640389Y-120293386D01*
X149640388Y-120293386D01*
X149551244Y-120269500D01*
X149458956Y-120269500D01*
X149369812Y-120293386D01*
X149369811Y-120293386D01*
X149369809Y-120293387D01*
X149369806Y-120293388D01*
X149289894Y-120339526D01*
X149289885Y-120339533D01*
X149224633Y-120404785D01*
X149224626Y-120404794D01*
X149178488Y-120484706D01*
X149178487Y-120484709D01*
X149178486Y-120484711D01*
X149178486Y-120484712D01*
X149154600Y-120573856D01*
X149154600Y-120666144D01*
X149172836Y-120734205D01*
X149171174Y-120804053D01*
X149132012Y-120861916D01*
X149067783Y-120889420D01*
X149020969Y-120886072D01*
X149006143Y-120882099D01*
X148962853Y-120870500D01*
X148856347Y-120870500D01*
X148753469Y-120898066D01*
X148753468Y-120898066D01*
X148753466Y-120898067D01*
X148753465Y-120898067D01*
X148721600Y-120916465D01*
X148653700Y-120932938D01*
X148597600Y-120916465D01*
X148565734Y-120898067D01*
X148565731Y-120898066D01*
X148462853Y-120870500D01*
X148356347Y-120870500D01*
X148253468Y-120898066D01*
X148161231Y-120951320D01*
X148161228Y-120951322D01*
X148085922Y-121026628D01*
X148085920Y-121026631D01*
X148032666Y-121118868D01*
X148009462Y-121205466D01*
X148005100Y-121221747D01*
X147110100Y-121221747D01*
X147082534Y-121118869D01*
X147040934Y-121046817D01*
X147037248Y-121036754D01*
X147035633Y-121012159D01*
X147029821Y-120988201D01*
X147033384Y-120977904D01*
X147032671Y-120967034D01*
X147044610Y-120945469D01*
X147052673Y-120922174D01*
X147061318Y-120915292D01*
X147066514Y-120905908D01*
X147086898Y-120894931D01*
X147100988Y-120883715D01*
X147100590Y-120883025D01*
X147105201Y-120880362D01*
X147106246Y-120879531D01*
X147107616Y-120878963D01*
X147107629Y-120878960D01*
X147107639Y-120878953D01*
X147107644Y-120878952D01*
X147187546Y-120832819D01*
X147187545Y-120832819D01*
X147187553Y-120832815D01*
X147252810Y-120767558D01*
X147298955Y-120687634D01*
X147322841Y-120598490D01*
X147322841Y-120506202D01*
X147298955Y-120417058D01*
X147298952Y-120417052D01*
X147252814Y-120337140D01*
X147252811Y-120337137D01*
X147252810Y-120337134D01*
X147187553Y-120271877D01*
X147187550Y-120271875D01*
X147187546Y-120271872D01*
X147107634Y-120225734D01*
X147107631Y-120225733D01*
X147107630Y-120225732D01*
X147107629Y-120225732D01*
X147018485Y-120201846D01*
X146926197Y-120201846D01*
X146837053Y-120225732D01*
X146837052Y-120225732D01*
X146837050Y-120225733D01*
X146837047Y-120225734D01*
X146757135Y-120271872D01*
X146757126Y-120271879D01*
X146691874Y-120337131D01*
X146691867Y-120337140D01*
X146645729Y-120417052D01*
X146645728Y-120417055D01*
X146621841Y-120506202D01*
X146621841Y-120598489D01*
X146645727Y-120687635D01*
X146657247Y-120707588D01*
X146661221Y-120723972D01*
X146669882Y-120738435D01*
X146669287Y-120757219D01*
X146673719Y-120775488D01*
X146668204Y-120791420D01*
X146667671Y-120808270D01*
X146657013Y-120823752D01*
X146650866Y-120841515D01*
X146637350Y-120852319D01*
X146628055Y-120865823D01*
X146607026Y-120876559D01*
X146597775Y-120883955D01*
X146590044Y-120887193D01*
X146549469Y-120898066D01*
X146510783Y-120920401D01*
X146503516Y-120923446D01*
X146476308Y-120926482D01*
X146449700Y-120932938D01*
X146441098Y-120930412D01*
X146434077Y-120931196D01*
X146419982Y-120924211D01*
X146393600Y-120916465D01*
X146361734Y-120898067D01*
X146361731Y-120898066D01*
X146258853Y-120870500D01*
X146152347Y-120870500D01*
X146049468Y-120898066D01*
X145957231Y-120951320D01*
X145957228Y-120951322D01*
X145881922Y-121026628D01*
X145881920Y-121026631D01*
X145828666Y-121118868D01*
X145805462Y-121205466D01*
X145801100Y-121221747D01*
X135638180Y-121221747D01*
X135638180Y-120036276D01*
X143056920Y-120036276D01*
X143056920Y-120128563D01*
X143080807Y-120217710D01*
X143080808Y-120217713D01*
X143126946Y-120297625D01*
X143126949Y-120297629D01*
X143126951Y-120297632D01*
X143192208Y-120362889D01*
X143192211Y-120362890D01*
X143192214Y-120362893D01*
X143272126Y-120409031D01*
X143272127Y-120409031D01*
X143272132Y-120409034D01*
X143361276Y-120432920D01*
X143361278Y-120432920D01*
X143453562Y-120432920D01*
X143453564Y-120432920D01*
X143542708Y-120409034D01*
X143622632Y-120362889D01*
X143687889Y-120297632D01*
X143734034Y-120217708D01*
X143757920Y-120128564D01*
X143757920Y-120036276D01*
X143734034Y-119947132D01*
X143718809Y-119920762D01*
X143687893Y-119867214D01*
X143687890Y-119867211D01*
X143687889Y-119867208D01*
X143622632Y-119801951D01*
X143622629Y-119801949D01*
X143622625Y-119801946D01*
X143542713Y-119755808D01*
X143542710Y-119755807D01*
X143542709Y-119755806D01*
X143542708Y-119755806D01*
X143453564Y-119731920D01*
X143361276Y-119731920D01*
X143272132Y-119755806D01*
X143272131Y-119755806D01*
X143272129Y-119755807D01*
X143272126Y-119755808D01*
X143192214Y-119801946D01*
X143192205Y-119801953D01*
X143126953Y-119867205D01*
X143126946Y-119867214D01*
X143080808Y-119947126D01*
X143080807Y-119947129D01*
X143056920Y-120036276D01*
X135638180Y-120036276D01*
X135638180Y-119583856D01*
X137526648Y-119583856D01*
X137526648Y-119676144D01*
X137547993Y-119755806D01*
X137550535Y-119765290D01*
X137550536Y-119765293D01*
X137596674Y-119845205D01*
X137596677Y-119845209D01*
X137596679Y-119845212D01*
X137661936Y-119910469D01*
X137661939Y-119910470D01*
X137661942Y-119910473D01*
X137741854Y-119956611D01*
X137741855Y-119956611D01*
X137741860Y-119956614D01*
X137831004Y-119980500D01*
X137831006Y-119980500D01*
X137923290Y-119980500D01*
X137923292Y-119980500D01*
X138012436Y-119956614D01*
X138092360Y-119910469D01*
X138157617Y-119845212D01*
X138203762Y-119765288D01*
X138227648Y-119676144D01*
X138227648Y-119583856D01*
X138203762Y-119494712D01*
X138192670Y-119475500D01*
X138157621Y-119414794D01*
X138157618Y-119414791D01*
X138157617Y-119414788D01*
X138092360Y-119349531D01*
X138092357Y-119349529D01*
X138092353Y-119349526D01*
X138012441Y-119303388D01*
X138012438Y-119303387D01*
X138012437Y-119303386D01*
X138012436Y-119303386D01*
X137923292Y-119279500D01*
X137831004Y-119279500D01*
X137741860Y-119303386D01*
X137741859Y-119303386D01*
X137741857Y-119303387D01*
X137741854Y-119303388D01*
X137661942Y-119349526D01*
X137661933Y-119349533D01*
X137596681Y-119414785D01*
X137596674Y-119414794D01*
X137550536Y-119494706D01*
X137550535Y-119494709D01*
X137550534Y-119494711D01*
X137550534Y-119494712D01*
X137526648Y-119583856D01*
X135638180Y-119583856D01*
X135638180Y-117378856D01*
X142599500Y-117378856D01*
X142599500Y-117471144D01*
X142617234Y-117537330D01*
X142623387Y-117560290D01*
X142623388Y-117560293D01*
X142669526Y-117640205D01*
X142669529Y-117640209D01*
X142669531Y-117640212D01*
X142734788Y-117705469D01*
X142734791Y-117705470D01*
X142734794Y-117705473D01*
X142814706Y-117751611D01*
X142814707Y-117751611D01*
X142814712Y-117751614D01*
X142903856Y-117775500D01*
X142903858Y-117775500D01*
X142996142Y-117775500D01*
X142996144Y-117775500D01*
X143063171Y-117757540D01*
X143075167Y-117757825D01*
X143086416Y-117753630D01*
X143109453Y-117758641D01*
X143133019Y-117759202D01*
X143144665Y-117766300D01*
X143154689Y-117768481D01*
X143182944Y-117789631D01*
X143212593Y-117819280D01*
X143246078Y-117880601D01*
X143247852Y-117923141D01*
X143247100Y-117928854D01*
X143247100Y-117928856D01*
X143247100Y-118021144D01*
X143267196Y-118096144D01*
X143270987Y-118110290D01*
X143270988Y-118110293D01*
X143317126Y-118190205D01*
X143317129Y-118190209D01*
X143317131Y-118190212D01*
X143382388Y-118255469D01*
X143382390Y-118255470D01*
X143388837Y-118260417D01*
X143387841Y-118261714D01*
X143429486Y-118305390D01*
X143442710Y-118373997D01*
X143416742Y-118438862D01*
X143381273Y-118469597D01*
X143294791Y-118519529D01*
X143294785Y-118519533D01*
X143229533Y-118584785D01*
X143229526Y-118584794D01*
X143183388Y-118664706D01*
X143183387Y-118664709D01*
X143183386Y-118664711D01*
X143183386Y-118664712D01*
X143159500Y-118753856D01*
X143159500Y-118846144D01*
X143176553Y-118909788D01*
X143183387Y-118935290D01*
X143183388Y-118935293D01*
X143229526Y-119015205D01*
X143229529Y-119015209D01*
X143229531Y-119015212D01*
X143294788Y-119080469D01*
X143294791Y-119080470D01*
X143294794Y-119080473D01*
X143374706Y-119126611D01*
X143374707Y-119126611D01*
X143374712Y-119126614D01*
X143463856Y-119150500D01*
X143463858Y-119150500D01*
X143556142Y-119150500D01*
X143556144Y-119150500D01*
X143645288Y-119126614D01*
X143725212Y-119080469D01*
X143790469Y-119015212D01*
X143807938Y-118984956D01*
X144368400Y-118984956D01*
X144368400Y-119077244D01*
X144369263Y-119080466D01*
X144392287Y-119166390D01*
X144392288Y-119166393D01*
X144438426Y-119246305D01*
X144438429Y-119246309D01*
X144438431Y-119246312D01*
X144503688Y-119311569D01*
X144503691Y-119311570D01*
X144503694Y-119311573D01*
X144583606Y-119357711D01*
X144583607Y-119357711D01*
X144583612Y-119357714D01*
X144672756Y-119381600D01*
X144672758Y-119381600D01*
X144765042Y-119381600D01*
X144765044Y-119381600D01*
X144854188Y-119357714D01*
X144934112Y-119311569D01*
X144999369Y-119246312D01*
X145045514Y-119166388D01*
X145069400Y-119077244D01*
X145069400Y-118984956D01*
X145045514Y-118895812D01*
X145045513Y-118895811D01*
X145045513Y-118895809D01*
X145020063Y-118851731D01*
X145020062Y-118851729D01*
X144999369Y-118815888D01*
X144981337Y-118797856D01*
X146780100Y-118797856D01*
X146780100Y-118890144D01*
X146792198Y-118935295D01*
X146803987Y-118979290D01*
X146803988Y-118979293D01*
X146850126Y-119059205D01*
X146850129Y-119059209D01*
X146850131Y-119059212D01*
X146915388Y-119124469D01*
X146915391Y-119124470D01*
X146915394Y-119124473D01*
X146995306Y-119170611D01*
X146995307Y-119170611D01*
X146995312Y-119170614D01*
X147084456Y-119194500D01*
X147084458Y-119194500D01*
X147176742Y-119194500D01*
X147176744Y-119194500D01*
X147265888Y-119170614D01*
X147345812Y-119124469D01*
X147411069Y-119059212D01*
X147457214Y-118979288D01*
X147481100Y-118890144D01*
X147481100Y-118797856D01*
X147880100Y-118797856D01*
X147880100Y-118890144D01*
X147892198Y-118935295D01*
X147903987Y-118979290D01*
X147903988Y-118979293D01*
X147950126Y-119059205D01*
X147950129Y-119059209D01*
X147950131Y-119059212D01*
X148015388Y-119124469D01*
X148015391Y-119124470D01*
X148015394Y-119124473D01*
X148095306Y-119170611D01*
X148095307Y-119170611D01*
X148095312Y-119170614D01*
X148184456Y-119194500D01*
X148184458Y-119194500D01*
X148276742Y-119194500D01*
X148276744Y-119194500D01*
X148365888Y-119170614D01*
X148445812Y-119124469D01*
X148511069Y-119059212D01*
X148557214Y-118979288D01*
X148581100Y-118890144D01*
X148581100Y-118797856D01*
X148980100Y-118797856D01*
X148980100Y-118890144D01*
X148992198Y-118935295D01*
X149003987Y-118979290D01*
X149003988Y-118979293D01*
X149050126Y-119059205D01*
X149050129Y-119059209D01*
X149050131Y-119059212D01*
X149115388Y-119124469D01*
X149115391Y-119124470D01*
X149115394Y-119124473D01*
X149195306Y-119170611D01*
X149195307Y-119170611D01*
X149195312Y-119170614D01*
X149284456Y-119194500D01*
X149284458Y-119194500D01*
X149376742Y-119194500D01*
X149376744Y-119194500D01*
X149465888Y-119170614D01*
X149545812Y-119124469D01*
X149591425Y-119078856D01*
X151799500Y-119078856D01*
X151799500Y-119171144D01*
X151819641Y-119246312D01*
X151823387Y-119260290D01*
X151823388Y-119260293D01*
X151869526Y-119340205D01*
X151869529Y-119340209D01*
X151869531Y-119340212D01*
X151934788Y-119405469D01*
X151934791Y-119405470D01*
X151934794Y-119405473D01*
X152014706Y-119451611D01*
X152014707Y-119451611D01*
X152014712Y-119451614D01*
X152103856Y-119475500D01*
X152103858Y-119475500D01*
X152196142Y-119475500D01*
X152196144Y-119475500D01*
X152285288Y-119451614D01*
X152365212Y-119405469D01*
X152430469Y-119340212D01*
X152476614Y-119260288D01*
X152500500Y-119171144D01*
X152500500Y-119078856D01*
X152476614Y-118989712D01*
X152476611Y-118989706D01*
X152430473Y-118909794D01*
X152430470Y-118909791D01*
X152430469Y-118909788D01*
X152365212Y-118844531D01*
X152365209Y-118844529D01*
X152365205Y-118844526D01*
X152285293Y-118798388D01*
X152285290Y-118798387D01*
X152285289Y-118798386D01*
X152285288Y-118798386D01*
X152196144Y-118774500D01*
X152103856Y-118774500D01*
X152014712Y-118798386D01*
X152014711Y-118798386D01*
X152014709Y-118798387D01*
X152014706Y-118798388D01*
X151934794Y-118844526D01*
X151934785Y-118844533D01*
X151869533Y-118909785D01*
X151869526Y-118909794D01*
X151823388Y-118989706D01*
X151823387Y-118989709D01*
X151823386Y-118989711D01*
X151823386Y-118989712D01*
X151799500Y-119078856D01*
X149591425Y-119078856D01*
X149611069Y-119059212D01*
X149657214Y-118979288D01*
X149681100Y-118890144D01*
X149681100Y-118797856D01*
X149657214Y-118708712D01*
X149657211Y-118708706D01*
X149611073Y-118628794D01*
X149611070Y-118628791D01*
X149611069Y-118628788D01*
X149545812Y-118563531D01*
X149545809Y-118563529D01*
X149545805Y-118563526D01*
X149465893Y-118517388D01*
X149465890Y-118517387D01*
X149465889Y-118517386D01*
X149465888Y-118517386D01*
X149376744Y-118493500D01*
X149284456Y-118493500D01*
X149195312Y-118517386D01*
X149195311Y-118517386D01*
X149195309Y-118517387D01*
X149195306Y-118517388D01*
X149115394Y-118563526D01*
X149115385Y-118563533D01*
X149050133Y-118628785D01*
X149050126Y-118628794D01*
X149003988Y-118708706D01*
X149003987Y-118708709D01*
X149003986Y-118708711D01*
X149003986Y-118708712D01*
X148980100Y-118797856D01*
X148581100Y-118797856D01*
X148557214Y-118708712D01*
X148557211Y-118708706D01*
X148511073Y-118628794D01*
X148511070Y-118628791D01*
X148511069Y-118628788D01*
X148445812Y-118563531D01*
X148445809Y-118563529D01*
X148445805Y-118563526D01*
X148365893Y-118517388D01*
X148365890Y-118517387D01*
X148365889Y-118517386D01*
X148365888Y-118517386D01*
X148276744Y-118493500D01*
X148184456Y-118493500D01*
X148095312Y-118517386D01*
X148095311Y-118517386D01*
X148095309Y-118517387D01*
X148095306Y-118517388D01*
X148015394Y-118563526D01*
X148015385Y-118563533D01*
X147950133Y-118628785D01*
X147950126Y-118628794D01*
X147903988Y-118708706D01*
X147903987Y-118708709D01*
X147903986Y-118708711D01*
X147903986Y-118708712D01*
X147880100Y-118797856D01*
X147481100Y-118797856D01*
X147457214Y-118708712D01*
X147457211Y-118708706D01*
X147411073Y-118628794D01*
X147411070Y-118628791D01*
X147411069Y-118628788D01*
X147345812Y-118563531D01*
X147345809Y-118563529D01*
X147345805Y-118563526D01*
X147265893Y-118517388D01*
X147265890Y-118517387D01*
X147265889Y-118517386D01*
X147265888Y-118517386D01*
X147176744Y-118493500D01*
X147084456Y-118493500D01*
X146995312Y-118517386D01*
X146995311Y-118517386D01*
X146995309Y-118517387D01*
X146995306Y-118517388D01*
X146915394Y-118563526D01*
X146915385Y-118563533D01*
X146850133Y-118628785D01*
X146850126Y-118628794D01*
X146803988Y-118708706D01*
X146803987Y-118708709D01*
X146803986Y-118708711D01*
X146803986Y-118708712D01*
X146780100Y-118797856D01*
X144981337Y-118797856D01*
X144934112Y-118750631D01*
X144934109Y-118750629D01*
X144934105Y-118750626D01*
X144854193Y-118704488D01*
X144854190Y-118704487D01*
X144854189Y-118704486D01*
X144854188Y-118704486D01*
X144765044Y-118680600D01*
X144672756Y-118680600D01*
X144583612Y-118704486D01*
X144583611Y-118704486D01*
X144583609Y-118704487D01*
X144583606Y-118704488D01*
X144503694Y-118750626D01*
X144503685Y-118750633D01*
X144438433Y-118815885D01*
X144438426Y-118815894D01*
X144392288Y-118895806D01*
X144392287Y-118895809D01*
X144392286Y-118895811D01*
X144392286Y-118895812D01*
X144368400Y-118984956D01*
X143807938Y-118984956D01*
X143836614Y-118935288D01*
X143860500Y-118846144D01*
X143860500Y-118753856D01*
X143836614Y-118664712D01*
X143836611Y-118664706D01*
X143790473Y-118584794D01*
X143790470Y-118584791D01*
X143790469Y-118584788D01*
X143725212Y-118519531D01*
X143725209Y-118519529D01*
X143718763Y-118514583D01*
X143719758Y-118513286D01*
X143678110Y-118469603D01*
X143664890Y-118400996D01*
X143690861Y-118336132D01*
X143726328Y-118305401D01*
X143732886Y-118301614D01*
X143732888Y-118301614D01*
X143812812Y-118255469D01*
X143878069Y-118190212D01*
X143924214Y-118110288D01*
X143948100Y-118021144D01*
X143948100Y-118003856D01*
X145074500Y-118003856D01*
X145074500Y-118096144D01*
X145078291Y-118110293D01*
X145098387Y-118185290D01*
X145098388Y-118185293D01*
X145144526Y-118265205D01*
X145144529Y-118265209D01*
X145144531Y-118265212D01*
X145209788Y-118330469D01*
X145209791Y-118330470D01*
X145209794Y-118330473D01*
X145289706Y-118376611D01*
X145289707Y-118376611D01*
X145289712Y-118376614D01*
X145378856Y-118400500D01*
X145378858Y-118400500D01*
X145471142Y-118400500D01*
X145471144Y-118400500D01*
X145560288Y-118376614D01*
X145640212Y-118330469D01*
X145705469Y-118265212D01*
X145751614Y-118185288D01*
X145775500Y-118096144D01*
X145775500Y-118003856D01*
X145751614Y-117914712D01*
X145731920Y-117880601D01*
X145705473Y-117834794D01*
X145705470Y-117834791D01*
X145705469Y-117834788D01*
X145640212Y-117769531D01*
X145610025Y-117752102D01*
X145561812Y-117701536D01*
X145548590Y-117632929D01*
X145574558Y-117568065D01*
X145610024Y-117537331D01*
X145665212Y-117505469D01*
X145730469Y-117440212D01*
X145776614Y-117360288D01*
X145785036Y-117328856D01*
X153063100Y-117328856D01*
X153063100Y-117421144D01*
X153085694Y-117505468D01*
X153086987Y-117510290D01*
X153086988Y-117510293D01*
X153133126Y-117590205D01*
X153138078Y-117596658D01*
X153136149Y-117598137D01*
X153163727Y-117648663D01*
X153158730Y-117718354D01*
X153136850Y-117752400D01*
X153138078Y-117753342D01*
X153133126Y-117759794D01*
X153086988Y-117839706D01*
X153086987Y-117839709D01*
X153086986Y-117839711D01*
X153086986Y-117839712D01*
X153063100Y-117928856D01*
X153063100Y-118021144D01*
X153083196Y-118096144D01*
X153086987Y-118110290D01*
X153086988Y-118110293D01*
X153133126Y-118190205D01*
X153133129Y-118190209D01*
X153133131Y-118190212D01*
X153198388Y-118255469D01*
X153198391Y-118255470D01*
X153198394Y-118255473D01*
X153278306Y-118301611D01*
X153278307Y-118301611D01*
X153278312Y-118301614D01*
X153367456Y-118325500D01*
X153367458Y-118325500D01*
X153459742Y-118325500D01*
X153459744Y-118325500D01*
X153548888Y-118301614D01*
X153628812Y-118255469D01*
X153694069Y-118190212D01*
X153740214Y-118110288D01*
X153764100Y-118021144D01*
X153764100Y-117928856D01*
X153740214Y-117839712D01*
X153737375Y-117834794D01*
X153694073Y-117759794D01*
X153694070Y-117759791D01*
X153694069Y-117759788D01*
X153694066Y-117759785D01*
X153689122Y-117753342D01*
X153691053Y-117751860D01*
X153663477Y-117701358D01*
X153668461Y-117631666D01*
X153690352Y-117597602D01*
X153689122Y-117596658D01*
X153694063Y-117590217D01*
X153694069Y-117590212D01*
X153740214Y-117510288D01*
X153764100Y-117421144D01*
X153764100Y-117328856D01*
X153740214Y-117239712D01*
X153734880Y-117230473D01*
X153694073Y-117159794D01*
X153694070Y-117159791D01*
X153694069Y-117159788D01*
X153628812Y-117094531D01*
X153628809Y-117094529D01*
X153628805Y-117094526D01*
X153548893Y-117048388D01*
X153548890Y-117048387D01*
X153548889Y-117048386D01*
X153548888Y-117048386D01*
X153459744Y-117024500D01*
X153367456Y-117024500D01*
X153278312Y-117048386D01*
X153278311Y-117048386D01*
X153278309Y-117048387D01*
X153278306Y-117048388D01*
X153198394Y-117094526D01*
X153198385Y-117094533D01*
X153133133Y-117159785D01*
X153133126Y-117159794D01*
X153086988Y-117239706D01*
X153086987Y-117239709D01*
X153086986Y-117239711D01*
X153086986Y-117239712D01*
X153063100Y-117328856D01*
X145785036Y-117328856D01*
X145800500Y-117271144D01*
X145800500Y-117178856D01*
X145776614Y-117089712D01*
X145774060Y-117085288D01*
X145730473Y-117009794D01*
X145730470Y-117009791D01*
X145730469Y-117009788D01*
X145720250Y-116999569D01*
X145705057Y-116971745D01*
X145688372Y-116944776D01*
X145688431Y-116941298D01*
X145686765Y-116938246D01*
X145689026Y-116906617D01*
X145689073Y-116903856D01*
X151424100Y-116903856D01*
X151424100Y-116996144D01*
X151445095Y-117074500D01*
X151447987Y-117085290D01*
X151447988Y-117085293D01*
X151494126Y-117165205D01*
X151494129Y-117165209D01*
X151494131Y-117165212D01*
X151559388Y-117230469D01*
X151559391Y-117230470D01*
X151559394Y-117230473D01*
X151639306Y-117276611D01*
X151639307Y-117276611D01*
X151639312Y-117276614D01*
X151728456Y-117300500D01*
X151728458Y-117300500D01*
X151820742Y-117300500D01*
X151820744Y-117300500D01*
X151909888Y-117276614D01*
X151989812Y-117230469D01*
X152055069Y-117165212D01*
X152101214Y-117085288D01*
X152125100Y-116996144D01*
X152125100Y-116903856D01*
X152101214Y-116814712D01*
X152066908Y-116755293D01*
X152055073Y-116734794D01*
X152055070Y-116734791D01*
X152055069Y-116734788D01*
X151989812Y-116669531D01*
X151989809Y-116669529D01*
X151989805Y-116669526D01*
X151909893Y-116623388D01*
X151909890Y-116623387D01*
X151909889Y-116623386D01*
X151909888Y-116623386D01*
X151820744Y-116599500D01*
X151728456Y-116599500D01*
X151639312Y-116623386D01*
X151639311Y-116623386D01*
X151639309Y-116623387D01*
X151639306Y-116623388D01*
X151559394Y-116669526D01*
X151559385Y-116669533D01*
X151494133Y-116734785D01*
X151494126Y-116734794D01*
X151447988Y-116814706D01*
X151447987Y-116814709D01*
X151447986Y-116814711D01*
X151447986Y-116814712D01*
X151424100Y-116903856D01*
X145689073Y-116903856D01*
X145689571Y-116874917D01*
X145691569Y-116871065D01*
X145691749Y-116868554D01*
X145704781Y-116843068D01*
X145709126Y-116836554D01*
X145710469Y-116835212D01*
X145756614Y-116755288D01*
X145780500Y-116666144D01*
X145780500Y-116573856D01*
X145756614Y-116484712D01*
X145739733Y-116455473D01*
X145710473Y-116404794D01*
X145710470Y-116404791D01*
X145710469Y-116404788D01*
X145645212Y-116339531D01*
X145645209Y-116339529D01*
X145645205Y-116339526D01*
X145565293Y-116293388D01*
X145565290Y-116293387D01*
X145565289Y-116293386D01*
X145565288Y-116293386D01*
X145476144Y-116269500D01*
X145383856Y-116269500D01*
X145294712Y-116293386D01*
X145294711Y-116293386D01*
X145294709Y-116293387D01*
X145294706Y-116293388D01*
X145214794Y-116339526D01*
X145214785Y-116339533D01*
X145149533Y-116404785D01*
X145149526Y-116404794D01*
X145103388Y-116484706D01*
X145103387Y-116484709D01*
X145103386Y-116484711D01*
X145103386Y-116484712D01*
X145079500Y-116573856D01*
X145079500Y-116666144D01*
X145097892Y-116734785D01*
X145103387Y-116755290D01*
X145103388Y-116755293D01*
X145149526Y-116835205D01*
X145149533Y-116835214D01*
X145159749Y-116845430D01*
X145193234Y-116906753D01*
X145188250Y-116976445D01*
X145170449Y-117008591D01*
X145169530Y-117009788D01*
X145123388Y-117089706D01*
X145123387Y-117089709D01*
X145123386Y-117089711D01*
X145123386Y-117089712D01*
X145099500Y-117178856D01*
X145099500Y-117271144D01*
X145117311Y-117337617D01*
X145123387Y-117360290D01*
X145123388Y-117360293D01*
X145169526Y-117440205D01*
X145169529Y-117440209D01*
X145169531Y-117440212D01*
X145234788Y-117505469D01*
X145264972Y-117522896D01*
X145313186Y-117573462D01*
X145326410Y-117642069D01*
X145300442Y-117706933D01*
X145264974Y-117737668D01*
X145209788Y-117769531D01*
X145209785Y-117769533D01*
X145144533Y-117834785D01*
X145144526Y-117834794D01*
X145098388Y-117914706D01*
X145098387Y-117914709D01*
X145098386Y-117914711D01*
X145098386Y-117914712D01*
X145074500Y-118003856D01*
X143948100Y-118003856D01*
X143948100Y-117928856D01*
X143924214Y-117839712D01*
X143921375Y-117834794D01*
X143878073Y-117759794D01*
X143878070Y-117759791D01*
X143878069Y-117759788D01*
X143826823Y-117708542D01*
X143793338Y-117647219D01*
X143791565Y-117604671D01*
X143792315Y-117598973D01*
X143792317Y-117598967D01*
X143792317Y-117506679D01*
X143768431Y-117417535D01*
X143768428Y-117417529D01*
X143722290Y-117337617D01*
X143722287Y-117337614D01*
X143722286Y-117337611D01*
X143657029Y-117272354D01*
X143657026Y-117272352D01*
X143657022Y-117272349D01*
X143577110Y-117226211D01*
X143577107Y-117226210D01*
X143577106Y-117226209D01*
X143577105Y-117226209D01*
X143487961Y-117202323D01*
X143395673Y-117202323D01*
X143328645Y-117220283D01*
X143258795Y-117218620D01*
X143208872Y-117188190D01*
X143165215Y-117144534D01*
X143165214Y-117144533D01*
X143165212Y-117144531D01*
X143165209Y-117144529D01*
X143165205Y-117144526D01*
X143085293Y-117098388D01*
X143085290Y-117098387D01*
X143085289Y-117098386D01*
X143085288Y-117098386D01*
X142996144Y-117074500D01*
X142903856Y-117074500D01*
X142814712Y-117098386D01*
X142814711Y-117098386D01*
X142814709Y-117098387D01*
X142814706Y-117098388D01*
X142734794Y-117144526D01*
X142734785Y-117144533D01*
X142669533Y-117209785D01*
X142669526Y-117209794D01*
X142623388Y-117289706D01*
X142623387Y-117289709D01*
X142623386Y-117289711D01*
X142623386Y-117289712D01*
X142599500Y-117378856D01*
X135638180Y-117378856D01*
X135638180Y-113603856D01*
X142686900Y-113603856D01*
X142686900Y-113696143D01*
X142710787Y-113785290D01*
X142710788Y-113785293D01*
X142743528Y-113841999D01*
X142760002Y-113909899D01*
X142743528Y-113966001D01*
X142710788Y-114022706D01*
X142710787Y-114022709D01*
X142710787Y-114022710D01*
X142710786Y-114022712D01*
X142686900Y-114111856D01*
X142686900Y-114204144D01*
X142696430Y-114239712D01*
X142710787Y-114293290D01*
X142710787Y-114293291D01*
X142741219Y-114346000D01*
X142757692Y-114413900D01*
X142741219Y-114470000D01*
X142710787Y-114522708D01*
X142710787Y-114522709D01*
X142710786Y-114522711D01*
X142710786Y-114522712D01*
X142686900Y-114611856D01*
X142686900Y-114704144D01*
X142692622Y-114725500D01*
X142710787Y-114793290D01*
X142710788Y-114793293D01*
X142743528Y-114849999D01*
X142760002Y-114917899D01*
X142743528Y-114974001D01*
X142710788Y-115030706D01*
X142710787Y-115030709D01*
X142686900Y-115119856D01*
X142686900Y-115212143D01*
X142710787Y-115301290D01*
X142710788Y-115301293D01*
X142743528Y-115357999D01*
X142760002Y-115425899D01*
X142743528Y-115482001D01*
X142710788Y-115538706D01*
X142710787Y-115538709D01*
X142686900Y-115627856D01*
X142686900Y-115720143D01*
X142710787Y-115809290D01*
X142710788Y-115809293D01*
X142756926Y-115889205D01*
X142756929Y-115889209D01*
X142756931Y-115889212D01*
X142822188Y-115954469D01*
X142822189Y-115954470D01*
X142822191Y-115954471D01*
X142858270Y-115975302D01*
X142906485Y-116025870D01*
X142919706Y-116094478D01*
X142893737Y-116159342D01*
X142883950Y-116170369D01*
X142819530Y-116234789D01*
X142819526Y-116234794D01*
X142773388Y-116314706D01*
X142773387Y-116314709D01*
X142773386Y-116314711D01*
X142773386Y-116314712D01*
X142749500Y-116403856D01*
X142749500Y-116496144D01*
X142770323Y-116573858D01*
X142773387Y-116585290D01*
X142773388Y-116585293D01*
X142819526Y-116665205D01*
X142819529Y-116665209D01*
X142819531Y-116665212D01*
X142884788Y-116730469D01*
X142884791Y-116730470D01*
X142884794Y-116730473D01*
X142964706Y-116776611D01*
X142964707Y-116776611D01*
X142964712Y-116776614D01*
X143053856Y-116800500D01*
X143053858Y-116800500D01*
X143146142Y-116800500D01*
X143146144Y-116800500D01*
X143235288Y-116776614D01*
X143315212Y-116730469D01*
X143380469Y-116665212D01*
X143426087Y-116586199D01*
X143476653Y-116537986D01*
X143545261Y-116524764D01*
X143549664Y-116525264D01*
X143551456Y-116525500D01*
X143643742Y-116525500D01*
X143643744Y-116525500D01*
X143732888Y-116501614D01*
X143812812Y-116455469D01*
X143878069Y-116390212D01*
X143924214Y-116310288D01*
X143948100Y-116221144D01*
X143948100Y-116128856D01*
X153063100Y-116128856D01*
X153063100Y-116221144D01*
X153082457Y-116293387D01*
X153086987Y-116310290D01*
X153086988Y-116310293D01*
X153133126Y-116390205D01*
X153133129Y-116390209D01*
X153133131Y-116390212D01*
X153198388Y-116455469D01*
X153198391Y-116455470D01*
X153198394Y-116455473D01*
X153278306Y-116501611D01*
X153278307Y-116501611D01*
X153278312Y-116501614D01*
X153367456Y-116525500D01*
X153367458Y-116525500D01*
X153459742Y-116525500D01*
X153459744Y-116525500D01*
X153548888Y-116501614D01*
X153628812Y-116455469D01*
X153694069Y-116390212D01*
X153740214Y-116310288D01*
X153764100Y-116221144D01*
X153764100Y-116128856D01*
X153740214Y-116039712D01*
X153740211Y-116039706D01*
X153694073Y-115959794D01*
X153694070Y-115959791D01*
X153694069Y-115959788D01*
X153628812Y-115894531D01*
X153628809Y-115894529D01*
X153628805Y-115894526D01*
X153548893Y-115848388D01*
X153548890Y-115848387D01*
X153548889Y-115848386D01*
X153548888Y-115848386D01*
X153459744Y-115824500D01*
X153367456Y-115824500D01*
X153278312Y-115848386D01*
X153278311Y-115848386D01*
X153278309Y-115848387D01*
X153278306Y-115848388D01*
X153198394Y-115894526D01*
X153198385Y-115894533D01*
X153133133Y-115959785D01*
X153133126Y-115959794D01*
X153086988Y-116039706D01*
X153086987Y-116039709D01*
X153086986Y-116039711D01*
X153086986Y-116039712D01*
X153063100Y-116128856D01*
X143948100Y-116128856D01*
X143924214Y-116039712D01*
X143924211Y-116039706D01*
X143878073Y-115959794D01*
X143878070Y-115959791D01*
X143878069Y-115959788D01*
X143812812Y-115894531D01*
X143812809Y-115894529D01*
X143812805Y-115894526D01*
X143732893Y-115848388D01*
X143732890Y-115848387D01*
X143732889Y-115848386D01*
X143732888Y-115848386D01*
X143643744Y-115824500D01*
X143551456Y-115824500D01*
X143543991Y-115826499D01*
X143474143Y-115824837D01*
X143416281Y-115785674D01*
X143388777Y-115721445D01*
X143387900Y-115706725D01*
X143387900Y-115627858D01*
X143387900Y-115627856D01*
X143364014Y-115538712D01*
X143331270Y-115481999D01*
X143314797Y-115414103D01*
X143331271Y-115357999D01*
X143364014Y-115301288D01*
X143387900Y-115212144D01*
X143387900Y-115119856D01*
X143364014Y-115030712D01*
X143331270Y-114973999D01*
X143314797Y-114906103D01*
X143331271Y-114849999D01*
X143364014Y-114793288D01*
X143387900Y-114704144D01*
X143387900Y-114611856D01*
X143364014Y-114522712D01*
X143364013Y-114522711D01*
X143364013Y-114522709D01*
X143333581Y-114470002D01*
X143317107Y-114402102D01*
X143333581Y-114345998D01*
X143364013Y-114293290D01*
X143364014Y-114293288D01*
X143387900Y-114204144D01*
X143387900Y-114111856D01*
X143364014Y-114022712D01*
X143331270Y-113965999D01*
X143314797Y-113898103D01*
X143331271Y-113841999D01*
X143364014Y-113785288D01*
X143387900Y-113696144D01*
X143387900Y-113603856D01*
X145074500Y-113603856D01*
X145074500Y-113696143D01*
X145098387Y-113785290D01*
X145098388Y-113785293D01*
X145131128Y-113841999D01*
X145147602Y-113909899D01*
X145131128Y-113966001D01*
X145098388Y-114022706D01*
X145098387Y-114022709D01*
X145098387Y-114022710D01*
X145098386Y-114022712D01*
X145074500Y-114111856D01*
X145074500Y-114204144D01*
X145084030Y-114239712D01*
X145098387Y-114293290D01*
X145098387Y-114293291D01*
X145128819Y-114346000D01*
X145145292Y-114413900D01*
X145128819Y-114470000D01*
X145098387Y-114522708D01*
X145098387Y-114522709D01*
X145098386Y-114522711D01*
X145098386Y-114522712D01*
X145074500Y-114611856D01*
X145074500Y-114704144D01*
X145080222Y-114725500D01*
X145098387Y-114793290D01*
X145098388Y-114793293D01*
X145131128Y-114849999D01*
X145147602Y-114917899D01*
X145131128Y-114974001D01*
X145098388Y-115030706D01*
X145098387Y-115030709D01*
X145074500Y-115119856D01*
X145074500Y-115212143D01*
X145098387Y-115301290D01*
X145098388Y-115301293D01*
X145131128Y-115357999D01*
X145147602Y-115425899D01*
X145131128Y-115482001D01*
X145098388Y-115538706D01*
X145098387Y-115538709D01*
X145074500Y-115627856D01*
X145074500Y-115720143D01*
X145098387Y-115809290D01*
X145098388Y-115809293D01*
X145144526Y-115889205D01*
X145144529Y-115889209D01*
X145144531Y-115889212D01*
X145209788Y-115954469D01*
X145209791Y-115954470D01*
X145209794Y-115954473D01*
X145289706Y-116000611D01*
X145289707Y-116000611D01*
X145289712Y-116000614D01*
X145378856Y-116024500D01*
X145471144Y-116024500D01*
X145560288Y-116000614D01*
X145560290Y-116000612D01*
X145560292Y-116000612D01*
X145560293Y-116000611D01*
X145640205Y-115954473D01*
X145640204Y-115954473D01*
X145640212Y-115954469D01*
X145705469Y-115889212D01*
X145751614Y-115809288D01*
X145775500Y-115720144D01*
X145775500Y-115627856D01*
X145751614Y-115538712D01*
X145718870Y-115481999D01*
X145702397Y-115414103D01*
X145718871Y-115357999D01*
X145751614Y-115301288D01*
X145775500Y-115212144D01*
X145775500Y-115119856D01*
X145751614Y-115030712D01*
X145718870Y-114973999D01*
X145702397Y-114906103D01*
X145718871Y-114849999D01*
X145751614Y-114793288D01*
X145775500Y-114704144D01*
X145775500Y-114611856D01*
X145751614Y-114522712D01*
X145751613Y-114522711D01*
X145751613Y-114522709D01*
X145721181Y-114470002D01*
X145719169Y-114461712D01*
X145713840Y-114455051D01*
X145711055Y-114428268D01*
X145704707Y-114402102D01*
X145707308Y-114392226D01*
X145706615Y-114385556D01*
X145715228Y-114362162D01*
X145717878Y-114352107D01*
X145719438Y-114349016D01*
X145731078Y-114328856D01*
X153063100Y-114328856D01*
X153063100Y-114421144D01*
X153076191Y-114470002D01*
X153086987Y-114510290D01*
X153086988Y-114510293D01*
X153133126Y-114590205D01*
X153133129Y-114590209D01*
X153133131Y-114590212D01*
X153198388Y-114655469D01*
X153198391Y-114655470D01*
X153198394Y-114655473D01*
X153278306Y-114701611D01*
X153278307Y-114701611D01*
X153278312Y-114701614D01*
X153367456Y-114725500D01*
X153367458Y-114725500D01*
X153459742Y-114725500D01*
X153459744Y-114725500D01*
X153548888Y-114701614D01*
X153628812Y-114655469D01*
X153694069Y-114590212D01*
X153740214Y-114510288D01*
X153764100Y-114421144D01*
X153764100Y-114328856D01*
X153740214Y-114239712D01*
X153740211Y-114239706D01*
X153694073Y-114159794D01*
X153694070Y-114159791D01*
X153694069Y-114159788D01*
X153628812Y-114094531D01*
X153628809Y-114094529D01*
X153628805Y-114094526D01*
X153548893Y-114048388D01*
X153548890Y-114048387D01*
X153548889Y-114048386D01*
X153548888Y-114048386D01*
X153459744Y-114024500D01*
X153367456Y-114024500D01*
X153278312Y-114048386D01*
X153278311Y-114048386D01*
X153278309Y-114048387D01*
X153278306Y-114048388D01*
X153198394Y-114094526D01*
X153198385Y-114094533D01*
X153133133Y-114159785D01*
X153133126Y-114159794D01*
X153086988Y-114239706D01*
X153086987Y-114239709D01*
X153086986Y-114239711D01*
X153086986Y-114239712D01*
X153063100Y-114328856D01*
X145731078Y-114328856D01*
X145751614Y-114293288D01*
X145775500Y-114204144D01*
X145775500Y-114111856D01*
X145751614Y-114022712D01*
X145718870Y-113965999D01*
X145702397Y-113898103D01*
X145718871Y-113841999D01*
X145751614Y-113785288D01*
X145775500Y-113696144D01*
X145775500Y-113603856D01*
X145751614Y-113514712D01*
X145751611Y-113514706D01*
X145705473Y-113434794D01*
X145705470Y-113434791D01*
X145705469Y-113434788D01*
X145640212Y-113369531D01*
X145640209Y-113369529D01*
X145640205Y-113369526D01*
X145560293Y-113323388D01*
X145560290Y-113323387D01*
X145560289Y-113323386D01*
X145560288Y-113323386D01*
X145471144Y-113299500D01*
X145378856Y-113299500D01*
X145289712Y-113323386D01*
X145289711Y-113323386D01*
X145289709Y-113323387D01*
X145289706Y-113323388D01*
X145209794Y-113369526D01*
X145209785Y-113369533D01*
X145144533Y-113434785D01*
X145144526Y-113434794D01*
X145098388Y-113514706D01*
X145098387Y-113514709D01*
X145098386Y-113514711D01*
X145098386Y-113514712D01*
X145075667Y-113599500D01*
X145074500Y-113603856D01*
X143387900Y-113603856D01*
X143364014Y-113514712D01*
X143364011Y-113514706D01*
X143317873Y-113434794D01*
X143317870Y-113434791D01*
X143317869Y-113434788D01*
X143252612Y-113369531D01*
X143252609Y-113369529D01*
X143252605Y-113369526D01*
X143172693Y-113323388D01*
X143172690Y-113323387D01*
X143172689Y-113323386D01*
X143172688Y-113323386D01*
X143083544Y-113299500D01*
X142991256Y-113299500D01*
X142902112Y-113323386D01*
X142902111Y-113323386D01*
X142902109Y-113323387D01*
X142902106Y-113323388D01*
X142822194Y-113369526D01*
X142822185Y-113369533D01*
X142756933Y-113434785D01*
X142756926Y-113434794D01*
X142710788Y-113514706D01*
X142710787Y-113514709D01*
X142710786Y-113514711D01*
X142710786Y-113514712D01*
X142688067Y-113599500D01*
X142686900Y-113603856D01*
X135638180Y-113603856D01*
X135638180Y-111565691D01*
X136762500Y-111565691D01*
X136762500Y-111684309D01*
X136793201Y-111798886D01*
X136852511Y-111901613D01*
X136852513Y-111901615D01*
X136852514Y-111901616D01*
X136869218Y-111918321D01*
X136902702Y-111979645D01*
X136897716Y-112049336D01*
X136869218Y-112093679D01*
X136852514Y-112110383D01*
X136852511Y-112110387D01*
X136820474Y-112165877D01*
X136793201Y-112213114D01*
X136762500Y-112327691D01*
X136762500Y-112446309D01*
X136793201Y-112560886D01*
X136852511Y-112663613D01*
X136936387Y-112747489D01*
X137039114Y-112806799D01*
X137153691Y-112837500D01*
X137153694Y-112837500D01*
X137272306Y-112837500D01*
X137272309Y-112837500D01*
X137386886Y-112806799D01*
X137386888Y-112806797D01*
X137386890Y-112806797D01*
X137394400Y-112803687D01*
X137395206Y-112805633D01*
X137452229Y-112791791D01*
X137518260Y-112814633D01*
X137561459Y-112869547D01*
X137568111Y-112939099D01*
X137557595Y-112967302D01*
X137558313Y-112967600D01*
X137555202Y-112975109D01*
X137547776Y-113002823D01*
X137524500Y-113089691D01*
X137524500Y-113208309D01*
X137555201Y-113322886D01*
X137614511Y-113425613D01*
X137698387Y-113509489D01*
X137801114Y-113568799D01*
X137915691Y-113599500D01*
X137915694Y-113599500D01*
X138034306Y-113599500D01*
X138034309Y-113599500D01*
X138148886Y-113568799D01*
X138251613Y-113509489D01*
X138335489Y-113425613D01*
X138394799Y-113322886D01*
X138425500Y-113208309D01*
X138425500Y-113089691D01*
X138415898Y-113053856D01*
X151424100Y-113053856D01*
X151424100Y-113146144D01*
X151440756Y-113208306D01*
X151447987Y-113235290D01*
X151447988Y-113235293D01*
X151494126Y-113315205D01*
X151494129Y-113315209D01*
X151494131Y-113315212D01*
X151559388Y-113380469D01*
X151559391Y-113380470D01*
X151559394Y-113380473D01*
X151639306Y-113426611D01*
X151639307Y-113426611D01*
X151639312Y-113426614D01*
X151728456Y-113450500D01*
X151728458Y-113450500D01*
X151820742Y-113450500D01*
X151820744Y-113450500D01*
X151909888Y-113426614D01*
X151989812Y-113380469D01*
X152055069Y-113315212D01*
X152101214Y-113235288D01*
X152125100Y-113146144D01*
X152125100Y-113053856D01*
X152105004Y-112978856D01*
X153174500Y-112978856D01*
X153174500Y-113071144D01*
X153194596Y-113146144D01*
X153198387Y-113160290D01*
X153198388Y-113160293D01*
X153244526Y-113240205D01*
X153244529Y-113240209D01*
X153244531Y-113240212D01*
X153309788Y-113305469D01*
X153309791Y-113305470D01*
X153309794Y-113305473D01*
X153389706Y-113351611D01*
X153389707Y-113351611D01*
X153389712Y-113351614D01*
X153478856Y-113375500D01*
X153478858Y-113375500D01*
X153571142Y-113375500D01*
X153571144Y-113375500D01*
X153660288Y-113351614D01*
X153740212Y-113305469D01*
X153805469Y-113240212D01*
X153851614Y-113160288D01*
X153875500Y-113071144D01*
X153875500Y-112978856D01*
X153851614Y-112889712D01*
X153848775Y-112884794D01*
X153805473Y-112809794D01*
X153805470Y-112809791D01*
X153805469Y-112809788D01*
X153740212Y-112744531D01*
X153740209Y-112744529D01*
X153740205Y-112744526D01*
X153660293Y-112698388D01*
X153660290Y-112698387D01*
X153660289Y-112698386D01*
X153660288Y-112698386D01*
X153571144Y-112674500D01*
X153478856Y-112674500D01*
X153389712Y-112698386D01*
X153389711Y-112698386D01*
X153389709Y-112698387D01*
X153389706Y-112698388D01*
X153309794Y-112744526D01*
X153309785Y-112744533D01*
X153244533Y-112809785D01*
X153244526Y-112809794D01*
X153198388Y-112889706D01*
X153198387Y-112889709D01*
X153198386Y-112889711D01*
X153198386Y-112889712D01*
X153174500Y-112978856D01*
X152105004Y-112978856D01*
X152101214Y-112964712D01*
X152101211Y-112964706D01*
X152055073Y-112884794D01*
X152055070Y-112884791D01*
X152055069Y-112884788D01*
X151989812Y-112819531D01*
X151989809Y-112819529D01*
X151989805Y-112819526D01*
X151909893Y-112773388D01*
X151909890Y-112773387D01*
X151909889Y-112773386D01*
X151909888Y-112773386D01*
X151820744Y-112749500D01*
X151728456Y-112749500D01*
X151639312Y-112773386D01*
X151639311Y-112773386D01*
X151639309Y-112773387D01*
X151639306Y-112773388D01*
X151559394Y-112819526D01*
X151559385Y-112819533D01*
X151494133Y-112884785D01*
X151494126Y-112884794D01*
X151447988Y-112964706D01*
X151447987Y-112964709D01*
X151447986Y-112964711D01*
X151447986Y-112964712D01*
X151424100Y-113053856D01*
X138415898Y-113053856D01*
X138394799Y-112975114D01*
X138335489Y-112872387D01*
X138318783Y-112855681D01*
X138285298Y-112794358D01*
X138290282Y-112724666D01*
X138318783Y-112680319D01*
X138324602Y-112674500D01*
X138335489Y-112663613D01*
X138394799Y-112560886D01*
X138425500Y-112446309D01*
X138425500Y-112327691D01*
X138400357Y-112233856D01*
X145229500Y-112233856D01*
X145229500Y-112326144D01*
X145237622Y-112356457D01*
X145253387Y-112415290D01*
X145253388Y-112415293D01*
X145299526Y-112495205D01*
X145299529Y-112495209D01*
X145299531Y-112495212D01*
X145364788Y-112560469D01*
X145364791Y-112560470D01*
X145364794Y-112560473D01*
X145444706Y-112606611D01*
X145444707Y-112606611D01*
X145444712Y-112606614D01*
X145533856Y-112630500D01*
X145533858Y-112630500D01*
X145626142Y-112630500D01*
X145626144Y-112630500D01*
X145715288Y-112606614D01*
X145720780Y-112603442D01*
X145788678Y-112586968D01*
X145844783Y-112603440D01*
X145895312Y-112632614D01*
X145984456Y-112656500D01*
X145984458Y-112656500D01*
X146076742Y-112656500D01*
X146076744Y-112656500D01*
X146165888Y-112632614D01*
X146187174Y-112620324D01*
X146243599Y-112587747D01*
X146311498Y-112571273D01*
X146367601Y-112587747D01*
X146445306Y-112632611D01*
X146445307Y-112632611D01*
X146445312Y-112632614D01*
X146534456Y-112656500D01*
X146534458Y-112656500D01*
X146626742Y-112656500D01*
X146626744Y-112656500D01*
X146715888Y-112632614D01*
X146737174Y-112620324D01*
X146793599Y-112587747D01*
X146861498Y-112571273D01*
X146917601Y-112587747D01*
X146995306Y-112632611D01*
X146995307Y-112632611D01*
X146995312Y-112632614D01*
X147084456Y-112656500D01*
X147084458Y-112656500D01*
X147176742Y-112656500D01*
X147176744Y-112656500D01*
X147265888Y-112632614D01*
X147345812Y-112586469D01*
X147411069Y-112521212D01*
X147457214Y-112441288D01*
X147481100Y-112352144D01*
X147481100Y-112259856D01*
X147880100Y-112259856D01*
X147880100Y-112352144D01*
X147897019Y-112415288D01*
X147903987Y-112441290D01*
X147903988Y-112441293D01*
X147950126Y-112521205D01*
X147950129Y-112521209D01*
X147950131Y-112521212D01*
X148015388Y-112586469D01*
X148015391Y-112586470D01*
X148015394Y-112586473D01*
X148095306Y-112632611D01*
X148095307Y-112632611D01*
X148095312Y-112632614D01*
X148184456Y-112656500D01*
X148184458Y-112656500D01*
X148276742Y-112656500D01*
X148276744Y-112656500D01*
X148365888Y-112632614D01*
X148445812Y-112586469D01*
X148511069Y-112521212D01*
X148518835Y-112507760D01*
X148569400Y-112459545D01*
X148638007Y-112446321D01*
X148702872Y-112472288D01*
X148743401Y-112529201D01*
X148749160Y-112553564D01*
X148749499Y-112556140D01*
X148749500Y-112556142D01*
X148749500Y-112556144D01*
X148769989Y-112632612D01*
X148773387Y-112645290D01*
X148773388Y-112645293D01*
X148819526Y-112725205D01*
X148819529Y-112725209D01*
X148819531Y-112725212D01*
X148884788Y-112790469D01*
X148884791Y-112790470D01*
X148884794Y-112790473D01*
X148964706Y-112836611D01*
X148964707Y-112836611D01*
X148964712Y-112836614D01*
X149053856Y-112860500D01*
X149053858Y-112860500D01*
X149146142Y-112860500D01*
X149146144Y-112860500D01*
X149235288Y-112836614D01*
X149315212Y-112790469D01*
X149380469Y-112725212D01*
X149426614Y-112645288D01*
X149450500Y-112556144D01*
X149450500Y-112463856D01*
X149426614Y-112374712D01*
X149416503Y-112357199D01*
X149380473Y-112294794D01*
X149380470Y-112294791D01*
X149380469Y-112294788D01*
X149315212Y-112229531D01*
X149315209Y-112229529D01*
X149315205Y-112229526D01*
X149235293Y-112183388D01*
X149235290Y-112183387D01*
X149235289Y-112183386D01*
X149235288Y-112183386D01*
X149146144Y-112159500D01*
X149053856Y-112159500D01*
X148964712Y-112183386D01*
X148964711Y-112183386D01*
X148964709Y-112183387D01*
X148964706Y-112183388D01*
X148884794Y-112229526D01*
X148884785Y-112229533D01*
X148819533Y-112294785D01*
X148819528Y-112294791D01*
X148811762Y-112308243D01*
X148761193Y-112356457D01*
X148692585Y-112369677D01*
X148627721Y-112343707D01*
X148587195Y-112286791D01*
X148581438Y-112262425D01*
X148581100Y-112259864D01*
X148581100Y-112259856D01*
X148557214Y-112170712D01*
X148557211Y-112170706D01*
X148511073Y-112090794D01*
X148511070Y-112090791D01*
X148511069Y-112090788D01*
X148445812Y-112025531D01*
X148445809Y-112025529D01*
X148445805Y-112025526D01*
X148374648Y-111984443D01*
X151649500Y-111984443D01*
X151649500Y-112076731D01*
X151667715Y-112144712D01*
X151673387Y-112165877D01*
X151673388Y-112165880D01*
X151719526Y-112245792D01*
X151719529Y-112245796D01*
X151719531Y-112245799D01*
X151784788Y-112311056D01*
X151784791Y-112311057D01*
X151784794Y-112311060D01*
X151864706Y-112357198D01*
X151864707Y-112357198D01*
X151864712Y-112357201D01*
X151953856Y-112381087D01*
X151953858Y-112381087D01*
X152046142Y-112381087D01*
X152046144Y-112381087D01*
X152135288Y-112357201D01*
X152215212Y-112311056D01*
X152280469Y-112245799D01*
X152326614Y-112165875D01*
X152350500Y-112076731D01*
X152350500Y-111984443D01*
X152326614Y-111895299D01*
X152326611Y-111895293D01*
X152280473Y-111815381D01*
X152280470Y-111815378D01*
X152280469Y-111815375D01*
X152215212Y-111750118D01*
X152215209Y-111750116D01*
X152215205Y-111750113D01*
X152135293Y-111703975D01*
X152135290Y-111703974D01*
X152135289Y-111703973D01*
X152135288Y-111703973D01*
X152046144Y-111680087D01*
X151953856Y-111680087D01*
X151864712Y-111703973D01*
X151864711Y-111703973D01*
X151864709Y-111703974D01*
X151864706Y-111703975D01*
X151784794Y-111750113D01*
X151784785Y-111750120D01*
X151719533Y-111815372D01*
X151719526Y-111815381D01*
X151673388Y-111895293D01*
X151673387Y-111895296D01*
X151673386Y-111895298D01*
X151673386Y-111895299D01*
X151649500Y-111984443D01*
X148374648Y-111984443D01*
X148365893Y-111979388D01*
X148365890Y-111979387D01*
X148365889Y-111979386D01*
X148365888Y-111979386D01*
X148276744Y-111955500D01*
X148184456Y-111955500D01*
X148095312Y-111979386D01*
X148095311Y-111979386D01*
X148095309Y-111979387D01*
X148095306Y-111979388D01*
X148015394Y-112025526D01*
X148015385Y-112025533D01*
X147950133Y-112090785D01*
X147950126Y-112090794D01*
X147903988Y-112170706D01*
X147903987Y-112170709D01*
X147903986Y-112170711D01*
X147903986Y-112170712D01*
X147880100Y-112259856D01*
X147481100Y-112259856D01*
X147457214Y-112170712D01*
X147457211Y-112170706D01*
X147411073Y-112090794D01*
X147411070Y-112090791D01*
X147411069Y-112090788D01*
X147345812Y-112025531D01*
X147345809Y-112025529D01*
X147345805Y-112025526D01*
X147265893Y-111979388D01*
X147265890Y-111979387D01*
X147265889Y-111979386D01*
X147265888Y-111979386D01*
X147176744Y-111955500D01*
X147084456Y-111955500D01*
X146995310Y-111979386D01*
X146917601Y-112024253D01*
X146849700Y-112040726D01*
X146793599Y-112024253D01*
X146715889Y-111979386D01*
X146653488Y-111962666D01*
X146626744Y-111955500D01*
X146534456Y-111955500D01*
X146445310Y-111979386D01*
X146367601Y-112024253D01*
X146299700Y-112040726D01*
X146243599Y-112024253D01*
X146165889Y-111979386D01*
X146103488Y-111962666D01*
X146076744Y-111955500D01*
X145984456Y-111955500D01*
X145895312Y-111979386D01*
X145895311Y-111979386D01*
X145895309Y-111979387D01*
X145895308Y-111979387D01*
X145889813Y-111982560D01*
X145821912Y-111999030D01*
X145765816Y-111982558D01*
X145715290Y-111953387D01*
X145715289Y-111953386D01*
X145715288Y-111953386D01*
X145626144Y-111929500D01*
X145533856Y-111929500D01*
X145444712Y-111953386D01*
X145444711Y-111953386D01*
X145444709Y-111953387D01*
X145444706Y-111953388D01*
X145364794Y-111999526D01*
X145364785Y-111999533D01*
X145299533Y-112064785D01*
X145299526Y-112064794D01*
X145253388Y-112144706D01*
X145253387Y-112144709D01*
X145253386Y-112144711D01*
X145253386Y-112144712D01*
X145229500Y-112233856D01*
X138400357Y-112233856D01*
X138394799Y-112213114D01*
X138335489Y-112110387D01*
X138318783Y-112093681D01*
X138285298Y-112032358D01*
X138290282Y-111962666D01*
X138318783Y-111918319D01*
X138335489Y-111901613D01*
X138394799Y-111798886D01*
X138425500Y-111684309D01*
X138425500Y-111565691D01*
X138394799Y-111451114D01*
X138335489Y-111348387D01*
X138251613Y-111264511D01*
X138148886Y-111205201D01*
X138034309Y-111174500D01*
X137915691Y-111174500D01*
X137801114Y-111205201D01*
X137801112Y-111205201D01*
X137801112Y-111205202D01*
X137698387Y-111264511D01*
X137698383Y-111264514D01*
X137681679Y-111281218D01*
X137620355Y-111314702D01*
X137550664Y-111309716D01*
X137506321Y-111281218D01*
X137489616Y-111264514D01*
X137489615Y-111264513D01*
X137489613Y-111264511D01*
X137386886Y-111205201D01*
X137272309Y-111174500D01*
X137153691Y-111174500D01*
X137039114Y-111205201D01*
X137039112Y-111205201D01*
X137039112Y-111205202D01*
X136936387Y-111264511D01*
X136936384Y-111264513D01*
X136852513Y-111348384D01*
X136852511Y-111348387D01*
X136793201Y-111451114D01*
X136762500Y-111565691D01*
X135638180Y-111565691D01*
X135638180Y-110620856D01*
X145155100Y-110620856D01*
X145155100Y-110713144D01*
X145162334Y-110740143D01*
X145178987Y-110802290D01*
X145178988Y-110802293D01*
X145225126Y-110882205D01*
X145225129Y-110882209D01*
X145225131Y-110882212D01*
X145290388Y-110947469D01*
X145290391Y-110947470D01*
X145290394Y-110947473D01*
X145370306Y-110993611D01*
X145370307Y-110993611D01*
X145370312Y-110993614D01*
X145459456Y-111017500D01*
X145459458Y-111017500D01*
X145551742Y-111017500D01*
X145551744Y-111017500D01*
X145640888Y-110993614D01*
X145720812Y-110947469D01*
X145784254Y-110884026D01*
X145845573Y-110850544D01*
X145915265Y-110855528D01*
X145962670Y-110890578D01*
X145963784Y-110889465D01*
X145969531Y-110895212D01*
X146034788Y-110960469D01*
X146034791Y-110960470D01*
X146034794Y-110960473D01*
X146114706Y-111006611D01*
X146114707Y-111006611D01*
X146114712Y-111006614D01*
X146203856Y-111030500D01*
X146203858Y-111030500D01*
X146296142Y-111030500D01*
X146296144Y-111030500D01*
X146385288Y-111006614D01*
X146465212Y-110960469D01*
X146530469Y-110895212D01*
X146576614Y-110815288D01*
X146600500Y-110726144D01*
X146600500Y-110633856D01*
X146597017Y-110620856D01*
X147555100Y-110620856D01*
X147555100Y-110713144D01*
X147562334Y-110740143D01*
X147578987Y-110802290D01*
X147578988Y-110802293D01*
X147625126Y-110882205D01*
X147625129Y-110882209D01*
X147625131Y-110882212D01*
X147690388Y-110947469D01*
X147690391Y-110947470D01*
X147690394Y-110947473D01*
X147770306Y-110993611D01*
X147770307Y-110993611D01*
X147770312Y-110993614D01*
X147859456Y-111017500D01*
X147859458Y-111017500D01*
X147951742Y-111017500D01*
X147951744Y-111017500D01*
X148040888Y-110993614D01*
X148120812Y-110947469D01*
X148186069Y-110882212D01*
X148232214Y-110802288D01*
X148256100Y-110713144D01*
X148256100Y-110620856D01*
X148232214Y-110531712D01*
X148208980Y-110491470D01*
X148186073Y-110451794D01*
X148186070Y-110451791D01*
X148186069Y-110451788D01*
X148120812Y-110386531D01*
X148120809Y-110386529D01*
X148120805Y-110386526D01*
X148086736Y-110366856D01*
X149355100Y-110366856D01*
X149355100Y-110459144D01*
X149378026Y-110544706D01*
X149378987Y-110548290D01*
X149378988Y-110548293D01*
X149425126Y-110628205D01*
X149425129Y-110628209D01*
X149425131Y-110628212D01*
X149490388Y-110693469D01*
X149490391Y-110693470D01*
X149490394Y-110693473D01*
X149570306Y-110739611D01*
X149570307Y-110739611D01*
X149570312Y-110739614D01*
X149659456Y-110763500D01*
X149659458Y-110763500D01*
X149751741Y-110763500D01*
X149751744Y-110763500D01*
X149840888Y-110739614D01*
X149840890Y-110739612D01*
X149845117Y-110738480D01*
X149914967Y-110740143D01*
X149964891Y-110770573D01*
X149994784Y-110800465D01*
X149994788Y-110800469D01*
X149994791Y-110800471D01*
X149994794Y-110800473D01*
X150074706Y-110846611D01*
X150074707Y-110846611D01*
X150074712Y-110846614D01*
X150163856Y-110870500D01*
X150163858Y-110870500D01*
X150256142Y-110870500D01*
X150256144Y-110870500D01*
X150345288Y-110846614D01*
X150425212Y-110800469D01*
X150490469Y-110735212D01*
X150536614Y-110655288D01*
X150560500Y-110566144D01*
X150560500Y-110473856D01*
X150536614Y-110384712D01*
X150518529Y-110353388D01*
X150490473Y-110304794D01*
X150490470Y-110304791D01*
X150490469Y-110304788D01*
X150425212Y-110239531D01*
X150425209Y-110239529D01*
X150425205Y-110239526D01*
X150345293Y-110193388D01*
X150345290Y-110193387D01*
X150345289Y-110193386D01*
X150345288Y-110193386D01*
X150256144Y-110169500D01*
X150163856Y-110169500D01*
X150074712Y-110193386D01*
X150074711Y-110193386D01*
X150070481Y-110194520D01*
X150000632Y-110192857D01*
X149950707Y-110162426D01*
X149920814Y-110132533D01*
X149920812Y-110132531D01*
X149920809Y-110132529D01*
X149920805Y-110132526D01*
X149840893Y-110086388D01*
X149840890Y-110086387D01*
X149840889Y-110086386D01*
X149840888Y-110086386D01*
X149751744Y-110062500D01*
X149659456Y-110062500D01*
X149570312Y-110086386D01*
X149570311Y-110086386D01*
X149570309Y-110086387D01*
X149570306Y-110086388D01*
X149490394Y-110132526D01*
X149490385Y-110132533D01*
X149425133Y-110197785D01*
X149425126Y-110197794D01*
X149378988Y-110277706D01*
X149378987Y-110277709D01*
X149378986Y-110277711D01*
X149378986Y-110277712D01*
X149355100Y-110366856D01*
X148086736Y-110366856D01*
X148040893Y-110340388D01*
X148040890Y-110340387D01*
X148040889Y-110340386D01*
X148040888Y-110340386D01*
X147951744Y-110316500D01*
X147859456Y-110316500D01*
X147770312Y-110340386D01*
X147770311Y-110340386D01*
X147770309Y-110340387D01*
X147770306Y-110340388D01*
X147690394Y-110386526D01*
X147690385Y-110386533D01*
X147625133Y-110451785D01*
X147625126Y-110451794D01*
X147578988Y-110531706D01*
X147578987Y-110531709D01*
X147578986Y-110531711D01*
X147578986Y-110531712D01*
X147555100Y-110620856D01*
X146597017Y-110620856D01*
X146576614Y-110544712D01*
X146576611Y-110544706D01*
X146530473Y-110464794D01*
X146530470Y-110464791D01*
X146530469Y-110464788D01*
X146465212Y-110399531D01*
X146465209Y-110399529D01*
X146465205Y-110399526D01*
X146385293Y-110353388D01*
X146385290Y-110353387D01*
X146385289Y-110353386D01*
X146385288Y-110353386D01*
X146296144Y-110329500D01*
X146203856Y-110329500D01*
X146114712Y-110353386D01*
X146114711Y-110353386D01*
X146114709Y-110353387D01*
X146114706Y-110353388D01*
X146034794Y-110399526D01*
X146034789Y-110399530D01*
X145971348Y-110462971D01*
X145910024Y-110496455D01*
X145840333Y-110491470D01*
X145792929Y-110456421D01*
X145791816Y-110457535D01*
X145720814Y-110386533D01*
X145720812Y-110386531D01*
X145720809Y-110386529D01*
X145720805Y-110386526D01*
X145640893Y-110340388D01*
X145640890Y-110340387D01*
X145640889Y-110340386D01*
X145640888Y-110340386D01*
X145551744Y-110316500D01*
X145459456Y-110316500D01*
X145370312Y-110340386D01*
X145370311Y-110340386D01*
X145370309Y-110340387D01*
X145370306Y-110340388D01*
X145290394Y-110386526D01*
X145290385Y-110386533D01*
X145225133Y-110451785D01*
X145225126Y-110451794D01*
X145178988Y-110531706D01*
X145178987Y-110531709D01*
X145178986Y-110531711D01*
X145178986Y-110531712D01*
X145155100Y-110620856D01*
X135638180Y-110620856D01*
X135638180Y-109653856D01*
X146899500Y-109653856D01*
X146899500Y-109746143D01*
X146923387Y-109835290D01*
X146923388Y-109835293D01*
X146969526Y-109915205D01*
X146969529Y-109915209D01*
X146969531Y-109915212D01*
X147034788Y-109980469D01*
X147034791Y-109980470D01*
X147034794Y-109980473D01*
X147114706Y-110026611D01*
X147114707Y-110026611D01*
X147114712Y-110026614D01*
X147203856Y-110050500D01*
X147203858Y-110050500D01*
X147296142Y-110050500D01*
X147296144Y-110050500D01*
X147385288Y-110026614D01*
X147465212Y-109980469D01*
X147530469Y-109915212D01*
X147576614Y-109835288D01*
X147600500Y-109746144D01*
X147600500Y-109653856D01*
X147576614Y-109564712D01*
X147570671Y-109554418D01*
X147554196Y-109486518D01*
X147577047Y-109420491D01*
X147631967Y-109377299D01*
X147701520Y-109370655D01*
X147760587Y-109401105D01*
X147760597Y-109401093D01*
X147760664Y-109401144D01*
X147763623Y-109402670D01*
X147765737Y-109404734D01*
X147767043Y-109406040D01*
X147767046Y-109406041D01*
X147767049Y-109406044D01*
X147846961Y-109452182D01*
X147846962Y-109452182D01*
X147846967Y-109452185D01*
X147936111Y-109476071D01*
X147936113Y-109476071D01*
X148028397Y-109476071D01*
X148028399Y-109476071D01*
X148117543Y-109452185D01*
X148197467Y-109406040D01*
X148262724Y-109340783D01*
X148308869Y-109260859D01*
X148332755Y-109171715D01*
X148332755Y-109079427D01*
X148308869Y-108990283D01*
X148308866Y-108990279D01*
X148308866Y-108990276D01*
X148302272Y-108978856D01*
X151924500Y-108978856D01*
X151924500Y-109071144D01*
X151942365Y-109137819D01*
X151948387Y-109160290D01*
X151948388Y-109160293D01*
X151994526Y-109240205D01*
X151994529Y-109240209D01*
X151994531Y-109240212D01*
X152059788Y-109305469D01*
X152059791Y-109305470D01*
X152059794Y-109305473D01*
X152139706Y-109351611D01*
X152139707Y-109351611D01*
X152139712Y-109351614D01*
X152228856Y-109375500D01*
X152228858Y-109375500D01*
X152321142Y-109375500D01*
X152321144Y-109375500D01*
X152410288Y-109351614D01*
X152490212Y-109305469D01*
X152555469Y-109240212D01*
X152601614Y-109160288D01*
X152625500Y-109071144D01*
X152625500Y-108978856D01*
X154424500Y-108978856D01*
X154424500Y-109071144D01*
X154442365Y-109137819D01*
X154448387Y-109160290D01*
X154448388Y-109160293D01*
X154494526Y-109240205D01*
X154494529Y-109240209D01*
X154494531Y-109240212D01*
X154559788Y-109305469D01*
X154559791Y-109305470D01*
X154559794Y-109305473D01*
X154639706Y-109351611D01*
X154639707Y-109351611D01*
X154639712Y-109351614D01*
X154728856Y-109375500D01*
X154728858Y-109375500D01*
X154821142Y-109375500D01*
X154821144Y-109375500D01*
X154910288Y-109351614D01*
X154990212Y-109305469D01*
X155055469Y-109240212D01*
X155101614Y-109160288D01*
X155125500Y-109071144D01*
X155125500Y-108978856D01*
X155101614Y-108889712D01*
X155101611Y-108889706D01*
X155055473Y-108809794D01*
X155055470Y-108809791D01*
X155055469Y-108809788D01*
X154990212Y-108744531D01*
X154990209Y-108744529D01*
X154990205Y-108744526D01*
X154910293Y-108698388D01*
X154910290Y-108698387D01*
X154910289Y-108698386D01*
X154910288Y-108698386D01*
X154821144Y-108674500D01*
X154728856Y-108674500D01*
X154639712Y-108698386D01*
X154639711Y-108698386D01*
X154639709Y-108698387D01*
X154639706Y-108698388D01*
X154559794Y-108744526D01*
X154559785Y-108744533D01*
X154494533Y-108809785D01*
X154494526Y-108809794D01*
X154448388Y-108889706D01*
X154448387Y-108889709D01*
X154448386Y-108889711D01*
X154448386Y-108889712D01*
X154424500Y-108978856D01*
X152625500Y-108978856D01*
X152601614Y-108889712D01*
X152601611Y-108889706D01*
X152555473Y-108809794D01*
X152555470Y-108809791D01*
X152555469Y-108809788D01*
X152490212Y-108744531D01*
X152490209Y-108744529D01*
X152490205Y-108744526D01*
X152410293Y-108698388D01*
X152410290Y-108698387D01*
X152410289Y-108698386D01*
X152410288Y-108698386D01*
X152321144Y-108674500D01*
X152228856Y-108674500D01*
X152139712Y-108698386D01*
X152139711Y-108698386D01*
X152139709Y-108698387D01*
X152139706Y-108698388D01*
X152059794Y-108744526D01*
X152059785Y-108744533D01*
X151994533Y-108809785D01*
X151994526Y-108809794D01*
X151948388Y-108889706D01*
X151948387Y-108889709D01*
X151948386Y-108889711D01*
X151948386Y-108889712D01*
X151924500Y-108978856D01*
X148302272Y-108978856D01*
X148262728Y-108910365D01*
X148262725Y-108910362D01*
X148262724Y-108910359D01*
X148197467Y-108845102D01*
X148197464Y-108845100D01*
X148197460Y-108845097D01*
X148117548Y-108798959D01*
X148117545Y-108798958D01*
X148117544Y-108798957D01*
X148117543Y-108798957D01*
X148028399Y-108775071D01*
X147997773Y-108775071D01*
X147930734Y-108755386D01*
X147890386Y-108713072D01*
X147873699Y-108684169D01*
X147808442Y-108618912D01*
X147786728Y-108606375D01*
X147737498Y-108577951D01*
X147689284Y-108527383D01*
X147675500Y-108470565D01*
X147675500Y-108378858D01*
X147675500Y-108378856D01*
X147651614Y-108289712D01*
X147651611Y-108289706D01*
X147605473Y-108209794D01*
X147605470Y-108209791D01*
X147605469Y-108209788D01*
X147540212Y-108144531D01*
X147540209Y-108144529D01*
X147540205Y-108144526D01*
X147460293Y-108098388D01*
X147460290Y-108098387D01*
X147460289Y-108098386D01*
X147460288Y-108098386D01*
X147371144Y-108074500D01*
X147278856Y-108074500D01*
X147189712Y-108098386D01*
X147189711Y-108098386D01*
X147189709Y-108098387D01*
X147189706Y-108098388D01*
X147109794Y-108144526D01*
X147109785Y-108144533D01*
X147044533Y-108209785D01*
X147044526Y-108209794D01*
X146998388Y-108289706D01*
X146998387Y-108289709D01*
X146998386Y-108289711D01*
X146998386Y-108289712D01*
X146974500Y-108378856D01*
X146974500Y-108471144D01*
X146996354Y-108552705D01*
X146998387Y-108560290D01*
X146998388Y-108560293D01*
X147044526Y-108640205D01*
X147044529Y-108640209D01*
X147044531Y-108640212D01*
X147109788Y-108705469D01*
X147180732Y-108746429D01*
X147228946Y-108796996D01*
X147242730Y-108853815D01*
X147242730Y-108945525D01*
X147258082Y-109002820D01*
X147266617Y-109034671D01*
X147266618Y-109034674D01*
X147312756Y-109114586D01*
X147312763Y-109114595D01*
X147335987Y-109137819D01*
X147369472Y-109199142D01*
X147364488Y-109268834D01*
X147322616Y-109324767D01*
X147257152Y-109349184D01*
X147248306Y-109349500D01*
X147203856Y-109349500D01*
X147114712Y-109373386D01*
X147114711Y-109373386D01*
X147114709Y-109373387D01*
X147114706Y-109373388D01*
X147034794Y-109419526D01*
X147034785Y-109419533D01*
X146969533Y-109484785D01*
X146969526Y-109484794D01*
X146923388Y-109564706D01*
X146923387Y-109564709D01*
X146899500Y-109653856D01*
X135638180Y-109653856D01*
X135638180Y-107078856D01*
X151924500Y-107078856D01*
X151924500Y-107171143D01*
X151948387Y-107260290D01*
X151948388Y-107260293D01*
X151994526Y-107340205D01*
X151994529Y-107340209D01*
X151994531Y-107340212D01*
X152059788Y-107405469D01*
X152059791Y-107405470D01*
X152059794Y-107405473D01*
X152139706Y-107451611D01*
X152139707Y-107451611D01*
X152139712Y-107451614D01*
X152228856Y-107475500D01*
X152228858Y-107475500D01*
X152321142Y-107475500D01*
X152321144Y-107475500D01*
X152410288Y-107451614D01*
X152490212Y-107405469D01*
X152555469Y-107340212D01*
X152601614Y-107260288D01*
X152625500Y-107171144D01*
X152625500Y-107078856D01*
X154424500Y-107078856D01*
X154424500Y-107171143D01*
X154448387Y-107260290D01*
X154448388Y-107260293D01*
X154494526Y-107340205D01*
X154494529Y-107340209D01*
X154494531Y-107340212D01*
X154559788Y-107405469D01*
X154559791Y-107405470D01*
X154559794Y-107405473D01*
X154639706Y-107451611D01*
X154639707Y-107451611D01*
X154639712Y-107451614D01*
X154728856Y-107475500D01*
X154728858Y-107475500D01*
X154821142Y-107475500D01*
X154821144Y-107475500D01*
X154910288Y-107451614D01*
X154990212Y-107405469D01*
X155055469Y-107340212D01*
X155101614Y-107260288D01*
X155125500Y-107171144D01*
X155125500Y-107078856D01*
X155101614Y-106989712D01*
X155101611Y-106989706D01*
X155055473Y-106909794D01*
X155055470Y-106909791D01*
X155055469Y-106909788D01*
X154990212Y-106844531D01*
X154990209Y-106844529D01*
X154990205Y-106844526D01*
X154910293Y-106798388D01*
X154910290Y-106798387D01*
X154910289Y-106798386D01*
X154910288Y-106798386D01*
X154821144Y-106774500D01*
X154728856Y-106774500D01*
X154639712Y-106798386D01*
X154639711Y-106798386D01*
X154639709Y-106798387D01*
X154639706Y-106798388D01*
X154559794Y-106844526D01*
X154559785Y-106844533D01*
X154494533Y-106909785D01*
X154494526Y-106909794D01*
X154448388Y-106989706D01*
X154448387Y-106989709D01*
X154424500Y-107078856D01*
X152625500Y-107078856D01*
X152601614Y-106989712D01*
X152601611Y-106989706D01*
X152555473Y-106909794D01*
X152555470Y-106909791D01*
X152555469Y-106909788D01*
X152490212Y-106844531D01*
X152490209Y-106844529D01*
X152490205Y-106844526D01*
X152410293Y-106798388D01*
X152410290Y-106798387D01*
X152410289Y-106798386D01*
X152410288Y-106798386D01*
X152321144Y-106774500D01*
X152228856Y-106774500D01*
X152139712Y-106798386D01*
X152139711Y-106798386D01*
X152139709Y-106798387D01*
X152139706Y-106798388D01*
X152059794Y-106844526D01*
X152059785Y-106844533D01*
X151994533Y-106909785D01*
X151994526Y-106909794D01*
X151948388Y-106989706D01*
X151948387Y-106989709D01*
X151924500Y-107078856D01*
X135638180Y-107078856D01*
X135638180Y-104453856D01*
X138739500Y-104453856D01*
X138739500Y-104546144D01*
X138763386Y-104635288D01*
X138771025Y-104648520D01*
X138774482Y-104671758D01*
X138771691Y-104691854D01*
X138773859Y-104712024D01*
X138766395Y-104737445D01*
X138763387Y-104744705D01*
X138739500Y-104833856D01*
X138739500Y-104926143D01*
X138763387Y-105015290D01*
X138763388Y-105015293D01*
X138809526Y-105095205D01*
X138809529Y-105095209D01*
X138809531Y-105095212D01*
X138874788Y-105160469D01*
X138874791Y-105160470D01*
X138874794Y-105160473D01*
X138954706Y-105206611D01*
X138954707Y-105206611D01*
X138954712Y-105206614D01*
X139043856Y-105230500D01*
X139043858Y-105230500D01*
X139136142Y-105230500D01*
X139136144Y-105230500D01*
X139225288Y-105206614D01*
X139225292Y-105206611D01*
X139232799Y-105203503D01*
X139233572Y-105205370D01*
X139290897Y-105191462D01*
X139336626Y-105204889D01*
X139337201Y-105203503D01*
X139344708Y-105206612D01*
X139344709Y-105206612D01*
X139344712Y-105206614D01*
X139433856Y-105230500D01*
X139433858Y-105230500D01*
X139526142Y-105230500D01*
X139526144Y-105230500D01*
X139615288Y-105206614D01*
X139695212Y-105160469D01*
X139760469Y-105095212D01*
X139806614Y-105015288D01*
X139830500Y-104926144D01*
X139830500Y-104833856D01*
X139806614Y-104744712D01*
X139806608Y-104744702D01*
X139803608Y-104737459D01*
X139796136Y-104667990D01*
X139803608Y-104642541D01*
X139806607Y-104635299D01*
X139806614Y-104635288D01*
X139830500Y-104546144D01*
X139830500Y-104453856D01*
X139806614Y-104364712D01*
X139806611Y-104364706D01*
X139760473Y-104284794D01*
X139760470Y-104284791D01*
X139760469Y-104284788D01*
X139695212Y-104219531D01*
X139695209Y-104219529D01*
X139695205Y-104219526D01*
X139615293Y-104173388D01*
X139615290Y-104173387D01*
X139615289Y-104173386D01*
X139615288Y-104173386D01*
X139526144Y-104149500D01*
X139433856Y-104149500D01*
X139344712Y-104173386D01*
X139344711Y-104173386D01*
X139344709Y-104173387D01*
X139337198Y-104176498D01*
X139336424Y-104174631D01*
X139279092Y-104188536D01*
X139233375Y-104175112D01*
X139232802Y-104176498D01*
X139225290Y-104173387D01*
X139225289Y-104173386D01*
X139225288Y-104173386D01*
X139136144Y-104149500D01*
X139043856Y-104149500D01*
X138954712Y-104173386D01*
X138954711Y-104173386D01*
X138954709Y-104173387D01*
X138954706Y-104173388D01*
X138874794Y-104219526D01*
X138874785Y-104219533D01*
X138809533Y-104284785D01*
X138809526Y-104284794D01*
X138763388Y-104364706D01*
X138763387Y-104364709D01*
X138763386Y-104364711D01*
X138763386Y-104364712D01*
X138739500Y-104453856D01*
X135638180Y-104453856D01*
X135638180Y-101153856D01*
X145549500Y-101153856D01*
X145549500Y-101246143D01*
X145573387Y-101335290D01*
X145573388Y-101335293D01*
X145619526Y-101415205D01*
X145619529Y-101415209D01*
X145619531Y-101415212D01*
X145684788Y-101480469D01*
X145684791Y-101480470D01*
X145684794Y-101480473D01*
X145764706Y-101526611D01*
X145764707Y-101526611D01*
X145764712Y-101526614D01*
X145853856Y-101550500D01*
X145853858Y-101550500D01*
X145946142Y-101550500D01*
X145946144Y-101550500D01*
X146035288Y-101526614D01*
X146115212Y-101480469D01*
X146180469Y-101415212D01*
X146226614Y-101335288D01*
X146250500Y-101246144D01*
X146250500Y-101153856D01*
X146226614Y-101064712D01*
X146226611Y-101064706D01*
X146180473Y-100984794D01*
X146180470Y-100984791D01*
X146180469Y-100984788D01*
X146115212Y-100919531D01*
X146115209Y-100919529D01*
X146115205Y-100919526D01*
X146035293Y-100873388D01*
X146035290Y-100873387D01*
X146035289Y-100873386D01*
X146035288Y-100873386D01*
X145946144Y-100849500D01*
X145853856Y-100849500D01*
X145764712Y-100873386D01*
X145764711Y-100873386D01*
X145764709Y-100873387D01*
X145764706Y-100873388D01*
X145684794Y-100919526D01*
X145684785Y-100919533D01*
X145619533Y-100984785D01*
X145619526Y-100984794D01*
X145573388Y-101064706D01*
X145573387Y-101064709D01*
X145549500Y-101153856D01*
X135638180Y-101153856D01*
X135638180Y-89416384D01*
X135657865Y-89349345D01*
X135710669Y-89303590D01*
X135762180Y-89292384D01*
X135817782Y-89292384D01*
X135817783Y-89292383D01*
X135950736Y-89265938D01*
X136075977Y-89214061D01*
X136188690Y-89138748D01*
X136284545Y-89042893D01*
X136359858Y-88930180D01*
X136385440Y-88868419D01*
X136429281Y-88814017D01*
X136495575Y-88791952D01*
X136563274Y-88809231D01*
X136610885Y-88860368D01*
X136614562Y-88868420D01*
X136640142Y-88930177D01*
X136715456Y-89042892D01*
X136715459Y-89042896D01*
X136811308Y-89138745D01*
X136811312Y-89138748D01*
X136924025Y-89214061D01*
X137049266Y-89265938D01*
X137182216Y-89292383D01*
X137182220Y-89292384D01*
X137182221Y-89292384D01*
X137317782Y-89292384D01*
X137317783Y-89292383D01*
X137450736Y-89265938D01*
X137575977Y-89214061D01*
X137688690Y-89138748D01*
X137784545Y-89042893D01*
X137859858Y-88930180D01*
X137885440Y-88868419D01*
X137929281Y-88814017D01*
X137995575Y-88791952D01*
X138063274Y-88809231D01*
X138110885Y-88860368D01*
X138114562Y-88868420D01*
X138140142Y-88930177D01*
X138215456Y-89042892D01*
X138215459Y-89042896D01*
X138311308Y-89138745D01*
X138311312Y-89138748D01*
X138424025Y-89214061D01*
X138549266Y-89265938D01*
X138682216Y-89292383D01*
X138682220Y-89292384D01*
X138682221Y-89292384D01*
X138817782Y-89292384D01*
X138817783Y-89292383D01*
X138950736Y-89265938D01*
X139075977Y-89214061D01*
X139188690Y-89138748D01*
X139284545Y-89042893D01*
X139359858Y-88930180D01*
X139385440Y-88868419D01*
X139429281Y-88814017D01*
X139495575Y-88791952D01*
X139563274Y-88809231D01*
X139610885Y-88860368D01*
X139614562Y-88868420D01*
X139640142Y-88930177D01*
X139715456Y-89042892D01*
X139715459Y-89042896D01*
X139811308Y-89138745D01*
X139811312Y-89138748D01*
X139924025Y-89214061D01*
X140049266Y-89265938D01*
X140182216Y-89292383D01*
X140182220Y-89292384D01*
X140182221Y-89292384D01*
X140317782Y-89292384D01*
X140317783Y-89292383D01*
X140450736Y-89265938D01*
X140575977Y-89214061D01*
X140688690Y-89138748D01*
X140784545Y-89042893D01*
X140859858Y-88930180D01*
X140885440Y-88868419D01*
X140929281Y-88814017D01*
X140995575Y-88791952D01*
X141063274Y-88809231D01*
X141110885Y-88860368D01*
X141114562Y-88868420D01*
X141140142Y-88930177D01*
X141215456Y-89042892D01*
X141215459Y-89042896D01*
X141311308Y-89138745D01*
X141311312Y-89138748D01*
X141424025Y-89214061D01*
X141549266Y-89265938D01*
X141682216Y-89292383D01*
X141682220Y-89292384D01*
X141682221Y-89292384D01*
X141817782Y-89292384D01*
X141817783Y-89292383D01*
X141950736Y-89265938D01*
X142075977Y-89214061D01*
X142188690Y-89138748D01*
X142284545Y-89042893D01*
X142359858Y-88930180D01*
X142385440Y-88868419D01*
X142429281Y-88814017D01*
X142495575Y-88791952D01*
X142563274Y-88809231D01*
X142610885Y-88860368D01*
X142614562Y-88868420D01*
X142640142Y-88930177D01*
X142715456Y-89042892D01*
X142715459Y-89042896D01*
X142811308Y-89138745D01*
X142811312Y-89138748D01*
X142924025Y-89214061D01*
X143049266Y-89265938D01*
X143182216Y-89292383D01*
X143182220Y-89292384D01*
X143182221Y-89292384D01*
X143317782Y-89292384D01*
X143317783Y-89292383D01*
X143450736Y-89265938D01*
X143575977Y-89214061D01*
X143688690Y-89138748D01*
X143784545Y-89042893D01*
X143859858Y-88930180D01*
X143911735Y-88804939D01*
X143921275Y-88756975D01*
X143953658Y-88695066D01*
X144014373Y-88660491D01*
X144084143Y-88664230D01*
X144140816Y-88705095D01*
X144165831Y-88764981D01*
X144195838Y-88992907D01*
X144263295Y-89244659D01*
X144363028Y-89485436D01*
X144363033Y-89485447D01*
X144493338Y-89711140D01*
X144493349Y-89711156D01*
X144651999Y-89917913D01*
X144652005Y-89917920D01*
X144836284Y-90102199D01*
X144836290Y-90102204D01*
X145043057Y-90260862D01*
X145043064Y-90260866D01*
X145268757Y-90391171D01*
X145268762Y-90391173D01*
X145268765Y-90391175D01*
X145509550Y-90490911D01*
X145761294Y-90558366D01*
X146019689Y-90592384D01*
X146019696Y-90592384D01*
X146280306Y-90592384D01*
X146280313Y-90592384D01*
X146538708Y-90558366D01*
X146790452Y-90490911D01*
X147031237Y-90391175D01*
X147256945Y-90260862D01*
X147463712Y-90102204D01*
X147648001Y-89917915D01*
X147806659Y-89711148D01*
X147936972Y-89485440D01*
X148036708Y-89244655D01*
X148104163Y-88992911D01*
X148134170Y-88764981D01*
X148140356Y-88750997D01*
X148141719Y-88735767D01*
X148154202Y-88719696D01*
X148162436Y-88701085D01*
X148175201Y-88692665D01*
X148184582Y-88680589D01*
X148203773Y-88673818D01*
X148220761Y-88662614D01*
X148236051Y-88662432D01*
X148250472Y-88657345D01*
X148270277Y-88662025D01*
G37*
%TD.AperFunction*%
%TA.AperFunction,Conductor*%
G36*
X152341482Y-93859492D02*
G01*
X152413890Y-93984908D01*
X152516292Y-94087310D01*
X152641708Y-94159718D01*
X152683765Y-94170987D01*
X151984893Y-94869858D01*
X151988641Y-94917470D01*
X151988641Y-94936928D01*
X151984893Y-94984540D01*
X152683766Y-95683412D01*
X152641708Y-95694682D01*
X152516292Y-95767090D01*
X152413890Y-95869492D01*
X152341482Y-95994908D01*
X152330212Y-96036966D01*
X151631340Y-95338094D01*
X151571084Y-95421030D01*
X151515005Y-95531092D01*
X151467030Y-95581888D01*
X151399209Y-95598683D01*
X151333074Y-95576145D01*
X151304203Y-95547683D01*
X151229694Y-95445133D01*
X151229690Y-95445127D01*
X151096073Y-95311510D01*
X150943199Y-95200440D01*
X150903947Y-95180440D01*
X150774836Y-95114654D01*
X150622420Y-95065131D01*
X150564745Y-95025693D01*
X150537547Y-94961334D01*
X150549462Y-94892488D01*
X150596706Y-94841012D01*
X150622420Y-94829269D01*
X150656671Y-94818140D01*
X150774832Y-94779747D01*
X150943199Y-94693960D01*
X151096073Y-94582890D01*
X151229690Y-94449273D01*
X151316182Y-94330226D01*
X151371511Y-94287562D01*
X151441124Y-94281583D01*
X151502919Y-94314189D01*
X151526984Y-94346818D01*
X151571087Y-94433374D01*
X151631338Y-94516304D01*
X151631340Y-94516305D01*
X152330212Y-93817433D01*
X152341482Y-93859492D01*
G37*
%TD.AperFunction*%
%TA.AperFunction,Conductor*%
G36*
X154076658Y-94516305D02*
G01*
X154076658Y-94516304D01*
X154136914Y-94433369D01*
X154136921Y-94433359D01*
X154178760Y-94351244D01*
X154226733Y-94300448D01*
X154294554Y-94283652D01*
X154360689Y-94306189D01*
X154389562Y-94334652D01*
X154454553Y-94424102D01*
X154458310Y-94429273D01*
X154591927Y-94562890D01*
X154744801Y-94673960D01*
X154819681Y-94712113D01*
X154913163Y-94759745D01*
X154913165Y-94759745D01*
X154913168Y-94759747D01*
X155002734Y-94788849D01*
X155034803Y-94799269D01*
X155092478Y-94838707D01*
X155119676Y-94903066D01*
X155107761Y-94971912D01*
X155060516Y-95023388D01*
X155034803Y-95035131D01*
X154913163Y-95074654D01*
X154744800Y-95160440D01*
X154717273Y-95180440D01*
X154591927Y-95271510D01*
X154591925Y-95271512D01*
X154591924Y-95271512D01*
X154458312Y-95405124D01*
X154458305Y-95405133D01*
X154383573Y-95507991D01*
X154328243Y-95550657D01*
X154258630Y-95556635D01*
X154196835Y-95524028D01*
X154172771Y-95491400D01*
X154136914Y-95421028D01*
X154076658Y-95338094D01*
X154076658Y-95338093D01*
X153377787Y-96036965D01*
X153366518Y-95994908D01*
X153294110Y-95869492D01*
X153191708Y-95767090D01*
X153066292Y-95694682D01*
X153024234Y-95683412D01*
X153723104Y-94984541D01*
X153719357Y-94936929D01*
X153719357Y-94917469D01*
X153723104Y-94869857D01*
X153024233Y-94170987D01*
X153066292Y-94159718D01*
X153191708Y-94087310D01*
X153294110Y-93984908D01*
X153366518Y-93859492D01*
X153377787Y-93817434D01*
X154076658Y-94516305D01*
G37*
%TD.AperFunction*%
%TA.AperFunction,Conductor*%
G36*
X144084143Y-70664230D02*
G01*
X144140816Y-70705095D01*
X144165831Y-70764981D01*
X144195838Y-70992907D01*
X144263295Y-71244659D01*
X144363028Y-71485436D01*
X144363033Y-71485447D01*
X144493338Y-71711140D01*
X144493349Y-71711156D01*
X144651999Y-71917913D01*
X144652005Y-71917920D01*
X144836284Y-72102199D01*
X144836290Y-72102204D01*
X145043057Y-72260862D01*
X145043064Y-72260866D01*
X145268757Y-72391171D01*
X145268762Y-72391173D01*
X145268765Y-72391175D01*
X145509550Y-72490911D01*
X145761294Y-72558366D01*
X146019689Y-72592384D01*
X146019696Y-72592384D01*
X146280306Y-72592384D01*
X146280313Y-72592384D01*
X146538708Y-72558366D01*
X146790452Y-72490911D01*
X147031237Y-72391175D01*
X147256945Y-72260862D01*
X147463712Y-72102204D01*
X147648001Y-71917915D01*
X147806659Y-71711148D01*
X147936972Y-71485440D01*
X148036708Y-71244655D01*
X148104163Y-70992911D01*
X148134170Y-70764981D01*
X148162436Y-70701085D01*
X148220761Y-70662614D01*
X148290625Y-70661783D01*
X148349849Y-70698855D01*
X148378726Y-70756976D01*
X148388265Y-70804931D01*
X148388267Y-70804939D01*
X148440142Y-70930177D01*
X148515456Y-71042892D01*
X148515459Y-71042896D01*
X148611308Y-71138745D01*
X148611312Y-71138748D01*
X148724025Y-71214061D01*
X148849266Y-71265938D01*
X148982216Y-71292383D01*
X148982220Y-71292384D01*
X148982221Y-71292384D01*
X149117782Y-71292384D01*
X149117783Y-71292383D01*
X149250736Y-71265938D01*
X149375977Y-71214061D01*
X149488690Y-71138748D01*
X149584545Y-71042893D01*
X149659858Y-70930180D01*
X149685440Y-70868419D01*
X149729281Y-70814017D01*
X149795575Y-70791952D01*
X149863274Y-70809231D01*
X149910885Y-70860368D01*
X149914562Y-70868420D01*
X149940142Y-70930177D01*
X150015456Y-71042892D01*
X150015459Y-71042896D01*
X150111308Y-71138745D01*
X150111312Y-71138748D01*
X150224025Y-71214061D01*
X150349266Y-71265938D01*
X150482216Y-71292383D01*
X150482220Y-71292384D01*
X150482221Y-71292384D01*
X150617782Y-71292384D01*
X150617783Y-71292383D01*
X150750736Y-71265938D01*
X150875977Y-71214061D01*
X150988690Y-71138748D01*
X151084545Y-71042893D01*
X151159858Y-70930180D01*
X151185440Y-70868419D01*
X151229281Y-70814017D01*
X151295575Y-70791952D01*
X151363274Y-70809231D01*
X151410885Y-70860368D01*
X151414562Y-70868420D01*
X151440142Y-70930177D01*
X151515456Y-71042892D01*
X151515459Y-71042896D01*
X151611308Y-71138745D01*
X151611312Y-71138748D01*
X151724025Y-71214061D01*
X151849266Y-71265938D01*
X151982216Y-71292383D01*
X151982220Y-71292384D01*
X151982221Y-71292384D01*
X152117782Y-71292384D01*
X152117783Y-71292383D01*
X152250736Y-71265938D01*
X152375977Y-71214061D01*
X152488690Y-71138748D01*
X152584545Y-71042893D01*
X152659858Y-70930180D01*
X152685440Y-70868419D01*
X152729281Y-70814017D01*
X152795575Y-70791952D01*
X152863274Y-70809231D01*
X152910885Y-70860368D01*
X152914562Y-70868420D01*
X152940142Y-70930177D01*
X153015456Y-71042892D01*
X153015459Y-71042896D01*
X153111308Y-71138745D01*
X153111312Y-71138748D01*
X153224025Y-71214061D01*
X153349266Y-71265938D01*
X153482216Y-71292383D01*
X153482220Y-71292384D01*
X153482221Y-71292384D01*
X153617782Y-71292384D01*
X153617783Y-71292383D01*
X153750736Y-71265938D01*
X153875977Y-71214061D01*
X153988690Y-71138748D01*
X154084545Y-71042893D01*
X154159858Y-70930180D01*
X154185440Y-70868419D01*
X154229281Y-70814017D01*
X154295575Y-70791952D01*
X154363274Y-70809231D01*
X154410885Y-70860368D01*
X154414562Y-70868420D01*
X154440142Y-70930177D01*
X154515456Y-71042892D01*
X154515459Y-71042896D01*
X154611308Y-71138745D01*
X154611312Y-71138748D01*
X154724025Y-71214061D01*
X154849266Y-71265938D01*
X154982216Y-71292383D01*
X154982220Y-71292384D01*
X154982221Y-71292384D01*
X155117782Y-71292384D01*
X155117783Y-71292383D01*
X155250736Y-71265938D01*
X155375977Y-71214061D01*
X155488690Y-71138748D01*
X155584545Y-71042893D01*
X155659858Y-70930180D01*
X155685440Y-70868419D01*
X155729281Y-70814017D01*
X155795575Y-70791952D01*
X155863274Y-70809231D01*
X155910885Y-70860368D01*
X155914562Y-70868420D01*
X155940142Y-70930177D01*
X156015456Y-71042892D01*
X156015459Y-71042896D01*
X156111308Y-71138745D01*
X156111312Y-71138748D01*
X156224025Y-71214061D01*
X156349266Y-71265938D01*
X156482216Y-71292383D01*
X156482220Y-71292384D01*
X156537820Y-71292384D01*
X156604859Y-71312069D01*
X156650614Y-71364873D01*
X156661820Y-71416384D01*
X156661820Y-87792024D01*
X156642135Y-87859063D01*
X156589331Y-87904818D01*
X156537820Y-87916024D01*
X156482216Y-87916024D01*
X156349273Y-87942468D01*
X156349265Y-87942470D01*
X156224027Y-87994345D01*
X156111312Y-88069659D01*
X156111308Y-88069662D01*
X156015459Y-88165511D01*
X156015456Y-88165515D01*
X155940142Y-88278230D01*
X155914562Y-88339987D01*
X155870721Y-88394391D01*
X155804426Y-88416455D01*
X155736727Y-88399175D01*
X155689117Y-88348038D01*
X155685440Y-88339987D01*
X155659859Y-88278230D01*
X155584545Y-88165515D01*
X155584542Y-88165511D01*
X155488693Y-88069662D01*
X155488689Y-88069659D01*
X155375974Y-87994345D01*
X155250736Y-87942470D01*
X155250728Y-87942468D01*
X155117785Y-87916024D01*
X155117781Y-87916024D01*
X154982221Y-87916024D01*
X154982216Y-87916024D01*
X154849273Y-87942468D01*
X154849265Y-87942470D01*
X154724027Y-87994345D01*
X154611312Y-88069659D01*
X154611308Y-88069662D01*
X154515459Y-88165511D01*
X154515456Y-88165515D01*
X154440142Y-88278230D01*
X154414562Y-88339987D01*
X154370721Y-88394391D01*
X154304426Y-88416455D01*
X154236727Y-88399175D01*
X154189117Y-88348038D01*
X154185440Y-88339987D01*
X154159859Y-88278230D01*
X154084545Y-88165515D01*
X154084542Y-88165511D01*
X153988693Y-88069662D01*
X153988689Y-88069659D01*
X153875974Y-87994345D01*
X153750736Y-87942470D01*
X153750728Y-87942468D01*
X153617785Y-87916024D01*
X153617781Y-87916024D01*
X153482221Y-87916024D01*
X153482216Y-87916024D01*
X153349273Y-87942468D01*
X153349265Y-87942470D01*
X153224027Y-87994345D01*
X153111312Y-88069659D01*
X153111308Y-88069662D01*
X153015459Y-88165511D01*
X153015456Y-88165515D01*
X152940142Y-88278230D01*
X152914562Y-88339987D01*
X152870721Y-88394391D01*
X152804426Y-88416455D01*
X152736727Y-88399175D01*
X152689117Y-88348038D01*
X152685440Y-88339987D01*
X152659859Y-88278230D01*
X152584545Y-88165515D01*
X152584542Y-88165511D01*
X152488693Y-88069662D01*
X152488689Y-88069659D01*
X152375974Y-87994345D01*
X152250736Y-87942470D01*
X152250728Y-87942468D01*
X152117785Y-87916024D01*
X152117781Y-87916024D01*
X151982221Y-87916024D01*
X151982216Y-87916024D01*
X151849273Y-87942468D01*
X151849265Y-87942470D01*
X151724027Y-87994345D01*
X151611312Y-88069659D01*
X151611308Y-88069662D01*
X151515459Y-88165511D01*
X151515456Y-88165515D01*
X151440142Y-88278230D01*
X151414562Y-88339987D01*
X151370721Y-88394391D01*
X151304426Y-88416455D01*
X151236727Y-88399175D01*
X151189117Y-88348038D01*
X151185440Y-88339987D01*
X151159859Y-88278230D01*
X151084545Y-88165515D01*
X151084542Y-88165511D01*
X150988693Y-88069662D01*
X150988689Y-88069659D01*
X150875974Y-87994345D01*
X150750736Y-87942470D01*
X150750728Y-87942468D01*
X150617785Y-87916024D01*
X150617781Y-87916024D01*
X150482221Y-87916024D01*
X150482216Y-87916024D01*
X150349273Y-87942468D01*
X150349265Y-87942470D01*
X150224027Y-87994345D01*
X150111312Y-88069659D01*
X150111308Y-88069662D01*
X150015459Y-88165511D01*
X150015456Y-88165515D01*
X149940142Y-88278230D01*
X149914562Y-88339987D01*
X149870721Y-88394391D01*
X149804426Y-88416455D01*
X149736727Y-88399175D01*
X149689117Y-88348038D01*
X149685440Y-88339987D01*
X149659859Y-88278230D01*
X149584545Y-88165515D01*
X149584542Y-88165511D01*
X149488693Y-88069662D01*
X149488689Y-88069659D01*
X149375974Y-87994345D01*
X149250736Y-87942470D01*
X149250728Y-87942468D01*
X149117785Y-87916024D01*
X149117781Y-87916024D01*
X148982221Y-87916024D01*
X148982216Y-87916024D01*
X148849273Y-87942468D01*
X148849265Y-87942470D01*
X148724027Y-87994345D01*
X148611312Y-88069659D01*
X148611308Y-88069662D01*
X148515459Y-88165511D01*
X148515456Y-88165515D01*
X148440142Y-88278230D01*
X148388267Y-88403468D01*
X148388265Y-88403474D01*
X148378726Y-88451432D01*
X148346341Y-88513343D01*
X148285625Y-88547917D01*
X148215856Y-88544177D01*
X148159184Y-88503310D01*
X148134170Y-88443425D01*
X148112422Y-88278230D01*
X148104163Y-88215497D01*
X148036708Y-87963753D01*
X147936972Y-87722968D01*
X147936970Y-87722965D01*
X147936968Y-87722960D01*
X147806663Y-87497267D01*
X147806659Y-87497260D01*
X147648001Y-87290493D01*
X147647996Y-87290487D01*
X147463717Y-87106208D01*
X147463710Y-87106202D01*
X147256953Y-86947552D01*
X147256951Y-86947550D01*
X147256945Y-86947546D01*
X147256940Y-86947543D01*
X147256937Y-86947541D01*
X147031244Y-86817236D01*
X147031233Y-86817231D01*
X146790456Y-86717498D01*
X146538704Y-86650041D01*
X146280323Y-86616025D01*
X146280318Y-86616024D01*
X146280313Y-86616024D01*
X146019689Y-86616024D01*
X146019683Y-86616024D01*
X146019678Y-86616025D01*
X145761297Y-86650041D01*
X145509545Y-86717498D01*
X145268768Y-86817231D01*
X145268757Y-86817236D01*
X145043064Y-86947541D01*
X145043048Y-86947552D01*
X144836291Y-87106202D01*
X144836284Y-87106208D01*
X144652005Y-87290487D01*
X144651999Y-87290494D01*
X144493349Y-87497251D01*
X144493338Y-87497267D01*
X144363033Y-87722960D01*
X144363028Y-87722971D01*
X144263295Y-87963748D01*
X144195838Y-88215500D01*
X144165831Y-88443426D01*
X144137564Y-88507322D01*
X144079240Y-88545793D01*
X144009375Y-88546624D01*
X143950152Y-88509552D01*
X143921275Y-88451432D01*
X143911735Y-88403469D01*
X143859858Y-88278228D01*
X143784545Y-88165515D01*
X143784542Y-88165511D01*
X143688693Y-88069662D01*
X143688689Y-88069659D01*
X143575974Y-87994345D01*
X143450736Y-87942470D01*
X143450728Y-87942468D01*
X143317785Y-87916024D01*
X143317781Y-87916024D01*
X143182221Y-87916024D01*
X143182216Y-87916024D01*
X143049273Y-87942468D01*
X143049265Y-87942470D01*
X142924027Y-87994345D01*
X142811312Y-88069659D01*
X142811308Y-88069662D01*
X142715459Y-88165511D01*
X142715456Y-88165515D01*
X142640142Y-88278230D01*
X142614562Y-88339987D01*
X142570721Y-88394391D01*
X142504426Y-88416455D01*
X142436727Y-88399175D01*
X142389117Y-88348038D01*
X142385440Y-88339987D01*
X142359859Y-88278230D01*
X142284545Y-88165515D01*
X142284542Y-88165511D01*
X142188693Y-88069662D01*
X142188689Y-88069659D01*
X142075974Y-87994345D01*
X141950736Y-87942470D01*
X141950728Y-87942468D01*
X141817785Y-87916024D01*
X141817781Y-87916024D01*
X141682221Y-87916024D01*
X141682216Y-87916024D01*
X141549273Y-87942468D01*
X141549265Y-87942470D01*
X141424027Y-87994345D01*
X141311312Y-88069659D01*
X141311308Y-88069662D01*
X141215459Y-88165511D01*
X141215456Y-88165515D01*
X141140142Y-88278230D01*
X141114562Y-88339987D01*
X141070721Y-88394391D01*
X141004426Y-88416455D01*
X140936727Y-88399175D01*
X140889117Y-88348038D01*
X140885440Y-88339987D01*
X140859859Y-88278230D01*
X140784545Y-88165515D01*
X140784542Y-88165511D01*
X140688693Y-88069662D01*
X140688689Y-88069659D01*
X140575974Y-87994345D01*
X140450736Y-87942470D01*
X140450728Y-87942468D01*
X140317785Y-87916024D01*
X140317781Y-87916024D01*
X140182221Y-87916024D01*
X140182216Y-87916024D01*
X140049273Y-87942468D01*
X140049265Y-87942470D01*
X139924027Y-87994345D01*
X139811312Y-88069659D01*
X139811308Y-88069662D01*
X139715459Y-88165511D01*
X139715456Y-88165515D01*
X139640142Y-88278230D01*
X139614562Y-88339987D01*
X139570721Y-88394391D01*
X139504426Y-88416455D01*
X139436727Y-88399175D01*
X139389117Y-88348038D01*
X139385440Y-88339987D01*
X139359859Y-88278230D01*
X139284545Y-88165515D01*
X139284542Y-88165511D01*
X139188693Y-88069662D01*
X139188689Y-88069659D01*
X139075974Y-87994345D01*
X138950736Y-87942470D01*
X138950728Y-87942468D01*
X138817785Y-87916024D01*
X138817781Y-87916024D01*
X138682221Y-87916024D01*
X138682216Y-87916024D01*
X138549273Y-87942468D01*
X138549265Y-87942470D01*
X138424027Y-87994345D01*
X138311312Y-88069659D01*
X138311308Y-88069662D01*
X138215459Y-88165511D01*
X138215456Y-88165515D01*
X138140142Y-88278230D01*
X138114562Y-88339987D01*
X138070721Y-88394391D01*
X138004426Y-88416455D01*
X137936727Y-88399175D01*
X137889117Y-88348038D01*
X137885440Y-88339987D01*
X137859859Y-88278230D01*
X137784545Y-88165515D01*
X137784542Y-88165511D01*
X137688693Y-88069662D01*
X137688689Y-88069659D01*
X137575974Y-87994345D01*
X137450736Y-87942470D01*
X137450728Y-87942468D01*
X137317785Y-87916024D01*
X137317781Y-87916024D01*
X137182221Y-87916024D01*
X137182216Y-87916024D01*
X137049273Y-87942468D01*
X137049265Y-87942470D01*
X136924027Y-87994345D01*
X136811312Y-88069659D01*
X136811308Y-88069662D01*
X136715459Y-88165511D01*
X136715456Y-88165515D01*
X136640142Y-88278230D01*
X136614562Y-88339987D01*
X136570721Y-88394391D01*
X136504426Y-88416455D01*
X136436727Y-88399175D01*
X136389117Y-88348038D01*
X136385440Y-88339987D01*
X136359859Y-88278230D01*
X136284545Y-88165515D01*
X136284542Y-88165511D01*
X136188693Y-88069662D01*
X136188689Y-88069659D01*
X136075974Y-87994345D01*
X135950736Y-87942470D01*
X135950728Y-87942468D01*
X135817785Y-87916024D01*
X135817781Y-87916024D01*
X135762180Y-87916024D01*
X135695141Y-87896339D01*
X135649386Y-87843535D01*
X135638180Y-87792024D01*
X135638180Y-71416384D01*
X135657865Y-71349345D01*
X135710669Y-71303590D01*
X135762180Y-71292384D01*
X135817782Y-71292384D01*
X135817783Y-71292383D01*
X135950736Y-71265938D01*
X136075977Y-71214061D01*
X136188690Y-71138748D01*
X136284545Y-71042893D01*
X136359858Y-70930180D01*
X136385440Y-70868419D01*
X136429281Y-70814017D01*
X136495575Y-70791952D01*
X136563274Y-70809231D01*
X136610885Y-70860368D01*
X136614562Y-70868420D01*
X136640142Y-70930177D01*
X136715456Y-71042892D01*
X136715459Y-71042896D01*
X136811308Y-71138745D01*
X136811312Y-71138748D01*
X136924025Y-71214061D01*
X137049266Y-71265938D01*
X137182216Y-71292383D01*
X137182220Y-71292384D01*
X137182221Y-71292384D01*
X137317782Y-71292384D01*
X137317783Y-71292383D01*
X137450736Y-71265938D01*
X137575977Y-71214061D01*
X137688690Y-71138748D01*
X137784545Y-71042893D01*
X137859858Y-70930180D01*
X137885440Y-70868419D01*
X137929281Y-70814017D01*
X137995575Y-70791952D01*
X138063274Y-70809231D01*
X138110885Y-70860368D01*
X138114562Y-70868420D01*
X138140142Y-70930177D01*
X138215456Y-71042892D01*
X138215459Y-71042896D01*
X138311308Y-71138745D01*
X138311312Y-71138748D01*
X138424025Y-71214061D01*
X138549266Y-71265938D01*
X138682216Y-71292383D01*
X138682220Y-71292384D01*
X138682221Y-71292384D01*
X138817782Y-71292384D01*
X138817783Y-71292383D01*
X138950736Y-71265938D01*
X139075977Y-71214061D01*
X139188690Y-71138748D01*
X139284545Y-71042893D01*
X139359858Y-70930180D01*
X139385440Y-70868419D01*
X139429281Y-70814017D01*
X139495575Y-70791952D01*
X139563274Y-70809231D01*
X139610885Y-70860368D01*
X139614562Y-70868420D01*
X139640142Y-70930177D01*
X139715456Y-71042892D01*
X139715459Y-71042896D01*
X139811308Y-71138745D01*
X139811312Y-71138748D01*
X139924025Y-71214061D01*
X140049266Y-71265938D01*
X140182216Y-71292383D01*
X140182220Y-71292384D01*
X140182221Y-71292384D01*
X140317782Y-71292384D01*
X140317783Y-71292383D01*
X140450736Y-71265938D01*
X140575977Y-71214061D01*
X140688690Y-71138748D01*
X140784545Y-71042893D01*
X140859858Y-70930180D01*
X140885440Y-70868419D01*
X140929281Y-70814017D01*
X140995575Y-70791952D01*
X141063274Y-70809231D01*
X141110885Y-70860368D01*
X141114562Y-70868420D01*
X141140142Y-70930177D01*
X141215456Y-71042892D01*
X141215459Y-71042896D01*
X141311308Y-71138745D01*
X141311312Y-71138748D01*
X141424025Y-71214061D01*
X141549266Y-71265938D01*
X141682216Y-71292383D01*
X141682220Y-71292384D01*
X141682221Y-71292384D01*
X141817782Y-71292384D01*
X141817783Y-71292383D01*
X141950736Y-71265938D01*
X142075977Y-71214061D01*
X142188690Y-71138748D01*
X142284545Y-71042893D01*
X142359858Y-70930180D01*
X142385440Y-70868419D01*
X142429281Y-70814017D01*
X142495575Y-70791952D01*
X142563274Y-70809231D01*
X142610885Y-70860368D01*
X142614562Y-70868420D01*
X142640142Y-70930177D01*
X142715456Y-71042892D01*
X142715459Y-71042896D01*
X142811308Y-71138745D01*
X142811312Y-71138748D01*
X142924025Y-71214061D01*
X143049266Y-71265938D01*
X143182216Y-71292383D01*
X143182220Y-71292384D01*
X143182221Y-71292384D01*
X143317782Y-71292384D01*
X143317783Y-71292383D01*
X143450736Y-71265938D01*
X143575977Y-71214061D01*
X143688690Y-71138748D01*
X143784545Y-71042893D01*
X143859858Y-70930180D01*
X143911735Y-70804939D01*
X143921275Y-70756975D01*
X143953658Y-70695066D01*
X144014373Y-70660491D01*
X144084143Y-70664230D01*
G37*
%TD.AperFunction*%
%TA.AperFunction,Conductor*%
G36*
X156537869Y-51091497D02*
G01*
X156604900Y-51111207D01*
X156650634Y-51164029D01*
X156661820Y-51215497D01*
X156661820Y-69792024D01*
X156642135Y-69859063D01*
X156589331Y-69904818D01*
X156537820Y-69916024D01*
X156482216Y-69916024D01*
X156349273Y-69942468D01*
X156349265Y-69942470D01*
X156224027Y-69994345D01*
X156111312Y-70069659D01*
X156111308Y-70069662D01*
X156015459Y-70165511D01*
X156015456Y-70165515D01*
X155940142Y-70278230D01*
X155914562Y-70339987D01*
X155870721Y-70394391D01*
X155804426Y-70416455D01*
X155736727Y-70399175D01*
X155689117Y-70348038D01*
X155685440Y-70339987D01*
X155659859Y-70278230D01*
X155584545Y-70165515D01*
X155584542Y-70165511D01*
X155488693Y-70069662D01*
X155488689Y-70069659D01*
X155375974Y-69994345D01*
X155250736Y-69942470D01*
X155250728Y-69942468D01*
X155117785Y-69916024D01*
X155117781Y-69916024D01*
X154982221Y-69916024D01*
X154982216Y-69916024D01*
X154849273Y-69942468D01*
X154849265Y-69942470D01*
X154724027Y-69994345D01*
X154611312Y-70069659D01*
X154611308Y-70069662D01*
X154515459Y-70165511D01*
X154515456Y-70165515D01*
X154440142Y-70278230D01*
X154414562Y-70339987D01*
X154370721Y-70394391D01*
X154304426Y-70416455D01*
X154236727Y-70399175D01*
X154189117Y-70348038D01*
X154185440Y-70339987D01*
X154159859Y-70278230D01*
X154084545Y-70165515D01*
X154084542Y-70165511D01*
X153988693Y-70069662D01*
X153988689Y-70069659D01*
X153875974Y-69994345D01*
X153750736Y-69942470D01*
X153750728Y-69942468D01*
X153617785Y-69916024D01*
X153617781Y-69916024D01*
X153482221Y-69916024D01*
X153482216Y-69916024D01*
X153349273Y-69942468D01*
X153349265Y-69942470D01*
X153224027Y-69994345D01*
X153111312Y-70069659D01*
X153111308Y-70069662D01*
X153015459Y-70165511D01*
X153015456Y-70165515D01*
X152940142Y-70278230D01*
X152914562Y-70339987D01*
X152870721Y-70394391D01*
X152804426Y-70416455D01*
X152736727Y-70399175D01*
X152689117Y-70348038D01*
X152685440Y-70339987D01*
X152659859Y-70278230D01*
X152584545Y-70165515D01*
X152584542Y-70165511D01*
X152488693Y-70069662D01*
X152488689Y-70069659D01*
X152375974Y-69994345D01*
X152250736Y-69942470D01*
X152250728Y-69942468D01*
X152117785Y-69916024D01*
X152117781Y-69916024D01*
X151982221Y-69916024D01*
X151982216Y-69916024D01*
X151849273Y-69942468D01*
X151849265Y-69942470D01*
X151724027Y-69994345D01*
X151611312Y-70069659D01*
X151611308Y-70069662D01*
X151515459Y-70165511D01*
X151515456Y-70165515D01*
X151440142Y-70278230D01*
X151414562Y-70339987D01*
X151370721Y-70394391D01*
X151304426Y-70416455D01*
X151236727Y-70399175D01*
X151189117Y-70348038D01*
X151185440Y-70339987D01*
X151159859Y-70278230D01*
X151084545Y-70165515D01*
X151084542Y-70165511D01*
X150988693Y-70069662D01*
X150988689Y-70069659D01*
X150875974Y-69994345D01*
X150750736Y-69942470D01*
X150750728Y-69942468D01*
X150617785Y-69916024D01*
X150617781Y-69916024D01*
X150482221Y-69916024D01*
X150482216Y-69916024D01*
X150349273Y-69942468D01*
X150349265Y-69942470D01*
X150224027Y-69994345D01*
X150111312Y-70069659D01*
X150111308Y-70069662D01*
X150015459Y-70165511D01*
X150015456Y-70165515D01*
X149940142Y-70278230D01*
X149914562Y-70339987D01*
X149870721Y-70394391D01*
X149804426Y-70416455D01*
X149736727Y-70399175D01*
X149689117Y-70348038D01*
X149685440Y-70339987D01*
X149659859Y-70278230D01*
X149584545Y-70165515D01*
X149584542Y-70165511D01*
X149488693Y-70069662D01*
X149488689Y-70069659D01*
X149375974Y-69994345D01*
X149250736Y-69942470D01*
X149250728Y-69942468D01*
X149117785Y-69916024D01*
X149117781Y-69916024D01*
X148982221Y-69916024D01*
X148982216Y-69916024D01*
X148849273Y-69942468D01*
X148849265Y-69942470D01*
X148724027Y-69994345D01*
X148611312Y-70069659D01*
X148611308Y-70069662D01*
X148515459Y-70165511D01*
X148515456Y-70165515D01*
X148440142Y-70278230D01*
X148388267Y-70403468D01*
X148388265Y-70403474D01*
X148378726Y-70451432D01*
X148346341Y-70513343D01*
X148285625Y-70547917D01*
X148215856Y-70544177D01*
X148159184Y-70503310D01*
X148134170Y-70443425D01*
X148112422Y-70278230D01*
X148104163Y-70215497D01*
X148036708Y-69963753D01*
X147936972Y-69722968D01*
X147936970Y-69722965D01*
X147936968Y-69722960D01*
X147806663Y-69497267D01*
X147806659Y-69497260D01*
X147648001Y-69290493D01*
X147647996Y-69290487D01*
X147463717Y-69106208D01*
X147463710Y-69106202D01*
X147256953Y-68947552D01*
X147256951Y-68947550D01*
X147256945Y-68947546D01*
X147256940Y-68947543D01*
X147256937Y-68947541D01*
X147031244Y-68817236D01*
X147031233Y-68817231D01*
X146790456Y-68717498D01*
X146538704Y-68650041D01*
X146280323Y-68616025D01*
X146280318Y-68616024D01*
X146280313Y-68616024D01*
X146019689Y-68616024D01*
X146019683Y-68616024D01*
X146019678Y-68616025D01*
X145761297Y-68650041D01*
X145509545Y-68717498D01*
X145268768Y-68817231D01*
X145268757Y-68817236D01*
X145043064Y-68947541D01*
X145043048Y-68947552D01*
X144836291Y-69106202D01*
X144836284Y-69106208D01*
X144652005Y-69290487D01*
X144651999Y-69290494D01*
X144493349Y-69497251D01*
X144493338Y-69497267D01*
X144363033Y-69722960D01*
X144363028Y-69722971D01*
X144263295Y-69963748D01*
X144195838Y-70215500D01*
X144165831Y-70443426D01*
X144137564Y-70507322D01*
X144079240Y-70545793D01*
X144009375Y-70546624D01*
X143950152Y-70509552D01*
X143921275Y-70451432D01*
X143911735Y-70403469D01*
X143859858Y-70278228D01*
X143784545Y-70165515D01*
X143784542Y-70165511D01*
X143688693Y-70069662D01*
X143688689Y-70069659D01*
X143575974Y-69994345D01*
X143450736Y-69942470D01*
X143450728Y-69942468D01*
X143317785Y-69916024D01*
X143317781Y-69916024D01*
X143182221Y-69916024D01*
X143182216Y-69916024D01*
X143049273Y-69942468D01*
X143049265Y-69942470D01*
X142924027Y-69994345D01*
X142811312Y-70069659D01*
X142811308Y-70069662D01*
X142715459Y-70165511D01*
X142715456Y-70165515D01*
X142640142Y-70278230D01*
X142614562Y-70339987D01*
X142570721Y-70394391D01*
X142504426Y-70416455D01*
X142436727Y-70399175D01*
X142389117Y-70348038D01*
X142385440Y-70339987D01*
X142359859Y-70278230D01*
X142284545Y-70165515D01*
X142284542Y-70165511D01*
X142188693Y-70069662D01*
X142188689Y-70069659D01*
X142075974Y-69994345D01*
X141950736Y-69942470D01*
X141950728Y-69942468D01*
X141817785Y-69916024D01*
X141817781Y-69916024D01*
X141682221Y-69916024D01*
X141682216Y-69916024D01*
X141549273Y-69942468D01*
X141549265Y-69942470D01*
X141424027Y-69994345D01*
X141311312Y-70069659D01*
X141311308Y-70069662D01*
X141215459Y-70165511D01*
X141215456Y-70165515D01*
X141140142Y-70278230D01*
X141114562Y-70339987D01*
X141070721Y-70394391D01*
X141004426Y-70416455D01*
X140936727Y-70399175D01*
X140889117Y-70348038D01*
X140885440Y-70339987D01*
X140859859Y-70278230D01*
X140784545Y-70165515D01*
X140784542Y-70165511D01*
X140688693Y-70069662D01*
X140688689Y-70069659D01*
X140575974Y-69994345D01*
X140450736Y-69942470D01*
X140450728Y-69942468D01*
X140317785Y-69916024D01*
X140317781Y-69916024D01*
X140182221Y-69916024D01*
X140182216Y-69916024D01*
X140049273Y-69942468D01*
X140049265Y-69942470D01*
X139924027Y-69994345D01*
X139811312Y-70069659D01*
X139811308Y-70069662D01*
X139715459Y-70165511D01*
X139715456Y-70165515D01*
X139640142Y-70278230D01*
X139614562Y-70339987D01*
X139570721Y-70394391D01*
X139504426Y-70416455D01*
X139436727Y-70399175D01*
X139389117Y-70348038D01*
X139385440Y-70339987D01*
X139359859Y-70278230D01*
X139284545Y-70165515D01*
X139284542Y-70165511D01*
X139188693Y-70069662D01*
X139188689Y-70069659D01*
X139075974Y-69994345D01*
X138950736Y-69942470D01*
X138950728Y-69942468D01*
X138817785Y-69916024D01*
X138817781Y-69916024D01*
X138682221Y-69916024D01*
X138682216Y-69916024D01*
X138549273Y-69942468D01*
X138549265Y-69942470D01*
X138424027Y-69994345D01*
X138311312Y-70069659D01*
X138311308Y-70069662D01*
X138215459Y-70165511D01*
X138215456Y-70165515D01*
X138140142Y-70278230D01*
X138114562Y-70339987D01*
X138070721Y-70394391D01*
X138004426Y-70416455D01*
X137936727Y-70399175D01*
X137889117Y-70348038D01*
X137885440Y-70339987D01*
X137859859Y-70278230D01*
X137784545Y-70165515D01*
X137784542Y-70165511D01*
X137688693Y-70069662D01*
X137688689Y-70069659D01*
X137575974Y-69994345D01*
X137450736Y-69942470D01*
X137450728Y-69942468D01*
X137317785Y-69916024D01*
X137317781Y-69916024D01*
X137182221Y-69916024D01*
X137182216Y-69916024D01*
X137049273Y-69942468D01*
X137049265Y-69942470D01*
X136924027Y-69994345D01*
X136811312Y-70069659D01*
X136811308Y-70069662D01*
X136715459Y-70165511D01*
X136715456Y-70165515D01*
X136640142Y-70278230D01*
X136614562Y-70339987D01*
X136570721Y-70394391D01*
X136504426Y-70416455D01*
X136436727Y-70399175D01*
X136389117Y-70348038D01*
X136385440Y-70339987D01*
X136359859Y-70278230D01*
X136284545Y-70165515D01*
X136284542Y-70165511D01*
X136188693Y-70069662D01*
X136188689Y-70069659D01*
X136075974Y-69994345D01*
X135950736Y-69942470D01*
X135950728Y-69942468D01*
X135817785Y-69916024D01*
X135817781Y-69916024D01*
X135762180Y-69916024D01*
X135695141Y-69896339D01*
X135649386Y-69843535D01*
X135638180Y-69792024D01*
X135638180Y-55347259D01*
X135649162Y-51215157D01*
X135669024Y-51148176D01*
X135721949Y-51102561D01*
X135773107Y-51091493D01*
X143867580Y-51088383D01*
X143934626Y-51108042D01*
X143980402Y-51160828D01*
X143987402Y-51180289D01*
X144026053Y-51324536D01*
X144138326Y-51595590D01*
X144138334Y-51595606D01*
X144285024Y-51849679D01*
X144285035Y-51849695D01*
X144463635Y-52082452D01*
X144463641Y-52082459D01*
X144671093Y-52289911D01*
X144671099Y-52289916D01*
X144903866Y-52468524D01*
X144903873Y-52468528D01*
X145157946Y-52615218D01*
X145157962Y-52615226D01*
X145304196Y-52675797D01*
X145429017Y-52727500D01*
X145712416Y-52803437D01*
X146003302Y-52841733D01*
X146003309Y-52841733D01*
X146296691Y-52841733D01*
X146296698Y-52841733D01*
X146587584Y-52803437D01*
X146870983Y-52727500D01*
X147084062Y-52639239D01*
X147142037Y-52615226D01*
X147142040Y-52615224D01*
X147142046Y-52615222D01*
X147396134Y-52468524D01*
X147628901Y-52289916D01*
X147836363Y-52082454D01*
X148014971Y-51849687D01*
X148161669Y-51595599D01*
X148273947Y-51324536D01*
X148312598Y-51180286D01*
X148348960Y-51120630D01*
X148411807Y-51090100D01*
X148432412Y-51088383D01*
X156537869Y-51091497D01*
G37*
%TD.AperFunction*%
%TD*%
M02*
