%TF.GenerationSoftware,KiCad,Pcbnew,9.0.6-1.fc42*%
%TF.CreationDate,2025-12-08T15:01:23+01:00*%
%TF.ProjectId,PCI2USB,50434932-5553-4422-9e6b-696361645f70,1.0.0*%
%TF.SameCoordinates,Original*%
%TF.FileFunction,Copper,L4,Bot*%
%TF.FilePolarity,Positive*%
%FSLAX46Y46*%
G04 Gerber Fmt 4.6, Leading zero omitted, Abs format (unit mm)*
G04 Created by KiCad (PCBNEW 9.0.6-1.fc42) date 2025-12-08 15:01:23*
%MOMM*%
%LPD*%
G01*
G04 APERTURE LIST*
G04 Aperture macros list*
%AMRoundRect*
0 Rectangle with rounded corners*
0 $1 Rounding radius*
0 $2 $3 $4 $5 $6 $7 $8 $9 X,Y pos of 4 corners*
0 Add a 4 corners polygon primitive as box body*
4,1,4,$2,$3,$4,$5,$6,$7,$8,$9,$2,$3,0*
0 Add four circle primitives for the rounded corners*
1,1,$1+$1,$2,$3*
1,1,$1+$1,$4,$5*
1,1,$1+$1,$6,$7*
1,1,$1+$1,$8,$9*
0 Add four rect primitives between the rounded corners*
20,1,$1+$1,$2,$3,$4,$5,0*
20,1,$1+$1,$4,$5,$6,$7,0*
20,1,$1+$1,$6,$7,$8,$9,0*
20,1,$1+$1,$8,$9,$2,$3,0*%
G04 Aperture macros list end*
%TA.AperFunction,Conductor*%
%ADD10C,0.762000*%
%TD*%
%TA.AperFunction,Conductor*%
%ADD11C,0.508000*%
%TD*%
%TA.AperFunction,ConnectorPad*%
%ADD12R,0.350000X3.000000*%
%TD*%
%TA.AperFunction,ComponentPad*%
%ADD13R,2.000000X2.100000*%
%TD*%
%TA.AperFunction,ComponentPad*%
%ADD14C,2.000000*%
%TD*%
%TA.AperFunction,SMDPad,CuDef*%
%ADD15RoundRect,0.155000X0.212500X0.155000X-0.212500X0.155000X-0.212500X-0.155000X0.212500X-0.155000X0*%
%TD*%
%TA.AperFunction,SMDPad,CuDef*%
%ADD16RoundRect,0.237500X-0.237500X0.287500X-0.237500X-0.287500X0.237500X-0.287500X0.237500X0.287500X0*%
%TD*%
%TA.AperFunction,SMDPad,CuDef*%
%ADD17RoundRect,0.155000X-0.212500X-0.155000X0.212500X-0.155000X0.212500X0.155000X-0.212500X0.155000X0*%
%TD*%
%TA.AperFunction,SMDPad,CuDef*%
%ADD18RoundRect,0.250000X0.337500X0.475000X-0.337500X0.475000X-0.337500X-0.475000X0.337500X-0.475000X0*%
%TD*%
%TA.AperFunction,SMDPad,CuDef*%
%ADD19RoundRect,0.160000X-0.160000X0.197500X-0.160000X-0.197500X0.160000X-0.197500X0.160000X0.197500X0*%
%TD*%
%TA.AperFunction,SMDPad,CuDef*%
%ADD20R,0.350000X1.000000*%
%TD*%
%TA.AperFunction,SMDPad,CuDef*%
%ADD21R,1.000000X0.350000*%
%TD*%
%TA.AperFunction,SMDPad,CuDef*%
%ADD22R,3.250000X3.250000*%
%TD*%
%TA.AperFunction,SMDPad,CuDef*%
%ADD23RoundRect,0.155000X0.155000X-0.212500X0.155000X0.212500X-0.155000X0.212500X-0.155000X-0.212500X0*%
%TD*%
%TA.AperFunction,SMDPad,CuDef*%
%ADD24RoundRect,0.155000X-0.155000X0.212500X-0.155000X-0.212500X0.155000X-0.212500X0.155000X0.212500X0*%
%TD*%
%TA.AperFunction,SMDPad,CuDef*%
%ADD25RoundRect,0.160000X-0.197500X-0.160000X0.197500X-0.160000X0.197500X0.160000X-0.197500X0.160000X0*%
%TD*%
%TA.AperFunction,SMDPad,CuDef*%
%ADD26RoundRect,0.250000X-0.475000X0.337500X-0.475000X-0.337500X0.475000X-0.337500X0.475000X0.337500X0*%
%TD*%
%TA.AperFunction,SMDPad,CuDef*%
%ADD27R,0.300000X0.500000*%
%TD*%
%TA.AperFunction,SMDPad,CuDef*%
%ADD28R,0.540000X0.420000*%
%TD*%
%TA.AperFunction,SMDPad,CuDef*%
%ADD29RoundRect,0.160000X0.197500X0.160000X-0.197500X0.160000X-0.197500X-0.160000X0.197500X-0.160000X0*%
%TD*%
%TA.AperFunction,SMDPad,CuDef*%
%ADD30RoundRect,0.237500X-0.287500X-0.237500X0.287500X-0.237500X0.287500X0.237500X-0.287500X0.237500X0*%
%TD*%
%TA.AperFunction,SMDPad,CuDef*%
%ADD31RoundRect,0.237500X0.237500X-0.287500X0.237500X0.287500X-0.237500X0.287500X-0.237500X-0.287500X0*%
%TD*%
%TA.AperFunction,ViaPad*%
%ADD32C,0.500000*%
%TD*%
%TA.AperFunction,ViaPad*%
%ADD33C,0.300000*%
%TD*%
%TA.AperFunction,ViaPad*%
%ADD34C,0.558800*%
%TD*%
%TA.AperFunction,Conductor*%
%ADD35C,0.750000*%
%TD*%
%TA.AperFunction,Conductor*%
%ADD36C,0.076200*%
%TD*%
%TA.AperFunction,Conductor*%
%ADD37C,0.200000*%
%TD*%
%TA.AperFunction,Conductor*%
%ADD38C,0.127000*%
%TD*%
%TA.AperFunction,Conductor*%
%ADD39C,1.000000*%
%TD*%
%TA.AperFunction,Conductor*%
%ADD40C,0.250000*%
%TD*%
%TA.AperFunction,Conductor*%
%ADD41C,0.350000*%
%TD*%
%TA.AperFunction,Conductor*%
%ADD42C,0.220000*%
%TD*%
%TA.AperFunction,Conductor*%
%ADD43C,0.600000*%
%TD*%
%TA.AperFunction,Conductor*%
%ADD44C,0.101600*%
%TD*%
G04 APERTURE END LIST*
D10*
%TO.N,Net-(C17-Pad1)*%
X155919024Y-125673000D02*
X155244024Y-125673000D01*
X155244024Y-125098000D01*
X155919024Y-125098000D01*
X155919024Y-125673000D01*
%TA.AperFunction,Conductor*%
G36*
X155919024Y-125673000D02*
G01*
X155244024Y-125673000D01*
X155244024Y-125098000D01*
X155919024Y-125098000D01*
X155919024Y-125673000D01*
G37*
%TD.AperFunction*%
X138228024Y-124887500D02*
X137553024Y-124887500D01*
X137553024Y-124312500D01*
X138228024Y-124312500D01*
X138228024Y-124887500D01*
%TA.AperFunction,Conductor*%
G36*
X138228024Y-124887500D02*
G01*
X137553024Y-124887500D01*
X137553024Y-124312500D01*
X138228024Y-124312500D01*
X138228024Y-124887500D01*
G37*
%TD.AperFunction*%
D11*
%TO.N,+3.3V*%
X137975000Y-112379106D02*
X137976600Y-113139506D01*
X137975000Y-113141106D01*
X137213000Y-112379106D01*
X137213000Y-111617106D01*
X137975000Y-111617106D01*
X137975000Y-112379106D01*
%TA.AperFunction,Conductor*%
G36*
X137975000Y-112379106D02*
G01*
X137976600Y-113139506D01*
X137975000Y-113141106D01*
X137213000Y-112379106D01*
X137213000Y-111617106D01*
X137975000Y-111617106D01*
X137975000Y-112379106D01*
G37*
%TD.AperFunction*%
%TD*%
D12*
%TO.P,J1,2,3.3V*%
%TO.N,Net-(C17-Pad1)*%
X155153515Y-128909812D03*
%TO.P,J1,4,3.3V*%
X154653515Y-128909812D03*
%TO.P,J1,6,NC*%
%TO.N,unconnected-(J1-NC-Pad6)*%
X154153515Y-128909812D03*
%TO.P,J1,8,NC*%
%TO.N,unconnected-(J1-NC-Pad8)*%
X153653515Y-128909812D03*
%TO.P,J1,10,IO/LED_1*%
%TO.N,unconnected-(J1-IO{slash}LED_1-Pad10)*%
X153153515Y-128909812D03*
%TO.P,J1,20,NC*%
%TO.N,unconnected-(J1-NC-Pad20)*%
X150653515Y-128909812D03*
%TO.P,J1,22,NC*%
%TO.N,unconnected-(J1-NC-Pad22)*%
X150153515Y-128909812D03*
%TO.P,J1,24,NC*%
%TO.N,unconnected-(J1-NC-Pad24)*%
X149653515Y-128909812D03*
%TO.P,J1,26,NC*%
%TO.N,unconnected-(J1-NC-Pad26)*%
X149153515Y-128909812D03*
%TO.P,J1,28,NC*%
%TO.N,unconnected-(J1-NC-Pad28)*%
X148653515Y-128909812D03*
%TO.P,J1,30,NC*%
%TO.N,unconnected-(J1-NC-Pad30)*%
X148153515Y-128909812D03*
%TO.P,J1,32,NC*%
%TO.N,unconnected-(J1-NC-Pad32)*%
X147653515Y-128909812D03*
%TO.P,J1,34,NC*%
%TO.N,unconnected-(J1-NC-Pad34)*%
X147153515Y-128909812D03*
%TO.P,J1,36,NC*%
%TO.N,unconnected-(J1-NC-Pad36)*%
X146653515Y-128909812D03*
%TO.P,J1,38,DEVSLP*%
%TO.N,unconnected-(J1-DEVSLP-Pad38)*%
X146153515Y-128909812D03*
%TO.P,J1,40,SMB_CLK*%
%TO.N,unconnected-(J1-SMB_CLK-Pad40)*%
X145653515Y-128909812D03*
%TO.P,J1,42,SMB_DATA*%
%TO.N,unconnected-(J1-SMB_DATA-Pad42)*%
X145153515Y-128909812D03*
%TO.P,J1,44,NC*%
%TO.N,unconnected-(J1-NC-Pad44)*%
X144653515Y-128909812D03*
%TO.P,J1,46,NC*%
%TO.N,unconnected-(J1-NC-Pad46)*%
X144153515Y-128909812D03*
%TO.P,J1,48,NC*%
%TO.N,unconnected-(J1-NC-Pad48)*%
X143653515Y-128909812D03*
%TO.P,J1,50,PERST#*%
%TO.N,PERSTZ*%
X143153515Y-128909812D03*
%TO.P,J1,52,CLKREQ#*%
%TO.N,unconnected-(J1-CLKREQ#-Pad52)*%
X142653515Y-128909812D03*
%TO.P,J1,54,PEWAKE#*%
%TO.N,Net-(J1-PEWAKE#)*%
X142153515Y-128909812D03*
%TO.P,J1,56,NC*%
%TO.N,unconnected-(J1-NC-Pad56)*%
X141653515Y-128909812D03*
%TO.P,J1,58,NC*%
%TO.N,unconnected-(J1-NC-Pad58)*%
X141153515Y-128909812D03*
%TO.P,J1,68,NC*%
%TO.N,unconnected-(J1-NC-Pad68)*%
X138653515Y-128909812D03*
%TO.P,J1,70,3.3V*%
%TO.N,Net-(C17-Pad1)*%
X138153515Y-128909812D03*
%TO.P,J1,72,3.3V*%
X137653515Y-128909812D03*
%TO.P,J1,74,3.3V*%
X137153515Y-128909812D03*
%TD*%
D13*
%TO.P,J2,1,5V*%
%TO.N,DS2_VBUS*%
X145234000Y-96207200D03*
D14*
%TO.P,J2,2,5V*%
%TO.N,DS1_VBUS*%
X145234000Y-93667200D03*
%TO.P,J2,3,D-*%
%TO.N,Net-(FL2-Pad4)*%
X147774000Y-96207200D03*
%TO.P,J2,4,D-*%
%TO.N,Net-(FL1-Pad3)*%
X147774000Y-93647200D03*
%TO.P,J2,5,D+*%
%TO.N,Net-(FL2-Pad3)*%
X150314000Y-96227200D03*
%TO.P,J2,6,D+*%
%TO.N,Net-(FL1-Pad4)*%
X150314000Y-93667200D03*
%TO.P,J2,7,GND*%
%TO.N,GND*%
X152854000Y-96207200D03*
%TO.P,J2,8,GND*%
X152854000Y-93647200D03*
%TO.P,J2,9,Key*%
%TO.N,unconnected-(J2-Key-Pad9)*%
X155374000Y-96187200D03*
%TO.P,J2,10,NC*%
%TO.N,unconnected-(J2-NC-Pad10)*%
X155374000Y-93647200D03*
%TD*%
D15*
%TO.P,C33,1*%
%TO.N,+1.1V*%
X138875000Y-104089800D03*
%TO.P,C33,2*%
%TO.N,GND*%
X137740000Y-104089800D03*
%TD*%
D16*
%TO.P,FB1,1*%
%TO.N,VDDA_3P3*%
X143450000Y-109050000D03*
%TO.P,FB1,2*%
%TO.N,+3.3V*%
X143450000Y-110800000D03*
%TD*%
D17*
%TO.P,C48,1*%
%TO.N,VDDA_3P3*%
X154540000Y-120280600D03*
%TO.P,C48,2*%
%TO.N,GND*%
X155675000Y-120280600D03*
%TD*%
%TO.P,C8,1*%
%TO.N,GND*%
X139600000Y-120075000D03*
%TO.P,C8,2*%
%TO.N,Net-(U3-EN)*%
X140735000Y-120075000D03*
%TD*%
%TO.P,C39,1*%
%TO.N,+1.1V*%
X139925000Y-106650000D03*
%TO.P,C39,2*%
%TO.N,GND*%
X141060000Y-106650000D03*
%TD*%
D15*
%TO.P,C31,1*%
%TO.N,+1.1V*%
X138875000Y-102210200D03*
%TO.P,C31,2*%
%TO.N,GND*%
X137740000Y-102210200D03*
%TD*%
D18*
%TO.P,C7,1*%
%TO.N,+1.1V*%
X138562500Y-105525000D03*
%TO.P,C7,2*%
%TO.N,GND*%
X136487500Y-105525000D03*
%TD*%
D15*
%TO.P,C28,1*%
%TO.N,+1.1V*%
X138875000Y-99170600D03*
%TO.P,C28,2*%
%TO.N,GND*%
X137740000Y-99170600D03*
%TD*%
%TO.P,C32,1*%
%TO.N,+1.1V*%
X138875000Y-103150000D03*
%TO.P,C32,2*%
%TO.N,GND*%
X137740000Y-103150000D03*
%TD*%
D17*
%TO.P,C37,1*%
%TO.N,+1.1V*%
X139925000Y-108529600D03*
%TO.P,C37,2*%
%TO.N,GND*%
X141060000Y-108529600D03*
%TD*%
D19*
%TO.P,R7,1*%
%TO.N,Net-(U3-BIAS)*%
X142400000Y-115677500D03*
%TO.P,R7,2*%
%TO.N,GRSTZ*%
X142400000Y-116872500D03*
%TD*%
D17*
%TO.P,C50,1*%
%TO.N,VDDA_3P3*%
X154540000Y-118401000D03*
%TO.P,C50,2*%
%TO.N,GND*%
X155675000Y-118401000D03*
%TD*%
D20*
%TO.P,U3,1,OUT*%
%TO.N,+1.1V*%
X137525000Y-114150000D03*
%TO.P,U3,2,NC*%
%TO.N,unconnected-(U3-NC-Pad2)*%
X138175000Y-114150000D03*
%TO.P,U3,3,NC*%
%TO.N,GND*%
X138825000Y-114150000D03*
%TO.P,U3,4,NC*%
X139475000Y-114150000D03*
%TO.P,U3,5,IN*%
%TO.N,Net-(U3-BIAS)*%
X140125000Y-114150000D03*
D21*
%TO.P,U3,6,IN*%
X141175000Y-115200000D03*
%TO.P,U3,7,IN*%
X141175000Y-115850000D03*
%TO.P,U3,8,IN*%
X141175000Y-116500000D03*
%TO.P,U3,9,PG*%
%TO.N,GRSTZ*%
X141175000Y-117150000D03*
%TO.P,U3,10,BIAS*%
%TO.N,Net-(U3-BIAS)*%
X141175000Y-117800000D03*
D20*
%TO.P,U3,11,EN*%
%TO.N,Net-(U3-EN)*%
X140125000Y-118850000D03*
%TO.P,U3,12,GND*%
%TO.N,GND*%
X139475000Y-118850000D03*
%TO.P,U3,13,NC*%
X138825000Y-118850000D03*
%TO.P,U3,14,NC*%
X138175000Y-118850000D03*
%TO.P,U3,15,SS*%
%TO.N,Net-(U3-SS)*%
X137525000Y-118850000D03*
D21*
%TO.P,U3,16,FB*%
%TO.N,Net-(U3-FB)*%
X136475000Y-117800000D03*
%TO.P,U3,17,NC*%
%TO.N,GND*%
X136475000Y-117150000D03*
%TO.P,U3,18,OUT*%
%TO.N,+1.1V*%
X136475000Y-116500000D03*
%TO.P,U3,19,OUT*%
X136475000Y-115850000D03*
%TO.P,U3,20,OUT*%
X136475000Y-115200000D03*
D22*
%TO.P,U3,21,PAD*%
%TO.N,GND*%
X138825000Y-116500000D03*
%TD*%
D15*
%TO.P,C29,1*%
%TO.N,+1.1V*%
X138875000Y-100330600D03*
%TO.P,C29,2*%
%TO.N,GND*%
X137740000Y-100330600D03*
%TD*%
D17*
%TO.P,C57,1*%
%TO.N,VDDA_3P3*%
X154540000Y-124039800D03*
%TO.P,C57,2*%
%TO.N,GND*%
X155675000Y-124039800D03*
%TD*%
D19*
%TO.P,R8,1*%
%TO.N,Net-(U3-BIAS)*%
X142400000Y-117900000D03*
%TO.P,R8,2*%
%TO.N,Net-(U3-EN)*%
X142400000Y-119095000D03*
%TD*%
D17*
%TO.P,C46,1*%
%TO.N,VDDA_3P3*%
X154540000Y-122160200D03*
%TO.P,C46,2*%
%TO.N,GND*%
X155675000Y-122160200D03*
%TD*%
%TO.P,C38,1*%
%TO.N,+1.1V*%
X139925000Y-107589800D03*
%TO.P,C38,2*%
%TO.N,GND*%
X141060000Y-107589800D03*
%TD*%
%TO.P,C41,1*%
%TO.N,+1.1V*%
X139925000Y-104770400D03*
%TO.P,C41,2*%
%TO.N,GND*%
X141060000Y-104770400D03*
%TD*%
D23*
%TO.P,C21,1*%
%TO.N,Net-(C17-Pad1)*%
X149986800Y-114900000D03*
%TO.P,C21,2*%
%TO.N,GND*%
X149986800Y-113765000D03*
%TD*%
D18*
%TO.P,C4,1*%
%TO.N,Net-(U3-BIAS)*%
X141162500Y-112425000D03*
%TO.P,C4,2*%
%TO.N,GND*%
X139087500Y-112425000D03*
%TD*%
D24*
%TO.P,C5,1*%
%TO.N,Net-(U3-SS)*%
X138400000Y-120132500D03*
%TO.P,C5,2*%
%TO.N,GND*%
X138400000Y-121267500D03*
%TD*%
D17*
%TO.P,C44,1*%
%TO.N,+1.1V*%
X139925000Y-101951000D03*
%TO.P,C44,2*%
%TO.N,GND*%
X141060000Y-101951000D03*
%TD*%
D15*
%TO.P,C16,1*%
%TO.N,GND*%
X150747500Y-117787900D03*
%TO.P,C16,2*%
%TO.N,WAKEZ*%
X149612500Y-117787900D03*
%TD*%
D25*
%TO.P,R6,1*%
%TO.N,+1.1V*%
X136127500Y-120575000D03*
%TO.P,R6,2*%
%TO.N,Net-(U3-FB)*%
X137322500Y-120575000D03*
%TD*%
D17*
%TO.P,C47,1*%
%TO.N,VDDA_3P3*%
X154540000Y-121220400D03*
%TO.P,C47,2*%
%TO.N,GND*%
X155675000Y-121220400D03*
%TD*%
%TO.P,C42,1*%
%TO.N,+1.1V*%
X139925000Y-103830600D03*
%TO.P,C42,2*%
%TO.N,GND*%
X141060000Y-103830600D03*
%TD*%
D26*
%TO.P,C56,1*%
%TO.N,VDDA_3P3*%
X155550000Y-113087500D03*
%TO.P,C56,2*%
%TO.N,GND*%
X155550000Y-115162500D03*
%TD*%
D27*
%TO.P,FL2,1,1*%
%TO.N,DM2*%
X148785000Y-100003000D03*
%TO.P,FL2,2,2*%
%TO.N,DP2*%
X149335000Y-100003000D03*
%TO.P,FL2,3,3*%
%TO.N,Net-(FL2-Pad3)*%
X149335000Y-98777000D03*
%TO.P,FL2,4,4*%
%TO.N,Net-(FL2-Pad4)*%
X148785000Y-98777000D03*
%TD*%
D15*
%TO.P,C53,1*%
%TO.N,+3.3V*%
X143242500Y-103342000D03*
%TO.P,C53,2*%
%TO.N,GND*%
X142107500Y-103342000D03*
%TD*%
%TO.P,C51,1*%
%TO.N,+3.3V*%
X143242500Y-107101200D03*
%TO.P,C51,2*%
%TO.N,GND*%
X142107500Y-107101200D03*
%TD*%
%TO.P,C54,1*%
%TO.N,+3.3V*%
X143242500Y-104281800D03*
%TO.P,C54,2*%
%TO.N,GND*%
X142107500Y-104281800D03*
%TD*%
D19*
%TO.P,R10,1*%
%TO.N,Net-(IC1-R1EXT)*%
X146825000Y-110377500D03*
%TO.P,R10,2*%
%TO.N,Net-(IC1-R1EXTRTN)*%
X146825000Y-111572500D03*
%TD*%
D17*
%TO.P,C49,1*%
%TO.N,VDDA_3P3*%
X154540000Y-119340800D03*
%TO.P,C49,2*%
%TO.N,GND*%
X155675000Y-119340800D03*
%TD*%
D18*
%TO.P,C34,1*%
%TO.N,+1.1V*%
X138562500Y-107480800D03*
%TO.P,C34,2*%
%TO.N,GND*%
X136487500Y-107480800D03*
%TD*%
D25*
%TO.P,R5,1*%
%TO.N,GND*%
X136127500Y-121550000D03*
%TO.P,R5,2*%
%TO.N,Net-(U3-FB)*%
X137322500Y-121550000D03*
%TD*%
D23*
%TO.P,C19,1*%
%TO.N,Net-(C17-Pad1)*%
X148132600Y-114900000D03*
%TO.P,C19,2*%
%TO.N,GND*%
X148132600Y-113765000D03*
%TD*%
D28*
%TO.P,D3,1,K*%
%TO.N,+3.3V*%
X143400000Y-112200000D03*
%TO.P,D3,2,A*%
%TO.N,GND*%
X145000000Y-112200000D03*
%TD*%
D23*
%TO.P,C17,1*%
%TO.N,Net-(C17-Pad1)*%
X146278400Y-114900000D03*
%TO.P,C17,2*%
%TO.N,GND*%
X146278400Y-113765000D03*
%TD*%
D29*
%TO.P,R28,1*%
%TO.N,WAKEZ*%
X150797500Y-116837500D03*
%TO.P,R28,2*%
%TO.N,Net-(J1-PEWAKE#)*%
X149602500Y-116837500D03*
%TD*%
D23*
%TO.P,C18,1*%
%TO.N,Net-(C17-Pad1)*%
X147205500Y-114900000D03*
%TO.P,C18,2*%
%TO.N,GND*%
X147205500Y-113765000D03*
%TD*%
%TO.P,C20,1*%
%TO.N,Net-(C17-Pad1)*%
X149059700Y-114900000D03*
%TO.P,C20,2*%
%TO.N,GND*%
X149059700Y-113765000D03*
%TD*%
D30*
%TO.P,F3,1*%
%TO.N,+3.3V*%
X139475000Y-110675000D03*
%TO.P,F3,2*%
%TO.N,Net-(U3-BIAS)*%
X141225000Y-110675000D03*
%TD*%
D17*
%TO.P,C45,1*%
%TO.N,VDDA_3P3*%
X154540000Y-123100000D03*
%TO.P,C45,2*%
%TO.N,GND*%
X155675000Y-123100000D03*
%TD*%
D29*
%TO.P,R4,1*%
%TO.N,Net-(D4-K)*%
X146597500Y-109375000D03*
%TO.P,R4,2*%
%TO.N,GND*%
X145402500Y-109375000D03*
%TD*%
D17*
%TO.P,C6,1*%
%TO.N,GND*%
X150182500Y-112550000D03*
%TO.P,C6,2*%
%TO.N,GRSTZ*%
X151317500Y-112550000D03*
%TD*%
D27*
%TO.P,FL1,1,1*%
%TO.N,DP1*%
X142175000Y-96251000D03*
%TO.P,FL1,2,2*%
%TO.N,DM1*%
X142725000Y-96251000D03*
%TO.P,FL1,3,3*%
%TO.N,Net-(FL1-Pad3)*%
X142725000Y-95025000D03*
%TO.P,FL1,4,4*%
%TO.N,Net-(FL1-Pad4)*%
X142175000Y-95025000D03*
%TD*%
D15*
%TO.P,C30,1*%
%TO.N,+1.1V*%
X138875000Y-101270400D03*
%TO.P,C30,2*%
%TO.N,GND*%
X137740000Y-101270400D03*
%TD*%
%TO.P,C55,1*%
%TO.N,+3.3V*%
X143242500Y-105221600D03*
%TO.P,C55,2*%
%TO.N,GND*%
X142107500Y-105221600D03*
%TD*%
%TO.P,C52,1*%
%TO.N,+3.3V*%
X143242500Y-106161400D03*
%TO.P,C52,2*%
%TO.N,GND*%
X142107500Y-106161400D03*
%TD*%
D31*
%TO.P,F1,1*%
%TO.N,Net-(C17-Pad1)*%
X144450000Y-115300000D03*
%TO.P,F1,2*%
%TO.N,+3.3V*%
X144450000Y-113550000D03*
%TD*%
D17*
%TO.P,C43,1*%
%TO.N,+1.1V*%
X139925000Y-102890800D03*
%TO.P,C43,2*%
%TO.N,GND*%
X141060000Y-102890800D03*
%TD*%
%TO.P,C40,1*%
%TO.N,+1.1V*%
X139925000Y-105710200D03*
%TO.P,C40,2*%
%TO.N,GND*%
X141060000Y-105710200D03*
%TD*%
D32*
%TO.N,GND*%
X155837000Y-90632200D03*
D33*
X152275000Y-110168000D03*
D34*
X148240376Y-89546741D03*
D32*
X155837000Y-91521200D03*
X150460000Y-116080000D03*
D34*
X148629776Y-51506955D03*
X147741638Y-90256220D03*
D32*
X154150000Y-100600000D03*
D34*
X147753596Y-68973103D03*
D32*
X146640000Y-103810000D03*
D34*
X147840000Y-52545000D03*
D33*
X147391060Y-121275000D03*
X149928140Y-121275000D03*
D32*
X136905000Y-92850000D03*
X141640000Y-102900000D03*
D33*
X139170000Y-113620000D03*
X139110000Y-126390000D03*
X139770000Y-122410000D03*
D32*
X146640000Y-104470000D03*
D33*
X154775000Y-105975000D03*
X146070000Y-113120000D03*
X140912000Y-126390000D03*
D32*
X146020000Y-104470000D03*
D34*
X144063646Y-87687143D03*
D33*
X139910000Y-119710000D03*
X154775000Y-110168000D03*
X156410000Y-121160000D03*
D34*
X147050000Y-53025000D03*
X144067225Y-89539601D03*
X146156352Y-72905746D03*
D32*
X154948000Y-91521200D03*
X146570000Y-116390000D03*
D34*
X144073576Y-71543791D03*
X145304072Y-72735598D03*
D32*
X136830000Y-103510000D03*
D34*
X144572011Y-68971590D03*
D33*
X142936000Y-126390000D03*
D32*
X154948000Y-98252200D03*
D34*
X148246727Y-71550931D03*
X147012702Y-72739084D03*
D32*
X137525000Y-92850000D03*
D34*
X144069997Y-69691333D03*
D33*
X153910000Y-126320000D03*
X136175000Y-116975000D03*
X145173515Y-125349812D03*
D34*
X147006351Y-90734894D03*
X147010421Y-86492323D03*
X144565660Y-86967400D03*
D33*
X136000000Y-122600000D03*
D32*
X154150000Y-101650000D03*
D34*
X148243954Y-87680000D03*
D33*
X148903515Y-126320000D03*
D32*
X137525000Y-92190000D03*
X141640000Y-106670000D03*
D34*
X145293649Y-86495810D03*
X145297721Y-90731408D03*
D32*
X147190000Y-116390000D03*
D33*
X150690000Y-114090000D03*
X156410000Y-122731618D03*
D34*
X143673000Y-51508910D03*
D33*
X152510000Y-104400000D03*
D32*
X141640000Y-104760000D03*
X147190000Y-117050000D03*
D34*
X146152776Y-53200865D03*
X148250305Y-69684190D03*
D33*
X143672322Y-95142792D03*
X156410000Y-116580000D03*
X145519800Y-121275000D03*
D32*
X136830000Y-104170000D03*
X136210000Y-104170000D03*
D33*
X139550000Y-126390000D03*
D34*
X147747989Y-72260410D03*
X145252776Y-53026955D03*
D33*
X136000000Y-123040000D03*
X142133515Y-125349812D03*
X152510000Y-103600000D03*
D32*
X146020000Y-103810000D03*
X136905000Y-92190000D03*
D34*
X147747245Y-86968913D03*
D33*
X136975000Y-98350000D03*
X139330000Y-122410000D03*
D32*
X146570000Y-117050000D03*
D34*
X146150001Y-86329556D03*
X147016772Y-68496513D03*
X144577620Y-72261924D03*
D33*
X142330000Y-120550000D03*
D34*
X144571269Y-90257734D03*
X145300000Y-68500000D03*
D32*
X136210000Y-103510000D03*
D33*
X150182500Y-112550000D03*
X154760000Y-114420000D03*
D32*
X154948000Y-90632200D03*
D34*
X144462776Y-52546955D03*
X146156352Y-68333746D03*
D33*
X153950000Y-115540000D03*
X136975000Y-100225000D03*
D34*
X146150001Y-90901556D03*
D33*
X152275000Y-105975000D03*
X156410000Y-119320000D03*
X156410000Y-114420000D03*
%TO.N,PCIE_REFCLKP*%
X148909600Y-121275000D03*
X141674000Y-126390000D03*
%TO.N,PERSTZ*%
X145225000Y-126125000D03*
X143407420Y-120082420D03*
%TO.N,PCIE_REFCLKN*%
X148409600Y-121275000D03*
X142174000Y-126390000D03*
%TO.N,PCIE_RXN*%
X146205600Y-121275000D03*
X143903515Y-125349812D03*
%TO.N,PCIE_RXP*%
X143403515Y-125349812D03*
X146705600Y-121275000D03*
%TO.N,+3.3V*%
X143510000Y-118800000D03*
X153413600Y-117975000D03*
D32*
X137975000Y-113149000D03*
X137213000Y-111625000D03*
D33*
X149505100Y-120620000D03*
X143597600Y-116175000D03*
X151850000Y-120925000D03*
D32*
X137975000Y-111625000D03*
X137975000Y-112387000D03*
X137213000Y-112387000D03*
D33*
%TO.N,GRSTZ*%
X152000000Y-112030587D03*
%TO.N,+1.1V*%
X149100000Y-112510000D03*
X148230600Y-118844000D03*
X153413600Y-116175000D03*
X149330600Y-118844000D03*
X153525000Y-113025000D03*
X151106996Y-121110379D03*
X148230600Y-112306000D03*
X147130600Y-118844000D03*
X152150000Y-119125000D03*
X139480000Y-104500000D03*
X139090000Y-104500000D03*
X145580000Y-112280000D03*
X150210000Y-110520000D03*
X153413600Y-117375000D03*
X139480000Y-104880000D03*
X153413600Y-114375000D03*
X144718900Y-119031100D03*
X139090000Y-104880000D03*
%TO.N,WAKEZ*%
X145425000Y-118050000D03*
%TO.N,Net-(IC1-VSS_OSC)*%
X137877148Y-119630000D03*
X147130600Y-112306000D03*
%TO.N,VDDA_3P3*%
X149705600Y-110413000D03*
X147905600Y-110667000D03*
X145505600Y-110667000D03*
X146580600Y-112306000D03*
X151774600Y-113100000D03*
X146972341Y-120552346D03*
X151774600Y-116950000D03*
%TO.N,Net-(D4-K)*%
X147250000Y-109700000D03*
%TO.N,OVERCUR2Z*%
X143597600Y-117975000D03*
X147982255Y-109125571D03*
%TO.N,PWRON2Z*%
X145450000Y-117225000D03*
X147593230Y-108899381D03*
%TO.N,Net-(IC1-R1EXTRTN)*%
X146030600Y-112306000D03*
%TO.N,Net-(IC1-R1EXT)*%
X146250000Y-110680000D03*
%TO.N,OVERCUR1Z*%
X143441817Y-117552823D03*
X145900000Y-101200000D03*
%TO.N,PWRON1Z*%
X145430000Y-116620000D03*
X147325000Y-108425000D03*
%TO.N,Net-(U3-BIAS)*%
X143100000Y-116450000D03*
X142950000Y-117425000D03*
D32*
%TO.N,Net-(C17-Pad1)*%
X155246000Y-125673000D03*
X155921000Y-125673000D03*
D33*
X143037400Y-114158000D03*
D32*
X137555000Y-124887500D03*
D33*
X143037400Y-114658000D03*
D32*
X155246000Y-125098000D03*
D33*
X143037400Y-115674000D03*
X145425000Y-113650000D03*
D32*
X155921000Y-125098000D03*
X137555000Y-124312500D03*
D33*
X143037400Y-113650000D03*
X143037400Y-115166000D03*
D32*
X138230000Y-124312500D03*
D33*
X145425000Y-114158000D03*
X145425000Y-115166000D03*
D32*
X138230000Y-124887500D03*
D33*
X145425000Y-114658000D03*
X145425000Y-115674000D03*
%TO.N,DM2*%
X154775000Y-109025000D03*
%TO.N,DP2*%
X154775000Y-107125000D03*
%TO.N,DM1*%
X152275000Y-109025000D03*
%TO.N,DP1*%
X152275000Y-107125000D03*
%TD*%
D35*
%TO.N,GND*%
X148107200Y-113765000D02*
X149021600Y-113765000D01*
X147192800Y-113765000D02*
X148107200Y-113765000D01*
X146278400Y-113765000D02*
X147192800Y-113765000D01*
X150182500Y-113518500D02*
X149936000Y-113765000D01*
X150182500Y-112550000D02*
X150182500Y-113518500D01*
X149936000Y-113765000D02*
X149021600Y-113765000D01*
D36*
%TO.N,PCIE_REFCLKP*%
X141579120Y-122895156D02*
X144888176Y-119586100D01*
X148748500Y-120722776D02*
X148748500Y-121113900D01*
X141579120Y-124445156D02*
X141579120Y-122895156D01*
X141361100Y-124663176D02*
X141579120Y-124445156D01*
X148748500Y-121113900D02*
X148909600Y-121275000D01*
X141361100Y-125636824D02*
X141361100Y-124663176D01*
X147550000Y-119586100D02*
X147611824Y-119586100D01*
X147465000Y-119586100D02*
X147550000Y-119586100D01*
X141835100Y-126110824D02*
X141361100Y-125636824D01*
X144888176Y-119586100D02*
X145925000Y-119586100D01*
X146078150Y-119432950D02*
X146695000Y-119432950D01*
X146848150Y-119586100D02*
X147465000Y-119586100D01*
X147611824Y-119586100D02*
X148748500Y-120722776D01*
X141674000Y-126390000D02*
X141835100Y-126228900D01*
X141835100Y-126228900D02*
X141835100Y-126110824D01*
X145925000Y-119586100D02*
G75*
G03*
X146001600Y-119509525I0J76600D01*
G01*
X146771575Y-119509525D02*
G75*
G03*
X146848150Y-119586025I76525J25D01*
G01*
X146695000Y-119432950D02*
G75*
G02*
X146771550Y-119509525I0J-76550D01*
G01*
X146001575Y-119509525D02*
G75*
G02*
X146078150Y-119432975I76525J25D01*
G01*
D37*
%TO.N,PERSTZ*%
X145225000Y-126165000D02*
X144610000Y-126780000D01*
X144610000Y-126780000D02*
X143666327Y-126780000D01*
X143153515Y-127292812D02*
X143153515Y-128909812D01*
D38*
X143407420Y-120082420D02*
X143407420Y-120042580D01*
D37*
X145225000Y-126125000D02*
X145225000Y-126165000D01*
X143666327Y-126780000D02*
X143153515Y-127292812D01*
D36*
%TO.N,PCIE_REFCLKN*%
X141538900Y-125563176D02*
X141538900Y-124736824D01*
X148570700Y-121113900D02*
X148409600Y-121275000D01*
X148570700Y-120796424D02*
X148570700Y-121113900D01*
X142012900Y-126228900D02*
X142012900Y-126037176D01*
X142012900Y-126037176D02*
X141538900Y-125563176D01*
X141758900Y-124516824D02*
X141758900Y-122968804D01*
X141757910Y-122967814D02*
X144961824Y-119763900D01*
X141538900Y-124736824D02*
X141758900Y-124516824D01*
X142174000Y-126390000D02*
X142012900Y-126228900D01*
X141758900Y-122968804D02*
X141757910Y-122967814D01*
X147538176Y-119763900D02*
X148570700Y-120796424D01*
X144961824Y-119763900D02*
X147538176Y-119763900D01*
%TO.N,PCIE_RXN*%
X144452742Y-124546358D02*
X144334608Y-124428224D01*
X144334608Y-124071842D02*
X144423704Y-123982747D01*
X146145558Y-123209926D02*
X146234653Y-123120829D01*
X145343698Y-123655402D02*
X145225537Y-123537241D01*
X143903515Y-125349812D02*
X144005669Y-125349812D01*
X145254603Y-124100881D02*
X145343697Y-124011785D01*
X144780086Y-123982746D02*
X144898221Y-124100881D01*
X146234653Y-123120829D02*
X146366700Y-122988781D01*
X144005669Y-125349812D02*
X144452741Y-124902740D01*
X146366700Y-121436100D02*
X146205600Y-121275000D01*
X146366700Y-122988781D02*
X146366700Y-121436100D01*
X145671014Y-123091765D02*
X145789176Y-123209927D01*
X145225536Y-123180861D02*
X145314634Y-123091764D01*
X145343697Y-124011785D02*
X145343697Y-124011784D01*
X145789176Y-123209927D02*
G75*
G03*
X146145591Y-123209960I178224J178227D01*
G01*
X145314634Y-123091764D02*
G75*
G02*
X145670991Y-123091788I178166J-178236D01*
G01*
X144898221Y-124100881D02*
G75*
G03*
X145254603Y-124100881I178191J178191D01*
G01*
X144334608Y-124428224D02*
G75*
G02*
X144334575Y-124071809I178192J178224D01*
G01*
X144452741Y-124902740D02*
G75*
G03*
X144452791Y-124546309I-178141J178240D01*
G01*
X144423704Y-123982747D02*
G75*
G02*
X144780091Y-123982741I178196J-178153D01*
G01*
X145343697Y-124011784D02*
G75*
G03*
X145343691Y-123655409I-178197J178184D01*
G01*
X145225537Y-123537241D02*
G75*
G02*
X145225585Y-123180911I178163J178141D01*
G01*
D38*
%TO.N,Net-(J1-PEWAKE#)*%
X146377597Y-115925500D02*
X148853000Y-115925500D01*
X141206519Y-127200000D02*
X140241100Y-126234581D01*
X145758403Y-117589500D02*
X146105500Y-117242403D01*
X140341100Y-124900000D02*
X140341100Y-121333900D01*
X140241100Y-126234581D02*
X140241100Y-125000000D01*
X146105500Y-116197597D02*
X146377597Y-115925500D01*
X144645019Y-117589500D02*
X145758403Y-117589500D01*
X142886100Y-119432010D02*
X142886100Y-118757990D01*
X142886100Y-118757990D02*
X143304590Y-118339500D01*
X140241100Y-125000000D02*
X140341100Y-124900000D01*
X142070703Y-127200000D02*
X141206519Y-127200000D01*
X140341100Y-121333900D02*
X142056400Y-119618600D01*
X149607500Y-116837500D02*
X149543000Y-116902000D01*
X142056400Y-119618600D02*
X142699510Y-119618600D01*
X143304590Y-118339500D02*
X143895019Y-118339500D01*
X146105500Y-117242403D02*
X146105500Y-116197597D01*
X142699510Y-119618600D02*
X142886100Y-119432010D01*
X142153515Y-127282812D02*
X142070703Y-127200000D01*
X143895019Y-118339500D02*
X144645019Y-117589500D01*
X148853000Y-115925500D02*
X149752500Y-116825000D01*
X142153515Y-128909812D02*
X142153515Y-127282812D01*
D36*
%TO.N,PCIE_RXP*%
X146705600Y-121275000D02*
X146545500Y-121435100D01*
X144242615Y-125365728D02*
X144242615Y-125490272D01*
X144242615Y-125490272D02*
X144043975Y-125688912D01*
X146545500Y-123062843D02*
X144242615Y-125365728D01*
X143742615Y-125688912D02*
X143403515Y-125349812D01*
X144043975Y-125688912D02*
X143742615Y-125688912D01*
X146545500Y-121435100D02*
X146545500Y-123062843D01*
D39*
%TO.N,+3.3V*%
X141842062Y-109572400D02*
X143400000Y-111130338D01*
D35*
X143242500Y-107101200D02*
X143242500Y-107714616D01*
D39*
X140577600Y-109572400D02*
X141842062Y-109572400D01*
D35*
X143242500Y-105221600D02*
X143242500Y-106161400D01*
D39*
X143400000Y-111130338D02*
X143400000Y-112200000D01*
X143400000Y-112200000D02*
X143400000Y-112500000D01*
D40*
X153413600Y-119361400D02*
X151850000Y-120925000D01*
D39*
X138812314Y-110675000D02*
X137897400Y-111589914D01*
X139475000Y-110675000D02*
X138812314Y-110675000D01*
D40*
X151850000Y-120969830D02*
X151850000Y-120925000D01*
D35*
X143242500Y-104281800D02*
X143242500Y-105221600D01*
X143242500Y-106161400D02*
X143242500Y-107101200D01*
D39*
X137897400Y-111589914D02*
X137897400Y-111625000D01*
D35*
X143242500Y-103342000D02*
X143242500Y-104281800D01*
D39*
X143400000Y-112500000D02*
X144450000Y-113550000D01*
X139475000Y-110675000D02*
X140577600Y-109572400D01*
D40*
X153413600Y-117975000D02*
X153413600Y-119361400D01*
D35*
X141842062Y-109115054D02*
X141842062Y-109572400D01*
X143242500Y-107714616D02*
X141842062Y-109115054D01*
D37*
%TO.N,Net-(U3-SS)*%
X137525000Y-118850000D02*
X137476148Y-118898852D01*
X137476148Y-118898852D02*
X137476148Y-119831833D01*
X137476148Y-119831833D02*
X137776815Y-120132500D01*
X137776815Y-120132500D02*
X138400000Y-120132500D01*
D40*
%TO.N,GRSTZ*%
X151836913Y-112030587D02*
X151317500Y-112550000D01*
X152000000Y-112030587D02*
X151836913Y-112030587D01*
D41*
X142122500Y-117150000D02*
X142400000Y-116872500D01*
D42*
X144164842Y-116189000D02*
X143481342Y-116872500D01*
X150379938Y-115487600D02*
X146387400Y-115487600D01*
X145686000Y-116189000D02*
X144164842Y-116189000D01*
X146387400Y-115487600D02*
X145686000Y-116189000D01*
D41*
X141175000Y-117150000D02*
X142122500Y-117150000D01*
D42*
X143481342Y-116872500D02*
X142400000Y-116872500D01*
X151317500Y-114550038D02*
X150379938Y-115487600D01*
X151317500Y-112550000D02*
X151317500Y-114550038D01*
D35*
%TO.N,+1.1V*%
X139925000Y-103830600D02*
X139555600Y-103830600D01*
D40*
X153411145Y-117375000D02*
X152150000Y-118636145D01*
D35*
X139769400Y-103830600D02*
X138875000Y-104725000D01*
X138875000Y-99170600D02*
X138875000Y-100330600D01*
D39*
X139925000Y-107589800D02*
X138671500Y-107589800D01*
D35*
X139555600Y-101951000D02*
X138875000Y-101270400D01*
D40*
X150210000Y-110520000D02*
X150210000Y-110314945D01*
X149529145Y-109987000D02*
X149760000Y-109987000D01*
D35*
X139925000Y-105710200D02*
X138747700Y-105710200D01*
D40*
X149882055Y-109987000D02*
X149760000Y-109987000D01*
D35*
X139925000Y-106650000D02*
X139925000Y-107589800D01*
X138875000Y-104725000D02*
X138875000Y-105212500D01*
D40*
X149330600Y-118844000D02*
X149782992Y-118844000D01*
D39*
X139925000Y-108529600D02*
X137654600Y-108529600D01*
X138876200Y-107480800D02*
X139925000Y-108529600D01*
X138562500Y-107480800D02*
X138876200Y-107480800D01*
D35*
X139555600Y-104770400D02*
X138875000Y-104089800D01*
X139925000Y-103039800D02*
X138875000Y-104089800D01*
D40*
X144040000Y-103226626D02*
X142083774Y-101270400D01*
D35*
X139687500Y-106650000D02*
X138562500Y-105525000D01*
D39*
X137654600Y-108529600D02*
X137584150Y-108459150D01*
D35*
X139134200Y-101951000D02*
X138875000Y-102210200D01*
X138875000Y-101270400D02*
X138875000Y-102210200D01*
X138875000Y-102210200D02*
X138875000Y-103150000D01*
D42*
X135761000Y-120208500D02*
X136127500Y-120575000D01*
D35*
X136475000Y-116318991D02*
X136565505Y-116409496D01*
D40*
X149782992Y-118844000D02*
X151106996Y-120168004D01*
D35*
X138747700Y-105710200D02*
X138562500Y-105525000D01*
D39*
X137584150Y-108459150D02*
X136310400Y-109732900D01*
D35*
X139925000Y-101951000D02*
X139555600Y-101951000D01*
X139925000Y-105710200D02*
X139925000Y-106650000D01*
X139555600Y-103830600D02*
X138875000Y-103150000D01*
D40*
X148230600Y-112306000D02*
X148230600Y-111285545D01*
D35*
X139925000Y-103830600D02*
X139769400Y-103830600D01*
D40*
X148230600Y-111285545D02*
X149529145Y-109987000D01*
D39*
X138562500Y-107480800D02*
X137584150Y-108459150D01*
D35*
X138875000Y-105212500D02*
X138562500Y-105525000D01*
D39*
X136310400Y-113063000D02*
X137397400Y-114150000D01*
D40*
X153413600Y-117375000D02*
X153411145Y-117375000D01*
X142083774Y-101270400D02*
X138875000Y-101270400D01*
D35*
X139555600Y-102890800D02*
X138875000Y-102210200D01*
X139925000Y-101951000D02*
X139925000Y-102100000D01*
D40*
X151106996Y-120168004D02*
X151106996Y-121110379D01*
D39*
X138562500Y-106400000D02*
X138562500Y-107480800D01*
D35*
X139925000Y-102100000D02*
X138875000Y-103150000D01*
D39*
X138562500Y-105525000D02*
X138562500Y-106400000D01*
D35*
X138875000Y-104089800D02*
X138875000Y-104725000D01*
D40*
X152150000Y-118636145D02*
X152150000Y-119125000D01*
D35*
X136969800Y-114150000D02*
X137522400Y-114150000D01*
X139925000Y-103830600D02*
X139925000Y-104770400D01*
D39*
X138562500Y-105525000D02*
X138562500Y-107480800D01*
X136310400Y-109732900D02*
X136310400Y-113063000D01*
D35*
X139925000Y-101951000D02*
X139925000Y-102890800D01*
X136475000Y-115850000D02*
X136475000Y-116318991D01*
D40*
X144040000Y-106160000D02*
X144040000Y-103226626D01*
D35*
X136475000Y-115850000D02*
X136475000Y-115200000D01*
X139925000Y-107589800D02*
X139925000Y-108529600D01*
X139925000Y-105710200D02*
X139860200Y-105710200D01*
X138875000Y-103150000D02*
X138875000Y-104089800D01*
X138867500Y-99163100D02*
X138875000Y-99170600D01*
X136475000Y-115200000D02*
X136475000Y-114644800D01*
X139752300Y-107589800D02*
X138562500Y-106400000D01*
D40*
X149760000Y-109987000D02*
X147583000Y-107810000D01*
D35*
X139925000Y-102890800D02*
X139925000Y-103830600D01*
X139925000Y-104770400D02*
X139555600Y-104770400D01*
D39*
X138671500Y-107589800D02*
X138562500Y-107480800D01*
D35*
X139925000Y-101951000D02*
X139134200Y-101951000D01*
D42*
X135761000Y-116763800D02*
X135761000Y-120208500D01*
D40*
X150210000Y-110314945D02*
X149882055Y-109987000D01*
X152150000Y-119125000D02*
X151106996Y-120168004D01*
X145690000Y-107810000D02*
X144040000Y-106160000D01*
D35*
X139860200Y-105710200D02*
X138875000Y-104725000D01*
X139925000Y-106650000D02*
X139687500Y-106650000D01*
X139925000Y-104770400D02*
X139925000Y-105710200D01*
X138875000Y-100330600D02*
X138875000Y-101270400D01*
X139925000Y-102890800D02*
X139925000Y-103039800D01*
X139925000Y-102890800D02*
X139555600Y-102890800D01*
D42*
X136024800Y-116500000D02*
X135761000Y-116763800D01*
X136475000Y-116500000D02*
X136024800Y-116500000D01*
D40*
X147583000Y-107810000D02*
X145690000Y-107810000D01*
D35*
X139925000Y-107589800D02*
X139752300Y-107589800D01*
X136475000Y-114644800D02*
X136969800Y-114150000D01*
D41*
%TO.N,Net-(U3-EN)*%
X140735000Y-120075000D02*
X140735000Y-119460000D01*
D11*
X142400000Y-119095000D02*
X141715000Y-119095000D01*
D41*
X140735000Y-119460000D02*
X140125000Y-118850000D01*
D11*
X141715000Y-119095000D02*
X140735000Y-120075000D01*
D40*
%TO.N,WAKEZ*%
X149300000Y-117750000D02*
X149757500Y-117750000D01*
D37*
X149612500Y-117762500D02*
X149591028Y-117762500D01*
D40*
X145425000Y-118050000D02*
X149000000Y-118050000D01*
D37*
X150537500Y-116837500D02*
X149612500Y-117762500D01*
D40*
X149000000Y-118050000D02*
X149300000Y-117750000D01*
D37*
X150802500Y-116837500D02*
X150537500Y-116837500D01*
D11*
%TO.N,VDDA_3P3*%
X154540000Y-118401000D02*
X154540000Y-117716511D01*
D41*
X151774600Y-113100000D02*
X151774600Y-116950000D01*
D38*
X146972341Y-120552346D02*
X147049687Y-120475000D01*
D41*
X155550000Y-113087500D02*
X155011500Y-112549000D01*
D35*
X154540000Y-124039800D02*
X154540000Y-123100000D01*
D42*
X143657600Y-108842400D02*
X143450000Y-109050000D01*
D38*
X147260765Y-120475000D02*
X147814100Y-121028335D01*
D40*
X149526000Y-111100600D02*
X149526000Y-112686455D01*
D38*
X147049687Y-120475000D02*
X147260765Y-120475000D01*
D40*
X149705600Y-110921000D02*
X149705600Y-110413000D01*
X147481766Y-112936000D02*
X147327766Y-112782000D01*
D42*
X146953770Y-108842400D02*
X143657600Y-108842400D01*
D41*
X147754600Y-112355166D02*
X147754600Y-110818000D01*
D11*
X153643489Y-116820000D02*
X151904600Y-116820000D01*
D35*
X154540000Y-121220400D02*
X154540000Y-120280600D01*
D42*
X147905600Y-109774358D02*
X147420242Y-109289000D01*
D40*
X145505600Y-110667000D02*
X145067000Y-110667000D01*
D38*
X147814100Y-121028335D02*
X147814100Y-121521665D01*
D40*
X149276455Y-112936000D02*
X147481766Y-112936000D01*
D41*
X153175000Y-112532421D02*
X153175000Y-112549000D01*
X155011500Y-112549000D02*
X152325600Y-112549000D01*
X147754600Y-110818000D02*
X147905600Y-110667000D01*
D40*
X149705600Y-110921000D02*
X149526000Y-111100600D01*
D42*
X147420242Y-109289000D02*
X147400370Y-109289000D01*
D41*
X151638579Y-110996000D02*
X153175000Y-112532421D01*
X149780600Y-110996000D02*
X151638579Y-110996000D01*
D35*
X154540000Y-123100000D02*
X154540000Y-122160200D01*
D41*
X146580600Y-112306000D02*
X146580600Y-112429166D01*
D38*
X148452635Y-122160200D02*
X154540000Y-122160200D01*
D42*
X147905600Y-110667000D02*
X147905600Y-109774358D01*
D41*
X146580600Y-112429166D02*
X146933434Y-112782000D01*
D38*
X147814100Y-121521665D02*
X148452635Y-122160200D01*
D35*
X154540000Y-120280600D02*
X154540000Y-119340800D01*
D41*
X146933434Y-112782000D02*
X147327766Y-112782000D01*
D42*
X147400370Y-109289000D02*
X146953770Y-108842400D01*
D41*
X149705600Y-110921000D02*
X149780600Y-110996000D01*
X147327766Y-112782000D02*
X147754600Y-112355166D01*
D40*
X145067000Y-110667000D02*
X143450000Y-109050000D01*
D11*
X154540000Y-117716511D02*
X153643489Y-116820000D01*
D35*
X154540000Y-119340800D02*
X154540000Y-118401000D01*
D40*
X149526000Y-112686455D02*
X149276455Y-112936000D01*
D41*
X152325600Y-112549000D02*
X151774600Y-113100000D01*
D35*
X154540000Y-122160200D02*
X154540000Y-121220400D01*
D40*
%TO.N,Net-(D4-K)*%
X146922500Y-109700000D02*
X146597500Y-109375000D01*
X147250000Y-109700000D02*
X146922500Y-109700000D01*
%TO.N,Net-(IC1-R1EXTRTN)*%
X146505001Y-111572500D02*
X146030600Y-112046901D01*
X146030600Y-112046901D02*
X146030600Y-112306000D01*
X146900000Y-111397500D02*
X146727100Y-111397500D01*
X146825000Y-111572500D02*
X146505001Y-111572500D01*
%TO.N,Net-(IC1-R1EXT)*%
X146522500Y-110680000D02*
X146825000Y-110377500D01*
X146250000Y-110680000D02*
X146522500Y-110680000D01*
D43*
%TO.N,Net-(U3-FB)*%
X136475000Y-117800000D02*
X136475000Y-119727500D01*
X136475000Y-119727500D02*
X137322500Y-120575000D01*
X137322500Y-120575000D02*
X137322500Y-121550000D01*
D39*
%TO.N,Net-(U3-BIAS)*%
X141162500Y-112425000D02*
X141162500Y-115187500D01*
D43*
X142400000Y-115677500D02*
X141997500Y-115677500D01*
D39*
X141162500Y-115187500D02*
X141175000Y-115200000D01*
X141225000Y-110675000D02*
X141225000Y-112362500D01*
X141162500Y-112425000D02*
X141162500Y-113240100D01*
X141162500Y-113240100D02*
X140252600Y-114150000D01*
D40*
X141500000Y-115525000D02*
X141175000Y-115200000D01*
D41*
X143100000Y-116450000D02*
X142400000Y-115750000D01*
D39*
X141175000Y-115200000D02*
X141175000Y-114394800D01*
D41*
X142475000Y-117900000D02*
X142950000Y-117425000D01*
D11*
X141175000Y-116500000D02*
X141175000Y-115850000D01*
X141175000Y-115850000D02*
X141175000Y-115200000D01*
D41*
X142300000Y-117800000D02*
X142400000Y-117900000D01*
D39*
X140930200Y-114150000D02*
X140252600Y-114150000D01*
D43*
X141997500Y-115677500D02*
X141175000Y-116500000D01*
D39*
X141225000Y-112362500D02*
X141162500Y-112425000D01*
D37*
X141175000Y-117800000D02*
X141500000Y-117800000D01*
D39*
X141652500Y-115677500D02*
X142236400Y-115677500D01*
D11*
X141175000Y-114886800D02*
X141175000Y-115200000D01*
D41*
X142400000Y-117900000D02*
X142475000Y-117900000D01*
X142400000Y-115750000D02*
X142400000Y-115677500D01*
D39*
X141175000Y-115200000D02*
X141175000Y-116372400D01*
X141175000Y-115200000D02*
X141652500Y-115677500D01*
X141175000Y-114394800D02*
X140930200Y-114150000D01*
D41*
X141175000Y-117800000D02*
X142300000Y-117800000D01*
D35*
%TO.N,Net-(C17-Pad1)*%
X149021600Y-114900000D02*
X149936000Y-114900000D01*
D39*
X137500000Y-126725000D02*
X137500000Y-124990524D01*
D35*
X143037400Y-113650000D02*
X143037400Y-114525000D01*
D41*
X143012000Y-114158000D02*
X143012000Y-113650000D01*
X143012000Y-114658000D02*
X143012000Y-114525000D01*
D39*
X143057000Y-114677600D02*
X145405400Y-114677600D01*
D35*
X155153515Y-127325000D02*
X154824515Y-127325000D01*
X146278400Y-114900000D02*
X147192800Y-114900000D01*
D39*
X137500000Y-124990524D02*
X137890524Y-124600000D01*
D35*
X145425000Y-113650000D02*
X145425000Y-114658000D01*
X147192800Y-114900000D02*
X148107200Y-114900000D01*
D39*
X143037400Y-114658000D02*
X143057000Y-114677600D01*
D43*
X145425000Y-115674000D02*
X145425000Y-113650000D01*
D41*
X143037400Y-115166000D02*
X143037400Y-114658000D01*
D35*
X146278400Y-114900000D02*
X145667000Y-114900000D01*
X155153515Y-125865485D02*
X155921000Y-125098000D01*
X148107200Y-114900000D02*
X149021600Y-114900000D01*
X145667000Y-114900000D02*
X145425000Y-114658000D01*
D41*
X143037400Y-115674000D02*
X143037400Y-115166000D01*
X143012000Y-114525000D02*
X143012000Y-114158000D01*
D35*
X155153515Y-127325000D02*
X155153515Y-125865485D01*
X137200000Y-127175000D02*
X138029000Y-127175000D01*
D39*
X145405400Y-114677600D02*
X145425000Y-114658000D01*
D44*
%TO.N,Net-(FL1-Pad4)*%
X149135601Y-92335601D02*
X149135601Y-92869801D01*
X142348400Y-93912606D02*
X144448917Y-91812089D01*
X148612089Y-91812089D02*
X149135601Y-92335601D01*
X142175000Y-94925000D02*
X142175000Y-95025000D01*
X142348400Y-94476599D02*
X142348400Y-93912606D01*
X149135601Y-92869801D02*
X150314000Y-94048200D01*
X142175000Y-95025000D02*
X142175000Y-94649999D01*
X144448917Y-91812089D02*
X148612089Y-91812089D01*
X142175000Y-94649999D02*
X142348400Y-94476599D01*
%TO.N,Net-(FL1-Pad3)*%
X147424415Y-92015289D02*
X147544415Y-92015289D01*
X147939992Y-93862208D02*
X147774000Y-94028200D01*
X148932399Y-92432399D02*
X148932399Y-92869801D01*
X148932399Y-92869801D02*
X147939992Y-93862208D01*
X147184415Y-92335848D02*
X147184415Y-92255289D01*
X146824415Y-92575848D02*
X146944415Y-92575848D01*
X146584415Y-92255289D02*
X146584415Y-92335848D01*
X142551600Y-94476599D02*
X142551600Y-93996774D01*
X147544415Y-92015289D02*
X148515289Y-92015289D01*
X142725000Y-94649999D02*
X142551600Y-94476599D01*
X142725000Y-95025000D02*
X142725000Y-94925000D01*
X142551600Y-93996774D02*
X144533085Y-92015289D01*
X144533085Y-92015289D02*
X146344415Y-92015289D01*
X142725000Y-95025000D02*
X142725000Y-94649999D01*
X148515289Y-92015289D02*
X148932399Y-92432399D01*
X147184415Y-92255289D02*
G75*
G02*
X147424415Y-92015315I239985J-11D01*
G01*
X146584415Y-92335848D02*
G75*
G03*
X146824415Y-92575785I239985J48D01*
G01*
X146344415Y-92015289D02*
G75*
G02*
X146584411Y-92255289I-15J-240011D01*
G01*
X146944415Y-92575848D02*
G75*
G03*
X147184448Y-92335848I-15J240048D01*
G01*
%TO.N,Net-(FL2-Pad4)*%
X148952399Y-97385599D02*
X148952399Y-98248316D01*
X147774000Y-96207200D02*
X148952399Y-97385599D01*
X148958400Y-98503600D02*
X148958400Y-98254317D01*
X148952399Y-98248316D02*
X148958400Y-98254317D01*
X148785000Y-98677000D02*
X148958400Y-98503600D01*
X148785000Y-98777000D02*
X148785000Y-98677000D01*
%TO.N,Net-(FL2-Pad3)*%
X149335000Y-98677000D02*
X149335000Y-98777000D01*
X149155601Y-97385599D02*
X149155601Y-98170557D01*
X150314000Y-96227200D02*
X149155601Y-97385599D01*
X149161600Y-98503600D02*
X149335000Y-98677000D01*
X149155601Y-98170557D02*
X149161600Y-98176556D01*
X149161600Y-98176556D02*
X149161600Y-98503600D01*
%TO.N,DM2*%
X148958400Y-100551401D02*
X148958400Y-102567825D01*
X155575000Y-109025000D02*
X154775000Y-109025000D01*
X156023834Y-106192518D02*
X156023834Y-108576166D01*
X155282916Y-105451600D02*
X156023834Y-106192518D01*
X150080460Y-104029296D02*
X149739384Y-104370371D01*
X151842175Y-105451600D02*
X155282916Y-105451600D01*
X148785000Y-100378001D02*
X148958400Y-100551401D01*
X149231932Y-103180768D02*
X148890839Y-103521860D01*
X150844134Y-104453558D02*
X150928988Y-104538413D01*
X148890839Y-103861271D02*
X148975691Y-103946123D01*
X149995606Y-103605030D02*
X150080460Y-103689885D01*
X151738812Y-105348237D02*
X151842175Y-105451600D01*
X150163648Y-104794634D02*
X150504723Y-104453558D01*
X148958400Y-102567825D02*
X149231932Y-102841357D01*
X149739384Y-104709782D02*
X149824236Y-104794634D01*
X148785000Y-100003000D02*
X148785000Y-100378001D01*
X156023834Y-108576166D02*
X155575000Y-109025000D01*
X149315103Y-103946123D02*
X149656195Y-103605030D01*
X150928988Y-104538413D02*
X151738812Y-105348237D01*
X149656195Y-103605030D02*
G75*
G02*
X149995606Y-103605029I169706J-169707D01*
G01*
X149231932Y-102841357D02*
G75*
G02*
X149231970Y-103180805I-169732J-169743D01*
G01*
X149824236Y-104794634D02*
G75*
G03*
X150163648Y-104794634I169706J169704D01*
G01*
X150080460Y-103689885D02*
G75*
G02*
X150080470Y-104029306I-169660J-169715D01*
G01*
X148890839Y-103521860D02*
G75*
G03*
X148890804Y-103861306I169661J-169740D01*
G01*
X150504723Y-104453558D02*
G75*
G02*
X150844134Y-104453557I169706J-169707D01*
G01*
X149739384Y-104370371D02*
G75*
G03*
X149739360Y-104709805I169716J-169729D01*
G01*
X148975691Y-103946123D02*
G75*
G03*
X149315103Y-103946123I169706J169704D01*
G01*
%TO.N,DP2*%
X149335000Y-100003000D02*
X149335000Y-100378001D01*
X156228034Y-108660748D02*
X155659582Y-109229200D01*
X156228034Y-108348966D02*
X156228034Y-108660748D01*
X156227034Y-108347966D02*
X156228034Y-108348966D01*
X154423200Y-109170721D02*
X154423200Y-108879279D01*
X154775000Y-108527479D02*
X154775000Y-107125000D01*
X155659582Y-109229200D02*
X155075000Y-109229200D01*
X154629279Y-109376800D02*
X154423200Y-109170721D01*
X156227034Y-106108350D02*
X156227034Y-108347966D01*
X149335000Y-100378001D02*
X149161600Y-100551401D01*
X154927400Y-109376800D02*
X154629279Y-109376800D01*
X155367084Y-105248400D02*
X156227034Y-106108350D01*
X154423200Y-108879279D02*
X154775000Y-108527479D01*
X149161600Y-100551401D02*
X149161600Y-102483657D01*
X155075000Y-109229200D02*
X154927400Y-109376800D01*
X151926343Y-105248400D02*
X155367084Y-105248400D01*
X149161600Y-102483657D02*
X151926343Y-105248400D01*
%TO.N,DM1*%
X150362312Y-108030975D02*
X150447166Y-108115828D01*
X151295694Y-108964356D02*
X151381338Y-109050000D01*
X142725000Y-96251000D02*
X142725000Y-96626001D01*
X147550000Y-101331316D02*
X147550000Y-105218662D01*
X149938050Y-107267301D02*
X150198494Y-107006854D01*
X151210840Y-108879503D02*
X151295694Y-108964356D01*
X150537906Y-107006855D02*
X150622758Y-107091707D01*
X147550000Y-105218662D02*
X149598638Y-107267300D01*
X142551600Y-97940689D02*
X144209311Y-99598400D01*
X144209311Y-99598400D02*
X145817084Y-99598400D01*
X150786578Y-108115829D02*
X151047044Y-107855360D01*
X151386456Y-107855361D02*
X151471308Y-107940213D01*
X142551600Y-96799401D02*
X142551600Y-97940689D01*
X151381338Y-109050000D02*
X152250000Y-109050000D01*
X152250000Y-109050000D02*
X152275000Y-109025000D01*
X151471308Y-108279625D02*
X151210839Y-108540091D01*
X142725000Y-96626001D02*
X142551600Y-96799401D01*
X150622758Y-107431119D02*
X150362311Y-107691563D01*
X145817084Y-99598400D02*
X147550000Y-101331316D01*
X150447166Y-108115828D02*
G75*
G03*
X150786605Y-108115857I169734J169728D01*
G01*
X151210839Y-108540091D02*
G75*
G03*
X151210837Y-108879507I169661J-169709D01*
G01*
X151471308Y-107940213D02*
G75*
G02*
X151471289Y-108279606I-169708J-169687D01*
G01*
X150622758Y-107091707D02*
G75*
G02*
X150622745Y-107431106I-169658J-169693D01*
G01*
X149598638Y-107267300D02*
G75*
G03*
X149938005Y-107267257I169662J169700D01*
G01*
X150198494Y-107006854D02*
G75*
G02*
X150537907Y-107006854I169706J-169746D01*
G01*
X151047044Y-107855360D02*
G75*
G02*
X151386407Y-107855410I169656J-169740D01*
G01*
X150362311Y-107691563D02*
G75*
G03*
X150362280Y-108031007I169689J-169737D01*
G01*
%TO.N,DP1*%
X152626800Y-109170721D02*
X152626800Y-108879279D01*
X152005679Y-109253200D02*
X152129279Y-109376800D01*
X147325000Y-101393684D02*
X147325000Y-105281030D01*
X152626800Y-108879279D02*
X152275000Y-108527479D01*
X147325000Y-105281030D02*
X151297170Y-109253200D01*
X144125143Y-99801600D02*
X145732916Y-99801600D01*
X142348400Y-98024857D02*
X144125143Y-99801600D01*
X142348400Y-96799401D02*
X142348400Y-98024857D01*
X142175000Y-96251000D02*
X142175000Y-96626001D01*
X145732916Y-99801600D02*
X147325000Y-101393684D01*
X151297170Y-109253200D02*
X152005679Y-109253200D01*
X152275000Y-108527479D02*
X152275000Y-107125000D01*
X142175000Y-96626001D02*
X142348400Y-96799401D01*
X152420721Y-109376800D02*
X152626800Y-109170721D01*
X152129279Y-109376800D02*
X152420721Y-109376800D01*
%TD*%
%TA.AperFunction,Conductor*%
%TO.N,GND*%
G36*
X140583314Y-110488610D02*
G01*
X140597900Y-110523824D01*
X140597900Y-110952288D01*
X140597901Y-110952303D01*
X140604410Y-111001749D01*
X140618234Y-111031394D01*
X140622900Y-111052440D01*
X140622900Y-111633527D01*
X140608314Y-111668741D01*
X140534480Y-111742574D01*
X140510262Y-111792114D01*
X140482873Y-111848141D01*
X140482871Y-111848145D01*
X140472900Y-111916579D01*
X140472900Y-112933418D01*
X140482871Y-113001858D01*
X140489048Y-113014492D01*
X140491410Y-113052534D01*
X140479522Y-113071578D01*
X140017786Y-113533314D01*
X139982573Y-113547900D01*
X139939947Y-113547900D01*
X139939936Y-113547902D01*
X139910164Y-113553822D01*
X139910162Y-113553823D01*
X139876391Y-113576388D01*
X139853823Y-113610164D01*
X139847900Y-113639942D01*
X139847900Y-113682573D01*
X139833314Y-113717787D01*
X139770799Y-113780302D01*
X139691535Y-113917594D01*
X139691532Y-113917600D01*
X139650500Y-114070731D01*
X139650500Y-114229268D01*
X139667233Y-114291717D01*
X139691533Y-114382402D01*
X139706493Y-114408314D01*
X139770799Y-114519697D01*
X139833314Y-114582212D01*
X139847900Y-114617425D01*
X139847900Y-114660052D01*
X139847902Y-114660063D01*
X139853822Y-114689835D01*
X139853823Y-114689837D01*
X139876388Y-114723608D01*
X139876389Y-114723608D01*
X139876390Y-114723610D01*
X139910163Y-114746176D01*
X139939945Y-114752100D01*
X140169311Y-114752099D01*
X140169325Y-114752100D01*
X140173332Y-114752100D01*
X140510600Y-114752100D01*
X140545814Y-114766686D01*
X140560400Y-114801900D01*
X140560400Y-115266768D01*
X140571203Y-115307083D01*
X140572900Y-115319973D01*
X140572900Y-116685053D01*
X140572901Y-116685063D01*
X140578822Y-116714835D01*
X140578823Y-116714837D01*
X140601388Y-116748608D01*
X140601389Y-116748608D01*
X140601390Y-116748610D01*
X140635163Y-116771176D01*
X140660205Y-116776157D01*
X140691897Y-116797332D01*
X140699333Y-116834715D01*
X140678158Y-116866407D01*
X140660204Y-116873843D01*
X140635165Y-116878822D01*
X140635162Y-116878823D01*
X140601391Y-116901388D01*
X140578823Y-116935164D01*
X140572900Y-116964942D01*
X140572900Y-117335053D01*
X140572901Y-117335063D01*
X140578822Y-117364835D01*
X140578823Y-117364837D01*
X140601388Y-117398608D01*
X140601389Y-117398608D01*
X140601390Y-117398610D01*
X140635163Y-117421176D01*
X140660205Y-117426157D01*
X140691897Y-117447332D01*
X140699333Y-117484715D01*
X140678158Y-117516407D01*
X140660204Y-117523843D01*
X140635165Y-117528822D01*
X140635162Y-117528823D01*
X140601391Y-117551388D01*
X140578823Y-117585164D01*
X140572900Y-117614942D01*
X140572900Y-117985053D01*
X140572901Y-117985063D01*
X140578822Y-118014835D01*
X140578823Y-118014837D01*
X140601388Y-118048608D01*
X140601389Y-118048608D01*
X140601390Y-118048610D01*
X140635163Y-118071176D01*
X140664945Y-118077100D01*
X141132716Y-118077099D01*
X141132726Y-118077100D01*
X141138519Y-118077100D01*
X141928213Y-118077100D01*
X141963427Y-118091686D01*
X141977268Y-118120944D01*
X141977424Y-118120914D01*
X141977547Y-118121534D01*
X141977772Y-118122009D01*
X141977900Y-118123308D01*
X141977901Y-118123313D01*
X141977901Y-118123314D01*
X141990186Y-118185082D01*
X141993107Y-118199764D01*
X141993108Y-118199769D01*
X142051034Y-118286462D01*
X142051037Y-118286465D01*
X142137732Y-118344392D01*
X142137734Y-118344393D01*
X142214185Y-118359600D01*
X142585814Y-118359599D01*
X142662266Y-118344393D01*
X142748964Y-118286464D01*
X142806893Y-118199766D01*
X142822100Y-118123315D01*
X142822099Y-117965404D01*
X142836684Y-117930192D01*
X143051935Y-117714942D01*
X143062346Y-117706974D01*
X143065535Y-117705142D01*
X143065989Y-117705021D01*
X143110496Y-117679325D01*
X143129359Y-117676886D01*
X143148184Y-117674408D01*
X143148233Y-117674446D01*
X143148297Y-117674438D01*
X143163417Y-117686096D01*
X143178423Y-117697611D01*
X143199743Y-117734540D01*
X143201357Y-117737334D01*
X143257306Y-117793283D01*
X143291663Y-117813119D01*
X143314866Y-117843356D01*
X143314866Y-117869136D01*
X143297100Y-117935437D01*
X143297100Y-118014562D01*
X143317196Y-118089562D01*
X143317579Y-118090989D01*
X143322320Y-118099201D01*
X143327295Y-118136989D01*
X143304093Y-118167228D01*
X143279192Y-118173900D01*
X143271650Y-118173900D01*
X143244654Y-118185082D01*
X143210784Y-118199111D01*
X142792295Y-118617601D01*
X142749326Y-118660569D01*
X142714111Y-118675155D01*
X142686446Y-118666763D01*
X142662266Y-118650607D01*
X142662263Y-118650606D01*
X142662265Y-118650606D01*
X142601021Y-118638424D01*
X142585815Y-118635400D01*
X142585814Y-118635400D01*
X142214191Y-118635400D01*
X142214184Y-118635401D01*
X142163218Y-118645538D01*
X142137734Y-118650607D01*
X142137733Y-118650607D01*
X142137730Y-118650608D01*
X142051037Y-118708534D01*
X142045536Y-118716768D01*
X142013843Y-118737943D01*
X142004129Y-118738900D01*
X141668117Y-118738900D01*
X141588248Y-118760300D01*
X141577550Y-118763167D01*
X141577547Y-118763168D01*
X141577546Y-118763169D01*
X141496349Y-118810048D01*
X141430047Y-118876351D01*
X141021852Y-119284545D01*
X140986638Y-119299131D01*
X140951424Y-119284545D01*
X140416685Y-118749806D01*
X140402099Y-118714592D01*
X140402099Y-118339946D01*
X140402098Y-118339936D01*
X140396177Y-118310164D01*
X140396176Y-118310162D01*
X140373611Y-118276391D01*
X140373607Y-118276388D01*
X140339837Y-118253824D01*
X140339834Y-118253823D01*
X140339836Y-118253823D01*
X140315978Y-118249078D01*
X140310055Y-118247900D01*
X140310054Y-118247900D01*
X139939946Y-118247900D01*
X139939936Y-118247901D01*
X139910164Y-118253822D01*
X139910162Y-118253823D01*
X139876391Y-118276388D01*
X139853823Y-118310164D01*
X139847900Y-118339942D01*
X139847900Y-119360053D01*
X139847901Y-119360063D01*
X139853822Y-119389835D01*
X139853823Y-119389837D01*
X139876388Y-119423608D01*
X139876389Y-119423608D01*
X139876390Y-119423610D01*
X139910163Y-119446176D01*
X139939945Y-119452100D01*
X140310054Y-119452099D01*
X140312500Y-119452099D01*
X140312500Y-119453057D01*
X140345987Y-119463207D01*
X140349618Y-119466497D01*
X140443314Y-119560192D01*
X140457900Y-119595406D01*
X140457900Y-119629843D01*
X140443314Y-119665057D01*
X140426036Y-119674298D01*
X140426717Y-119675940D01*
X140422183Y-119677817D01*
X140337142Y-119734639D01*
X140337139Y-119734642D01*
X140280317Y-119819683D01*
X140280317Y-119819684D01*
X140265400Y-119894676D01*
X140265400Y-120255317D01*
X140265401Y-120255324D01*
X140268783Y-120272325D01*
X140276651Y-120311886D01*
X140280317Y-120330314D01*
X140280317Y-120330316D01*
X140337139Y-120415357D01*
X140337141Y-120415359D01*
X140422185Y-120472183D01*
X140497177Y-120487100D01*
X140833478Y-120487099D01*
X140868692Y-120501685D01*
X140883278Y-120536899D01*
X140868692Y-120572113D01*
X140590488Y-120850317D01*
X140247295Y-121193510D01*
X140247295Y-121193511D01*
X140200711Y-121240094D01*
X140175500Y-121300959D01*
X140175500Y-124810778D01*
X140160914Y-124845992D01*
X140100711Y-124906194D01*
X140075500Y-124967059D01*
X140075500Y-126267521D01*
X140100711Y-126328386D01*
X140305258Y-126532933D01*
X140319844Y-126568147D01*
X140305258Y-126603361D01*
X140270067Y-126617947D01*
X140149367Y-126618002D01*
X140144750Y-126617790D01*
X140030000Y-126607158D01*
X139914069Y-126617900D01*
X139909497Y-126618112D01*
X138151923Y-126618913D01*
X138116702Y-126604343D01*
X138102100Y-126569136D01*
X138102100Y-125425400D01*
X138116686Y-125390186D01*
X138151900Y-125375600D01*
X138228023Y-125375600D01*
X138228024Y-125375600D01*
X138228028Y-125375599D01*
X138228040Y-125375599D01*
X138245515Y-125374349D01*
X138297488Y-125370632D01*
X138430788Y-125331491D01*
X138547662Y-125256381D01*
X138638640Y-125151387D01*
X138696353Y-125025014D01*
X138716124Y-124887500D01*
X138716124Y-124312500D01*
X138711156Y-124243036D01*
X138672015Y-124109736D01*
X138667436Y-124102611D01*
X138596905Y-123992862D01*
X138596904Y-123992860D01*
X138491913Y-123901885D01*
X138491912Y-123901884D01*
X138394722Y-123857499D01*
X138365538Y-123844171D01*
X138365536Y-123844170D01*
X138365534Y-123844170D01*
X138228026Y-123824400D01*
X138228024Y-123824400D01*
X137553024Y-123824400D01*
X137553007Y-123824400D01*
X137483565Y-123829367D01*
X137483560Y-123829368D01*
X137350259Y-123868509D01*
X137350253Y-123868512D01*
X137233386Y-123943618D01*
X137233384Y-123943619D01*
X137142409Y-124048610D01*
X137142408Y-124048611D01*
X137084695Y-124174986D01*
X137084694Y-124174989D01*
X137064924Y-124312497D01*
X137064924Y-124553474D01*
X137050338Y-124588688D01*
X137018199Y-124620826D01*
X136938935Y-124758118D01*
X136938932Y-124758124D01*
X136897900Y-124911255D01*
X136897900Y-126569706D01*
X136883314Y-126604920D01*
X136848123Y-126619506D01*
X136618547Y-126619611D01*
X136583326Y-126605041D01*
X136576086Y-126595868D01*
X136525610Y-126513620D01*
X136414826Y-126387434D01*
X136284283Y-126281818D01*
X136284282Y-126281817D01*
X136284278Y-126281814D01*
X136137760Y-126199824D01*
X136137753Y-126199821D01*
X136137750Y-126199819D01*
X136137747Y-126199817D01*
X136137745Y-126199817D01*
X135979457Y-126143803D01*
X135979454Y-126143802D01*
X135979453Y-126143802D01*
X135813958Y-126115384D01*
X135813956Y-126115383D01*
X135813951Y-126115383D01*
X135797476Y-126115381D01*
X135797344Y-126115373D01*
X135794270Y-126115373D01*
X135687980Y-126115373D01*
X135652766Y-126100787D01*
X135638180Y-126065573D01*
X135638180Y-120934197D01*
X135652766Y-120898983D01*
X135687980Y-120884397D01*
X135723194Y-120898983D01*
X135729383Y-120906524D01*
X135740578Y-120923278D01*
X135741037Y-120923965D01*
X135827732Y-120981892D01*
X135827734Y-120981893D01*
X135904185Y-120997100D01*
X136350814Y-120997099D01*
X136427266Y-120981893D01*
X136513964Y-120923964D01*
X136571893Y-120837266D01*
X136587100Y-120760815D01*
X136587099Y-120528481D01*
X136601685Y-120493268D01*
X136636899Y-120478682D01*
X136672113Y-120493268D01*
X136848314Y-120669469D01*
X136862900Y-120704682D01*
X136862900Y-120760809D01*
X136862901Y-120760816D01*
X136878107Y-120837265D01*
X136878107Y-120837267D01*
X136912007Y-120888001D01*
X136920400Y-120915668D01*
X136920400Y-121209331D01*
X136912007Y-121236998D01*
X136878107Y-121287732D01*
X136878106Y-121287734D01*
X136862900Y-121364182D01*
X136862900Y-121735808D01*
X136862901Y-121735815D01*
X136878107Y-121812264D01*
X136878108Y-121812269D01*
X136936034Y-121898962D01*
X136936037Y-121898965D01*
X137022732Y-121956892D01*
X137022734Y-121956893D01*
X137099185Y-121972100D01*
X137545814Y-121972099D01*
X137622266Y-121956893D01*
X137708964Y-121898964D01*
X137766893Y-121812266D01*
X137782100Y-121735815D01*
X137782099Y-121364186D01*
X137766893Y-121287734D01*
X137766891Y-121287731D01*
X137766891Y-121287730D01*
X137732993Y-121236998D01*
X137724600Y-121209331D01*
X137724600Y-120915668D01*
X137732993Y-120888001D01*
X137756483Y-120852846D01*
X137766893Y-120837266D01*
X137782100Y-120760815D01*
X137782099Y-120389186D01*
X137782099Y-120386740D01*
X137782883Y-120386740D01*
X137793165Y-120352816D01*
X137826776Y-120334841D01*
X137831668Y-120334600D01*
X137939926Y-120334600D01*
X137975140Y-120349186D01*
X137988768Y-120374684D01*
X138001035Y-120436357D01*
X138002817Y-120445314D01*
X138002817Y-120445316D01*
X138059639Y-120530357D01*
X138059641Y-120530359D01*
X138144685Y-120587183D01*
X138219677Y-120602100D01*
X138580322Y-120602099D01*
X138655315Y-120587183D01*
X138740359Y-120530359D01*
X138797183Y-120445315D01*
X138812100Y-120370323D01*
X138812099Y-119894678D01*
X138797183Y-119819685D01*
X138785634Y-119802401D01*
X138740360Y-119734642D01*
X138740357Y-119734639D01*
X138655315Y-119677817D01*
X138580323Y-119662900D01*
X138227448Y-119662900D01*
X138192234Y-119648314D01*
X138177648Y-119613100D01*
X138177648Y-119590437D01*
X138160332Y-119525815D01*
X138157169Y-119514011D01*
X138117608Y-119445489D01*
X138061659Y-119389540D01*
X138061658Y-119389539D01*
X137993140Y-119349981D01*
X137993137Y-119349979D01*
X137993134Y-119349978D01*
X137916710Y-119329500D01*
X137851899Y-119329500D01*
X137816685Y-119314914D01*
X137802099Y-119279700D01*
X137802099Y-118339946D01*
X137802098Y-118339936D01*
X137796177Y-118310164D01*
X137796176Y-118310162D01*
X137773611Y-118276391D01*
X137773607Y-118276388D01*
X137739837Y-118253824D01*
X137739834Y-118253823D01*
X137739836Y-118253823D01*
X137715978Y-118249078D01*
X137710055Y-118247900D01*
X137710054Y-118247900D01*
X137339946Y-118247900D01*
X137339936Y-118247901D01*
X137310164Y-118253822D01*
X137310162Y-118253823D01*
X137276391Y-118276388D01*
X137253823Y-118310164D01*
X137247900Y-118339942D01*
X137247900Y-119360053D01*
X137247901Y-119360063D01*
X137253822Y-119389834D01*
X137253823Y-119389836D01*
X137253824Y-119389837D01*
X137265655Y-119407544D01*
X137274048Y-119435210D01*
X137274048Y-119837665D01*
X137259462Y-119872879D01*
X137224248Y-119887465D01*
X137189034Y-119872879D01*
X136891686Y-119575531D01*
X136877100Y-119540317D01*
X136877100Y-118126899D01*
X136891686Y-118091685D01*
X136926900Y-118077099D01*
X136985053Y-118077099D01*
X136985054Y-118077099D01*
X136985055Y-118077098D01*
X136985063Y-118077098D01*
X137014835Y-118071177D01*
X137014837Y-118071176D01*
X137030604Y-118060641D01*
X137048610Y-118048610D01*
X137071176Y-118014837D01*
X137077100Y-117985055D01*
X137077099Y-117614946D01*
X137077099Y-117614945D01*
X137077098Y-117614936D01*
X137071177Y-117585164D01*
X137071176Y-117585162D01*
X137048611Y-117551391D01*
X137048607Y-117551388D01*
X137014837Y-117528824D01*
X137014834Y-117528823D01*
X137014836Y-117528823D01*
X136985057Y-117522900D01*
X136985055Y-117522900D01*
X136787183Y-117522900D01*
X136751969Y-117508314D01*
X136721894Y-117478239D01*
X136633317Y-117427099D01*
X136630205Y-117425302D01*
X136630202Y-117425301D01*
X136630200Y-117425300D01*
X136527939Y-117397900D01*
X136527938Y-117397900D01*
X136422062Y-117397900D01*
X136422060Y-117397900D01*
X136319799Y-117425300D01*
X136319791Y-117425304D01*
X136228103Y-117478240D01*
X136198029Y-117508314D01*
X136162816Y-117522900D01*
X136022900Y-117522900D01*
X135987686Y-117508314D01*
X135973100Y-117473100D01*
X135973100Y-116872281D01*
X135987685Y-116837068D01*
X136033068Y-116791684D01*
X136068282Y-116777099D01*
X136237759Y-116777099D01*
X136269294Y-116790161D01*
X136269968Y-116789283D01*
X136272557Y-116791269D01*
X136272558Y-116791270D01*
X136381351Y-116854083D01*
X136502693Y-116886596D01*
X136628316Y-116886596D01*
X136749659Y-116854083D01*
X136858451Y-116791270D01*
X136858452Y-116791269D01*
X136861037Y-116789286D01*
X136861710Y-116790163D01*
X136893250Y-116777099D01*
X136985053Y-116777099D01*
X136985054Y-116777099D01*
X136985055Y-116777098D01*
X136985063Y-116777098D01*
X137014835Y-116771177D01*
X137014837Y-116771176D01*
X137022774Y-116765873D01*
X137048610Y-116748610D01*
X137071176Y-116714837D01*
X137077100Y-116685055D01*
X137077099Y-116314946D01*
X137077099Y-116314945D01*
X137077098Y-116314936D01*
X137071177Y-116285164D01*
X137071176Y-116285162D01*
X137048611Y-116251391D01*
X137048608Y-116251388D01*
X137020040Y-116232300D01*
X137004579Y-116215793D01*
X136990867Y-116192043D01*
X136985892Y-116154254D01*
X137009095Y-116124015D01*
X137014795Y-116121204D01*
X137014837Y-116121176D01*
X137048610Y-116098610D01*
X137071176Y-116064837D01*
X137077100Y-116035055D01*
X137077099Y-115664946D01*
X137077099Y-115664945D01*
X137077098Y-115664936D01*
X137071177Y-115635164D01*
X137071176Y-115635162D01*
X137048611Y-115601391D01*
X137048607Y-115601388D01*
X137014837Y-115578824D01*
X137014836Y-115578823D01*
X137014835Y-115578823D01*
X136992184Y-115574318D01*
X136980106Y-115566248D01*
X136966686Y-115560689D01*
X136964733Y-115555975D01*
X136960493Y-115553142D01*
X136952100Y-115525475D01*
X136952100Y-115524524D01*
X136966686Y-115489310D01*
X136992185Y-115475680D01*
X137014837Y-115471176D01*
X137048610Y-115448610D01*
X137071176Y-115414837D01*
X137077100Y-115385055D01*
X137077099Y-115014946D01*
X137077099Y-115014945D01*
X137077098Y-115014936D01*
X137071177Y-114985164D01*
X137071176Y-114985162D01*
X137048611Y-114951391D01*
X137048607Y-114951388D01*
X137014837Y-114928824D01*
X137014836Y-114928823D01*
X137014835Y-114928823D01*
X136992184Y-114924318D01*
X136980106Y-114916248D01*
X136966686Y-114910689D01*
X136964733Y-114905975D01*
X136960493Y-114903142D01*
X136952100Y-114875475D01*
X136952100Y-114863048D01*
X136966685Y-114827835D01*
X137086281Y-114708238D01*
X137121494Y-114693653D01*
X137146392Y-114700324D01*
X137164999Y-114711067D01*
X137318132Y-114752100D01*
X137486572Y-114752100D01*
X137486576Y-114752099D01*
X137710053Y-114752099D01*
X137710054Y-114752099D01*
X137710055Y-114752098D01*
X137710063Y-114752098D01*
X137739835Y-114746177D01*
X137739837Y-114746176D01*
X137773610Y-114723610D01*
X137796176Y-114689837D01*
X137801157Y-114664793D01*
X137822332Y-114633102D01*
X137859715Y-114625666D01*
X137891407Y-114646841D01*
X137898843Y-114664795D01*
X137903822Y-114689835D01*
X137903823Y-114689837D01*
X137926388Y-114723608D01*
X137926389Y-114723608D01*
X137926390Y-114723610D01*
X137960163Y-114746176D01*
X137989945Y-114752100D01*
X138360054Y-114752099D01*
X138360055Y-114752098D01*
X138360063Y-114752098D01*
X138389835Y-114746177D01*
X138389837Y-114746176D01*
X138423610Y-114723610D01*
X138446176Y-114689837D01*
X138452100Y-114660055D01*
X138452099Y-113639946D01*
X138452099Y-113639945D01*
X138452098Y-113639936D01*
X138446177Y-113610164D01*
X138446176Y-113610162D01*
X138423611Y-113576391D01*
X138423607Y-113576388D01*
X138389837Y-113553824D01*
X138389834Y-113553823D01*
X138389836Y-113553823D01*
X138360057Y-113547900D01*
X138360055Y-113547900D01*
X138262721Y-113547900D01*
X138227507Y-113533314D01*
X138212921Y-113498100D01*
X138227507Y-113462886D01*
X138257696Y-113432697D01*
X138295480Y-113394913D01*
X138348207Y-113303587D01*
X138375500Y-113201727D01*
X138375500Y-113096273D01*
X138348207Y-112994413D01*
X138343999Y-112987126D01*
X138337327Y-112962330D01*
X138337045Y-112828188D01*
X138336513Y-112575288D01*
X138343187Y-112550281D01*
X138345393Y-112546460D01*
X138348207Y-112541587D01*
X138375500Y-112439727D01*
X138375500Y-112334273D01*
X138348207Y-112232413D01*
X138342770Y-112222997D01*
X138336100Y-112198099D01*
X138336100Y-112058426D01*
X138350686Y-112023212D01*
X138379197Y-111994701D01*
X138379200Y-111994698D01*
X138423849Y-111917361D01*
X138431758Y-111907052D01*
X139047126Y-111291686D01*
X139082340Y-111277100D01*
X139554268Y-111277100D01*
X139641237Y-111253796D01*
X139654127Y-111252099D01*
X139802289Y-111252099D01*
X139802294Y-111252099D01*
X139802299Y-111252098D01*
X139802303Y-111252098D01*
X139827258Y-111248813D01*
X139851751Y-111245589D01*
X139960292Y-111194976D01*
X140044976Y-111110292D01*
X140095589Y-111001751D01*
X140102100Y-110952295D01*
X140102099Y-110920025D01*
X140116683Y-110884813D01*
X140512887Y-110488609D01*
X140548100Y-110474024D01*
X140583314Y-110488610D01*
G37*
%TD.AperFunction*%
%TA.AperFunction,Conductor*%
G36*
X151482914Y-114755006D02*
G01*
X151497500Y-114790220D01*
X151497500Y-116817053D01*
X151494790Y-116830689D01*
X151495424Y-116830859D01*
X151494579Y-116834009D01*
X151494579Y-116834011D01*
X151474100Y-116910438D01*
X151474100Y-116989562D01*
X151494579Y-117065989D01*
X151505324Y-117084600D01*
X151519417Y-117109011D01*
X151534140Y-117134511D01*
X151590089Y-117190460D01*
X151658611Y-117230021D01*
X151735038Y-117250500D01*
X151814162Y-117250500D01*
X151890589Y-117230021D01*
X151959111Y-117190460D01*
X151959112Y-117190459D01*
X151961701Y-117188473D01*
X151962310Y-117189267D01*
X151994099Y-117176100D01*
X153095192Y-117176100D01*
X153130406Y-117190686D01*
X153144992Y-117225900D01*
X153138320Y-117250797D01*
X153133781Y-117258661D01*
X153133579Y-117259011D01*
X153133578Y-117259013D01*
X153113100Y-117335437D01*
X153112814Y-117337610D01*
X153098654Y-117366322D01*
X152021358Y-118443619D01*
X151957474Y-118507502D01*
X151922900Y-118590971D01*
X151922900Y-118906501D01*
X151910288Y-118936948D01*
X151911527Y-118937899D01*
X151909540Y-118940487D01*
X151869981Y-119009007D01*
X151869978Y-119009013D01*
X151849499Y-119085438D01*
X151849074Y-119088673D01*
X151847526Y-119088469D01*
X151834914Y-119118918D01*
X151142210Y-119811622D01*
X151106996Y-119826208D01*
X151071782Y-119811622D01*
X149911634Y-118651474D01*
X149872830Y-118635401D01*
X149828165Y-118616900D01*
X149828164Y-118616900D01*
X149549099Y-118616900D01*
X149518651Y-118604288D01*
X149517701Y-118605527D01*
X149515112Y-118603540D01*
X149446592Y-118563981D01*
X149446589Y-118563979D01*
X149446586Y-118563978D01*
X149370162Y-118543500D01*
X149291038Y-118543500D01*
X149214613Y-118563978D01*
X149214607Y-118563981D01*
X149146089Y-118603539D01*
X149090139Y-118659489D01*
X149050581Y-118728007D01*
X149050578Y-118728013D01*
X149030100Y-118804437D01*
X149030100Y-118883562D01*
X149050578Y-118959986D01*
X149050581Y-118959992D01*
X149078881Y-119009011D01*
X149090140Y-119028511D01*
X149146089Y-119084460D01*
X149214611Y-119124021D01*
X149291038Y-119144500D01*
X149370162Y-119144500D01*
X149446589Y-119124021D01*
X149515111Y-119084460D01*
X149515112Y-119084459D01*
X149517701Y-119082473D01*
X149518651Y-119083711D01*
X149549099Y-119071100D01*
X149668296Y-119071100D01*
X149703510Y-119085686D01*
X150865310Y-120247486D01*
X150879896Y-120282700D01*
X150879896Y-120891880D01*
X150867284Y-120922327D01*
X150868523Y-120923278D01*
X150866536Y-120925866D01*
X150826977Y-120994386D01*
X150826974Y-120994392D01*
X150806496Y-121070816D01*
X150806496Y-121149941D01*
X150826974Y-121226365D01*
X150826977Y-121226371D01*
X150862404Y-121287734D01*
X150866536Y-121294890D01*
X150922485Y-121350839D01*
X150991007Y-121390400D01*
X151067434Y-121410879D01*
X151146558Y-121410879D01*
X151222985Y-121390400D01*
X151291507Y-121350839D01*
X151347456Y-121294890D01*
X151387017Y-121226368D01*
X151407496Y-121149941D01*
X151407496Y-121070817D01*
X151406709Y-121067881D01*
X151387743Y-120997100D01*
X151387017Y-120994390D01*
X151347456Y-120925868D01*
X151347455Y-120925866D01*
X151345469Y-120923278D01*
X151346707Y-120922327D01*
X151334096Y-120891880D01*
X151334096Y-120282700D01*
X151348682Y-120247486D01*
X152156082Y-119440086D01*
X152186530Y-119427473D01*
X152186327Y-119425926D01*
X152189561Y-119425500D01*
X152189562Y-119425500D01*
X152265989Y-119405021D01*
X152334511Y-119365460D01*
X152390460Y-119309511D01*
X152430021Y-119240989D01*
X152450500Y-119164562D01*
X152450500Y-119085438D01*
X152449048Y-119080021D01*
X152435246Y-119028510D01*
X152430021Y-119009011D01*
X152390460Y-118940489D01*
X152390459Y-118940487D01*
X152388473Y-118937899D01*
X152389711Y-118936948D01*
X152377100Y-118906501D01*
X152377100Y-118750841D01*
X152391686Y-118715627D01*
X152663694Y-118443619D01*
X153047808Y-118059504D01*
X153083021Y-118044919D01*
X153118235Y-118059505D01*
X153131123Y-118081826D01*
X153133577Y-118090983D01*
X153133579Y-118090989D01*
X153138319Y-118099199D01*
X153173140Y-118159512D01*
X153175127Y-118162101D01*
X153173888Y-118163051D01*
X153186500Y-118193499D01*
X153186500Y-119246704D01*
X153171914Y-119281918D01*
X151843918Y-120609914D01*
X151813469Y-120622526D01*
X151813673Y-120624074D01*
X151810438Y-120624499D01*
X151734013Y-120644978D01*
X151734007Y-120644981D01*
X151665489Y-120684539D01*
X151609539Y-120740489D01*
X151569981Y-120809007D01*
X151569978Y-120809013D01*
X151549500Y-120885437D01*
X151549500Y-120964562D01*
X151569978Y-121040986D01*
X151569981Y-121040992D01*
X151593854Y-121082343D01*
X151609540Y-121109511D01*
X151665489Y-121165460D01*
X151734011Y-121205021D01*
X151810438Y-121225500D01*
X151889562Y-121225500D01*
X151965989Y-121205021D01*
X152034511Y-121165460D01*
X152090460Y-121109511D01*
X152130021Y-121040989D01*
X152150500Y-120964562D01*
X152150500Y-120964561D01*
X152150926Y-120961327D01*
X152152473Y-120961530D01*
X152165086Y-120931082D01*
X152878379Y-120217789D01*
X153606126Y-119490042D01*
X153640700Y-119406573D01*
X153640700Y-119316227D01*
X153640700Y-118193499D01*
X153653311Y-118163051D01*
X153652073Y-118162101D01*
X153654059Y-118159512D01*
X153654060Y-118159511D01*
X153693621Y-118090989D01*
X153714100Y-118014562D01*
X153714100Y-117935438D01*
X153693621Y-117859011D01*
X153654060Y-117790489D01*
X153598111Y-117734540D01*
X153598109Y-117734538D01*
X153569685Y-117718128D01*
X153546481Y-117687890D01*
X153551456Y-117650101D01*
X153569685Y-117631872D01*
X153598109Y-117615461D01*
X153598108Y-117615461D01*
X153598111Y-117615460D01*
X153654060Y-117559511D01*
X153693621Y-117490989D01*
X153696075Y-117481829D01*
X153719278Y-117451591D01*
X153757067Y-117446616D01*
X153779392Y-117459505D01*
X154169314Y-117849427D01*
X154183900Y-117884641D01*
X154183900Y-118006119D01*
X154169314Y-118041333D01*
X154161768Y-118047526D01*
X154142141Y-118060640D01*
X154085317Y-118145683D01*
X154085317Y-118145684D01*
X154070400Y-118220676D01*
X154070400Y-118303642D01*
X154068703Y-118316531D01*
X154062900Y-118338187D01*
X154062900Y-121944800D01*
X154048314Y-121980014D01*
X154013100Y-121994600D01*
X148541857Y-121994600D01*
X148506643Y-121980014D01*
X148282565Y-121755936D01*
X148267979Y-121720722D01*
X148282565Y-121685508D01*
X148317779Y-121670922D01*
X148330664Y-121672618D01*
X148356347Y-121679500D01*
X148356348Y-121679500D01*
X148462853Y-121679500D01*
X148565731Y-121651934D01*
X148634701Y-121612113D01*
X148672489Y-121607139D01*
X148684497Y-121612112D01*
X148753469Y-121651934D01*
X148856347Y-121679500D01*
X148962853Y-121679500D01*
X149065731Y-121651934D01*
X149157969Y-121598680D01*
X149233280Y-121523369D01*
X149286534Y-121431131D01*
X149314100Y-121328253D01*
X149314100Y-121221747D01*
X149286534Y-121118869D01*
X149233280Y-121026631D01*
X149157969Y-120951320D01*
X149157968Y-120951319D01*
X149066000Y-120898221D01*
X149042797Y-120867982D01*
X149041100Y-120855093D01*
X149041100Y-120684254D01*
X149036835Y-120668338D01*
X149021160Y-120609837D01*
X149021160Y-120609836D01*
X149004186Y-120580437D01*
X149204600Y-120580437D01*
X149204600Y-120659562D01*
X149225073Y-120735969D01*
X149225079Y-120735989D01*
X149264640Y-120804511D01*
X149320589Y-120860460D01*
X149389111Y-120900021D01*
X149465538Y-120920500D01*
X149544662Y-120920500D01*
X149621089Y-120900021D01*
X149689611Y-120860460D01*
X149745560Y-120804511D01*
X149785121Y-120735989D01*
X149805600Y-120659562D01*
X149805600Y-120580438D01*
X149785121Y-120504011D01*
X149745560Y-120435489D01*
X149689611Y-120379540D01*
X149689610Y-120379539D01*
X149621092Y-120339981D01*
X149621089Y-120339979D01*
X149621086Y-120339978D01*
X149544662Y-120319500D01*
X149465538Y-120319500D01*
X149389113Y-120339978D01*
X149389107Y-120339981D01*
X149320589Y-120379539D01*
X149264639Y-120435489D01*
X149225081Y-120504007D01*
X149225078Y-120504013D01*
X149204600Y-120580437D01*
X149004186Y-120580437D01*
X148982639Y-120543116D01*
X147791484Y-119351961D01*
X147791483Y-119351960D01*
X147724767Y-119313442D01*
X147724768Y-119313442D01*
X147724764Y-119313440D01*
X147687554Y-119303470D01*
X147650346Y-119293500D01*
X147650345Y-119293500D01*
X147021672Y-119293500D01*
X146986458Y-119278914D01*
X146986453Y-119278908D01*
X146921706Y-119214140D01*
X146921697Y-119214134D01*
X146837517Y-119165520D01*
X146837514Y-119165518D01*
X146743610Y-119140352D01*
X146743607Y-119140351D01*
X146735988Y-119140351D01*
X146735966Y-119140350D01*
X146733522Y-119140350D01*
X146039628Y-119140350D01*
X146037355Y-119140350D01*
X146029715Y-119140346D01*
X146029714Y-119140346D01*
X145935766Y-119165470D01*
X145851525Y-119214070D01*
X145851520Y-119214073D01*
X145786655Y-119278919D01*
X145751447Y-119293500D01*
X145000578Y-119293500D01*
X144965364Y-119278914D01*
X144950778Y-119243700D01*
X144959091Y-119219225D01*
X144957728Y-119218438D01*
X144962372Y-119210392D01*
X144998921Y-119147089D01*
X145019400Y-119070662D01*
X145019400Y-118991538D01*
X144998921Y-118915111D01*
X144959360Y-118846589D01*
X144917208Y-118804437D01*
X146830100Y-118804437D01*
X146830100Y-118883562D01*
X146850578Y-118959986D01*
X146850581Y-118959992D01*
X146878881Y-119009011D01*
X146890140Y-119028511D01*
X146946089Y-119084460D01*
X147014611Y-119124021D01*
X147091038Y-119144500D01*
X147170162Y-119144500D01*
X147246589Y-119124021D01*
X147315111Y-119084460D01*
X147371060Y-119028511D01*
X147410621Y-118959989D01*
X147431100Y-118883562D01*
X147431100Y-118804438D01*
X147431100Y-118804437D01*
X147930100Y-118804437D01*
X147930100Y-118883562D01*
X147950578Y-118959986D01*
X147950581Y-118959992D01*
X147978881Y-119009011D01*
X147990140Y-119028511D01*
X148046089Y-119084460D01*
X148114611Y-119124021D01*
X148191038Y-119144500D01*
X148270162Y-119144500D01*
X148346589Y-119124021D01*
X148415111Y-119084460D01*
X148471060Y-119028511D01*
X148510621Y-118959989D01*
X148531100Y-118883562D01*
X148531100Y-118804438D01*
X148527402Y-118790639D01*
X148519310Y-118760437D01*
X148510621Y-118728011D01*
X148471060Y-118659489D01*
X148415111Y-118603540D01*
X148415110Y-118603539D01*
X148346592Y-118563981D01*
X148346589Y-118563979D01*
X148346586Y-118563978D01*
X148270162Y-118543500D01*
X148191038Y-118543500D01*
X148114613Y-118563978D01*
X148114607Y-118563981D01*
X148046089Y-118603539D01*
X147990139Y-118659489D01*
X147950581Y-118728007D01*
X147950578Y-118728013D01*
X147930100Y-118804437D01*
X147431100Y-118804437D01*
X147427402Y-118790639D01*
X147419310Y-118760437D01*
X147410621Y-118728011D01*
X147371060Y-118659489D01*
X147315111Y-118603540D01*
X147315110Y-118603539D01*
X147246592Y-118563981D01*
X147246589Y-118563979D01*
X147246586Y-118563978D01*
X147170162Y-118543500D01*
X147091038Y-118543500D01*
X147014613Y-118563978D01*
X147014607Y-118563981D01*
X146946089Y-118603539D01*
X146890139Y-118659489D01*
X146850581Y-118728007D01*
X146850578Y-118728013D01*
X146830100Y-118804437D01*
X144917208Y-118804437D01*
X144903411Y-118790640D01*
X144903410Y-118790639D01*
X144861477Y-118766429D01*
X144834889Y-118751079D01*
X144834886Y-118751078D01*
X144758462Y-118730600D01*
X144679338Y-118730600D01*
X144602913Y-118751078D01*
X144602907Y-118751081D01*
X144534389Y-118790639D01*
X144478439Y-118846589D01*
X144438881Y-118915107D01*
X144438878Y-118915113D01*
X144418400Y-118991537D01*
X144418400Y-119070662D01*
X144438878Y-119147086D01*
X144438881Y-119147092D01*
X144477590Y-119214140D01*
X144478440Y-119215611D01*
X144534389Y-119271560D01*
X144602911Y-119311121D01*
X144635092Y-119319744D01*
X144665330Y-119342945D01*
X144670305Y-119380735D01*
X144657416Y-119403060D01*
X141344980Y-122715496D01*
X141306462Y-122782212D01*
X141306460Y-122782216D01*
X141306459Y-122782220D01*
X141301919Y-122799164D01*
X141286520Y-122856632D01*
X141286520Y-124303329D01*
X141271934Y-124338543D01*
X141126960Y-124483516D01*
X141088439Y-124550236D01*
X141088440Y-124550236D01*
X141088440Y-124550237D01*
X141068500Y-124624652D01*
X141068500Y-125675348D01*
X141068499Y-125675348D01*
X141070102Y-125681324D01*
X141070102Y-125681331D01*
X141070104Y-125681331D01*
X141088440Y-125749764D01*
X141088442Y-125749767D01*
X141123513Y-125810513D01*
X141126961Y-125816484D01*
X141250966Y-125940489D01*
X141366000Y-126055522D01*
X141380586Y-126090736D01*
X141366001Y-126125949D01*
X141350319Y-126141631D01*
X141297068Y-126233865D01*
X141297064Y-126233873D01*
X141269500Y-126336745D01*
X141269500Y-126443254D01*
X141297066Y-126546133D01*
X141298107Y-126548645D01*
X141298105Y-126586760D01*
X141271152Y-126613710D01*
X141252120Y-126617500D01*
X140879034Y-126617670D01*
X140843813Y-126603100D01*
X140421286Y-126180573D01*
X140406700Y-126145359D01*
X140406700Y-125089222D01*
X140421286Y-125054008D01*
X140450284Y-125025010D01*
X140481489Y-124993805D01*
X140506700Y-124932940D01*
X140506700Y-124867060D01*
X140506700Y-121423121D01*
X140521286Y-121387907D01*
X141866336Y-120042857D01*
X143106920Y-120042857D01*
X143106920Y-120121982D01*
X143127398Y-120198406D01*
X143127401Y-120198412D01*
X143164154Y-120262072D01*
X143166960Y-120266931D01*
X143222909Y-120322880D01*
X143291431Y-120362441D01*
X143367858Y-120382920D01*
X143446982Y-120382920D01*
X143523409Y-120362441D01*
X143591931Y-120322880D01*
X143647880Y-120266931D01*
X143687441Y-120198409D01*
X143707920Y-120121982D01*
X143707920Y-120042858D01*
X143687441Y-119966431D01*
X143647880Y-119897909D01*
X143591931Y-119841960D01*
X143591930Y-119841959D01*
X143523412Y-119802401D01*
X143523409Y-119802399D01*
X143523406Y-119802398D01*
X143446982Y-119781920D01*
X143367858Y-119781920D01*
X143291433Y-119802398D01*
X143291427Y-119802401D01*
X143222909Y-119841959D01*
X143166959Y-119897909D01*
X143127401Y-119966427D01*
X143127398Y-119966433D01*
X143106920Y-120042857D01*
X141866336Y-120042857D01*
X142110407Y-119798786D01*
X142145621Y-119784200D01*
X142732448Y-119784200D01*
X142732450Y-119784200D01*
X142793315Y-119758989D01*
X143026489Y-119525815D01*
X143051700Y-119464950D01*
X143051700Y-119399070D01*
X143051700Y-118847212D01*
X143066286Y-118811998D01*
X143124486Y-118753798D01*
X143159700Y-118739212D01*
X143194914Y-118753798D01*
X143209500Y-118789012D01*
X143209500Y-118839562D01*
X143229978Y-118915986D01*
X143229981Y-118915992D01*
X143255380Y-118959986D01*
X143269540Y-118984511D01*
X143325489Y-119040460D01*
X143394011Y-119080021D01*
X143470438Y-119100500D01*
X143549562Y-119100500D01*
X143625989Y-119080021D01*
X143694511Y-119040460D01*
X143750460Y-118984511D01*
X143790021Y-118915989D01*
X143810500Y-118839562D01*
X143810500Y-118760438D01*
X143807928Y-118750841D01*
X143802401Y-118730213D01*
X143790021Y-118684011D01*
X143750460Y-118615489D01*
X143725085Y-118590114D01*
X143710499Y-118554900D01*
X143725085Y-118519686D01*
X143760299Y-118505100D01*
X143927957Y-118505100D01*
X143927959Y-118505100D01*
X143988824Y-118479889D01*
X144699027Y-117769686D01*
X144734241Y-117755100D01*
X145174701Y-117755100D01*
X145209915Y-117769686D01*
X145224501Y-117804900D01*
X145209915Y-117840114D01*
X145184539Y-117865489D01*
X145144981Y-117934007D01*
X145144978Y-117934013D01*
X145124500Y-118010437D01*
X145124500Y-118089562D01*
X145134868Y-118128257D01*
X145144979Y-118165989D01*
X145156002Y-118185082D01*
X145176553Y-118220678D01*
X145184540Y-118234511D01*
X145240489Y-118290460D01*
X145309011Y-118330021D01*
X145385438Y-118350500D01*
X145464562Y-118350500D01*
X145540989Y-118330021D01*
X145609511Y-118290460D01*
X145609512Y-118290459D01*
X145612101Y-118288473D01*
X145613051Y-118289711D01*
X145643499Y-118277100D01*
X149045171Y-118277100D01*
X149045173Y-118277100D01*
X149128642Y-118242526D01*
X149202687Y-118168479D01*
X149237901Y-118153894D01*
X149265568Y-118162287D01*
X149271104Y-118165986D01*
X149299685Y-118185083D01*
X149374677Y-118200000D01*
X149850322Y-118199999D01*
X149925315Y-118185083D01*
X150010359Y-118128259D01*
X150067183Y-118043215D01*
X150082100Y-117968223D01*
X150082099Y-117607578D01*
X150082098Y-117607574D01*
X150081859Y-117605148D01*
X150083450Y-117604991D01*
X150089880Y-117572313D01*
X150096126Y-117564685D01*
X150420091Y-117240720D01*
X150455304Y-117226135D01*
X150482969Y-117234528D01*
X150497734Y-117244393D01*
X150574185Y-117259600D01*
X151020814Y-117259599D01*
X151097266Y-117244393D01*
X151183964Y-117186464D01*
X151241893Y-117099766D01*
X151257100Y-117023315D01*
X151257099Y-116651686D01*
X151241893Y-116575234D01*
X151241891Y-116575231D01*
X151241891Y-116575230D01*
X151183965Y-116488537D01*
X151183962Y-116488534D01*
X151097267Y-116430607D01*
X151097265Y-116430606D01*
X151036021Y-116418424D01*
X151020815Y-116415400D01*
X151020814Y-116415400D01*
X150574191Y-116415400D01*
X150574184Y-116415401D01*
X150523218Y-116425538D01*
X150497734Y-116430607D01*
X150497733Y-116430607D01*
X150497730Y-116430608D01*
X150411037Y-116488534D01*
X150411034Y-116488537D01*
X150353107Y-116575232D01*
X150353106Y-116575234D01*
X150337900Y-116651682D01*
X150337900Y-116730659D01*
X150323314Y-116765873D01*
X150147113Y-116942073D01*
X150111899Y-116956659D01*
X150076685Y-116942073D01*
X150062099Y-116906860D01*
X150062099Y-116651686D01*
X150046893Y-116575234D01*
X150046891Y-116575231D01*
X150046891Y-116575230D01*
X149988965Y-116488537D01*
X149988962Y-116488534D01*
X149902267Y-116430607D01*
X149902265Y-116430606D01*
X149825817Y-116415400D01*
X149825815Y-116415400D01*
X149597722Y-116415400D01*
X149562508Y-116400814D01*
X148946408Y-115784714D01*
X148931822Y-115749500D01*
X148946408Y-115714286D01*
X148981622Y-115699700D01*
X150422125Y-115699700D01*
X150422127Y-115699700D01*
X150500083Y-115667409D01*
X151412487Y-114755005D01*
X151447700Y-114740420D01*
X151482914Y-114755006D01*
G37*
%TD.AperFunction*%
%TA.AperFunction,Conductor*%
G36*
X156612041Y-51091525D02*
G01*
X156647247Y-51106125D01*
X156661820Y-51141325D01*
X156661820Y-69816224D01*
X156647234Y-69851438D01*
X156612020Y-69866024D01*
X156477294Y-69866024D01*
X156334691Y-69894389D01*
X156334683Y-69894391D01*
X156334682Y-69894392D01*
X156334678Y-69894393D01*
X156334677Y-69894394D01*
X156200345Y-69950035D01*
X156200343Y-69950036D01*
X156079442Y-70030818D01*
X156079440Y-70030821D01*
X155976618Y-70133643D01*
X155976615Y-70133645D01*
X155895833Y-70254546D01*
X155895831Y-70254548D01*
X155846010Y-70374831D01*
X155819059Y-70401783D01*
X155780944Y-70401783D01*
X155753992Y-70374832D01*
X155753992Y-70374831D01*
X155704170Y-70254548D01*
X155704168Y-70254546D01*
X155704168Y-70254545D01*
X155671722Y-70205987D01*
X155623386Y-70133645D01*
X155520559Y-70030818D01*
X155420181Y-69963749D01*
X155399660Y-69950037D01*
X155399658Y-69950036D01*
X155399656Y-69950035D01*
X155332490Y-69922214D01*
X155265320Y-69894392D01*
X155265316Y-69894391D01*
X155265310Y-69894389D01*
X155122707Y-69866024D01*
X155122705Y-69866024D01*
X154977297Y-69866024D01*
X154977294Y-69866024D01*
X154834691Y-69894389D01*
X154834683Y-69894391D01*
X154834682Y-69894392D01*
X154834678Y-69894393D01*
X154834677Y-69894394D01*
X154700345Y-69950035D01*
X154700343Y-69950036D01*
X154579442Y-70030818D01*
X154579440Y-70030821D01*
X154476618Y-70133643D01*
X154476615Y-70133645D01*
X154395833Y-70254546D01*
X154395831Y-70254548D01*
X154346010Y-70374831D01*
X154319059Y-70401783D01*
X154280944Y-70401783D01*
X154253992Y-70374832D01*
X154253992Y-70374831D01*
X154204170Y-70254548D01*
X154204168Y-70254546D01*
X154204168Y-70254545D01*
X154171722Y-70205987D01*
X154123386Y-70133645D01*
X154020559Y-70030818D01*
X153920181Y-69963749D01*
X153899660Y-69950037D01*
X153899658Y-69950036D01*
X153899656Y-69950035D01*
X153832490Y-69922214D01*
X153765320Y-69894392D01*
X153765316Y-69894391D01*
X153765310Y-69894389D01*
X153622707Y-69866024D01*
X153622705Y-69866024D01*
X153477297Y-69866024D01*
X153477294Y-69866024D01*
X153334691Y-69894389D01*
X153334683Y-69894391D01*
X153334682Y-69894392D01*
X153334678Y-69894393D01*
X153334677Y-69894394D01*
X153200345Y-69950035D01*
X153200343Y-69950036D01*
X153079442Y-70030818D01*
X153079440Y-70030821D01*
X152976618Y-70133643D01*
X152976615Y-70133645D01*
X152895833Y-70254546D01*
X152895831Y-70254548D01*
X152846010Y-70374831D01*
X152819059Y-70401783D01*
X152780944Y-70401783D01*
X152753992Y-70374832D01*
X152753992Y-70374831D01*
X152704170Y-70254548D01*
X152704168Y-70254546D01*
X152704168Y-70254545D01*
X152671722Y-70205987D01*
X152623386Y-70133645D01*
X152520559Y-70030818D01*
X152420181Y-69963749D01*
X152399660Y-69950037D01*
X152399658Y-69950036D01*
X152399656Y-69950035D01*
X152332490Y-69922214D01*
X152265320Y-69894392D01*
X152265316Y-69894391D01*
X152265310Y-69894389D01*
X152122707Y-69866024D01*
X152122705Y-69866024D01*
X151977297Y-69866024D01*
X151977294Y-69866024D01*
X151834691Y-69894389D01*
X151834683Y-69894391D01*
X151834682Y-69894392D01*
X151834678Y-69894393D01*
X151834677Y-69894394D01*
X151700345Y-69950035D01*
X151700343Y-69950036D01*
X151579442Y-70030818D01*
X151579440Y-70030821D01*
X151476618Y-70133643D01*
X151476615Y-70133645D01*
X151395833Y-70254546D01*
X151395831Y-70254548D01*
X151346010Y-70374831D01*
X151319059Y-70401783D01*
X151280944Y-70401783D01*
X151253992Y-70374832D01*
X151253992Y-70374831D01*
X151204170Y-70254548D01*
X151204168Y-70254546D01*
X151204168Y-70254545D01*
X151171722Y-70205987D01*
X151123386Y-70133645D01*
X151020559Y-70030818D01*
X150920181Y-69963749D01*
X150899660Y-69950037D01*
X150899658Y-69950036D01*
X150899656Y-69950035D01*
X150832490Y-69922214D01*
X150765320Y-69894392D01*
X150765316Y-69894391D01*
X150765310Y-69894389D01*
X150622707Y-69866024D01*
X150622705Y-69866024D01*
X150477297Y-69866024D01*
X150477294Y-69866024D01*
X150334691Y-69894389D01*
X150334683Y-69894391D01*
X150334682Y-69894392D01*
X150334678Y-69894393D01*
X150334677Y-69894394D01*
X150200345Y-69950035D01*
X150200343Y-69950036D01*
X150079442Y-70030818D01*
X150079440Y-70030821D01*
X149976618Y-70133643D01*
X149976615Y-70133645D01*
X149895833Y-70254546D01*
X149895831Y-70254548D01*
X149846010Y-70374831D01*
X149819059Y-70401783D01*
X149780944Y-70401783D01*
X149753992Y-70374832D01*
X149753992Y-70374831D01*
X149704170Y-70254548D01*
X149704168Y-70254546D01*
X149704168Y-70254545D01*
X149671722Y-70205987D01*
X149623386Y-70133645D01*
X149520559Y-70030818D01*
X149420181Y-69963749D01*
X149399660Y-69950037D01*
X149399658Y-69950036D01*
X149399656Y-69950035D01*
X149332490Y-69922214D01*
X149265320Y-69894392D01*
X149265316Y-69894391D01*
X149265310Y-69894389D01*
X149122707Y-69866024D01*
X149122705Y-69866024D01*
X148977297Y-69866024D01*
X148977294Y-69866024D01*
X148834691Y-69894389D01*
X148834683Y-69894391D01*
X148834682Y-69894392D01*
X148834678Y-69894393D01*
X148834677Y-69894394D01*
X148700345Y-69950035D01*
X148700343Y-69950036D01*
X148579442Y-70030818D01*
X148579440Y-70030821D01*
X148476618Y-70133643D01*
X148476615Y-70133645D01*
X148395833Y-70254546D01*
X148395832Y-70254548D01*
X148340191Y-70388880D01*
X148340186Y-70388894D01*
X148311821Y-70531497D01*
X148311821Y-70676910D01*
X148340186Y-70819513D01*
X148340188Y-70819519D01*
X148340189Y-70819523D01*
X148346010Y-70833576D01*
X148395832Y-70953859D01*
X148395833Y-70953861D01*
X148476615Y-71074762D01*
X148579442Y-71177589D01*
X148651784Y-71225925D01*
X148700342Y-71258371D01*
X148834682Y-71314016D01*
X148834689Y-71314017D01*
X148834691Y-71314018D01*
X148883489Y-71323724D01*
X148977297Y-71342384D01*
X148977302Y-71342384D01*
X149122700Y-71342384D01*
X149122705Y-71342384D01*
X149265320Y-71314016D01*
X149399660Y-71258371D01*
X149520563Y-71177586D01*
X149623383Y-71074766D01*
X149704168Y-70953863D01*
X149753992Y-70833575D01*
X149780943Y-70806624D01*
X149819058Y-70806624D01*
X149846009Y-70833574D01*
X149846010Y-70833576D01*
X149895832Y-70953859D01*
X149895833Y-70953861D01*
X149976615Y-71074762D01*
X150079442Y-71177589D01*
X150151784Y-71225925D01*
X150200342Y-71258371D01*
X150334682Y-71314016D01*
X150334689Y-71314017D01*
X150334691Y-71314018D01*
X150383489Y-71323724D01*
X150477297Y-71342384D01*
X150477302Y-71342384D01*
X150622700Y-71342384D01*
X150622705Y-71342384D01*
X150765320Y-71314016D01*
X150899660Y-71258371D01*
X151020563Y-71177586D01*
X151123383Y-71074766D01*
X151204168Y-70953863D01*
X151253992Y-70833575D01*
X151280943Y-70806624D01*
X151319058Y-70806624D01*
X151346009Y-70833574D01*
X151346010Y-70833576D01*
X151395832Y-70953859D01*
X151395833Y-70953861D01*
X151476615Y-71074762D01*
X151579442Y-71177589D01*
X151651784Y-71225925D01*
X151700342Y-71258371D01*
X151834682Y-71314016D01*
X151834689Y-71314017D01*
X151834691Y-71314018D01*
X151883489Y-71323724D01*
X151977297Y-71342384D01*
X151977302Y-71342384D01*
X152122700Y-71342384D01*
X152122705Y-71342384D01*
X152265320Y-71314016D01*
X152399660Y-71258371D01*
X152520563Y-71177586D01*
X152623383Y-71074766D01*
X152704168Y-70953863D01*
X152753992Y-70833575D01*
X152780943Y-70806624D01*
X152819058Y-70806624D01*
X152846009Y-70833574D01*
X152846010Y-70833576D01*
X152895832Y-70953859D01*
X152895833Y-70953861D01*
X152976615Y-71074762D01*
X153079442Y-71177589D01*
X153151784Y-71225925D01*
X153200342Y-71258371D01*
X153334682Y-71314016D01*
X153334689Y-71314017D01*
X153334691Y-71314018D01*
X153383489Y-71323724D01*
X153477297Y-71342384D01*
X153477302Y-71342384D01*
X153622700Y-71342384D01*
X153622705Y-71342384D01*
X153765320Y-71314016D01*
X153899660Y-71258371D01*
X154020563Y-71177586D01*
X154123383Y-71074766D01*
X154204168Y-70953863D01*
X154253992Y-70833575D01*
X154280943Y-70806624D01*
X154319058Y-70806624D01*
X154346009Y-70833574D01*
X154346010Y-70833576D01*
X154395832Y-70953859D01*
X154395833Y-70953861D01*
X154476615Y-71074762D01*
X154579442Y-71177589D01*
X154651784Y-71225925D01*
X154700342Y-71258371D01*
X154834682Y-71314016D01*
X154834689Y-71314017D01*
X154834691Y-71314018D01*
X154883489Y-71323724D01*
X154977297Y-71342384D01*
X154977302Y-71342384D01*
X155122700Y-71342384D01*
X155122705Y-71342384D01*
X155265320Y-71314016D01*
X155399660Y-71258371D01*
X155520563Y-71177586D01*
X155623383Y-71074766D01*
X155704168Y-70953863D01*
X155753992Y-70833575D01*
X155780943Y-70806624D01*
X155819058Y-70806624D01*
X155846009Y-70833574D01*
X155846010Y-70833576D01*
X155895832Y-70953859D01*
X155895833Y-70953861D01*
X155976615Y-71074762D01*
X156079442Y-71177589D01*
X156151784Y-71225925D01*
X156200342Y-71258371D01*
X156334682Y-71314016D01*
X156334689Y-71314017D01*
X156334691Y-71314018D01*
X156383489Y-71323724D01*
X156477297Y-71342384D01*
X156477302Y-71342384D01*
X156612020Y-71342384D01*
X156647234Y-71356970D01*
X156661820Y-71392184D01*
X156661820Y-87816224D01*
X156647234Y-87851438D01*
X156612020Y-87866024D01*
X156477294Y-87866024D01*
X156334691Y-87894389D01*
X156334683Y-87894391D01*
X156334682Y-87894392D01*
X156334678Y-87894393D01*
X156334677Y-87894394D01*
X156200345Y-87950035D01*
X156200343Y-87950036D01*
X156079442Y-88030818D01*
X156079440Y-88030821D01*
X155976618Y-88133643D01*
X155976615Y-88133645D01*
X155895833Y-88254546D01*
X155895831Y-88254548D01*
X155846010Y-88374831D01*
X155819059Y-88401783D01*
X155780944Y-88401783D01*
X155753992Y-88374832D01*
X155753992Y-88374831D01*
X155704170Y-88254548D01*
X155704168Y-88254546D01*
X155704168Y-88254545D01*
X155671722Y-88205987D01*
X155623386Y-88133645D01*
X155520559Y-88030818D01*
X155420181Y-87963749D01*
X155399660Y-87950037D01*
X155399658Y-87950036D01*
X155399656Y-87950035D01*
X155332490Y-87922214D01*
X155265320Y-87894392D01*
X155265316Y-87894391D01*
X155265310Y-87894389D01*
X155122707Y-87866024D01*
X155122705Y-87866024D01*
X154977297Y-87866024D01*
X154977294Y-87866024D01*
X154834691Y-87894389D01*
X154834683Y-87894391D01*
X154834682Y-87894392D01*
X154834678Y-87894393D01*
X154834677Y-87894394D01*
X154700345Y-87950035D01*
X154700343Y-87950036D01*
X154579442Y-88030818D01*
X154579440Y-88030821D01*
X154476618Y-88133643D01*
X154476615Y-88133645D01*
X154395833Y-88254546D01*
X154395831Y-88254548D01*
X154346010Y-88374831D01*
X154319059Y-88401783D01*
X154280944Y-88401783D01*
X154253992Y-88374832D01*
X154253992Y-88374831D01*
X154204170Y-88254548D01*
X154204168Y-88254546D01*
X154204168Y-88254545D01*
X154171722Y-88205987D01*
X154123386Y-88133645D01*
X154020559Y-88030818D01*
X153920181Y-87963749D01*
X153899660Y-87950037D01*
X153899658Y-87950036D01*
X153899656Y-87950035D01*
X153832490Y-87922214D01*
X153765320Y-87894392D01*
X153765316Y-87894391D01*
X153765310Y-87894389D01*
X153622707Y-87866024D01*
X153622705Y-87866024D01*
X153477297Y-87866024D01*
X153477294Y-87866024D01*
X153334691Y-87894389D01*
X153334683Y-87894391D01*
X153334682Y-87894392D01*
X153334678Y-87894393D01*
X153334677Y-87894394D01*
X153200345Y-87950035D01*
X153200343Y-87950036D01*
X153079442Y-88030818D01*
X153079440Y-88030821D01*
X152976618Y-88133643D01*
X152976615Y-88133645D01*
X152895833Y-88254546D01*
X152895831Y-88254548D01*
X152846010Y-88374831D01*
X152819059Y-88401783D01*
X152780944Y-88401783D01*
X152753992Y-88374832D01*
X152753992Y-88374831D01*
X152704170Y-88254548D01*
X152704168Y-88254546D01*
X152704168Y-88254545D01*
X152671722Y-88205987D01*
X152623386Y-88133645D01*
X152520559Y-88030818D01*
X152420181Y-87963749D01*
X152399660Y-87950037D01*
X152399658Y-87950036D01*
X152399656Y-87950035D01*
X152332490Y-87922214D01*
X152265320Y-87894392D01*
X152265316Y-87894391D01*
X152265310Y-87894389D01*
X152122707Y-87866024D01*
X152122705Y-87866024D01*
X151977297Y-87866024D01*
X151977294Y-87866024D01*
X151834691Y-87894389D01*
X151834683Y-87894391D01*
X151834682Y-87894392D01*
X151834678Y-87894393D01*
X151834677Y-87894394D01*
X151700345Y-87950035D01*
X151700343Y-87950036D01*
X151579442Y-88030818D01*
X151579440Y-88030821D01*
X151476618Y-88133643D01*
X151476615Y-88133645D01*
X151395833Y-88254546D01*
X151395831Y-88254548D01*
X151346010Y-88374831D01*
X151319059Y-88401783D01*
X151280944Y-88401783D01*
X151253992Y-88374832D01*
X151253992Y-88374831D01*
X151204170Y-88254548D01*
X151204168Y-88254546D01*
X151204168Y-88254545D01*
X151171722Y-88205987D01*
X151123386Y-88133645D01*
X151020559Y-88030818D01*
X150920181Y-87963749D01*
X150899660Y-87950037D01*
X150899658Y-87950036D01*
X150899656Y-87950035D01*
X150832490Y-87922214D01*
X150765320Y-87894392D01*
X150765316Y-87894391D01*
X150765310Y-87894389D01*
X150622707Y-87866024D01*
X150622705Y-87866024D01*
X150477297Y-87866024D01*
X150477294Y-87866024D01*
X150334691Y-87894389D01*
X150334683Y-87894391D01*
X150334682Y-87894392D01*
X150334678Y-87894393D01*
X150334677Y-87894394D01*
X150200345Y-87950035D01*
X150200343Y-87950036D01*
X150079442Y-88030818D01*
X150079440Y-88030821D01*
X149976618Y-88133643D01*
X149976615Y-88133645D01*
X149895833Y-88254546D01*
X149895831Y-88254548D01*
X149846010Y-88374831D01*
X149819059Y-88401783D01*
X149780944Y-88401783D01*
X149753992Y-88374832D01*
X149753992Y-88374831D01*
X149704170Y-88254548D01*
X149704168Y-88254546D01*
X149704168Y-88254545D01*
X149671722Y-88205987D01*
X149623386Y-88133645D01*
X149520559Y-88030818D01*
X149420181Y-87963749D01*
X149399660Y-87950037D01*
X149399658Y-87950036D01*
X149399656Y-87950035D01*
X149332490Y-87922214D01*
X149265320Y-87894392D01*
X149265316Y-87894391D01*
X149265310Y-87894389D01*
X149122707Y-87866024D01*
X149122705Y-87866024D01*
X148977297Y-87866024D01*
X148977294Y-87866024D01*
X148834691Y-87894389D01*
X148834683Y-87894391D01*
X148834682Y-87894392D01*
X148834678Y-87894393D01*
X148834677Y-87894394D01*
X148700345Y-87950035D01*
X148700343Y-87950036D01*
X148579442Y-88030818D01*
X148579440Y-88030821D01*
X148476618Y-88133643D01*
X148476615Y-88133645D01*
X148395833Y-88254546D01*
X148395832Y-88254548D01*
X148340191Y-88388880D01*
X148340186Y-88388894D01*
X148311821Y-88531497D01*
X148311821Y-88676910D01*
X148340186Y-88819513D01*
X148340188Y-88819519D01*
X148340189Y-88819523D01*
X148346010Y-88833576D01*
X148395832Y-88953859D01*
X148395833Y-88953861D01*
X148476615Y-89074762D01*
X148579442Y-89177589D01*
X148651784Y-89225925D01*
X148700342Y-89258371D01*
X148834682Y-89314016D01*
X148834689Y-89314017D01*
X148834691Y-89314018D01*
X148883489Y-89323724D01*
X148977297Y-89342384D01*
X148977302Y-89342384D01*
X149122700Y-89342384D01*
X149122705Y-89342384D01*
X149265320Y-89314016D01*
X149399660Y-89258371D01*
X149520563Y-89177586D01*
X149623383Y-89074766D01*
X149704168Y-88953863D01*
X149753992Y-88833575D01*
X149780943Y-88806624D01*
X149819058Y-88806624D01*
X149846009Y-88833574D01*
X149846010Y-88833576D01*
X149895832Y-88953859D01*
X149895833Y-88953861D01*
X149976615Y-89074762D01*
X150079442Y-89177589D01*
X150151784Y-89225925D01*
X150200342Y-89258371D01*
X150334682Y-89314016D01*
X150334689Y-89314017D01*
X150334691Y-89314018D01*
X150383489Y-89323724D01*
X150477297Y-89342384D01*
X150477302Y-89342384D01*
X150622700Y-89342384D01*
X150622705Y-89342384D01*
X150765320Y-89314016D01*
X150899660Y-89258371D01*
X151020563Y-89177586D01*
X151123383Y-89074766D01*
X151204168Y-88953863D01*
X151253992Y-88833575D01*
X151280943Y-88806624D01*
X151319058Y-88806624D01*
X151346009Y-88833574D01*
X151346010Y-88833576D01*
X151395832Y-88953859D01*
X151395833Y-88953861D01*
X151476615Y-89074762D01*
X151579442Y-89177589D01*
X151651784Y-89225925D01*
X151700342Y-89258371D01*
X151834682Y-89314016D01*
X151834689Y-89314017D01*
X151834691Y-89314018D01*
X151883489Y-89323724D01*
X151977297Y-89342384D01*
X151977302Y-89342384D01*
X152122700Y-89342384D01*
X152122705Y-89342384D01*
X152265320Y-89314016D01*
X152399660Y-89258371D01*
X152520563Y-89177586D01*
X152623383Y-89074766D01*
X152704168Y-88953863D01*
X152753992Y-88833575D01*
X152780943Y-88806624D01*
X152819058Y-88806624D01*
X152846009Y-88833574D01*
X152846010Y-88833576D01*
X152895832Y-88953859D01*
X152895833Y-88953861D01*
X152976615Y-89074762D01*
X153079442Y-89177589D01*
X153151784Y-89225925D01*
X153200342Y-89258371D01*
X153334682Y-89314016D01*
X153334689Y-89314017D01*
X153334691Y-89314018D01*
X153383489Y-89323724D01*
X153477297Y-89342384D01*
X153477302Y-89342384D01*
X153622700Y-89342384D01*
X153622705Y-89342384D01*
X153765320Y-89314016D01*
X153899660Y-89258371D01*
X154020563Y-89177586D01*
X154123383Y-89074766D01*
X154204168Y-88953863D01*
X154253992Y-88833575D01*
X154280943Y-88806624D01*
X154319058Y-88806624D01*
X154346009Y-88833574D01*
X154346010Y-88833576D01*
X154395832Y-88953859D01*
X154395833Y-88953861D01*
X154476615Y-89074762D01*
X154579442Y-89177589D01*
X154651784Y-89225925D01*
X154700342Y-89258371D01*
X154834682Y-89314016D01*
X154834689Y-89314017D01*
X154834691Y-89314018D01*
X154883489Y-89323724D01*
X154977297Y-89342384D01*
X154977302Y-89342384D01*
X155122700Y-89342384D01*
X155122705Y-89342384D01*
X155265320Y-89314016D01*
X155399660Y-89258371D01*
X155520563Y-89177586D01*
X155623383Y-89074766D01*
X155704168Y-88953863D01*
X155753992Y-88833575D01*
X155780943Y-88806624D01*
X155819058Y-88806624D01*
X155846009Y-88833574D01*
X155846010Y-88833576D01*
X155895832Y-88953859D01*
X155895833Y-88953861D01*
X155976615Y-89074762D01*
X156079442Y-89177589D01*
X156151784Y-89225925D01*
X156200342Y-89258371D01*
X156334682Y-89314016D01*
X156334689Y-89314017D01*
X156334691Y-89314018D01*
X156383489Y-89323724D01*
X156477297Y-89342384D01*
X156477302Y-89342384D01*
X156612020Y-89342384D01*
X156647234Y-89356970D01*
X156661820Y-89392184D01*
X156661820Y-126063854D01*
X156654762Y-126080892D01*
X156648183Y-126098092D01*
X156647537Y-126098335D01*
X156647234Y-126099068D01*
X156613381Y-126113635D01*
X156607314Y-126113800D01*
X156604567Y-126113182D01*
X156550909Y-126115343D01*
X156550528Y-126115354D01*
X156550507Y-126115346D01*
X156549167Y-126115373D01*
X156495728Y-126115373D01*
X156491410Y-126116530D01*
X156480536Y-126118185D01*
X156456464Y-126119158D01*
X156456458Y-126119159D01*
X156292242Y-126154216D01*
X156170956Y-126202713D01*
X156138828Y-126215559D01*
X156138826Y-126215558D01*
X156136339Y-126216553D01*
X156136332Y-126216557D01*
X155993212Y-126304391D01*
X155867037Y-126415167D01*
X155867029Y-126415175D01*
X155761410Y-126545721D01*
X155739185Y-126585439D01*
X155733651Y-126589804D01*
X155730957Y-126596318D01*
X155719227Y-126601182D01*
X155709260Y-126609046D01*
X155695750Y-126610920D01*
X155680438Y-126610927D01*
X155645217Y-126596357D01*
X155630615Y-126561150D01*
X155630615Y-126210900D01*
X155645201Y-126175686D01*
X155680415Y-126161100D01*
X155919023Y-126161100D01*
X155919024Y-126161100D01*
X155919028Y-126161099D01*
X155919040Y-126161099D01*
X155936515Y-126159849D01*
X155988488Y-126156132D01*
X156121788Y-126116991D01*
X156238662Y-126041881D01*
X156329640Y-125936887D01*
X156387353Y-125810514D01*
X156407124Y-125673000D01*
X156407124Y-125098000D01*
X156403978Y-125054008D01*
X156402157Y-125028540D01*
X156402156Y-125028538D01*
X156402156Y-125028536D01*
X156363015Y-124895236D01*
X156358043Y-124887500D01*
X156287905Y-124778362D01*
X156287904Y-124778360D01*
X156182913Y-124687385D01*
X156182912Y-124687384D01*
X156109830Y-124654009D01*
X156056538Y-124629671D01*
X156056536Y-124629670D01*
X156056534Y-124629670D01*
X155919026Y-124609900D01*
X155919024Y-124609900D01*
X155244024Y-124609900D01*
X155244007Y-124609900D01*
X155174565Y-124614867D01*
X155174560Y-124614868D01*
X155041259Y-124654009D01*
X155041253Y-124654012D01*
X154924386Y-124729118D01*
X154924384Y-124729119D01*
X154833409Y-124834110D01*
X154833408Y-124834111D01*
X154775695Y-124960486D01*
X154775694Y-124960489D01*
X154755924Y-125097997D01*
X154755924Y-125586587D01*
X154749251Y-125611487D01*
X154708928Y-125681331D01*
X154690592Y-125749764D01*
X154676643Y-125801825D01*
X154676637Y-125801848D01*
X154676415Y-125802672D01*
X154676415Y-126561607D01*
X154661829Y-126596821D01*
X154626638Y-126611407D01*
X151809996Y-126612690D01*
X151805379Y-126612478D01*
X151747957Y-126607158D01*
X151689922Y-126612535D01*
X151685351Y-126612747D01*
X145180352Y-126615711D01*
X145145131Y-126601141D01*
X145130529Y-126565934D01*
X145145098Y-126530714D01*
X145236200Y-126439612D01*
X145261608Y-126427087D01*
X145261409Y-126426345D01*
X145264562Y-126425500D01*
X145340989Y-126405021D01*
X145409511Y-126365460D01*
X145465460Y-126309511D01*
X145505021Y-126240989D01*
X145525500Y-126164562D01*
X145525500Y-126085438D01*
X145505021Y-126009011D01*
X145465460Y-125940489D01*
X145409511Y-125884540D01*
X145409510Y-125884539D01*
X145340992Y-125844981D01*
X145340989Y-125844979D01*
X145340986Y-125844978D01*
X145264562Y-125824500D01*
X145185438Y-125824500D01*
X145109013Y-125844978D01*
X145109007Y-125844981D01*
X145040489Y-125884539D01*
X144984539Y-125940489D01*
X144944981Y-126009007D01*
X144944978Y-126009013D01*
X144924500Y-126085437D01*
X144924500Y-126159058D01*
X144909914Y-126194272D01*
X144540873Y-126563314D01*
X144505659Y-126577900D01*
X143706528Y-126577900D01*
X143626127Y-126577900D01*
X143551847Y-126608668D01*
X143551845Y-126608669D01*
X143547317Y-126610545D01*
X143547013Y-126609813D01*
X143525095Y-126616464D01*
X142596179Y-126616887D01*
X142560958Y-126602317D01*
X142546356Y-126567110D01*
X142550149Y-126548025D01*
X142550934Y-126546130D01*
X142559645Y-126513620D01*
X142578500Y-126443253D01*
X142578500Y-126336747D01*
X142550934Y-126233869D01*
X142497680Y-126141631D01*
X142422369Y-126066320D01*
X142422368Y-126066319D01*
X142330128Y-126013064D01*
X142329458Y-126012787D01*
X142329199Y-126012528D01*
X142327304Y-126011434D01*
X142327597Y-126010926D01*
X142327025Y-126010355D01*
X142323615Y-126009906D01*
X142313848Y-125997178D01*
X142302506Y-125985836D01*
X142300412Y-125979667D01*
X142288949Y-125936887D01*
X142285560Y-125924237D01*
X142285560Y-125924236D01*
X142257574Y-125875764D01*
X142247038Y-125857515D01*
X142192561Y-125803038D01*
X142190827Y-125801304D01*
X142190816Y-125801294D01*
X141846086Y-125456563D01*
X141831500Y-125421349D01*
X141831500Y-124878651D01*
X141846086Y-124843437D01*
X141911163Y-124778360D01*
X141993039Y-124696484D01*
X142031560Y-124629764D01*
X142051500Y-124555345D01*
X142051500Y-124478303D01*
X142051500Y-123108651D01*
X142066086Y-123073437D01*
X145068437Y-120071086D01*
X145103651Y-120056500D01*
X147396349Y-120056500D01*
X147431563Y-120071086D01*
X148210794Y-120850317D01*
X148225380Y-120885531D01*
X148210794Y-120920745D01*
X148200480Y-120928659D01*
X148161231Y-120951319D01*
X148085919Y-121026631D01*
X148072628Y-121049653D01*
X148042389Y-121072856D01*
X148004600Y-121067881D01*
X147981397Y-121037642D01*
X147979700Y-121024753D01*
X147979700Y-120995396D01*
X147979700Y-120995395D01*
X147954489Y-120934530D01*
X147907905Y-120887946D01*
X147354570Y-120334611D01*
X147293705Y-120309400D01*
X147293704Y-120309400D01*
X147165890Y-120309400D01*
X147140990Y-120302728D01*
X147088333Y-120272327D01*
X147088330Y-120272325D01*
X147088327Y-120272324D01*
X147011903Y-120251846D01*
X146932779Y-120251846D01*
X146856354Y-120272324D01*
X146856348Y-120272327D01*
X146787830Y-120311885D01*
X146731880Y-120367835D01*
X146692322Y-120436353D01*
X146692319Y-120436359D01*
X146671841Y-120512783D01*
X146671841Y-120591908D01*
X146692319Y-120668332D01*
X146692322Y-120668338D01*
X146731880Y-120736856D01*
X146780510Y-120785486D01*
X146795096Y-120820700D01*
X146780510Y-120855914D01*
X146745296Y-120870500D01*
X146652345Y-120870500D01*
X146549473Y-120898064D01*
X146549465Y-120898068D01*
X146480500Y-120937885D01*
X146442711Y-120942860D01*
X146430700Y-120937885D01*
X146361734Y-120898068D01*
X146361731Y-120898066D01*
X146361728Y-120898065D01*
X146361726Y-120898064D01*
X146258854Y-120870500D01*
X146258853Y-120870500D01*
X146152347Y-120870500D01*
X146152345Y-120870500D01*
X146049473Y-120898064D01*
X146049465Y-120898068D01*
X145957231Y-120951319D01*
X145881919Y-121026631D01*
X145828668Y-121118865D01*
X145828664Y-121118873D01*
X145801100Y-121221745D01*
X145801100Y-121328254D01*
X145828664Y-121431126D01*
X145828665Y-121431128D01*
X145828666Y-121431131D01*
X145881920Y-121523369D01*
X145957231Y-121598680D01*
X146049200Y-121651779D01*
X146072403Y-121682017D01*
X146074100Y-121694906D01*
X146074100Y-122846955D01*
X146074098Y-122846959D01*
X146074100Y-122846964D01*
X146066589Y-122865087D01*
X146059514Y-122882169D01*
X146059508Y-122882175D01*
X146056734Y-122884948D01*
X146056729Y-122884953D01*
X146002578Y-122939103D01*
X145967364Y-122953689D01*
X145932150Y-122939103D01*
X145917972Y-122924925D01*
X145917946Y-122924893D01*
X145877929Y-122884881D01*
X145877859Y-122884811D01*
X145850674Y-122857626D01*
X145850564Y-122857562D01*
X145848194Y-122855196D01*
X145848191Y-122855190D01*
X145848167Y-122855169D01*
X145834488Y-122841492D01*
X145730595Y-122776215D01*
X145730588Y-122776211D01*
X145614777Y-122735686D01*
X145614773Y-122735685D01*
X145614772Y-122735685D01*
X145492838Y-122721940D01*
X145492836Y-122721940D01*
X145370907Y-122735666D01*
X145370894Y-122735669D01*
X145255084Y-122776177D01*
X145255073Y-122776182D01*
X145151166Y-122841449D01*
X145137175Y-122855434D01*
X145134998Y-122857610D01*
X145134975Y-122857624D01*
X145107788Y-122884811D01*
X145107775Y-122884824D01*
X145068492Y-122924091D01*
X145068418Y-122924178D01*
X144989438Y-123003158D01*
X144988810Y-123003873D01*
X144975335Y-123017344D01*
X144975328Y-123017352D01*
X144910022Y-123121246D01*
X144910017Y-123121255D01*
X144869469Y-123237070D01*
X144869468Y-123237074D01*
X144855710Y-123359019D01*
X144855710Y-123359022D01*
X144855710Y-123359025D01*
X144865281Y-123444065D01*
X144869435Y-123480980D01*
X144909954Y-123596814D01*
X144909955Y-123596816D01*
X144909956Y-123596818D01*
X144912742Y-123601252D01*
X144919122Y-123638830D01*
X144897063Y-123669913D01*
X144859485Y-123676293D01*
X144844074Y-123669908D01*
X144839703Y-123667161D01*
X144723854Y-123626619D01*
X144601892Y-123612878D01*
X144479929Y-123626624D01*
X144479926Y-123626624D01*
X144479925Y-123626625D01*
X144364085Y-123667166D01*
X144364079Y-123667169D01*
X144260170Y-123732473D01*
X144223017Y-123769634D01*
X144223013Y-123769638D01*
X144166454Y-123826194D01*
X144166411Y-123826232D01*
X144142306Y-123850341D01*
X144142191Y-123850389D01*
X144084274Y-123908318D01*
X144084266Y-123908327D01*
X144018986Y-124012243D01*
X143978458Y-124128098D01*
X143978458Y-124128099D01*
X143964730Y-124250049D01*
X143964730Y-124250056D01*
X143978481Y-124372004D01*
X144019029Y-124487847D01*
X144084330Y-124591753D01*
X144125565Y-124632980D01*
X144181919Y-124689334D01*
X144196505Y-124724548D01*
X144181919Y-124759762D01*
X144008331Y-124933350D01*
X143973117Y-124947936D01*
X143960229Y-124946239D01*
X143956771Y-124945312D01*
X143956768Y-124945312D01*
X143850262Y-124945312D01*
X143850260Y-124945312D01*
X143747388Y-124972876D01*
X143747380Y-124972880D01*
X143678415Y-125012697D01*
X143640626Y-125017672D01*
X143628615Y-125012697D01*
X143559649Y-124972880D01*
X143559646Y-124972878D01*
X143559643Y-124972877D01*
X143559641Y-124972876D01*
X143456769Y-124945312D01*
X143456768Y-124945312D01*
X143350262Y-124945312D01*
X143350260Y-124945312D01*
X143247388Y-124972876D01*
X143247380Y-124972880D01*
X143155146Y-125026131D01*
X143079834Y-125101443D01*
X143026583Y-125193677D01*
X143026579Y-125193685D01*
X142999015Y-125296557D01*
X142999015Y-125403066D01*
X143026579Y-125505938D01*
X143026580Y-125505940D01*
X143026581Y-125505943D01*
X143079835Y-125598181D01*
X143155146Y-125673492D01*
X143247384Y-125726746D01*
X143350262Y-125754312D01*
X143373588Y-125754312D01*
X143408802Y-125768898D01*
X143562955Y-125923051D01*
X143629675Y-125961572D01*
X143666884Y-125971542D01*
X143704093Y-125981512D01*
X144082496Y-125981512D01*
X144082497Y-125981512D01*
X144119705Y-125971542D01*
X144156915Y-125961572D01*
X144223635Y-125923051D01*
X144476753Y-125669933D01*
X144485772Y-125654312D01*
X144515275Y-125603211D01*
X144535215Y-125528794D01*
X144535215Y-125507553D01*
X144549800Y-125472340D01*
X146721060Y-123301079D01*
X146721065Y-123301076D01*
X146725159Y-123296981D01*
X146725161Y-123296981D01*
X146779638Y-123242504D01*
X146811247Y-123187756D01*
X146818160Y-123175783D01*
X146833738Y-123117643D01*
X146838100Y-123101365D01*
X146838100Y-121694329D01*
X146852686Y-121659115D01*
X146862998Y-121651202D01*
X146953969Y-121598680D01*
X147029280Y-121523369D01*
X147082534Y-121431131D01*
X147110100Y-121328253D01*
X147110100Y-121221747D01*
X147082534Y-121118869D01*
X147029280Y-121026631D01*
X146953969Y-120951320D01*
X146953967Y-120951318D01*
X146944364Y-120945774D01*
X146921160Y-120915536D01*
X146926135Y-120877747D01*
X146956373Y-120854543D01*
X146969263Y-120852846D01*
X147011903Y-120852846D01*
X147088330Y-120832367D01*
X147156852Y-120792806D01*
X147212801Y-120736857D01*
X147212801Y-120736856D01*
X147215109Y-120734549D01*
X147216529Y-120735969D01*
X147244055Y-120720062D01*
X147280876Y-120729911D01*
X147285790Y-120734219D01*
X147633914Y-121082343D01*
X147648500Y-121117557D01*
X147648500Y-121488725D01*
X147648500Y-121554605D01*
X147673711Y-121615470D01*
X148358830Y-122300589D01*
X148419695Y-122325800D01*
X148485575Y-122325800D01*
X154013100Y-122325800D01*
X154048314Y-122340386D01*
X154062900Y-122375600D01*
X154062900Y-123037189D01*
X154062900Y-124102611D01*
X154068702Y-124124268D01*
X154068703Y-124124269D01*
X154070400Y-124137157D01*
X154070400Y-124220117D01*
X154070401Y-124220124D01*
X154085317Y-124295114D01*
X154085317Y-124295116D01*
X154142139Y-124380157D01*
X154142142Y-124380160D01*
X154161509Y-124393100D01*
X154227185Y-124436983D01*
X154287509Y-124448982D01*
X154290147Y-124449507D01*
X154305332Y-124455222D01*
X154355846Y-124484387D01*
X154477189Y-124516900D01*
X154602811Y-124516900D01*
X154724154Y-124484387D01*
X154766059Y-124460192D01*
X154774671Y-124455220D01*
X154789854Y-124449505D01*
X154852815Y-124436983D01*
X154937859Y-124380159D01*
X154994683Y-124295115D01*
X155009600Y-124220123D01*
X155009599Y-124137157D01*
X155011296Y-124124268D01*
X155015191Y-124109736D01*
X155017100Y-124102611D01*
X155017100Y-123037189D01*
X155017100Y-122097389D01*
X155017100Y-121157589D01*
X155017100Y-120217789D01*
X155017100Y-119277989D01*
X155017100Y-118338189D01*
X155011296Y-118316528D01*
X155009599Y-118303639D01*
X155009599Y-118220683D01*
X155009599Y-118220678D01*
X154994683Y-118145685D01*
X154990604Y-118139581D01*
X154937858Y-118060640D01*
X154918232Y-118047526D01*
X154897057Y-118015833D01*
X154896100Y-118006119D01*
X154896100Y-117669630D01*
X154896099Y-117669628D01*
X154871833Y-117579061D01*
X154824951Y-117497860D01*
X154758651Y-117431560D01*
X153862140Y-116535049D01*
X153862139Y-116535048D01*
X153783355Y-116489562D01*
X153780939Y-116488167D01*
X153730305Y-116474600D01*
X153690371Y-116463900D01*
X153690370Y-116463900D01*
X153669899Y-116463900D01*
X153634685Y-116449314D01*
X153620099Y-116414100D01*
X153634685Y-116378886D01*
X153654060Y-116359511D01*
X153693621Y-116290989D01*
X153714100Y-116214562D01*
X153714100Y-116135438D01*
X153713647Y-116133749D01*
X153695182Y-116064837D01*
X153693621Y-116059011D01*
X153654060Y-115990489D01*
X153598111Y-115934540D01*
X153598110Y-115934539D01*
X153529592Y-115894981D01*
X153529589Y-115894979D01*
X153529586Y-115894978D01*
X153453162Y-115874500D01*
X153374038Y-115874500D01*
X153297613Y-115894978D01*
X153297607Y-115894981D01*
X153229089Y-115934539D01*
X153173139Y-115990489D01*
X153133581Y-116059007D01*
X153133578Y-116059013D01*
X153113100Y-116135437D01*
X153113100Y-116214562D01*
X153132461Y-116286819D01*
X153133579Y-116290989D01*
X153147405Y-116314936D01*
X153173139Y-116359510D01*
X153192515Y-116378886D01*
X153207101Y-116414100D01*
X153192515Y-116449314D01*
X153157301Y-116463900D01*
X152101500Y-116463900D01*
X152066286Y-116449314D01*
X152051700Y-116414100D01*
X152051700Y-114335437D01*
X153113100Y-114335437D01*
X153113100Y-114414562D01*
X153125449Y-114460650D01*
X153133579Y-114490989D01*
X153173140Y-114559511D01*
X153229089Y-114615460D01*
X153297611Y-114655021D01*
X153374038Y-114675500D01*
X153453162Y-114675500D01*
X153529589Y-114655021D01*
X153598111Y-114615460D01*
X153654060Y-114559511D01*
X153693621Y-114490989D01*
X153714100Y-114414562D01*
X153714100Y-114335438D01*
X153693621Y-114259011D01*
X153654060Y-114190489D01*
X153598111Y-114134540D01*
X153598110Y-114134539D01*
X153529592Y-114094981D01*
X153529589Y-114094979D01*
X153529586Y-114094978D01*
X153453162Y-114074500D01*
X153374038Y-114074500D01*
X153297613Y-114094978D01*
X153297607Y-114094981D01*
X153229089Y-114134539D01*
X153173139Y-114190489D01*
X153133581Y-114259007D01*
X153133578Y-114259013D01*
X153113100Y-114335437D01*
X152051700Y-114335437D01*
X152051700Y-113235405D01*
X152066286Y-113200191D01*
X152425792Y-112840686D01*
X152461006Y-112826100D01*
X153138519Y-112826100D01*
X153206592Y-112826100D01*
X153241806Y-112840686D01*
X153256392Y-112875900D01*
X153249720Y-112900797D01*
X153245381Y-112908314D01*
X153244979Y-112909011D01*
X153244978Y-112909013D01*
X153224500Y-112985437D01*
X153224500Y-113064562D01*
X153240185Y-113123100D01*
X153244979Y-113140989D01*
X153252475Y-113153973D01*
X153280046Y-113201728D01*
X153284540Y-113209511D01*
X153340489Y-113265460D01*
X153409011Y-113305021D01*
X153485438Y-113325500D01*
X153564562Y-113325500D01*
X153640989Y-113305021D01*
X153709511Y-113265460D01*
X153765460Y-113209511D01*
X153805021Y-113140989D01*
X153825500Y-113064562D01*
X153825500Y-112985438D01*
X153824049Y-112980024D01*
X153815249Y-112947182D01*
X153805021Y-112909011D01*
X153800279Y-112900798D01*
X153795305Y-112863011D01*
X153818507Y-112832772D01*
X153843408Y-112826100D01*
X154673100Y-112826100D01*
X154708314Y-112840686D01*
X154722900Y-112875900D01*
X154722900Y-113458418D01*
X154732871Y-113526858D01*
X154784480Y-113632425D01*
X154784481Y-113632426D01*
X154867574Y-113715519D01*
X154973144Y-113767129D01*
X155041581Y-113777100D01*
X156058418Y-113777099D01*
X156126856Y-113767129D01*
X156232426Y-113715519D01*
X156315519Y-113632426D01*
X156367129Y-113526856D01*
X156377100Y-113458419D01*
X156377099Y-112716582D01*
X156367129Y-112648144D01*
X156363774Y-112641282D01*
X156315519Y-112542574D01*
X156232425Y-112459480D01*
X156196182Y-112441762D01*
X156126856Y-112407871D01*
X156081231Y-112401223D01*
X156058420Y-112397900D01*
X156058419Y-112397900D01*
X155272906Y-112397900D01*
X155238669Y-112384264D01*
X155238162Y-112383784D01*
X155181643Y-112327265D01*
X155178567Y-112325489D01*
X155168301Y-112319562D01*
X155149019Y-112308429D01*
X155118457Y-112290784D01*
X155118454Y-112290783D01*
X155118452Y-112290782D01*
X155047982Y-112271900D01*
X155047981Y-112271900D01*
X153326986Y-112271900D01*
X153291772Y-112257314D01*
X151808721Y-110774264D01*
X151784811Y-110760460D01*
X151745536Y-110737784D01*
X151745534Y-110737783D01*
X151675061Y-110718900D01*
X151675060Y-110718900D01*
X150528408Y-110718900D01*
X150493194Y-110704314D01*
X150478608Y-110669100D01*
X150485279Y-110644202D01*
X150490021Y-110635989D01*
X150510500Y-110559562D01*
X150510500Y-110480438D01*
X150508781Y-110474024D01*
X150503030Y-110452562D01*
X150490021Y-110404011D01*
X150450460Y-110335489D01*
X150450459Y-110335487D01*
X150448473Y-110332899D01*
X150449711Y-110331948D01*
X150437100Y-110301501D01*
X150437100Y-110269773D01*
X150437100Y-110269772D01*
X150402526Y-110186303D01*
X150338642Y-110122419D01*
X150010697Y-109794474D01*
X149927228Y-109759900D01*
X149927227Y-109759900D01*
X149874696Y-109759900D01*
X149839482Y-109745314D01*
X147711642Y-107617474D01*
X147628173Y-107582900D01*
X147628172Y-107582900D01*
X145804696Y-107582900D01*
X145769482Y-107568314D01*
X144281686Y-106080518D01*
X144267100Y-106045304D01*
X144267100Y-103181454D01*
X144267100Y-103181453D01*
X144232526Y-103097984D01*
X144168642Y-103034100D01*
X142294979Y-101160437D01*
X145599500Y-101160437D01*
X145599500Y-101239562D01*
X145615936Y-101300903D01*
X145619979Y-101315989D01*
X145659540Y-101384511D01*
X145715489Y-101440460D01*
X145784011Y-101480021D01*
X145860438Y-101500500D01*
X145939562Y-101500500D01*
X146015989Y-101480021D01*
X146084511Y-101440460D01*
X146140460Y-101384511D01*
X146180021Y-101315989D01*
X146200500Y-101239562D01*
X146200500Y-101160438D01*
X146180021Y-101084011D01*
X146140460Y-101015489D01*
X146084511Y-100959540D01*
X146084510Y-100959539D01*
X146015992Y-100919981D01*
X146015989Y-100919979D01*
X146015986Y-100919978D01*
X145939562Y-100899500D01*
X145860438Y-100899500D01*
X145784013Y-100919978D01*
X145784007Y-100919981D01*
X145715489Y-100959539D01*
X145659539Y-101015489D01*
X145619981Y-101084007D01*
X145619978Y-101084013D01*
X145599500Y-101160437D01*
X142294979Y-101160437D01*
X142212416Y-101077874D01*
X142128947Y-101043300D01*
X142128946Y-101043300D01*
X139401900Y-101043300D01*
X139366686Y-101028714D01*
X139352100Y-100993500D01*
X139352100Y-99107789D01*
X139352099Y-99107787D01*
X139350176Y-99100611D01*
X139346296Y-99086128D01*
X139344599Y-99073239D01*
X139344599Y-98990283D01*
X139344599Y-98990278D01*
X139329683Y-98915285D01*
X139272859Y-98830241D01*
X139272857Y-98830239D01*
X139187815Y-98773417D01*
X139133228Y-98762558D01*
X139118044Y-98756843D01*
X139051657Y-98718515D01*
X139051658Y-98718515D01*
X139051654Y-98718513D01*
X138983814Y-98700335D01*
X138930313Y-98686000D01*
X138930312Y-98686000D01*
X138804688Y-98686000D01*
X138804686Y-98686000D01*
X138697682Y-98714671D01*
X138683346Y-98718513D01*
X138683343Y-98718514D01*
X138683342Y-98718515D01*
X138609068Y-98761397D01*
X138593883Y-98767112D01*
X138562185Y-98773416D01*
X138562183Y-98773417D01*
X138477142Y-98830239D01*
X138477139Y-98830242D01*
X138420317Y-98915283D01*
X138420317Y-98915284D01*
X138405400Y-98990276D01*
X138405400Y-99037749D01*
X138403703Y-99050638D01*
X138390400Y-99100286D01*
X138390400Y-99225911D01*
X138396203Y-99247567D01*
X138397900Y-99260457D01*
X138397900Y-104648100D01*
X138383314Y-104683314D01*
X138348100Y-104697900D01*
X138191581Y-104697900D01*
X138123141Y-104707871D01*
X138017574Y-104759480D01*
X137934480Y-104842574D01*
X137882871Y-104948145D01*
X137872900Y-105016579D01*
X137872900Y-106033418D01*
X137882871Y-106101858D01*
X137934480Y-106207425D01*
X137945814Y-106218759D01*
X137960400Y-106253973D01*
X137960400Y-106751827D01*
X137945814Y-106787041D01*
X137934480Y-106798374D01*
X137911697Y-106844979D01*
X137882871Y-106903944D01*
X137880036Y-106923400D01*
X137872900Y-106972379D01*
X137872900Y-107298273D01*
X137858314Y-107333487D01*
X137214452Y-107977350D01*
X135828599Y-109363202D01*
X135749335Y-109500494D01*
X135749332Y-109500500D01*
X135736083Y-109549947D01*
X135712880Y-109580185D01*
X135675090Y-109585160D01*
X135644852Y-109561957D01*
X135638180Y-109537057D01*
X135638180Y-95990942D01*
X141922900Y-95990942D01*
X141922900Y-96511053D01*
X141922901Y-96511063D01*
X141928822Y-96540835D01*
X141928823Y-96540837D01*
X141951388Y-96574608D01*
X141951389Y-96574608D01*
X141951390Y-96574610D01*
X141985163Y-96597176D01*
X141985166Y-96597176D01*
X141989695Y-96599053D01*
X141988840Y-96601115D01*
X142013695Y-96617706D01*
X142022100Y-96645392D01*
X142022100Y-96656416D01*
X142045376Y-96712611D01*
X142045377Y-96712612D01*
X142117591Y-96784826D01*
X142180914Y-96848148D01*
X142195500Y-96883362D01*
X142195500Y-98055272D01*
X142218776Y-98111467D01*
X142218777Y-98111468D01*
X144038532Y-99931223D01*
X144078269Y-99947682D01*
X144094726Y-99954499D01*
X144094727Y-99954499D01*
X144094729Y-99954500D01*
X144094730Y-99954500D01*
X144155556Y-99954500D01*
X145648954Y-99954500D01*
X145684168Y-99969086D01*
X147157514Y-101442432D01*
X147172100Y-101477646D01*
X147172100Y-105311444D01*
X147178917Y-105327903D01*
X147178917Y-105327904D01*
X147195376Y-105367640D01*
X147195377Y-105367641D01*
X151210560Y-109382823D01*
X151243479Y-109396458D01*
X151266756Y-109406100D01*
X151266757Y-109406100D01*
X151327584Y-109406100D01*
X151921717Y-109406100D01*
X151956931Y-109420686D01*
X152042668Y-109506423D01*
X152082405Y-109522882D01*
X152098862Y-109529699D01*
X152098863Y-109529699D01*
X152098865Y-109529700D01*
X152098866Y-109529700D01*
X152098867Y-109529700D01*
X152451135Y-109529700D01*
X152461513Y-109525400D01*
X152467593Y-109522883D01*
X152467594Y-109522882D01*
X152467599Y-109522880D01*
X152507332Y-109506423D01*
X152756423Y-109257331D01*
X152779700Y-109201134D01*
X152779700Y-109140307D01*
X152779700Y-108848865D01*
X152756422Y-108792668D01*
X152713411Y-108749657D01*
X152579468Y-108615714D01*
X152442486Y-108478731D01*
X152427900Y-108443517D01*
X152427900Y-107412461D01*
X152442486Y-107377247D01*
X152452797Y-107369335D01*
X152459511Y-107365460D01*
X152515460Y-107309511D01*
X152555021Y-107240989D01*
X152575500Y-107164562D01*
X152575500Y-107085438D01*
X152555021Y-107009011D01*
X152515460Y-106940489D01*
X152459511Y-106884540D01*
X152459510Y-106884539D01*
X152390992Y-106844981D01*
X152390989Y-106844979D01*
X152390986Y-106844978D01*
X152314562Y-106824500D01*
X152235438Y-106824500D01*
X152159013Y-106844978D01*
X152159007Y-106844981D01*
X152090489Y-106884539D01*
X152034539Y-106940489D01*
X151994981Y-107009007D01*
X151994978Y-107009013D01*
X151974500Y-107085437D01*
X151974500Y-107164562D01*
X151994978Y-107240986D01*
X151994981Y-107240992D01*
X152028051Y-107298273D01*
X152034540Y-107309511D01*
X152090489Y-107365460D01*
X152097197Y-107369333D01*
X152120402Y-107399567D01*
X152122100Y-107412461D01*
X152122100Y-108557893D01*
X152122200Y-108558133D01*
X152124923Y-108564707D01*
X152124923Y-108564709D01*
X152145376Y-108614089D01*
X152190494Y-108659207D01*
X152205080Y-108694421D01*
X152190494Y-108729635D01*
X152168174Y-108742523D01*
X152159837Y-108744757D01*
X152159011Y-108744979D01*
X152159008Y-108744980D01*
X152159007Y-108744981D01*
X152090489Y-108784539D01*
X152034539Y-108840489D01*
X152016232Y-108872200D01*
X151985994Y-108895403D01*
X151973104Y-108897100D01*
X151465300Y-108897100D01*
X151430087Y-108882515D01*
X151426736Y-108879164D01*
X151382305Y-108834733D01*
X151382302Y-108834732D01*
X151347401Y-108799830D01*
X151347379Y-108799803D01*
X151343623Y-108796048D01*
X151343623Y-108796047D01*
X151323581Y-108776010D01*
X151315668Y-108765699D01*
X151303075Y-108743892D01*
X151296403Y-108718991D01*
X151296403Y-108700607D01*
X151303075Y-108675707D01*
X151315678Y-108653881D01*
X151323587Y-108643576D01*
X151343621Y-108623549D01*
X151343621Y-108623547D01*
X151348196Y-108618974D01*
X151348222Y-108618939D01*
X151600930Y-108366236D01*
X151600930Y-108366234D01*
X151604393Y-108362772D01*
X151604550Y-108362579D01*
X151615976Y-108351155D01*
X151667705Y-108261568D01*
X151694485Y-108161646D01*
X151694491Y-108058198D01*
X151667722Y-107958273D01*
X151616003Y-107868680D01*
X151605035Y-107857710D01*
X151600932Y-107853607D01*
X151600931Y-107853602D01*
X151568514Y-107821185D01*
X151554756Y-107807425D01*
X151554754Y-107807424D01*
X151551926Y-107804595D01*
X151551911Y-107804582D01*
X151469886Y-107722557D01*
X151469340Y-107722108D01*
X151457959Y-107710726D01*
X151425187Y-107691802D01*
X151368386Y-107659001D01*
X151368383Y-107659000D01*
X151368385Y-107659000D01*
X151268473Y-107632217D01*
X151268475Y-107632217D01*
X151165081Y-107632203D01*
X151165040Y-107632203D01*
X151165039Y-107632203D01*
X151165037Y-107632203D01*
X151165033Y-107632203D01*
X151065123Y-107658955D01*
X151065118Y-107658958D01*
X150975533Y-107710654D01*
X150963508Y-107722673D01*
X150960512Y-107725668D01*
X150960450Y-107725730D01*
X150960433Y-107725738D01*
X150939401Y-107746769D01*
X150939005Y-107747166D01*
X150938954Y-107747217D01*
X150910734Y-107775421D01*
X150910672Y-107775497D01*
X150683119Y-108003054D01*
X150672800Y-108010971D01*
X150650989Y-108023560D01*
X150626091Y-108030229D01*
X150607697Y-108030228D01*
X150582798Y-108023555D01*
X150560857Y-108010886D01*
X150550545Y-108002973D01*
X150526513Y-107978941D01*
X150526502Y-107978932D01*
X150475070Y-107927499D01*
X150467154Y-107917182D01*
X150454571Y-107895384D01*
X150447901Y-107870484D01*
X150447902Y-107857710D01*
X150447902Y-107852098D01*
X150454575Y-107827204D01*
X150467257Y-107805245D01*
X150475164Y-107794943D01*
X150495093Y-107775021D01*
X150495093Y-107775019D01*
X150499668Y-107770446D01*
X150499694Y-107770411D01*
X150752380Y-107517730D01*
X150752380Y-107517728D01*
X150756055Y-107514054D01*
X150756130Y-107513959D01*
X150767426Y-107502669D01*
X150819168Y-107413077D01*
X150845954Y-107313145D01*
X150845958Y-107209685D01*
X150819180Y-107109751D01*
X150767445Y-107020155D01*
X150741315Y-106994030D01*
X150675184Y-106927899D01*
X150675164Y-106927873D01*
X150650123Y-106902838D01*
X150621699Y-106874414D01*
X150621662Y-106874382D01*
X150609434Y-106862156D01*
X150544201Y-106824500D01*
X150519845Y-106810440D01*
X150419921Y-106783670D01*
X150316479Y-106783670D01*
X150316478Y-106783670D01*
X150237637Y-106804792D01*
X150216553Y-106810441D01*
X150126970Y-106862152D01*
X150126968Y-106862153D01*
X150114239Y-106874879D01*
X150111890Y-106877228D01*
X150111883Y-106877232D01*
X150090396Y-106898719D01*
X150090390Y-106898725D01*
X150062487Y-106926620D01*
X150062457Y-106926656D01*
X149858181Y-107130935D01*
X149854599Y-107134516D01*
X149854591Y-107134520D01*
X149836967Y-107152148D01*
X149834549Y-107154567D01*
X149834546Y-107154568D01*
X149824240Y-107162478D01*
X149802415Y-107175082D01*
X149777518Y-107181757D01*
X149759105Y-107181760D01*
X149734202Y-107175091D01*
X149734186Y-107175082D01*
X149712589Y-107162616D01*
X149702270Y-107154699D01*
X147717486Y-105169914D01*
X147702900Y-105134700D01*
X147702900Y-101300903D01*
X147702900Y-101300902D01*
X147679622Y-101244705D01*
X147636611Y-101201694D01*
X147035065Y-100600148D01*
X146210631Y-99775713D01*
X146177860Y-99742942D01*
X148532900Y-99742942D01*
X148532900Y-100263053D01*
X148532901Y-100263063D01*
X148538822Y-100292835D01*
X148538823Y-100292837D01*
X148561388Y-100326608D01*
X148561389Y-100326608D01*
X148561390Y-100326610D01*
X148595163Y-100349176D01*
X148595166Y-100349176D01*
X148599695Y-100351053D01*
X148598840Y-100353115D01*
X148623695Y-100369706D01*
X148632100Y-100397392D01*
X148632100Y-100408416D01*
X148655376Y-100464611D01*
X148790914Y-100600148D01*
X148805500Y-100635362D01*
X148805500Y-102598240D01*
X148828776Y-102654435D01*
X148828777Y-102654436D01*
X149099140Y-102924798D01*
X149099141Y-102924801D01*
X149119184Y-102944842D01*
X149127095Y-102955151D01*
X149139702Y-102976985D01*
X149146375Y-103001882D01*
X149146377Y-103020301D01*
X149139709Y-103045200D01*
X149127214Y-103066849D01*
X149119296Y-103077169D01*
X148757917Y-103438549D01*
X148757651Y-103438872D01*
X148746198Y-103450320D01*
X148694452Y-103539910D01*
X148667662Y-103639831D01*
X148667653Y-103743289D01*
X148694422Y-103843218D01*
X148694425Y-103843225D01*
X148746145Y-103932808D01*
X148746149Y-103932814D01*
X148753272Y-103939937D01*
X148757112Y-103943776D01*
X148757119Y-103943785D01*
X148761215Y-103947881D01*
X148761216Y-103947882D01*
X148889080Y-104075746D01*
X148889081Y-104075746D01*
X148904150Y-104090815D01*
X148993743Y-104142542D01*
X149093671Y-104169318D01*
X149197123Y-104169318D01*
X149297051Y-104142542D01*
X149386644Y-104090815D01*
X149423220Y-104054239D01*
X149447897Y-104029562D01*
X149447897Y-104029561D01*
X149759677Y-103717779D01*
X149769987Y-103709868D01*
X149785733Y-103700779D01*
X149791805Y-103697274D01*
X149816702Y-103690604D01*
X149835102Y-103690604D01*
X149859999Y-103697275D01*
X149881812Y-103709869D01*
X149892124Y-103717781D01*
X149932128Y-103757787D01*
X149947675Y-103773334D01*
X149947680Y-103773346D01*
X149967566Y-103793225D01*
X149967727Y-103793386D01*
X149967728Y-103793389D01*
X149975638Y-103803695D01*
X149988230Y-103825499D01*
X149994905Y-103850401D01*
X149994906Y-103868789D01*
X149988232Y-103893696D01*
X149975665Y-103915458D01*
X149967749Y-103925772D01*
X149944452Y-103949063D01*
X149944422Y-103949099D01*
X149606418Y-104287103D01*
X149606213Y-104287353D01*
X149594720Y-104298845D01*
X149542995Y-104388427D01*
X149542991Y-104388435D01*
X149516214Y-104488349D01*
X149516213Y-104488352D01*
X149516206Y-104591798D01*
X149542457Y-104689797D01*
X149542972Y-104691719D01*
X149552982Y-104709061D01*
X149594684Y-104781306D01*
X149594685Y-104781307D01*
X149594687Y-104781310D01*
X149606580Y-104793205D01*
X149606580Y-104793206D01*
X149609756Y-104796383D01*
X149609761Y-104796393D01*
X149630136Y-104816768D01*
X149634061Y-104820693D01*
X149660017Y-104846654D01*
X149660041Y-104846673D01*
X149737625Y-104924257D01*
X149737626Y-104924257D01*
X149752695Y-104939326D01*
X149842288Y-104991053D01*
X149942216Y-105017829D01*
X150045668Y-105017829D01*
X150145596Y-104991053D01*
X150235189Y-104939326D01*
X150271765Y-104902750D01*
X150296442Y-104878073D01*
X150296442Y-104878072D01*
X150608205Y-104566307D01*
X150618515Y-104558396D01*
X150634292Y-104549289D01*
X150640333Y-104545802D01*
X150665230Y-104539132D01*
X150683630Y-104539132D01*
X150708527Y-104545803D01*
X150730340Y-104558397D01*
X150740651Y-104566308D01*
X150796523Y-104622181D01*
X150796526Y-104622185D01*
X150799365Y-104625024D01*
X151609189Y-105434848D01*
X151755564Y-105581222D01*
X151811761Y-105604500D01*
X151872588Y-105604500D01*
X155198954Y-105604500D01*
X155234168Y-105619086D01*
X155856348Y-106241265D01*
X155870934Y-106276479D01*
X155870934Y-108492204D01*
X155856348Y-108527418D01*
X155526252Y-108857514D01*
X155491038Y-108872100D01*
X155062463Y-108872100D01*
X155027249Y-108857514D01*
X155019335Y-108847201D01*
X155015459Y-108840488D01*
X154959510Y-108784539D01*
X154915165Y-108758937D01*
X154890989Y-108744979D01*
X154890986Y-108744978D01*
X154890982Y-108744976D01*
X154881826Y-108742523D01*
X154851589Y-108719319D01*
X154846616Y-108681529D01*
X154859502Y-108659209D01*
X154904622Y-108614090D01*
X154927900Y-108557893D01*
X154927900Y-108497066D01*
X154927900Y-107412461D01*
X154942486Y-107377247D01*
X154952797Y-107369335D01*
X154959511Y-107365460D01*
X155015460Y-107309511D01*
X155055021Y-107240989D01*
X155075500Y-107164562D01*
X155075500Y-107085438D01*
X155055021Y-107009011D01*
X155015460Y-106940489D01*
X154959511Y-106884540D01*
X154959510Y-106884539D01*
X154890992Y-106844981D01*
X154890989Y-106844979D01*
X154890986Y-106844978D01*
X154814562Y-106824500D01*
X154735438Y-106824500D01*
X154659013Y-106844978D01*
X154659007Y-106844981D01*
X154590489Y-106884539D01*
X154534539Y-106940489D01*
X154494981Y-107009007D01*
X154494978Y-107009013D01*
X154474500Y-107085437D01*
X154474500Y-107164562D01*
X154494978Y-107240986D01*
X154494981Y-107240992D01*
X154528051Y-107298273D01*
X154534540Y-107309511D01*
X154590489Y-107365460D01*
X154597197Y-107369333D01*
X154620402Y-107399567D01*
X154622100Y-107412461D01*
X154622100Y-108443517D01*
X154607514Y-108478731D01*
X154293578Y-108792666D01*
X154293577Y-108792667D01*
X154293577Y-108792668D01*
X154281383Y-108822108D01*
X154277854Y-108830629D01*
X154270300Y-108848864D01*
X154270300Y-109201136D01*
X154293576Y-109257331D01*
X154293577Y-109257332D01*
X154542669Y-109506423D01*
X154564557Y-109515489D01*
X154598865Y-109529700D01*
X154598866Y-109529700D01*
X154598867Y-109529700D01*
X154957814Y-109529700D01*
X154968192Y-109525400D01*
X154974272Y-109522883D01*
X154974273Y-109522882D01*
X154974278Y-109522880D01*
X155014011Y-109506423D01*
X155123748Y-109396686D01*
X155158962Y-109382100D01*
X155689996Y-109382100D01*
X155701598Y-109377294D01*
X155706454Y-109375283D01*
X155706455Y-109375282D01*
X155746193Y-109358823D01*
X156357657Y-108747358D01*
X156373163Y-108709922D01*
X156380934Y-108691162D01*
X156380934Y-108318552D01*
X156380933Y-108318551D01*
X156380890Y-108318332D01*
X156379934Y-108308620D01*
X156379934Y-106077937D01*
X156379934Y-106077936D01*
X156364062Y-106039618D01*
X156356657Y-106021739D01*
X155453695Y-105118777D01*
X155453694Y-105118776D01*
X155413958Y-105102317D01*
X155413957Y-105102317D01*
X155397498Y-105095500D01*
X155397497Y-105095500D01*
X152010305Y-105095500D01*
X151975091Y-105080914D01*
X149329086Y-102434909D01*
X149314500Y-102399695D01*
X149314500Y-100635362D01*
X149329086Y-100600148D01*
X149464623Y-100464611D01*
X149487900Y-100408414D01*
X149487900Y-100397392D01*
X149502486Y-100362179D01*
X149520848Y-100352368D01*
X149520304Y-100351054D01*
X149524837Y-100349176D01*
X149558610Y-100326610D01*
X149581176Y-100292837D01*
X149587100Y-100263055D01*
X149587099Y-99742946D01*
X149587099Y-99742945D01*
X149587098Y-99742936D01*
X149581177Y-99713164D01*
X149581176Y-99713162D01*
X149558611Y-99679391D01*
X149558607Y-99679388D01*
X149524837Y-99656824D01*
X149524834Y-99656823D01*
X149524836Y-99656823D01*
X149500978Y-99652078D01*
X149495055Y-99650900D01*
X149495054Y-99650900D01*
X149174946Y-99650900D01*
X149174936Y-99650901D01*
X149145164Y-99656822D01*
X149145162Y-99656823D01*
X149111391Y-99679388D01*
X149111388Y-99679391D01*
X149101407Y-99694330D01*
X149069716Y-99715506D01*
X149032333Y-99708070D01*
X149018593Y-99694330D01*
X149008611Y-99679391D01*
X149008607Y-99679388D01*
X148974837Y-99656824D01*
X148974834Y-99656823D01*
X148974836Y-99656823D01*
X148950978Y-99652078D01*
X148945055Y-99650900D01*
X148945054Y-99650900D01*
X148624946Y-99650900D01*
X148624936Y-99650901D01*
X148595164Y-99656822D01*
X148595162Y-99656823D01*
X148561391Y-99679388D01*
X148538823Y-99713164D01*
X148532900Y-99742942D01*
X146177860Y-99742942D01*
X145903694Y-99468776D01*
X145863958Y-99452317D01*
X145863957Y-99452317D01*
X145847498Y-99445500D01*
X145847497Y-99445500D01*
X144293272Y-99445500D01*
X144258058Y-99430914D01*
X142719086Y-97891941D01*
X142704500Y-97856727D01*
X142704500Y-96883362D01*
X142719086Y-96848148D01*
X142782412Y-96784822D01*
X142854623Y-96712611D01*
X142877900Y-96656414D01*
X142877900Y-96645392D01*
X142892486Y-96610179D01*
X142910848Y-96600368D01*
X142910304Y-96599054D01*
X142914837Y-96597176D01*
X142948610Y-96574610D01*
X142971176Y-96540837D01*
X142977100Y-96511055D01*
X142977099Y-95990946D01*
X142977099Y-95990945D01*
X142977098Y-95990936D01*
X142971177Y-95961164D01*
X142971176Y-95961162D01*
X142948611Y-95927391D01*
X142948607Y-95927388D01*
X142914837Y-95904824D01*
X142914834Y-95904823D01*
X142914836Y-95904823D01*
X142890978Y-95900078D01*
X142885055Y-95898900D01*
X142885054Y-95898900D01*
X142564946Y-95898900D01*
X142564936Y-95898901D01*
X142535164Y-95904822D01*
X142535162Y-95904823D01*
X142501391Y-95927388D01*
X142501388Y-95927391D01*
X142491407Y-95942330D01*
X142459716Y-95963506D01*
X142422333Y-95956070D01*
X142408593Y-95942330D01*
X142398611Y-95927391D01*
X142398607Y-95927388D01*
X142364837Y-95904824D01*
X142364834Y-95904823D01*
X142364836Y-95904823D01*
X142340978Y-95900078D01*
X142335055Y-95898900D01*
X142335054Y-95898900D01*
X142014946Y-95898900D01*
X142014936Y-95898901D01*
X141985164Y-95904822D01*
X141985162Y-95904823D01*
X141951391Y-95927388D01*
X141928823Y-95961164D01*
X141922900Y-95990942D01*
X135638180Y-95990942D01*
X135638180Y-94764942D01*
X141922900Y-94764942D01*
X141922900Y-95285053D01*
X141922901Y-95285063D01*
X141928822Y-95314835D01*
X141928823Y-95314837D01*
X141951388Y-95348608D01*
X141951389Y-95348608D01*
X141951390Y-95348610D01*
X141985163Y-95371176D01*
X142014945Y-95377100D01*
X142335054Y-95377099D01*
X142335055Y-95377098D01*
X142335063Y-95377098D01*
X142364835Y-95371177D01*
X142364837Y-95371176D01*
X142371744Y-95366561D01*
X142398610Y-95348610D01*
X142408593Y-95333668D01*
X142440280Y-95312494D01*
X142477664Y-95319927D01*
X142491406Y-95333668D01*
X142501388Y-95348608D01*
X142501390Y-95348610D01*
X142535163Y-95371176D01*
X142564945Y-95377100D01*
X142885054Y-95377099D01*
X142885055Y-95377098D01*
X142885063Y-95377098D01*
X142914835Y-95371177D01*
X142914837Y-95371176D01*
X142921744Y-95366561D01*
X142948610Y-95348610D01*
X142971176Y-95314837D01*
X142977100Y-95285055D01*
X142977100Y-95147142D01*
X144131900Y-95147142D01*
X144131900Y-97267253D01*
X144131901Y-97267263D01*
X144137822Y-97297035D01*
X144137823Y-97297037D01*
X144160388Y-97330808D01*
X144160389Y-97330808D01*
X144160390Y-97330810D01*
X144194163Y-97353376D01*
X144223945Y-97359300D01*
X146244054Y-97359299D01*
X146244055Y-97359298D01*
X146244063Y-97359298D01*
X146273835Y-97353377D01*
X146273837Y-97353376D01*
X146307610Y-97330810D01*
X146330176Y-97297037D01*
X146336100Y-97267255D01*
X146336099Y-96120462D01*
X146671900Y-96120462D01*
X146671900Y-96293937D01*
X146699035Y-96465267D01*
X146699036Y-96465271D01*
X146699037Y-96465276D01*
X146734561Y-96574608D01*
X146752644Y-96630261D01*
X146831396Y-96784822D01*
X146831397Y-96784823D01*
X146930371Y-96921050D01*
X146933365Y-96925170D01*
X147056030Y-97047835D01*
X147196374Y-97149801D01*
X147196376Y-97149802D01*
X147196377Y-97149803D01*
X147350938Y-97228555D01*
X147350940Y-97228556D01*
X147515924Y-97282163D01*
X147687263Y-97309300D01*
X147860737Y-97309300D01*
X148032076Y-97282163D01*
X148197060Y-97228556D01*
X148351626Y-97149801D01*
X148403365Y-97112209D01*
X148440425Y-97103311D01*
X148467850Y-97117284D01*
X148784913Y-97434347D01*
X148799499Y-97469560D01*
X148799499Y-98217903D01*
X148799499Y-98278729D01*
X148801709Y-98284066D01*
X148805500Y-98303121D01*
X148805500Y-98375100D01*
X148790914Y-98410314D01*
X148755700Y-98424900D01*
X148624946Y-98424900D01*
X148624936Y-98424901D01*
X148595164Y-98430822D01*
X148595162Y-98430823D01*
X148561391Y-98453388D01*
X148538823Y-98487164D01*
X148532900Y-98516942D01*
X148532900Y-99037053D01*
X148532901Y-99037063D01*
X148538822Y-99066835D01*
X148538823Y-99066837D01*
X148561388Y-99100608D01*
X148561389Y-99100608D01*
X148561390Y-99100610D01*
X148595163Y-99123176D01*
X148624945Y-99129100D01*
X148945054Y-99129099D01*
X148945055Y-99129098D01*
X148945063Y-99129098D01*
X148974835Y-99123177D01*
X148974837Y-99123176D01*
X149008610Y-99100610D01*
X149018593Y-99085668D01*
X149050280Y-99064494D01*
X149087664Y-99071927D01*
X149101406Y-99085668D01*
X149111388Y-99100608D01*
X149111390Y-99100610D01*
X149145163Y-99123176D01*
X149174945Y-99129100D01*
X149495054Y-99129099D01*
X149495055Y-99129098D01*
X149495063Y-99129098D01*
X149524835Y-99123177D01*
X149524837Y-99123176D01*
X149558610Y-99100610D01*
X149581176Y-99066837D01*
X149587100Y-99037055D01*
X149587099Y-98516946D01*
X149587099Y-98516945D01*
X149587098Y-98516936D01*
X149581177Y-98487164D01*
X149581176Y-98487162D01*
X149558611Y-98453391D01*
X149558607Y-98453388D01*
X149524837Y-98430824D01*
X149524834Y-98430823D01*
X149524836Y-98430823D01*
X149495057Y-98424900D01*
X149495055Y-98424900D01*
X149364300Y-98424900D01*
X149329086Y-98410314D01*
X149314500Y-98375100D01*
X149314500Y-98146143D01*
X149314500Y-98146142D01*
X149312291Y-98140810D01*
X149308501Y-98121754D01*
X149308501Y-97469560D01*
X149323087Y-97434346D01*
X149468133Y-97289300D01*
X149620149Y-97137283D01*
X149655362Y-97122698D01*
X149684632Y-97132208D01*
X149736374Y-97169801D01*
X149736376Y-97169802D01*
X149736377Y-97169803D01*
X149890938Y-97248555D01*
X149890940Y-97248556D01*
X150055924Y-97302163D01*
X150227263Y-97329300D01*
X150400737Y-97329300D01*
X150572076Y-97302163D01*
X150737060Y-97248556D01*
X150891626Y-97169801D01*
X151031970Y-97067835D01*
X151154635Y-96945170D01*
X151256601Y-96804826D01*
X151335356Y-96650260D01*
X151388963Y-96485276D01*
X151416100Y-96313937D01*
X151416100Y-96140463D01*
X151416100Y-96140462D01*
X151410689Y-96106296D01*
X151409765Y-96100462D01*
X154271900Y-96100462D01*
X154271900Y-96273937D01*
X154299035Y-96445267D01*
X154299036Y-96445271D01*
X154299037Y-96445276D01*
X154320410Y-96511054D01*
X154352644Y-96610261D01*
X154431396Y-96764822D01*
X154431397Y-96764823D01*
X154530371Y-96901050D01*
X154533365Y-96905170D01*
X154656030Y-97027835D01*
X154796374Y-97129801D01*
X154796376Y-97129802D01*
X154796377Y-97129803D01*
X154950938Y-97208555D01*
X154950940Y-97208556D01*
X155115924Y-97262163D01*
X155287263Y-97289300D01*
X155460737Y-97289300D01*
X155632076Y-97262163D01*
X155797060Y-97208556D01*
X155951626Y-97129801D01*
X156091970Y-97027835D01*
X156214635Y-96905170D01*
X156316601Y-96764826D01*
X156395356Y-96610260D01*
X156448963Y-96445276D01*
X156476100Y-96273937D01*
X156476100Y-96100463D01*
X156448963Y-95929124D01*
X156395356Y-95764140D01*
X156395355Y-95764138D01*
X156316603Y-95609577D01*
X156316602Y-95609576D01*
X156214638Y-95469234D01*
X156214637Y-95469233D01*
X156214635Y-95469230D01*
X156091970Y-95346565D01*
X156091966Y-95346562D01*
X156091965Y-95346561D01*
X155951623Y-95244597D01*
X155951622Y-95244596D01*
X155797061Y-95165844D01*
X155731983Y-95144699D01*
X155632076Y-95112237D01*
X155632071Y-95112236D01*
X155632067Y-95112235D01*
X155460737Y-95085100D01*
X155287263Y-95085100D01*
X155115932Y-95112235D01*
X155115926Y-95112236D01*
X155115924Y-95112237D01*
X155076336Y-95125100D01*
X154950938Y-95165844D01*
X154796377Y-95244596D01*
X154796376Y-95244597D01*
X154656034Y-95346561D01*
X154533361Y-95469234D01*
X154431397Y-95609576D01*
X154431396Y-95609577D01*
X154352644Y-95764138D01*
X154339647Y-95804140D01*
X154299601Y-95927390D01*
X154299037Y-95929125D01*
X154299035Y-95929132D01*
X154271900Y-96100462D01*
X151409765Y-96100462D01*
X151392419Y-95990945D01*
X151388963Y-95969124D01*
X151335356Y-95804140D01*
X151256601Y-95649574D01*
X151154635Y-95509230D01*
X151031970Y-95386565D01*
X151031966Y-95386562D01*
X151031965Y-95386561D01*
X150930020Y-95312494D01*
X150891626Y-95284599D01*
X150891625Y-95284598D01*
X150891623Y-95284597D01*
X150891622Y-95284596D01*
X150737061Y-95205844D01*
X150675507Y-95185844D01*
X150572076Y-95152237D01*
X150572071Y-95152236D01*
X150572067Y-95152235D01*
X150400737Y-95125100D01*
X150227263Y-95125100D01*
X150055932Y-95152235D01*
X150055926Y-95152236D01*
X150055924Y-95152237D01*
X150000929Y-95170106D01*
X149890938Y-95205844D01*
X149736377Y-95284596D01*
X149736376Y-95284597D01*
X149596034Y-95386561D01*
X149473361Y-95509234D01*
X149371397Y-95649576D01*
X149371396Y-95649577D01*
X149292644Y-95804138D01*
X149256906Y-95914129D01*
X149240863Y-95963506D01*
X149239037Y-95969125D01*
X149239035Y-95969132D01*
X149211900Y-96140462D01*
X149211900Y-96313937D01*
X149239035Y-96485267D01*
X149239036Y-96485271D01*
X149239037Y-96485276D01*
X149257090Y-96540837D01*
X149292644Y-96650261D01*
X149371396Y-96804822D01*
X149371397Y-96804823D01*
X149408989Y-96856564D01*
X149417887Y-96893626D01*
X149403914Y-96921050D01*
X149089213Y-97235751D01*
X149053999Y-97250337D01*
X149018785Y-97235751D01*
X148684084Y-96901050D01*
X148669498Y-96865836D01*
X148679009Y-96836566D01*
X148716601Y-96784826D01*
X148795356Y-96630260D01*
X148848963Y-96465276D01*
X148876100Y-96293937D01*
X148876100Y-96120463D01*
X148848963Y-95949124D01*
X148795356Y-95784140D01*
X148726793Y-95649577D01*
X148716603Y-95629577D01*
X148716602Y-95629576D01*
X148702071Y-95609576D01*
X148614635Y-95489230D01*
X148491970Y-95366565D01*
X148491966Y-95366562D01*
X148491965Y-95366561D01*
X148351623Y-95264597D01*
X148351622Y-95264596D01*
X148197061Y-95185844D01*
X148135507Y-95165844D01*
X148032076Y-95132237D01*
X148032071Y-95132236D01*
X148032067Y-95132235D01*
X147860737Y-95105100D01*
X147687263Y-95105100D01*
X147515932Y-95132235D01*
X147515926Y-95132236D01*
X147515924Y-95132237D01*
X147470070Y-95147136D01*
X147350938Y-95185844D01*
X147196377Y-95264596D01*
X147196376Y-95264597D01*
X147056034Y-95366561D01*
X146933361Y-95489234D01*
X146831397Y-95629576D01*
X146831396Y-95629577D01*
X146752644Y-95784138D01*
X146716906Y-95894129D01*
X146705536Y-95929124D01*
X146699037Y-95949125D01*
X146699035Y-95949132D01*
X146671900Y-96120462D01*
X146336099Y-96120462D01*
X146336099Y-95147146D01*
X146336099Y-95147145D01*
X146336098Y-95147136D01*
X146330177Y-95117364D01*
X146330176Y-95117362D01*
X146307611Y-95083591D01*
X146307607Y-95083588D01*
X146273837Y-95061024D01*
X146273834Y-95061023D01*
X146273836Y-95061023D01*
X146249978Y-95056278D01*
X146244055Y-95055100D01*
X146244054Y-95055100D01*
X144223946Y-95055100D01*
X144223936Y-95055101D01*
X144194164Y-95061022D01*
X144194162Y-95061023D01*
X144160391Y-95083588D01*
X144137823Y-95117364D01*
X144131900Y-95147142D01*
X142977100Y-95147142D01*
X142977099Y-94764946D01*
X142977099Y-94764945D01*
X142977098Y-94764936D01*
X142971177Y-94735164D01*
X142971176Y-94735162D01*
X142948611Y-94701391D01*
X142948607Y-94701388D01*
X142914837Y-94678824D01*
X142914834Y-94678823D01*
X142910305Y-94676947D01*
X142911157Y-94674889D01*
X142886289Y-94658269D01*
X142877900Y-94630607D01*
X142877900Y-94619586D01*
X142877899Y-94619582D01*
X142865563Y-94589801D01*
X142854623Y-94563390D01*
X142854623Y-94563389D01*
X142719086Y-94427851D01*
X142704500Y-94392637D01*
X142704500Y-94080736D01*
X142719086Y-94045522D01*
X143184146Y-93580462D01*
X144131900Y-93580462D01*
X144131900Y-93753937D01*
X144159035Y-93925267D01*
X144159036Y-93925271D01*
X144159037Y-93925276D01*
X144194775Y-94035265D01*
X144212644Y-94090261D01*
X144291396Y-94244822D01*
X144291397Y-94244823D01*
X144378830Y-94365165D01*
X144393365Y-94385170D01*
X144516030Y-94507835D01*
X144656374Y-94609801D01*
X144656376Y-94609802D01*
X144656377Y-94609803D01*
X144780213Y-94672900D01*
X144810940Y-94688556D01*
X144975924Y-94742163D01*
X145147263Y-94769300D01*
X145320737Y-94769300D01*
X145492076Y-94742163D01*
X145657060Y-94688556D01*
X145811626Y-94609801D01*
X145951970Y-94507835D01*
X146074635Y-94385170D01*
X146176601Y-94244826D01*
X146255356Y-94090260D01*
X146308963Y-93925276D01*
X146336100Y-93753937D01*
X146336100Y-93580463D01*
X146308963Y-93409124D01*
X146255356Y-93244140D01*
X146243952Y-93221759D01*
X146176603Y-93089577D01*
X146176602Y-93089576D01*
X146162071Y-93069576D01*
X146074635Y-92949230D01*
X145951970Y-92826565D01*
X145951966Y-92826562D01*
X145951965Y-92826561D01*
X145857717Y-92758086D01*
X145811626Y-92724599D01*
X145811625Y-92724598D01*
X145811623Y-92724597D01*
X145811622Y-92724596D01*
X145657061Y-92645844D01*
X145595504Y-92625843D01*
X145492076Y-92592237D01*
X145492071Y-92592236D01*
X145492067Y-92592235D01*
X145320737Y-92565100D01*
X145147263Y-92565100D01*
X144975932Y-92592235D01*
X144975926Y-92592236D01*
X144975924Y-92592237D01*
X144920929Y-92610106D01*
X144810938Y-92645844D01*
X144656377Y-92724596D01*
X144656376Y-92724597D01*
X144516034Y-92826561D01*
X144393361Y-92949234D01*
X144291397Y-93089576D01*
X144291396Y-93089577D01*
X144212644Y-93244138D01*
X144209973Y-93252360D01*
X144165536Y-93389124D01*
X144159037Y-93409125D01*
X144159035Y-93409132D01*
X144131900Y-93580462D01*
X143184146Y-93580462D01*
X144581833Y-92182775D01*
X144617047Y-92168189D01*
X146337849Y-92168189D01*
X146350735Y-92169885D01*
X146375069Y-92176407D01*
X146397390Y-92189294D01*
X146410404Y-92202308D01*
X146423292Y-92224630D01*
X146429817Y-92248976D01*
X146431515Y-92261868D01*
X146431515Y-92295506D01*
X146431513Y-92300967D01*
X146431508Y-92300980D01*
X146431510Y-92313328D01*
X146431510Y-92315207D01*
X146431448Y-92315356D01*
X146431452Y-92335879D01*
X146431461Y-92387607D01*
X146458248Y-92487504D01*
X146458257Y-92487536D01*
X146509998Y-92577121D01*
X146583155Y-92650260D01*
X146583158Y-92650262D01*
X146583162Y-92650266D01*
X146672763Y-92701984D01*
X146672767Y-92701985D01*
X146672769Y-92701986D01*
X146739385Y-92719829D01*
X146772696Y-92728752D01*
X146824425Y-92728748D01*
X146903722Y-92728748D01*
X146903738Y-92728749D01*
X146909523Y-92728748D01*
X146909526Y-92728750D01*
X146944424Y-92728748D01*
X146944426Y-92728748D01*
X146979636Y-92728748D01*
X146979980Y-92728712D01*
X146996144Y-92728712D01*
X147004775Y-92726399D01*
X147042563Y-92731373D01*
X147065768Y-92761611D01*
X147060794Y-92799400D01*
X147052879Y-92809716D01*
X146933361Y-92929234D01*
X146831397Y-93069576D01*
X146831396Y-93069577D01*
X146752644Y-93224138D01*
X146699037Y-93389125D01*
X146699035Y-93389132D01*
X146671900Y-93560462D01*
X146671900Y-93733937D01*
X146699035Y-93905267D01*
X146699036Y-93905271D01*
X146699037Y-93905276D01*
X146734775Y-94015265D01*
X146752644Y-94070261D01*
X146831396Y-94224822D01*
X146831397Y-94224823D01*
X146831399Y-94224826D01*
X146933365Y-94365170D01*
X147056030Y-94487835D01*
X147056033Y-94487837D01*
X147056034Y-94487838D01*
X147196374Y-94589801D01*
X147196377Y-94589803D01*
X147345570Y-94665820D01*
X147350940Y-94668556D01*
X147515924Y-94722163D01*
X147687263Y-94749300D01*
X147860737Y-94749300D01*
X148032076Y-94722163D01*
X148197060Y-94668556D01*
X148351626Y-94589801D01*
X148491970Y-94487835D01*
X148614635Y-94365170D01*
X148716601Y-94224826D01*
X148795356Y-94070260D01*
X148848963Y-93905276D01*
X148876100Y-93733937D01*
X148876100Y-93560463D01*
X148848963Y-93389124D01*
X148804525Y-93252359D01*
X148807516Y-93214362D01*
X148816671Y-93201760D01*
X148998785Y-93019647D01*
X149033999Y-93005061D01*
X149069213Y-93019647D01*
X149271325Y-93221759D01*
X149285911Y-93256973D01*
X149283473Y-93272362D01*
X149245536Y-93389124D01*
X149239037Y-93409125D01*
X149239035Y-93409132D01*
X149211900Y-93580462D01*
X149211900Y-93753937D01*
X149239035Y-93925267D01*
X149239036Y-93925271D01*
X149239037Y-93925276D01*
X149274775Y-94035265D01*
X149292644Y-94090261D01*
X149371396Y-94244822D01*
X149371397Y-94244823D01*
X149458830Y-94365165D01*
X149473365Y-94385170D01*
X149596030Y-94507835D01*
X149736374Y-94609801D01*
X149736376Y-94609802D01*
X149736377Y-94609803D01*
X149860213Y-94672900D01*
X149890940Y-94688556D01*
X150055924Y-94742163D01*
X150227263Y-94769300D01*
X150400737Y-94769300D01*
X150572076Y-94742163D01*
X150737060Y-94688556D01*
X150891626Y-94609801D01*
X151031970Y-94507835D01*
X151154635Y-94385170D01*
X151256601Y-94244826D01*
X151335356Y-94090260D01*
X151388963Y-93925276D01*
X151416100Y-93753937D01*
X151416100Y-93580463D01*
X151412932Y-93560462D01*
X154271900Y-93560462D01*
X154271900Y-93733937D01*
X154299035Y-93905267D01*
X154299036Y-93905271D01*
X154299037Y-93905276D01*
X154334775Y-94015265D01*
X154352644Y-94070261D01*
X154431396Y-94224822D01*
X154431397Y-94224823D01*
X154431399Y-94224826D01*
X154533365Y-94365170D01*
X154656030Y-94487835D01*
X154656033Y-94487837D01*
X154656034Y-94487838D01*
X154796374Y-94589801D01*
X154796377Y-94589803D01*
X154945570Y-94665820D01*
X154950940Y-94668556D01*
X155115924Y-94722163D01*
X155287263Y-94749300D01*
X155460737Y-94749300D01*
X155632076Y-94722163D01*
X155797060Y-94668556D01*
X155951626Y-94589801D01*
X156091970Y-94487835D01*
X156214635Y-94365170D01*
X156316601Y-94224826D01*
X156395356Y-94070260D01*
X156448963Y-93905276D01*
X156476100Y-93733937D01*
X156476100Y-93560463D01*
X156448963Y-93389124D01*
X156395356Y-93224140D01*
X156326793Y-93089577D01*
X156316603Y-93069577D01*
X156316602Y-93069576D01*
X156269729Y-93005061D01*
X156214635Y-92929230D01*
X156091970Y-92806565D01*
X156091966Y-92806562D01*
X156091965Y-92806561D01*
X155951623Y-92704597D01*
X155951622Y-92704596D01*
X155797061Y-92625844D01*
X155742065Y-92607975D01*
X155632076Y-92572237D01*
X155632071Y-92572236D01*
X155632067Y-92572235D01*
X155460737Y-92545100D01*
X155287263Y-92545100D01*
X155115932Y-92572235D01*
X155115926Y-92572236D01*
X155115924Y-92572237D01*
X155101007Y-92577084D01*
X154950938Y-92625844D01*
X154796377Y-92704596D01*
X154796376Y-92704597D01*
X154656034Y-92806561D01*
X154533361Y-92929234D01*
X154431397Y-93069576D01*
X154431396Y-93069577D01*
X154352644Y-93224138D01*
X154299037Y-93389125D01*
X154299035Y-93389132D01*
X154271900Y-93560462D01*
X151412932Y-93560462D01*
X151388963Y-93409124D01*
X151335356Y-93244140D01*
X151323952Y-93221759D01*
X151256603Y-93089577D01*
X151256602Y-93089576D01*
X151242071Y-93069576D01*
X151154635Y-92949230D01*
X151031970Y-92826565D01*
X151031966Y-92826562D01*
X151031965Y-92826561D01*
X150937717Y-92758086D01*
X150891626Y-92724599D01*
X150891625Y-92724598D01*
X150891623Y-92724597D01*
X150891622Y-92724596D01*
X150737061Y-92645844D01*
X150675504Y-92625843D01*
X150572076Y-92592237D01*
X150572071Y-92592236D01*
X150572067Y-92592235D01*
X150400737Y-92565100D01*
X150227263Y-92565100D01*
X150055932Y-92592235D01*
X150055926Y-92592236D01*
X150055924Y-92592237D01*
X150000929Y-92610106D01*
X149890938Y-92645844D01*
X149736377Y-92724596D01*
X149736376Y-92724597D01*
X149596033Y-92826561D01*
X149487528Y-92935066D01*
X149452314Y-92949652D01*
X149417100Y-92935066D01*
X149303087Y-92821053D01*
X149288501Y-92785839D01*
X149288501Y-92305188D01*
X149288500Y-92305184D01*
X149281683Y-92288726D01*
X149265224Y-92248990D01*
X148698699Y-91682465D01*
X148658963Y-91666006D01*
X148658962Y-91666006D01*
X148642503Y-91659189D01*
X144418503Y-91659189D01*
X144395226Y-91668830D01*
X144383065Y-91673867D01*
X144362307Y-91682465D01*
X142218777Y-93825995D01*
X142218775Y-93825998D01*
X142211373Y-93843872D01*
X142211372Y-93843874D01*
X142195500Y-93882191D01*
X142195500Y-94392637D01*
X142180914Y-94427851D01*
X142045377Y-94563388D01*
X142045373Y-94563394D01*
X142034436Y-94589800D01*
X142034437Y-94589801D01*
X142022102Y-94619582D01*
X142022100Y-94619586D01*
X142022100Y-94630606D01*
X142007514Y-94665820D01*
X141989153Y-94675636D01*
X141989696Y-94676946D01*
X141985162Y-94678823D01*
X141951391Y-94701388D01*
X141928823Y-94735164D01*
X141922900Y-94764942D01*
X135638180Y-94764942D01*
X135638180Y-89392184D01*
X135652766Y-89356970D01*
X135687980Y-89342384D01*
X135822700Y-89342384D01*
X135822705Y-89342384D01*
X135965320Y-89314016D01*
X136099660Y-89258371D01*
X136220563Y-89177586D01*
X136323383Y-89074766D01*
X136404168Y-88953863D01*
X136453992Y-88833575D01*
X136480943Y-88806624D01*
X136519058Y-88806624D01*
X136546009Y-88833574D01*
X136546010Y-88833576D01*
X136595832Y-88953859D01*
X136595833Y-88953861D01*
X136676615Y-89074762D01*
X136779442Y-89177589D01*
X136851784Y-89225925D01*
X136900342Y-89258371D01*
X137034682Y-89314016D01*
X137034689Y-89314017D01*
X137034691Y-89314018D01*
X137083489Y-89323724D01*
X137177297Y-89342384D01*
X137177302Y-89342384D01*
X137322700Y-89342384D01*
X137322705Y-89342384D01*
X137465320Y-89314016D01*
X137599660Y-89258371D01*
X137720563Y-89177586D01*
X137823383Y-89074766D01*
X137904168Y-88953863D01*
X137953992Y-88833575D01*
X137980943Y-88806624D01*
X138019058Y-88806624D01*
X138046009Y-88833574D01*
X138046010Y-88833576D01*
X138095832Y-88953859D01*
X138095833Y-88953861D01*
X138176615Y-89074762D01*
X138279442Y-89177589D01*
X138351784Y-89225925D01*
X138400342Y-89258371D01*
X138534682Y-89314016D01*
X138534689Y-89314017D01*
X138534691Y-89314018D01*
X138583489Y-89323724D01*
X138677297Y-89342384D01*
X138677302Y-89342384D01*
X138822700Y-89342384D01*
X138822705Y-89342384D01*
X138965320Y-89314016D01*
X139099660Y-89258371D01*
X139220563Y-89177586D01*
X139323383Y-89074766D01*
X139404168Y-88953863D01*
X139453992Y-88833575D01*
X139480943Y-88806624D01*
X139519058Y-88806624D01*
X139546009Y-88833574D01*
X139546010Y-88833576D01*
X139595832Y-88953859D01*
X139595833Y-88953861D01*
X139676615Y-89074762D01*
X139779442Y-89177589D01*
X139851784Y-89225925D01*
X139900342Y-89258371D01*
X140034682Y-89314016D01*
X140034689Y-89314017D01*
X140034691Y-89314018D01*
X140083489Y-89323724D01*
X140177297Y-89342384D01*
X140177302Y-89342384D01*
X140322700Y-89342384D01*
X140322705Y-89342384D01*
X140465320Y-89314016D01*
X140599660Y-89258371D01*
X140720563Y-89177586D01*
X140823383Y-89074766D01*
X140904168Y-88953863D01*
X140953992Y-88833575D01*
X140980943Y-88806624D01*
X141019058Y-88806624D01*
X141046009Y-88833574D01*
X141046010Y-88833576D01*
X141095832Y-88953859D01*
X141095833Y-88953861D01*
X141176615Y-89074762D01*
X141279442Y-89177589D01*
X141351784Y-89225925D01*
X141400342Y-89258371D01*
X141534682Y-89314016D01*
X141534689Y-89314017D01*
X141534691Y-89314018D01*
X141583489Y-89323724D01*
X141677297Y-89342384D01*
X141677302Y-89342384D01*
X141822700Y-89342384D01*
X141822705Y-89342384D01*
X141965320Y-89314016D01*
X142099660Y-89258371D01*
X142220563Y-89177586D01*
X142323383Y-89074766D01*
X142404168Y-88953863D01*
X142453992Y-88833575D01*
X142480943Y-88806624D01*
X142519058Y-88806624D01*
X142546009Y-88833574D01*
X142546010Y-88833576D01*
X142595832Y-88953859D01*
X142595833Y-88953861D01*
X142676615Y-89074762D01*
X142779442Y-89177589D01*
X142851784Y-89225925D01*
X142900342Y-89258371D01*
X143034682Y-89314016D01*
X143034689Y-89314017D01*
X143034691Y-89314018D01*
X143083489Y-89323724D01*
X143177297Y-89342384D01*
X143177302Y-89342384D01*
X143322700Y-89342384D01*
X143322705Y-89342384D01*
X143465320Y-89314016D01*
X143599660Y-89258371D01*
X143720563Y-89177586D01*
X143823383Y-89074766D01*
X143904168Y-88953863D01*
X143959813Y-88819523D01*
X143988181Y-88676908D01*
X143988181Y-88531500D01*
X143976720Y-88473884D01*
X144161821Y-88473884D01*
X144161821Y-88734523D01*
X144195838Y-88992908D01*
X144195840Y-88992915D01*
X144263291Y-89244647D01*
X144263295Y-89244658D01*
X144363028Y-89485436D01*
X144363032Y-89485443D01*
X144493341Y-89711146D01*
X144651994Y-89917907D01*
X144652000Y-89917914D01*
X144836290Y-90102204D01*
X144836297Y-90102210D01*
X145043058Y-90260863D01*
X145128747Y-90310335D01*
X145268765Y-90391175D01*
X145509550Y-90490911D01*
X145761294Y-90558366D01*
X146019689Y-90592384D01*
X146019693Y-90592384D01*
X146280309Y-90592384D01*
X146280313Y-90592384D01*
X146538708Y-90558366D01*
X146790452Y-90490911D01*
X147031237Y-90391175D01*
X147256945Y-90260862D01*
X147463712Y-90102204D01*
X147648001Y-89917915D01*
X147806659Y-89711148D01*
X147936972Y-89485440D01*
X148036708Y-89244655D01*
X148104163Y-88992911D01*
X148138181Y-88734516D01*
X148138181Y-88473892D01*
X148104163Y-88215497D01*
X148036708Y-87963753D01*
X147936972Y-87722968D01*
X147806659Y-87497260D01*
X147648007Y-87290500D01*
X147648001Y-87290493D01*
X147463711Y-87106203D01*
X147463704Y-87106197D01*
X147256943Y-86947544D01*
X147031240Y-86817235D01*
X147031237Y-86817233D01*
X147031235Y-86817232D01*
X147031233Y-86817231D01*
X146790455Y-86717498D01*
X146790444Y-86717494D01*
X146538712Y-86650043D01*
X146538705Y-86650041D01*
X146280320Y-86616024D01*
X146280313Y-86616024D01*
X146019689Y-86616024D01*
X146019681Y-86616024D01*
X145761296Y-86650041D01*
X145761289Y-86650043D01*
X145509557Y-86717494D01*
X145509546Y-86717498D01*
X145268768Y-86817231D01*
X145268761Y-86817235D01*
X145043058Y-86947544D01*
X144836297Y-87106197D01*
X144836290Y-87106203D01*
X144652000Y-87290493D01*
X144651994Y-87290500D01*
X144493341Y-87497261D01*
X144363032Y-87722964D01*
X144363028Y-87722971D01*
X144263295Y-87963749D01*
X144263291Y-87963760D01*
X144195840Y-88215492D01*
X144195838Y-88215499D01*
X144161821Y-88473884D01*
X143976720Y-88473884D01*
X143959813Y-88388885D01*
X143904168Y-88254545D01*
X143871722Y-88205987D01*
X143823386Y-88133645D01*
X143720559Y-88030818D01*
X143620181Y-87963749D01*
X143599660Y-87950037D01*
X143599658Y-87950036D01*
X143599656Y-87950035D01*
X143532490Y-87922214D01*
X143465320Y-87894392D01*
X143465316Y-87894391D01*
X143465310Y-87894389D01*
X143322707Y-87866024D01*
X143322705Y-87866024D01*
X143177297Y-87866024D01*
X143177294Y-87866024D01*
X143034691Y-87894389D01*
X143034683Y-87894391D01*
X143034682Y-87894392D01*
X143034678Y-87894393D01*
X143034677Y-87894394D01*
X142900345Y-87950035D01*
X142900343Y-87950036D01*
X142779442Y-88030818D01*
X142779440Y-88030821D01*
X142676618Y-88133643D01*
X142676615Y-88133645D01*
X142595833Y-88254546D01*
X142595831Y-88254548D01*
X142546010Y-88374831D01*
X142519059Y-88401783D01*
X142480944Y-88401783D01*
X142453992Y-88374832D01*
X142453992Y-88374831D01*
X142404170Y-88254548D01*
X142404168Y-88254546D01*
X142404168Y-88254545D01*
X142371722Y-88205987D01*
X142323386Y-88133645D01*
X142220559Y-88030818D01*
X142120181Y-87963749D01*
X142099660Y-87950037D01*
X142099658Y-87950036D01*
X142099656Y-87950035D01*
X142032490Y-87922214D01*
X141965320Y-87894392D01*
X141965316Y-87894391D01*
X141965310Y-87894389D01*
X141822707Y-87866024D01*
X141822705Y-87866024D01*
X141677297Y-87866024D01*
X141677294Y-87866024D01*
X141534691Y-87894389D01*
X141534683Y-87894391D01*
X141534682Y-87894392D01*
X141534678Y-87894393D01*
X141534677Y-87894394D01*
X141400345Y-87950035D01*
X141400343Y-87950036D01*
X141279442Y-88030818D01*
X141279440Y-88030821D01*
X141176618Y-88133643D01*
X141176615Y-88133645D01*
X141095833Y-88254546D01*
X141095831Y-88254548D01*
X141046010Y-88374831D01*
X141019059Y-88401783D01*
X140980944Y-88401783D01*
X140953992Y-88374832D01*
X140953992Y-88374831D01*
X140904170Y-88254548D01*
X140904168Y-88254546D01*
X140904168Y-88254545D01*
X140871722Y-88205987D01*
X140823386Y-88133645D01*
X140720559Y-88030818D01*
X140620181Y-87963749D01*
X140599660Y-87950037D01*
X140599658Y-87950036D01*
X140599656Y-87950035D01*
X140532490Y-87922214D01*
X140465320Y-87894392D01*
X140465316Y-87894391D01*
X140465310Y-87894389D01*
X140322707Y-87866024D01*
X140322705Y-87866024D01*
X140177297Y-87866024D01*
X140177294Y-87866024D01*
X140034691Y-87894389D01*
X140034683Y-87894391D01*
X140034682Y-87894392D01*
X140034678Y-87894393D01*
X140034677Y-87894394D01*
X139900345Y-87950035D01*
X139900343Y-87950036D01*
X139779442Y-88030818D01*
X139779440Y-88030821D01*
X139676618Y-88133643D01*
X139676615Y-88133645D01*
X139595833Y-88254546D01*
X139595831Y-88254548D01*
X139546010Y-88374831D01*
X139519059Y-88401783D01*
X139480944Y-88401783D01*
X139453992Y-88374832D01*
X139453992Y-88374831D01*
X139404170Y-88254548D01*
X139404168Y-88254546D01*
X139404168Y-88254545D01*
X139371722Y-88205987D01*
X139323386Y-88133645D01*
X139220559Y-88030818D01*
X139120181Y-87963749D01*
X139099660Y-87950037D01*
X139099658Y-87950036D01*
X139099656Y-87950035D01*
X139032490Y-87922214D01*
X138965320Y-87894392D01*
X138965316Y-87894391D01*
X138965310Y-87894389D01*
X138822707Y-87866024D01*
X138822705Y-87866024D01*
X138677297Y-87866024D01*
X138677294Y-87866024D01*
X138534691Y-87894389D01*
X138534683Y-87894391D01*
X138534682Y-87894392D01*
X138534678Y-87894393D01*
X138534677Y-87894394D01*
X138400345Y-87950035D01*
X138400343Y-87950036D01*
X138279442Y-88030818D01*
X138279440Y-88030821D01*
X138176618Y-88133643D01*
X138176615Y-88133645D01*
X138095833Y-88254546D01*
X138095831Y-88254548D01*
X138046010Y-88374831D01*
X138019059Y-88401783D01*
X137980944Y-88401783D01*
X137953992Y-88374832D01*
X137953992Y-88374831D01*
X137904170Y-88254548D01*
X137904168Y-88254546D01*
X137904168Y-88254545D01*
X137871722Y-88205987D01*
X137823386Y-88133645D01*
X137720559Y-88030818D01*
X137620181Y-87963749D01*
X137599660Y-87950037D01*
X137599658Y-87950036D01*
X137599656Y-87950035D01*
X137532490Y-87922214D01*
X137465320Y-87894392D01*
X137465316Y-87894391D01*
X137465310Y-87894389D01*
X137322707Y-87866024D01*
X137322705Y-87866024D01*
X137177297Y-87866024D01*
X137177294Y-87866024D01*
X137034691Y-87894389D01*
X137034683Y-87894391D01*
X137034682Y-87894392D01*
X137034678Y-87894393D01*
X137034677Y-87894394D01*
X136900345Y-87950035D01*
X136900343Y-87950036D01*
X136779442Y-88030818D01*
X136779440Y-88030821D01*
X136676618Y-88133643D01*
X136676615Y-88133645D01*
X136595833Y-88254546D01*
X136595831Y-88254548D01*
X136546010Y-88374831D01*
X136519059Y-88401783D01*
X136480944Y-88401783D01*
X136453992Y-88374832D01*
X136453992Y-88374831D01*
X136404170Y-88254548D01*
X136404168Y-88254546D01*
X136404168Y-88254545D01*
X136371722Y-88205987D01*
X136323386Y-88133645D01*
X136220559Y-88030818D01*
X136120181Y-87963749D01*
X136099660Y-87950037D01*
X136099658Y-87950036D01*
X136099656Y-87950035D01*
X136032490Y-87922214D01*
X135965320Y-87894392D01*
X135965316Y-87894391D01*
X135965310Y-87894389D01*
X135822707Y-87866024D01*
X135822705Y-87866024D01*
X135687980Y-87866024D01*
X135652766Y-87851438D01*
X135638180Y-87816224D01*
X135638180Y-71392184D01*
X135652766Y-71356970D01*
X135687980Y-71342384D01*
X135822700Y-71342384D01*
X135822705Y-71342384D01*
X135965320Y-71314016D01*
X136099660Y-71258371D01*
X136220563Y-71177586D01*
X136323383Y-71074766D01*
X136404168Y-70953863D01*
X136453992Y-70833575D01*
X136480943Y-70806624D01*
X136519058Y-70806624D01*
X136546009Y-70833574D01*
X136546010Y-70833576D01*
X136595832Y-70953859D01*
X136595833Y-70953861D01*
X136676615Y-71074762D01*
X136779442Y-71177589D01*
X136851784Y-71225925D01*
X136900342Y-71258371D01*
X137034682Y-71314016D01*
X137034689Y-71314017D01*
X137034691Y-71314018D01*
X137083489Y-71323724D01*
X137177297Y-71342384D01*
X137177302Y-71342384D01*
X137322700Y-71342384D01*
X137322705Y-71342384D01*
X137465320Y-71314016D01*
X137599660Y-71258371D01*
X137720563Y-71177586D01*
X137823383Y-71074766D01*
X137904168Y-70953863D01*
X137953992Y-70833575D01*
X137980943Y-70806624D01*
X138019058Y-70806624D01*
X138046009Y-70833574D01*
X138046010Y-70833576D01*
X138095832Y-70953859D01*
X138095833Y-70953861D01*
X138176615Y-71074762D01*
X138279442Y-71177589D01*
X138351784Y-71225925D01*
X138400342Y-71258371D01*
X138534682Y-71314016D01*
X138534689Y-71314017D01*
X138534691Y-71314018D01*
X138583489Y-71323724D01*
X138677297Y-71342384D01*
X138677302Y-71342384D01*
X138822700Y-71342384D01*
X138822705Y-71342384D01*
X138965320Y-71314016D01*
X139099660Y-71258371D01*
X139220563Y-71177586D01*
X139323383Y-71074766D01*
X139404168Y-70953863D01*
X139453992Y-70833575D01*
X139480943Y-70806624D01*
X139519058Y-70806624D01*
X139546009Y-70833574D01*
X139546010Y-70833576D01*
X139595832Y-70953859D01*
X139595833Y-70953861D01*
X139676615Y-71074762D01*
X139779442Y-71177589D01*
X139851784Y-71225925D01*
X139900342Y-71258371D01*
X140034682Y-71314016D01*
X140034689Y-71314017D01*
X140034691Y-71314018D01*
X140083489Y-71323724D01*
X140177297Y-71342384D01*
X140177302Y-71342384D01*
X140322700Y-71342384D01*
X140322705Y-71342384D01*
X140465320Y-71314016D01*
X140599660Y-71258371D01*
X140720563Y-71177586D01*
X140823383Y-71074766D01*
X140904168Y-70953863D01*
X140953992Y-70833575D01*
X140980943Y-70806624D01*
X141019058Y-70806624D01*
X141046009Y-70833574D01*
X141046010Y-70833576D01*
X141095832Y-70953859D01*
X141095833Y-70953861D01*
X141176615Y-71074762D01*
X141279442Y-71177589D01*
X141351784Y-71225925D01*
X141400342Y-71258371D01*
X141534682Y-71314016D01*
X141534689Y-71314017D01*
X141534691Y-71314018D01*
X141583489Y-71323724D01*
X141677297Y-71342384D01*
X141677302Y-71342384D01*
X141822700Y-71342384D01*
X141822705Y-71342384D01*
X141965320Y-71314016D01*
X142099660Y-71258371D01*
X142220563Y-71177586D01*
X142323383Y-71074766D01*
X142404168Y-70953863D01*
X142453992Y-70833575D01*
X142480943Y-70806624D01*
X142519058Y-70806624D01*
X142546009Y-70833574D01*
X142546010Y-70833576D01*
X142595832Y-70953859D01*
X142595833Y-70953861D01*
X142676615Y-71074762D01*
X142779442Y-71177589D01*
X142851784Y-71225925D01*
X142900342Y-71258371D01*
X143034682Y-71314016D01*
X143034689Y-71314017D01*
X143034691Y-71314018D01*
X143083489Y-71323724D01*
X143177297Y-71342384D01*
X143177302Y-71342384D01*
X143322700Y-71342384D01*
X143322705Y-71342384D01*
X143465320Y-71314016D01*
X143599660Y-71258371D01*
X143720563Y-71177586D01*
X143823383Y-71074766D01*
X143904168Y-70953863D01*
X143959813Y-70819523D01*
X143988181Y-70676908D01*
X143988181Y-70531500D01*
X143976720Y-70473884D01*
X144161821Y-70473884D01*
X144161821Y-70734523D01*
X144195838Y-70992908D01*
X144195840Y-70992915D01*
X144263291Y-71244647D01*
X144263295Y-71244658D01*
X144363028Y-71485436D01*
X144363032Y-71485443D01*
X144493341Y-71711146D01*
X144651994Y-71917907D01*
X144652000Y-71917914D01*
X144836290Y-72102204D01*
X144836297Y-72102210D01*
X145043058Y-72260863D01*
X145128747Y-72310335D01*
X145268765Y-72391175D01*
X145509550Y-72490911D01*
X145761294Y-72558366D01*
X146019689Y-72592384D01*
X146019693Y-72592384D01*
X146280309Y-72592384D01*
X146280313Y-72592384D01*
X146538708Y-72558366D01*
X146790452Y-72490911D01*
X147031237Y-72391175D01*
X147256945Y-72260862D01*
X147463712Y-72102204D01*
X147648001Y-71917915D01*
X147806659Y-71711148D01*
X147936972Y-71485440D01*
X148036708Y-71244655D01*
X148104163Y-70992911D01*
X148138181Y-70734516D01*
X148138181Y-70473892D01*
X148104163Y-70215497D01*
X148036708Y-69963753D01*
X147936972Y-69722968D01*
X147806659Y-69497260D01*
X147648007Y-69290500D01*
X147648001Y-69290493D01*
X147463711Y-69106203D01*
X147463704Y-69106197D01*
X147256943Y-68947544D01*
X147031240Y-68817235D01*
X147031237Y-68817233D01*
X147031235Y-68817232D01*
X147031233Y-68817231D01*
X146790455Y-68717498D01*
X146790444Y-68717494D01*
X146538712Y-68650043D01*
X146538705Y-68650041D01*
X146280320Y-68616024D01*
X146280313Y-68616024D01*
X146019689Y-68616024D01*
X146019681Y-68616024D01*
X145761296Y-68650041D01*
X145761289Y-68650043D01*
X145509557Y-68717494D01*
X145509546Y-68717498D01*
X145268768Y-68817231D01*
X145268761Y-68817235D01*
X145043058Y-68947544D01*
X144836297Y-69106197D01*
X144836290Y-69106203D01*
X144652000Y-69290493D01*
X144651994Y-69290500D01*
X144493341Y-69497261D01*
X144363032Y-69722964D01*
X144363028Y-69722971D01*
X144263295Y-69963749D01*
X144263291Y-69963760D01*
X144195840Y-70215492D01*
X144195838Y-70215499D01*
X144161821Y-70473884D01*
X143976720Y-70473884D01*
X143959813Y-70388885D01*
X143904168Y-70254545D01*
X143871722Y-70205987D01*
X143823386Y-70133645D01*
X143720559Y-70030818D01*
X143620181Y-69963749D01*
X143599660Y-69950037D01*
X143599658Y-69950036D01*
X143599656Y-69950035D01*
X143532490Y-69922214D01*
X143465320Y-69894392D01*
X143465316Y-69894391D01*
X143465310Y-69894389D01*
X143322707Y-69866024D01*
X143322705Y-69866024D01*
X143177297Y-69866024D01*
X143177294Y-69866024D01*
X143034691Y-69894389D01*
X143034683Y-69894391D01*
X143034682Y-69894392D01*
X143034678Y-69894393D01*
X143034677Y-69894394D01*
X142900345Y-69950035D01*
X142900343Y-69950036D01*
X142779442Y-70030818D01*
X142779440Y-70030821D01*
X142676618Y-70133643D01*
X142676615Y-70133645D01*
X142595833Y-70254546D01*
X142595831Y-70254548D01*
X142546010Y-70374831D01*
X142519059Y-70401783D01*
X142480944Y-70401783D01*
X142453992Y-70374832D01*
X142453992Y-70374831D01*
X142404170Y-70254548D01*
X142404168Y-70254546D01*
X142404168Y-70254545D01*
X142371722Y-70205987D01*
X142323386Y-70133645D01*
X142220559Y-70030818D01*
X142120181Y-69963749D01*
X142099660Y-69950037D01*
X142099658Y-69950036D01*
X142099656Y-69950035D01*
X142032490Y-69922214D01*
X141965320Y-69894392D01*
X141965316Y-69894391D01*
X141965310Y-69894389D01*
X141822707Y-69866024D01*
X141822705Y-69866024D01*
X141677297Y-69866024D01*
X141677294Y-69866024D01*
X141534691Y-69894389D01*
X141534683Y-69894391D01*
X141534682Y-69894392D01*
X141534678Y-69894393D01*
X141534677Y-69894394D01*
X141400345Y-69950035D01*
X141400343Y-69950036D01*
X141279442Y-70030818D01*
X141279440Y-70030821D01*
X141176618Y-70133643D01*
X141176615Y-70133645D01*
X141095833Y-70254546D01*
X141095831Y-70254548D01*
X141046010Y-70374831D01*
X141019059Y-70401783D01*
X140980944Y-70401783D01*
X140953992Y-70374832D01*
X140953992Y-70374831D01*
X140904170Y-70254548D01*
X140904168Y-70254546D01*
X140904168Y-70254545D01*
X140871722Y-70205987D01*
X140823386Y-70133645D01*
X140720559Y-70030818D01*
X140620181Y-69963749D01*
X140599660Y-69950037D01*
X140599658Y-69950036D01*
X140599656Y-69950035D01*
X140532490Y-69922214D01*
X140465320Y-69894392D01*
X140465316Y-69894391D01*
X140465310Y-69894389D01*
X140322707Y-69866024D01*
X140322705Y-69866024D01*
X140177297Y-69866024D01*
X140177294Y-69866024D01*
X140034691Y-69894389D01*
X140034683Y-69894391D01*
X140034682Y-69894392D01*
X140034678Y-69894393D01*
X140034677Y-69894394D01*
X139900345Y-69950035D01*
X139900343Y-69950036D01*
X139779442Y-70030818D01*
X139779440Y-70030821D01*
X139676618Y-70133643D01*
X139676615Y-70133645D01*
X139595833Y-70254546D01*
X139595831Y-70254548D01*
X139546010Y-70374831D01*
X139519059Y-70401783D01*
X139480944Y-70401783D01*
X139453992Y-70374832D01*
X139453992Y-70374831D01*
X139404170Y-70254548D01*
X139404168Y-70254546D01*
X139404168Y-70254545D01*
X139371722Y-70205987D01*
X139323386Y-70133645D01*
X139220559Y-70030818D01*
X139120181Y-69963749D01*
X139099660Y-69950037D01*
X139099658Y-69950036D01*
X139099656Y-69950035D01*
X139032490Y-69922214D01*
X138965320Y-69894392D01*
X138965316Y-69894391D01*
X138965310Y-69894389D01*
X138822707Y-69866024D01*
X138822705Y-69866024D01*
X138677297Y-69866024D01*
X138677294Y-69866024D01*
X138534691Y-69894389D01*
X138534683Y-69894391D01*
X138534682Y-69894392D01*
X138534678Y-69894393D01*
X138534677Y-69894394D01*
X138400345Y-69950035D01*
X138400343Y-69950036D01*
X138279442Y-70030818D01*
X138279440Y-70030821D01*
X138176618Y-70133643D01*
X138176615Y-70133645D01*
X138095833Y-70254546D01*
X138095831Y-70254548D01*
X138046010Y-70374831D01*
X138019059Y-70401783D01*
X137980944Y-70401783D01*
X137953992Y-70374832D01*
X137953992Y-70374831D01*
X137904170Y-70254548D01*
X137904168Y-70254546D01*
X137904168Y-70254545D01*
X137871722Y-70205987D01*
X137823386Y-70133645D01*
X137720559Y-70030818D01*
X137620181Y-69963749D01*
X137599660Y-69950037D01*
X137599658Y-69950036D01*
X137599656Y-69950035D01*
X137532490Y-69922214D01*
X137465320Y-69894392D01*
X137465316Y-69894391D01*
X137465310Y-69894389D01*
X137322707Y-69866024D01*
X137322705Y-69866024D01*
X137177297Y-69866024D01*
X137177294Y-69866024D01*
X137034691Y-69894389D01*
X137034683Y-69894391D01*
X137034682Y-69894392D01*
X137034678Y-69894393D01*
X137034677Y-69894394D01*
X136900345Y-69950035D01*
X136900343Y-69950036D01*
X136779442Y-70030818D01*
X136779440Y-70030821D01*
X136676618Y-70133643D01*
X136676615Y-70133645D01*
X136595833Y-70254546D01*
X136595831Y-70254548D01*
X136546010Y-70374831D01*
X136519059Y-70401783D01*
X136480944Y-70401783D01*
X136453992Y-70374832D01*
X136453992Y-70374831D01*
X136404170Y-70254548D01*
X136404168Y-70254546D01*
X136404168Y-70254545D01*
X136371722Y-70205987D01*
X136323386Y-70133645D01*
X136220559Y-70030818D01*
X136120181Y-69963749D01*
X136099660Y-69950037D01*
X136099658Y-69950036D01*
X136099656Y-69950035D01*
X136032490Y-69922214D01*
X135965320Y-69894392D01*
X135965316Y-69894391D01*
X135965310Y-69894389D01*
X135822707Y-69866024D01*
X135822705Y-69866024D01*
X135687980Y-69866024D01*
X135652766Y-69851438D01*
X135638180Y-69816224D01*
X135638180Y-51141325D01*
X135652766Y-51106111D01*
X135687958Y-51091525D01*
X143924539Y-51088361D01*
X143959757Y-51102934D01*
X143972660Y-51125272D01*
X144026050Y-51324528D01*
X144026054Y-51324539D01*
X144138329Y-51595595D01*
X144138333Y-51595602D01*
X144285027Y-51849685D01*
X144463630Y-52082446D01*
X144463636Y-52082453D01*
X144671099Y-52289916D01*
X144671106Y-52289922D01*
X144903867Y-52468525D01*
X145000330Y-52524218D01*
X145157954Y-52615222D01*
X145429017Y-52727500D01*
X145712416Y-52803437D01*
X146003302Y-52841733D01*
X146003306Y-52841733D01*
X146296694Y-52841733D01*
X146296698Y-52841733D01*
X146587584Y-52803437D01*
X146870983Y-52727500D01*
X147142046Y-52615222D01*
X147396134Y-52468524D01*
X147628901Y-52289916D01*
X147836363Y-52082454D01*
X148014971Y-51849687D01*
X148161669Y-51595599D01*
X148273947Y-51324536D01*
X148327339Y-51125269D01*
X148350541Y-51095033D01*
X148375457Y-51088361D01*
X156612041Y-51091525D01*
G37*
%TD.AperFunction*%
%TA.AperFunction,Conductor*%
G36*
X148798992Y-116105686D02*
G01*
X149173440Y-116480134D01*
X149188026Y-116515348D01*
X149179634Y-116543014D01*
X149158107Y-116575233D01*
X149142900Y-116651682D01*
X149142900Y-117023308D01*
X149142901Y-117023315D01*
X149143838Y-117028024D01*
X149157321Y-117095815D01*
X149158107Y-117099764D01*
X149158108Y-117099769D01*
X149216034Y-117186462D01*
X149216037Y-117186465D01*
X149302732Y-117244392D01*
X149302734Y-117244393D01*
X149379185Y-117259600D01*
X149709358Y-117259599D01*
X149744572Y-117274185D01*
X149759158Y-117309399D01*
X149744572Y-117344613D01*
X149727971Y-117361214D01*
X149692757Y-117375800D01*
X149374682Y-117375800D01*
X149374675Y-117375801D01*
X149299685Y-117390717D01*
X149299683Y-117390717D01*
X149214642Y-117447539D01*
X149214639Y-117447542D01*
X149157817Y-117532584D01*
X149151221Y-117565741D01*
X149137592Y-117591238D01*
X148920518Y-117808314D01*
X148885304Y-117822900D01*
X145877175Y-117822900D01*
X145841961Y-117808314D01*
X145827375Y-117773100D01*
X145841961Y-117737886D01*
X145849510Y-117731691D01*
X145852202Y-117729891D01*
X145852208Y-117729889D01*
X146245889Y-117336208D01*
X146271100Y-117275343D01*
X146271100Y-117209463D01*
X146271100Y-116286819D01*
X146285686Y-116251605D01*
X146431605Y-116105686D01*
X146466819Y-116091100D01*
X148763778Y-116091100D01*
X148798992Y-116105686D01*
G37*
%TD.AperFunction*%
%TA.AperFunction,Conductor*%
G36*
X142858314Y-108843950D02*
G01*
X142872900Y-108879164D01*
X142872900Y-109377288D01*
X142872901Y-109377303D01*
X142879410Y-109426749D01*
X142930022Y-109535290D01*
X143014709Y-109619977D01*
X143051783Y-109637264D01*
X143123249Y-109670589D01*
X143172705Y-109677100D01*
X143727294Y-109677099D01*
X143728243Y-109676974D01*
X143728431Y-109677024D01*
X143728926Y-109676992D01*
X143728936Y-109677159D01*
X143765061Y-109686833D01*
X143769965Y-109691133D01*
X144938358Y-110859526D01*
X145021827Y-110894100D01*
X145112173Y-110894100D01*
X145287101Y-110894100D01*
X145317548Y-110906711D01*
X145318499Y-110905473D01*
X145321087Y-110907459D01*
X145322152Y-110908074D01*
X145389611Y-110947021D01*
X145466038Y-110967500D01*
X145545162Y-110967500D01*
X145621589Y-110947021D01*
X145690111Y-110907460D01*
X145746060Y-110851511D01*
X145785621Y-110782989D01*
X145806100Y-110706562D01*
X145806100Y-110627438D01*
X145785621Y-110551011D01*
X145746060Y-110482489D01*
X145690111Y-110426540D01*
X145690110Y-110426539D01*
X145635080Y-110394768D01*
X145621589Y-110386979D01*
X145621586Y-110386978D01*
X145545162Y-110366500D01*
X145466038Y-110366500D01*
X145389613Y-110386978D01*
X145389607Y-110386981D01*
X145321087Y-110426540D01*
X145318499Y-110428527D01*
X145317548Y-110427288D01*
X145287101Y-110439900D01*
X145181696Y-110439900D01*
X145146482Y-110425314D01*
X144041685Y-109320517D01*
X144027099Y-109285303D01*
X144027100Y-109104300D01*
X144041686Y-109069086D01*
X144076900Y-109054500D01*
X146104009Y-109054500D01*
X146139223Y-109069086D01*
X146153809Y-109104300D01*
X146152852Y-109114015D01*
X146137900Y-109189182D01*
X146137900Y-109560808D01*
X146137901Y-109560814D01*
X146149668Y-109619977D01*
X146153107Y-109637264D01*
X146153108Y-109637269D01*
X146211034Y-109723962D01*
X146211037Y-109723965D01*
X146297732Y-109781892D01*
X146297734Y-109781893D01*
X146374185Y-109797100D01*
X146677803Y-109797099D01*
X146713017Y-109811685D01*
X146734218Y-109832886D01*
X146748804Y-109868100D01*
X146734218Y-109903314D01*
X146699005Y-109917900D01*
X146639191Y-109917900D01*
X146639184Y-109917901D01*
X146588218Y-109928038D01*
X146562734Y-109933107D01*
X146562733Y-109933107D01*
X146562730Y-109933108D01*
X146476037Y-109991034D01*
X146476034Y-109991037D01*
X146418107Y-110077732D01*
X146418106Y-110077734D01*
X146402900Y-110154182D01*
X146402900Y-110344968D01*
X146388314Y-110380182D01*
X146353100Y-110394768D01*
X146340211Y-110393071D01*
X146289564Y-110379500D01*
X146289562Y-110379500D01*
X146210438Y-110379500D01*
X146134013Y-110399978D01*
X146134007Y-110399981D01*
X146065489Y-110439539D01*
X146009539Y-110495489D01*
X145969981Y-110564007D01*
X145969978Y-110564013D01*
X145949500Y-110640437D01*
X145949500Y-110719562D01*
X145969978Y-110795986D01*
X145969981Y-110795992D01*
X146002135Y-110851686D01*
X146009540Y-110864511D01*
X146065489Y-110920460D01*
X146134011Y-110960021D01*
X146210438Y-110980500D01*
X146289562Y-110980500D01*
X146365989Y-110960021D01*
X146434511Y-110920460D01*
X146434512Y-110920459D01*
X146437101Y-110918473D01*
X146438051Y-110919711D01*
X146468499Y-110907100D01*
X146567671Y-110907100D01*
X146567673Y-110907100D01*
X146651142Y-110872526D01*
X146671981Y-110851685D01*
X146707195Y-110837099D01*
X147010808Y-110837099D01*
X147010814Y-110837099D01*
X147087266Y-110821893D01*
X147173964Y-110763964D01*
X147231893Y-110677266D01*
X147247100Y-110600815D01*
X147247099Y-110154186D01*
X147231893Y-110077734D01*
X147231889Y-110077728D01*
X147230015Y-110073201D01*
X147231017Y-110072785D01*
X147224613Y-110040583D01*
X147245790Y-110008892D01*
X147273456Y-110000500D01*
X147289562Y-110000500D01*
X147365989Y-109980021D01*
X147434511Y-109940460D01*
X147490460Y-109884511D01*
X147530021Y-109815989D01*
X147532475Y-109806829D01*
X147540388Y-109796516D01*
X147545364Y-109784504D01*
X147551580Y-109781929D01*
X147555677Y-109776590D01*
X147568567Y-109774892D01*
X147580578Y-109769918D01*
X147586795Y-109772493D01*
X147593466Y-109771615D01*
X147615792Y-109784504D01*
X147678914Y-109847626D01*
X147693500Y-109882840D01*
X147693500Y-110433501D01*
X147678914Y-110468715D01*
X147665139Y-110482489D01*
X147623948Y-110553836D01*
X147623382Y-110553509D01*
X147615656Y-110565063D01*
X147584459Y-110596263D01*
X147584457Y-110596265D01*
X147532864Y-110647857D01*
X147496386Y-110711039D01*
X147496382Y-110711047D01*
X147477500Y-110781517D01*
X147477500Y-112119992D01*
X147462914Y-112155206D01*
X147427700Y-112169792D01*
X147392486Y-112155206D01*
X147384572Y-112144892D01*
X147371060Y-112121489D01*
X147315110Y-112065539D01*
X147246592Y-112025981D01*
X147246589Y-112025979D01*
X147246586Y-112025978D01*
X147214140Y-112017284D01*
X147183901Y-111994080D01*
X147178927Y-111956291D01*
X147185621Y-111941516D01*
X147231893Y-111872266D01*
X147247100Y-111795815D01*
X147247099Y-111349186D01*
X147231893Y-111272734D01*
X147231891Y-111272731D01*
X147231891Y-111272730D01*
X147173965Y-111186037D01*
X147173962Y-111186034D01*
X147087267Y-111128107D01*
X147087265Y-111128106D01*
X147026021Y-111115924D01*
X147010815Y-111112900D01*
X147010814Y-111112900D01*
X146639191Y-111112900D01*
X146639184Y-111112901D01*
X146588218Y-111123038D01*
X146562734Y-111128107D01*
X146562733Y-111128107D01*
X146562730Y-111128108D01*
X146476037Y-111186034D01*
X146476034Y-111186037D01*
X146418107Y-111272732D01*
X146418107Y-111272733D01*
X146403802Y-111344650D01*
X146382626Y-111376341D01*
X146378465Y-111378565D01*
X146376360Y-111379973D01*
X145838074Y-111918258D01*
X145805066Y-111997945D01*
X145778114Y-112024896D01*
X145739999Y-112024896D01*
X145734157Y-112022015D01*
X145695993Y-111999981D01*
X145695990Y-111999980D01*
X145695989Y-111999979D01*
X145695987Y-111999978D01*
X145695986Y-111999978D01*
X145619562Y-111979500D01*
X145540438Y-111979500D01*
X145464013Y-111999978D01*
X145464007Y-111999981D01*
X145395489Y-112039539D01*
X145339539Y-112095489D01*
X145299981Y-112164007D01*
X145299978Y-112164013D01*
X145279500Y-112240437D01*
X145279500Y-112319562D01*
X145299449Y-112394013D01*
X145299979Y-112395989D01*
X145303200Y-112401568D01*
X145325231Y-112439728D01*
X145339540Y-112464511D01*
X145395489Y-112520460D01*
X145464011Y-112560021D01*
X145540438Y-112580500D01*
X145619562Y-112580500D01*
X145695989Y-112560021D01*
X145764511Y-112520460D01*
X145764513Y-112520457D01*
X145766652Y-112519223D01*
X145804441Y-112514248D01*
X145826766Y-112527137D01*
X145846089Y-112546460D01*
X145914611Y-112586021D01*
X145991038Y-112606500D01*
X146070162Y-112606500D01*
X146146589Y-112586021D01*
X146215111Y-112546460D01*
X146241290Y-112520280D01*
X146247655Y-112517643D01*
X146251886Y-112512204D01*
X146264634Y-112510610D01*
X146276503Y-112505694D01*
X146282869Y-112508330D01*
X146289707Y-112507476D01*
X146297576Y-112514422D01*
X146311717Y-112520279D01*
X146319794Y-112530876D01*
X146322033Y-112534813D01*
X146322384Y-112536123D01*
X146348410Y-112581200D01*
X146358865Y-112599309D01*
X146763291Y-113003736D01*
X146826478Y-113040217D01*
X146896953Y-113059100D01*
X147263070Y-113059100D01*
X147298284Y-113073686D01*
X147353124Y-113128526D01*
X147436593Y-113163100D01*
X147436595Y-113163100D01*
X149321626Y-113163100D01*
X149321628Y-113163100D01*
X149405097Y-113128526D01*
X149718526Y-112815097D01*
X149753100Y-112731628D01*
X149753100Y-112641282D01*
X149753100Y-111322900D01*
X149767686Y-111287686D01*
X149802900Y-111273100D01*
X149817081Y-111273100D01*
X151503173Y-111273100D01*
X151538387Y-111287686D01*
X151915495Y-111664794D01*
X151930081Y-111700008D01*
X151915495Y-111735222D01*
X151893174Y-111748110D01*
X151884016Y-111750564D01*
X151884007Y-111750568D01*
X151815487Y-111790127D01*
X151815486Y-111790128D01*
X151815383Y-111790232D01*
X151815279Y-111790287D01*
X151812899Y-111792114D01*
X151812597Y-111791721D01*
X151795878Y-111800658D01*
X151796272Y-111801610D01*
X151791740Y-111803487D01*
X151766081Y-111814114D01*
X151708270Y-111838061D01*
X151423016Y-112123314D01*
X151387802Y-112137900D01*
X151079682Y-112137900D01*
X151079675Y-112137901D01*
X151004685Y-112152817D01*
X151004683Y-112152817D01*
X150919642Y-112209639D01*
X150919639Y-112209642D01*
X150862817Y-112294683D01*
X150862817Y-112294684D01*
X150847900Y-112369676D01*
X150847900Y-112730317D01*
X150847901Y-112730324D01*
X150862817Y-112805314D01*
X150862817Y-112805316D01*
X150919639Y-112890357D01*
X150919642Y-112890360D01*
X151004683Y-112947182D01*
X151004685Y-112947183D01*
X151065315Y-112959243D01*
X151097007Y-112980419D01*
X151105400Y-113008086D01*
X151105400Y-114441555D01*
X151090814Y-114476769D01*
X150483913Y-115083669D01*
X150448699Y-115098255D01*
X150413485Y-115083669D01*
X150398899Y-115048455D01*
X150398899Y-115022364D01*
X150400596Y-115009474D01*
X150407111Y-114985163D01*
X150413100Y-114962811D01*
X150413100Y-114837189D01*
X150400596Y-114790522D01*
X150398899Y-114777633D01*
X150398899Y-114662183D01*
X150398899Y-114662178D01*
X150383983Y-114587185D01*
X150380660Y-114582212D01*
X150327160Y-114502142D01*
X150327157Y-114502139D01*
X150242115Y-114445317D01*
X150167123Y-114430400D01*
X150033358Y-114430400D01*
X150020469Y-114428703D01*
X149998812Y-114422900D01*
X149998811Y-114422900D01*
X149084411Y-114422900D01*
X148170011Y-114422900D01*
X147255611Y-114422900D01*
X146341211Y-114422900D01*
X146013262Y-114422900D01*
X145978048Y-114408314D01*
X145970134Y-114398000D01*
X145908772Y-114291717D01*
X145902100Y-114266817D01*
X145902100Y-113587189D01*
X145902099Y-113587187D01*
X145901842Y-113586226D01*
X145869587Y-113465846D01*
X145806775Y-113357054D01*
X145717946Y-113268225D01*
X145717945Y-113268224D01*
X145640703Y-113223628D01*
X145609154Y-113205413D01*
X145541314Y-113187235D01*
X145487812Y-113172900D01*
X145487811Y-113172900D01*
X145362189Y-113172900D01*
X145362187Y-113172900D01*
X145260335Y-113200191D01*
X145240846Y-113205413D01*
X145240843Y-113205414D01*
X145240842Y-113205415D01*
X145132054Y-113268224D01*
X145112113Y-113288166D01*
X145076899Y-113302752D01*
X145041685Y-113288166D01*
X145027099Y-113252952D01*
X145027099Y-113222711D01*
X145027098Y-113222696D01*
X145020589Y-113173250D01*
X145013624Y-113158314D01*
X144980784Y-113087886D01*
X144969977Y-113064709D01*
X144885290Y-112980022D01*
X144785346Y-112933419D01*
X144776751Y-112929411D01*
X144776749Y-112929410D01*
X144776748Y-112929410D01*
X144727302Y-112922900D01*
X144727295Y-112922900D01*
X144695026Y-112922900D01*
X144659812Y-112908314D01*
X144016686Y-112265188D01*
X144002100Y-112229974D01*
X144002100Y-111227440D01*
X144006766Y-111206394D01*
X144012090Y-111194977D01*
X144020589Y-111176751D01*
X144027100Y-111127295D01*
X144027099Y-110472706D01*
X144024447Y-110452562D01*
X144020589Y-110423250D01*
X144009737Y-110399978D01*
X143994127Y-110366500D01*
X143969977Y-110314709D01*
X143885290Y-110230022D01*
X143791531Y-110186303D01*
X143776751Y-110179411D01*
X143776749Y-110179410D01*
X143776748Y-110179410D01*
X143727302Y-110172900D01*
X143727295Y-110172900D01*
X143314688Y-110172900D01*
X143279474Y-110158314D01*
X142411712Y-109290552D01*
X142397126Y-109255338D01*
X142411712Y-109220124D01*
X142622258Y-109009578D01*
X142787887Y-108843949D01*
X142823100Y-108829364D01*
X142858314Y-108843950D01*
G37*
%TD.AperFunction*%
%TA.AperFunction,Conductor*%
G36*
X142004292Y-101512086D02*
G01*
X143272092Y-102779886D01*
X143286678Y-102815100D01*
X143272092Y-102850314D01*
X143236878Y-102864900D01*
X143179687Y-102864900D01*
X143072681Y-102893571D01*
X143058346Y-102897413D01*
X143058344Y-102897413D01*
X143058341Y-102897415D01*
X143007828Y-102926579D01*
X142992643Y-102932294D01*
X142929685Y-102944816D01*
X142929683Y-102944817D01*
X142844642Y-103001639D01*
X142844639Y-103001642D01*
X142787817Y-103086683D01*
X142787817Y-103086684D01*
X142772900Y-103161676D01*
X142772900Y-103244642D01*
X142771203Y-103257531D01*
X142765400Y-103279187D01*
X142765400Y-107496366D01*
X142750814Y-107531580D01*
X141460286Y-108822107D01*
X141397477Y-108930896D01*
X141397475Y-108930901D01*
X141396808Y-108933391D01*
X141373603Y-108963629D01*
X141348705Y-108970300D01*
X140498330Y-108970300D01*
X140455829Y-108981688D01*
X140418040Y-108976713D01*
X140394837Y-108946474D01*
X140399812Y-108908685D01*
X140404949Y-108901992D01*
X140404813Y-108901888D01*
X140406799Y-108899299D01*
X140408069Y-108897100D01*
X140486067Y-108762002D01*
X140527100Y-108608868D01*
X140527100Y-108450332D01*
X140519749Y-108422900D01*
X140497266Y-108338994D01*
X140486067Y-108297198D01*
X140453326Y-108240489D01*
X140408772Y-108163317D01*
X140402100Y-108138417D01*
X140402100Y-107980982D01*
X140408772Y-107956082D01*
X140413645Y-107947642D01*
X140486067Y-107822202D01*
X140527100Y-107669068D01*
X140527100Y-107510532D01*
X140521740Y-107490530D01*
X140493117Y-107383710D01*
X140486067Y-107357398D01*
X140418859Y-107240989D01*
X140408772Y-107223517D01*
X140402100Y-107198617D01*
X140402100Y-101888189D01*
X140402099Y-101888187D01*
X140396296Y-101866528D01*
X140394599Y-101853639D01*
X140394599Y-101770683D01*
X140394599Y-101770678D01*
X140379683Y-101695685D01*
X140322859Y-101610641D01*
X140322857Y-101610639D01*
X140290033Y-101588707D01*
X140268857Y-101557016D01*
X140276293Y-101519633D01*
X140307984Y-101498457D01*
X140317700Y-101497500D01*
X141969078Y-101497500D01*
X142004292Y-101512086D01*
G37*
%TD.AperFunction*%
%TD*%
M02*
