%TF.GenerationSoftware,KiCad,Pcbnew,9.0.6-1.fc42*%
%TF.CreationDate,2025-12-08T15:01:23+01:00*%
%TF.ProjectId,PCI2USB,50434932-5553-4422-9e6b-696361645f70,1.0.0*%
%TF.SameCoordinates,Original*%
%TF.FileFunction,Copper,L2,Inr*%
%TF.FilePolarity,Positive*%
%FSLAX46Y46*%
G04 Gerber Fmt 4.6, Leading zero omitted, Abs format (unit mm)*
G04 Created by KiCad (PCBNEW 9.0.6-1.fc42) date 2025-12-08 15:01:23*
%MOMM*%
%LPD*%
G01*
G04 APERTURE LIST*
%TA.AperFunction,Conductor*%
%ADD10C,0.635000*%
%TD*%
%TA.AperFunction,ComponentPad*%
%ADD11R,2.000000X2.100000*%
%TD*%
%TA.AperFunction,ComponentPad*%
%ADD12C,2.000000*%
%TD*%
%TA.AperFunction,ViaPad*%
%ADD13C,0.500000*%
%TD*%
%TA.AperFunction,ViaPad*%
%ADD14C,0.300000*%
%TD*%
%TA.AperFunction,ViaPad*%
%ADD15C,0.558800*%
%TD*%
%TA.AperFunction,Conductor*%
%ADD16C,0.127000*%
%TD*%
%TA.AperFunction,Conductor*%
%ADD17C,0.250000*%
%TD*%
%TA.AperFunction,Conductor*%
%ADD18C,0.200000*%
%TD*%
%TA.AperFunction,Conductor*%
%ADD19C,0.600000*%
%TD*%
%TA.AperFunction,Conductor*%
%ADD20C,0.220000*%
%TD*%
%TA.AperFunction,Conductor*%
%ADD21C,0.350000*%
%TD*%
%TA.AperFunction,Conductor*%
%ADD22C,0.508000*%
%TD*%
%TA.AperFunction,Conductor*%
%ADD23C,1.000000*%
%TD*%
%TA.AperFunction,Conductor*%
%ADD24C,0.750000*%
%TD*%
G04 APERTURE END LIST*
D10*
%TO.N,+3.3V*%
X137975000Y-112387000D02*
X137976600Y-113147400D01*
X137975000Y-113149000D01*
X137213000Y-112387000D01*
X137213000Y-111625000D01*
X137975000Y-111625000D01*
X137975000Y-112387000D01*
%TA.AperFunction,Conductor*%
G36*
X137975000Y-112387000D02*
G01*
X137976600Y-113147400D01*
X137975000Y-113149000D01*
X137213000Y-112387000D01*
X137213000Y-111625000D01*
X137975000Y-111625000D01*
X137975000Y-112387000D01*
G37*
%TD.AperFunction*%
%TD*%
D11*
%TO.N,DS2_VBUS*%
%TO.C,J2*%
X145234000Y-96207200D03*
D12*
%TO.N,DS1_VBUS*%
X145234000Y-93667200D03*
%TO.N,Net-(FL2-Pad4)*%
X147774000Y-96207200D03*
%TO.N,Net-(FL1-Pad3)*%
X147774000Y-93647200D03*
%TO.N,Net-(FL2-Pad3)*%
X150314000Y-96227200D03*
%TO.N,Net-(FL1-Pad4)*%
X150314000Y-93667200D03*
%TO.N,GND*%
X152854000Y-96207200D03*
X152854000Y-93647200D03*
%TO.N,unconnected-(J2-Key-Pad9)*%
X155374000Y-96187200D03*
%TO.N,unconnected-(J2-NC-Pad10)*%
X155374000Y-93647200D03*
%TD*%
D13*
%TO.N,GND*%
X155837000Y-90632200D03*
D14*
X152275000Y-110168000D03*
D15*
X148240376Y-89546741D03*
D13*
X155837000Y-91521200D03*
X150460000Y-116080000D03*
D15*
X148629776Y-51506955D03*
X147741638Y-90256220D03*
D13*
X154150000Y-100600000D03*
D15*
X147753596Y-68973103D03*
D13*
X146640000Y-103810000D03*
D15*
X147840000Y-52545000D03*
D14*
X147391060Y-121275000D03*
X149928140Y-121275000D03*
D13*
X136905000Y-92850000D03*
X141640000Y-102900000D03*
D14*
X139170000Y-113620000D03*
X139110000Y-126390000D03*
X139770000Y-122410000D03*
D13*
X146640000Y-104470000D03*
D14*
X154775000Y-105975000D03*
X146070000Y-113120000D03*
X140912000Y-126390000D03*
D13*
X146020000Y-104470000D03*
D15*
X144063646Y-87687143D03*
D14*
X139910000Y-119710000D03*
X154775000Y-110168000D03*
X156410000Y-121160000D03*
D15*
X147050000Y-53025000D03*
X144067225Y-89539601D03*
X146156352Y-72905746D03*
D13*
X154948000Y-91521200D03*
X146570000Y-116390000D03*
D15*
X144073576Y-71543791D03*
X145304072Y-72735598D03*
D13*
X136830000Y-103510000D03*
D15*
X144572011Y-68971590D03*
D14*
X142936000Y-126390000D03*
D13*
X154948000Y-98252200D03*
D15*
X148246727Y-71550931D03*
X147012702Y-72739084D03*
D13*
X137525000Y-92850000D03*
D15*
X144069997Y-69691333D03*
D14*
X153910000Y-126320000D03*
X136175000Y-116975000D03*
X145173515Y-125349812D03*
D15*
X147006351Y-90734894D03*
X147010421Y-86492323D03*
X144565660Y-86967400D03*
D14*
X136000000Y-122600000D03*
D13*
X154150000Y-101650000D03*
D15*
X148243954Y-87680000D03*
D14*
X148903515Y-126320000D03*
D13*
X137525000Y-92190000D03*
X141640000Y-106670000D03*
D15*
X145293649Y-86495810D03*
X145297721Y-90731408D03*
D13*
X147190000Y-116390000D03*
D14*
X150690000Y-114090000D03*
X156410000Y-122731618D03*
D15*
X143673000Y-51508910D03*
D14*
X152510000Y-104400000D03*
D13*
X141640000Y-104760000D03*
X147190000Y-117050000D03*
D15*
X146152776Y-53200865D03*
X148250305Y-69684190D03*
D14*
X143672322Y-95142792D03*
X156410000Y-116580000D03*
X145519800Y-121275000D03*
D13*
X136830000Y-104170000D03*
X136210000Y-104170000D03*
D14*
X139550000Y-126390000D03*
D15*
X147747989Y-72260410D03*
X145252776Y-53026955D03*
D14*
X136000000Y-123040000D03*
X142133515Y-125349812D03*
X152510000Y-103600000D03*
D13*
X146020000Y-103810000D03*
X136905000Y-92190000D03*
D15*
X147747245Y-86968913D03*
D14*
X136975000Y-98350000D03*
X139330000Y-122410000D03*
D13*
X146570000Y-117050000D03*
D15*
X146150001Y-86329556D03*
X147016772Y-68496513D03*
X144577620Y-72261924D03*
D14*
X142330000Y-120550000D03*
D15*
X144571269Y-90257734D03*
X145300000Y-68500000D03*
D13*
X136210000Y-103510000D03*
D14*
X150182500Y-112550000D03*
X154760000Y-114420000D03*
D13*
X154948000Y-90632200D03*
D15*
X144462776Y-52546955D03*
X146156352Y-68333746D03*
D14*
X153950000Y-115540000D03*
X136975000Y-100225000D03*
D15*
X146150001Y-90901556D03*
D14*
X152275000Y-105975000D03*
X156410000Y-119320000D03*
X156410000Y-114420000D03*
%TO.N,PCIE_REFCLKP*%
X148909600Y-121275000D03*
X141674000Y-126390000D03*
%TO.N,PERSTZ*%
X145225000Y-126125000D03*
X143407420Y-120082420D03*
%TO.N,PCIE_REFCLKN*%
X148409600Y-121275000D03*
X142174000Y-126390000D03*
%TO.N,PCIE_RXN*%
X146205600Y-121275000D03*
X143903515Y-125349812D03*
%TO.N,PCIE_RXP*%
X143403515Y-125349812D03*
X146705600Y-121275000D03*
%TO.N,+3.3V*%
X143510000Y-118800000D03*
X153413600Y-117975000D03*
D13*
X137975000Y-113149000D03*
X137213000Y-111625000D03*
D14*
X149505100Y-120620000D03*
X143597600Y-116175000D03*
X151850000Y-120925000D03*
D13*
X137975000Y-111625000D03*
X137975000Y-112387000D03*
X137213000Y-112387000D03*
D14*
%TO.N,GRSTZ*%
X152000000Y-112030587D03*
%TO.N,+1.1V*%
X149100000Y-112510000D03*
X148230600Y-118844000D03*
X153413600Y-116175000D03*
X149330600Y-118844000D03*
X153525000Y-113025000D03*
X151106996Y-121110379D03*
X148230600Y-112306000D03*
X147130600Y-118844000D03*
X152150000Y-119125000D03*
X139480000Y-104500000D03*
X139090000Y-104500000D03*
X145580000Y-112280000D03*
X150210000Y-110520000D03*
X153413600Y-117375000D03*
X139480000Y-104880000D03*
X153413600Y-114375000D03*
X144718900Y-119031100D03*
X139090000Y-104880000D03*
%TO.N,WAKEZ*%
X145425000Y-118050000D03*
%TO.N,Net-(IC1-VSS_OSC)*%
X137877148Y-119630000D03*
X147130600Y-112306000D03*
%TO.N,VDDA_3P3*%
X149705600Y-110413000D03*
X147905600Y-110667000D03*
X145505600Y-110667000D03*
X146580600Y-112306000D03*
X151774600Y-113100000D03*
X146972341Y-120552346D03*
X151774600Y-116950000D03*
%TO.N,Net-(D4-K)*%
X147250000Y-109700000D03*
%TO.N,OVERCUR2Z*%
X143597600Y-117975000D03*
X147982255Y-109125571D03*
%TO.N,PWRON2Z*%
X145450000Y-117225000D03*
X147593230Y-108899381D03*
%TO.N,Net-(IC1-R1EXTRTN)*%
X146030600Y-112306000D03*
%TO.N,Net-(IC1-R1EXT)*%
X146250000Y-110680000D03*
%TO.N,OVERCUR1Z*%
X143441817Y-117552823D03*
X145900000Y-101200000D03*
%TO.N,PWRON1Z*%
X145430000Y-116620000D03*
X147325000Y-108425000D03*
%TO.N,Net-(U3-BIAS)*%
X143100000Y-116450000D03*
X142950000Y-117425000D03*
D13*
%TO.N,Net-(C17-Pad1)*%
X155246000Y-125673000D03*
X155921000Y-125673000D03*
D14*
X143037400Y-114158000D03*
D13*
X137555000Y-124887500D03*
D14*
X143037400Y-114658000D03*
D13*
X155246000Y-125098000D03*
D14*
X143037400Y-115674000D03*
X145425000Y-113650000D03*
D13*
X155921000Y-125098000D03*
X137555000Y-124312500D03*
D14*
X143037400Y-113650000D03*
X143037400Y-115166000D03*
D13*
X138230000Y-124312500D03*
D14*
X145425000Y-114158000D03*
X145425000Y-115166000D03*
D13*
X138230000Y-124887500D03*
D14*
X145425000Y-114658000D03*
X145425000Y-115674000D03*
%TO.N,DM2*%
X154775000Y-109025000D03*
%TO.N,DP2*%
X154775000Y-107125000D03*
%TO.N,DM1*%
X152275000Y-109025000D03*
%TO.N,DP1*%
X152275000Y-107125000D03*
%TD*%
D16*
%TO.N,VDDA_3P3*%
X147905600Y-110667000D02*
X149451600Y-110667000D01*
X149451600Y-110667000D02*
X149705600Y-110413000D01*
X145505600Y-110667000D02*
X145883100Y-111044500D01*
X145883100Y-111044500D02*
X147528100Y-111044500D01*
X147528100Y-111044500D02*
X147905600Y-110667000D01*
D17*
%TO.N,+1.1V*%
X149100000Y-112510000D02*
X149260000Y-112510000D01*
X149260000Y-112510000D02*
X149875000Y-113125000D01*
X149875000Y-113125000D02*
X150149600Y-113125000D01*
X150149600Y-113125000D02*
X150550600Y-113526000D01*
X150550600Y-113526000D02*
X153024000Y-113526000D01*
X153024000Y-113526000D02*
X153525000Y-113025000D01*
D16*
%TO.N,+3.3V*%
X149505100Y-120620000D02*
X149788621Y-120620000D01*
X149788621Y-120620000D02*
X150643500Y-121474879D01*
X150643500Y-121474879D02*
X151300121Y-121474879D01*
X151300121Y-121474879D02*
X151850000Y-120925000D01*
D17*
%TO.N,+1.1V*%
X147400000Y-118250000D02*
X145925000Y-118250000D01*
X145925000Y-118250000D02*
X145700000Y-118475000D01*
X145700000Y-118475000D02*
X145275000Y-118475000D01*
X145275000Y-118475000D02*
X144718900Y-119031100D01*
X147400000Y-118250000D02*
X147975000Y-118250000D01*
X148230600Y-118844000D02*
X148230600Y-118505600D01*
X148230600Y-118505600D02*
X147975000Y-118250000D01*
X147130600Y-118519400D02*
X147400000Y-118250000D01*
X147130600Y-118844000D02*
X147130600Y-118519400D01*
X148736600Y-118250000D02*
X149330600Y-118844000D01*
X147975000Y-118250000D02*
X148736600Y-118250000D01*
X148230600Y-112306000D02*
X148896000Y-112306000D01*
X148896000Y-112306000D02*
X149100000Y-112510000D01*
X148230600Y-112306000D02*
X147804600Y-111880000D01*
X147804600Y-111880000D02*
X145854145Y-111880000D01*
X145854145Y-111880000D02*
X145580000Y-112154145D01*
X145580000Y-112154145D02*
X145580000Y-112280000D01*
X153525000Y-113025000D02*
X153525000Y-114263600D01*
X153525000Y-114263600D02*
X153413600Y-114375000D01*
X153413600Y-114375000D02*
X153413600Y-116175000D01*
D16*
%TO.N,PERSTZ*%
X142935000Y-119610000D02*
X143407420Y-120082420D01*
X145225000Y-126125000D02*
X144350000Y-127000000D01*
X144350000Y-127000000D02*
X141006519Y-127000000D01*
X141006519Y-127000000D02*
X140525000Y-126518481D01*
X141240000Y-119610000D02*
X142935000Y-119610000D01*
X140525000Y-126518481D02*
X140525000Y-120325000D01*
X140525000Y-120325000D02*
X141240000Y-119610000D01*
D18*
%TO.N,+3.3V*%
X138544601Y-119374602D02*
X138544601Y-122804601D01*
D16*
X143510000Y-118800000D02*
X143972319Y-118800000D01*
D18*
X143597600Y-113524816D02*
X143220184Y-113147400D01*
X138544601Y-122804601D02*
X138932600Y-123192600D01*
D16*
X147398900Y-119501100D02*
X147675000Y-119225000D01*
X145794500Y-119395600D02*
X145900000Y-119501100D01*
X144567919Y-119395600D02*
X145794500Y-119395600D01*
D18*
X143220184Y-113147400D02*
X137976600Y-113147400D01*
X143510000Y-118800000D02*
X143098141Y-118800000D01*
X138740000Y-125590000D02*
X137263874Y-125590000D01*
X138932600Y-125397400D02*
X138740000Y-125590000D01*
X143597600Y-116175000D02*
X143597600Y-113524816D01*
X139313603Y-118605600D02*
X138544601Y-119374602D01*
D16*
X147675000Y-119225000D02*
X148706136Y-119225000D01*
X148706136Y-119225000D02*
X149486600Y-120005464D01*
X149486600Y-120005464D02*
X149486600Y-120601500D01*
X149486600Y-120601500D02*
X149505100Y-120620000D01*
D18*
X136570000Y-124896126D02*
X136570000Y-117147100D01*
X136570000Y-117147100D02*
X137975000Y-115742100D01*
X137975000Y-115742100D02*
X137975000Y-113149000D01*
X143098141Y-118800000D02*
X142903741Y-118605600D01*
X138932600Y-123192600D02*
X138932600Y-125397400D01*
X142903741Y-118605600D02*
X139313603Y-118605600D01*
X137263874Y-125590000D02*
X136570000Y-124896126D01*
D16*
X145900000Y-119501100D02*
X147398900Y-119501100D01*
X143972319Y-118800000D02*
X144567919Y-119395600D01*
D19*
%TO.N,+1.1V*%
X139480000Y-104500000D02*
X139480000Y-104880000D01*
X139090000Y-104500000D02*
X139480000Y-104500000D01*
X139480000Y-104880000D02*
X139090000Y-104880000D01*
D20*
X149330600Y-111494400D02*
X149330600Y-111399400D01*
D17*
X153413600Y-116175000D02*
X153413600Y-117375000D01*
X149330600Y-118844000D02*
X149330600Y-119333983D01*
X149330600Y-112279400D02*
X149330600Y-111494400D01*
X149100000Y-112510000D02*
X149330600Y-112279400D01*
X149330600Y-119333983D02*
X151106996Y-121110379D01*
D20*
X149330600Y-111399400D02*
X150210000Y-110520000D01*
D19*
X139090000Y-104880000D02*
X139090000Y-104500000D01*
D16*
%TO.N,Net-(IC1-VSS_OSC)*%
X145575981Y-117685500D02*
X145655241Y-117764760D01*
D18*
X147130600Y-112323100D02*
X147130600Y-112306000D01*
D16*
X143748581Y-118339500D02*
X144328081Y-117760000D01*
X139203381Y-118339500D02*
X143748581Y-118339500D01*
X145655241Y-117764760D02*
X145839500Y-117580500D01*
X137877148Y-119630000D02*
X137912881Y-119630000D01*
X146766100Y-112670500D02*
X147130600Y-112306000D01*
X145839500Y-116374019D02*
X145625981Y-116160500D01*
X145810389Y-112670500D02*
X146766100Y-112670500D01*
X145839500Y-117580500D02*
X145839500Y-116374019D01*
X145199519Y-117760000D02*
X145274019Y-117685500D01*
X144328081Y-117760000D02*
X145199519Y-117760000D01*
X137912881Y-119630000D02*
X139203381Y-118339500D01*
X145625981Y-116160500D02*
X145214152Y-116160500D01*
X145004900Y-115951248D02*
X145004900Y-113475989D01*
X145214152Y-116160500D02*
X145004900Y-115951248D01*
X145274019Y-117685500D02*
X145575981Y-117685500D01*
X145004900Y-113475989D02*
X145810389Y-112670500D01*
%TO.N,OVERCUR2Z*%
X144191700Y-110718115D02*
X144191700Y-117380900D01*
X147571084Y-107830900D02*
X147078915Y-107830900D01*
X144191700Y-117380900D02*
X143597600Y-117975000D01*
X147982255Y-108242071D02*
X147571084Y-107830900D01*
X147982255Y-109125571D02*
X147982255Y-108242071D01*
X147078915Y-107830900D02*
X144191700Y-110718115D01*
%TO.N,PWRON2Z*%
X145450000Y-117225000D02*
X144472700Y-116247700D01*
X144472700Y-110761819D02*
X147174019Y-108060500D01*
X147475981Y-108060500D02*
X147689500Y-108274019D01*
X147689500Y-108274019D02*
X147689500Y-108803111D01*
X147174019Y-108060500D02*
X147475981Y-108060500D01*
X144472700Y-116247700D02*
X144472700Y-110761819D01*
X147689500Y-108803111D02*
X147593230Y-108899381D01*
%TO.N,OVERCUR1Z*%
X145900000Y-101200000D02*
X145900000Y-102932554D01*
X143962100Y-104870454D02*
X143962100Y-117032540D01*
X145900000Y-102932554D02*
X143962100Y-104870454D01*
X143962100Y-117032540D02*
X143441817Y-117552823D01*
%TO.N,PWRON1Z*%
X145335566Y-116620471D02*
X145253948Y-116538853D01*
X145253948Y-116538853D02*
X145253948Y-116525000D01*
X145253948Y-116525000D02*
X144702300Y-115973352D01*
X147325000Y-108425000D02*
X147232119Y-108425000D01*
X144702300Y-115973352D02*
X144702300Y-110954818D01*
X144702300Y-110954818D02*
X144928559Y-110728559D01*
X147232119Y-108425000D02*
X144928559Y-110728559D01*
D21*
%TO.N,Net-(U3-BIAS)*%
X143100000Y-116450000D02*
X142950000Y-116600000D01*
X142950000Y-116600000D02*
X142950000Y-117425000D01*
D19*
%TO.N,Net-(C17-Pad1)*%
X142996600Y-114173400D02*
X143012000Y-114158000D01*
D22*
X145425000Y-113650000D02*
X145425000Y-114158000D01*
D19*
X142996600Y-115181400D02*
X143012000Y-115166000D01*
X142996600Y-114642600D02*
X142996600Y-114158000D01*
X143012000Y-113650000D02*
X143004000Y-113650000D01*
D23*
X138230000Y-124312500D02*
X138230000Y-124887500D01*
D22*
X145425000Y-113650000D02*
X145700000Y-113650000D01*
X145425000Y-114658000D02*
X145857000Y-114658000D01*
D24*
X137201148Y-120591148D02*
X137201148Y-119173852D01*
D23*
X155921000Y-125673000D02*
X155246000Y-125673000D01*
D19*
X142996600Y-115658600D02*
X142996600Y-115181400D01*
D24*
X137201148Y-119173852D02*
X141717000Y-114658000D01*
X137590000Y-120980000D02*
X137201148Y-120591148D01*
X138230000Y-124887500D02*
X138130000Y-124887500D01*
D22*
X145857000Y-114658000D02*
X146149000Y-114950000D01*
D23*
X137555000Y-124312500D02*
X138230000Y-124312500D01*
D24*
X138130000Y-124887500D02*
X137555000Y-124312500D01*
D22*
X145425000Y-115674000D02*
X146276000Y-115674000D01*
D24*
X155921000Y-123871000D02*
X155921000Y-125098000D01*
D19*
X142996600Y-114642600D02*
X142996600Y-114173400D01*
D24*
X137555000Y-124312500D02*
X137555000Y-121015000D01*
X147000000Y-114950000D02*
X146149000Y-114950000D01*
D19*
X141717000Y-114658000D02*
X141996000Y-114658000D01*
D22*
X145425000Y-114158000D02*
X145807000Y-114158000D01*
X145700000Y-113650000D02*
X147000000Y-114950000D01*
D24*
X147000000Y-114950000D02*
X155921000Y-123871000D01*
X147000000Y-114950000D02*
X146599000Y-114950000D01*
D22*
X145425000Y-115166000D02*
X145768000Y-115166000D01*
D19*
X141996000Y-114658000D02*
X142996600Y-115658600D01*
D22*
X145425000Y-115166000D02*
X145425000Y-114658000D01*
D19*
X143012000Y-114658000D02*
X142996600Y-114642600D01*
D22*
X145807000Y-114158000D02*
X146599000Y-114950000D01*
X145425000Y-114658000D02*
X145425000Y-114158000D01*
D24*
X145650000Y-114950000D02*
X147000000Y-114950000D01*
D23*
X155246000Y-125098000D02*
X155921000Y-125098000D01*
X155246000Y-125673000D02*
X155246000Y-125098000D01*
X155921000Y-125098000D02*
X155921000Y-125673000D01*
D19*
X143004000Y-113650000D02*
X141996000Y-114658000D01*
D22*
X145768000Y-115166000D02*
X146276000Y-115674000D01*
D24*
X141717000Y-114658000D02*
X142924591Y-114658000D01*
D22*
X145425000Y-115674000D02*
X145425000Y-115166000D01*
D23*
X137555000Y-124887500D02*
X137555000Y-124312500D01*
D24*
X137555000Y-121015000D02*
X137590000Y-120980000D01*
D22*
X146276000Y-115674000D02*
X147000000Y-114950000D01*
D23*
X138230000Y-124887500D02*
X137555000Y-124887500D01*
%TD*%
%TA.AperFunction,Conductor*%
%TO.N,GND*%
G36*
X144122329Y-88797309D02*
G01*
X144169940Y-88848446D01*
X144181996Y-88887766D01*
X144195838Y-88992907D01*
X144263295Y-89244659D01*
X144363028Y-89485436D01*
X144363033Y-89485447D01*
X144493338Y-89711140D01*
X144493349Y-89711156D01*
X144651999Y-89917913D01*
X144652005Y-89917920D01*
X144836284Y-90102199D01*
X144836290Y-90102204D01*
X145043057Y-90260862D01*
X145043064Y-90260866D01*
X145268757Y-90391171D01*
X145268762Y-90391173D01*
X145268765Y-90391175D01*
X145509550Y-90490911D01*
X145761294Y-90558366D01*
X146019689Y-90592384D01*
X146019696Y-90592384D01*
X146280306Y-90592384D01*
X146280313Y-90592384D01*
X146538708Y-90558366D01*
X146790452Y-90490911D01*
X147031237Y-90391175D01*
X147256945Y-90260862D01*
X147463712Y-90102204D01*
X147648001Y-89917915D01*
X147806659Y-89711148D01*
X147936972Y-89485440D01*
X148036708Y-89244655D01*
X148104163Y-88992911D01*
X148118005Y-88887765D01*
X148119240Y-88884973D01*
X148118914Y-88881935D01*
X148133281Y-88853233D01*
X148146271Y-88823870D01*
X148148823Y-88822186D01*
X148150190Y-88819456D01*
X148177781Y-88803085D01*
X148204595Y-88785399D01*
X148207652Y-88785362D01*
X148210279Y-88783804D01*
X148242347Y-88784949D01*
X148274460Y-88784567D01*
X148277051Y-88786188D01*
X148280104Y-88786298D01*
X148306475Y-88804607D01*
X148333684Y-88821640D01*
X148335742Y-88824928D01*
X148337496Y-88826146D01*
X148355505Y-88856500D01*
X148395830Y-88953856D01*
X148395837Y-88953869D01*
X148476618Y-89074765D01*
X148476621Y-89074769D01*
X148579435Y-89177583D01*
X148579439Y-89177586D01*
X148700335Y-89258367D01*
X148700348Y-89258374D01*
X148801097Y-89300104D01*
X148834682Y-89314016D01*
X148834684Y-89314016D01*
X148834689Y-89314018D01*
X148977292Y-89342383D01*
X148977295Y-89342384D01*
X148977297Y-89342384D01*
X149122707Y-89342384D01*
X149122708Y-89342383D01*
X149170243Y-89332928D01*
X149265312Y-89314018D01*
X149265315Y-89314016D01*
X149265320Y-89314016D01*
X149399660Y-89258371D01*
X149520563Y-89177586D01*
X149623383Y-89074766D01*
X149696899Y-88964742D01*
X149750511Y-88919937D01*
X149819836Y-88911230D01*
X149882863Y-88941384D01*
X149903103Y-88964742D01*
X149976618Y-89074765D01*
X149976621Y-89074769D01*
X150079435Y-89177583D01*
X150079439Y-89177586D01*
X150200335Y-89258367D01*
X150200348Y-89258374D01*
X150301097Y-89300104D01*
X150334682Y-89314016D01*
X150334684Y-89314016D01*
X150334689Y-89314018D01*
X150477292Y-89342383D01*
X150477295Y-89342384D01*
X150477297Y-89342384D01*
X150622707Y-89342384D01*
X150622708Y-89342383D01*
X150670243Y-89332928D01*
X150765312Y-89314018D01*
X150765315Y-89314016D01*
X150765320Y-89314016D01*
X150899660Y-89258371D01*
X151020563Y-89177586D01*
X151123383Y-89074766D01*
X151196899Y-88964742D01*
X151250511Y-88919937D01*
X151319836Y-88911230D01*
X151382863Y-88941384D01*
X151403103Y-88964742D01*
X151476618Y-89074765D01*
X151476621Y-89074769D01*
X151579435Y-89177583D01*
X151579439Y-89177586D01*
X151700335Y-89258367D01*
X151700348Y-89258374D01*
X151801097Y-89300104D01*
X151834682Y-89314016D01*
X151834684Y-89314016D01*
X151834689Y-89314018D01*
X151977292Y-89342383D01*
X151977295Y-89342384D01*
X151977297Y-89342384D01*
X152122707Y-89342384D01*
X152122708Y-89342383D01*
X152170243Y-89332928D01*
X152265312Y-89314018D01*
X152265315Y-89314016D01*
X152265320Y-89314016D01*
X152399660Y-89258371D01*
X152520563Y-89177586D01*
X152623383Y-89074766D01*
X152696899Y-88964742D01*
X152750511Y-88919937D01*
X152819836Y-88911230D01*
X152882863Y-88941384D01*
X152903103Y-88964742D01*
X152976618Y-89074765D01*
X152976621Y-89074769D01*
X153079435Y-89177583D01*
X153079439Y-89177586D01*
X153200335Y-89258367D01*
X153200348Y-89258374D01*
X153301097Y-89300104D01*
X153334682Y-89314016D01*
X153334684Y-89314016D01*
X153334689Y-89314018D01*
X153477292Y-89342383D01*
X153477295Y-89342384D01*
X153477297Y-89342384D01*
X153622707Y-89342384D01*
X153622708Y-89342383D01*
X153670243Y-89332928D01*
X153765312Y-89314018D01*
X153765315Y-89314016D01*
X153765320Y-89314016D01*
X153899660Y-89258371D01*
X154020563Y-89177586D01*
X154123383Y-89074766D01*
X154196899Y-88964742D01*
X154250511Y-88919937D01*
X154319836Y-88911230D01*
X154382863Y-88941384D01*
X154403103Y-88964742D01*
X154476618Y-89074765D01*
X154476621Y-89074769D01*
X154579435Y-89177583D01*
X154579439Y-89177586D01*
X154700335Y-89258367D01*
X154700348Y-89258374D01*
X154801097Y-89300104D01*
X154834682Y-89314016D01*
X154834684Y-89314016D01*
X154834689Y-89314018D01*
X154977292Y-89342383D01*
X154977295Y-89342384D01*
X154977297Y-89342384D01*
X155122707Y-89342384D01*
X155122708Y-89342383D01*
X155170243Y-89332928D01*
X155265312Y-89314018D01*
X155265315Y-89314016D01*
X155265320Y-89314016D01*
X155399660Y-89258371D01*
X155520563Y-89177586D01*
X155623383Y-89074766D01*
X155696899Y-88964742D01*
X155750511Y-88919937D01*
X155819836Y-88911230D01*
X155882863Y-88941384D01*
X155903103Y-88964742D01*
X155976618Y-89074765D01*
X155976621Y-89074769D01*
X156079435Y-89177583D01*
X156079439Y-89177586D01*
X156200335Y-89258367D01*
X156200348Y-89258374D01*
X156301097Y-89300104D01*
X156334682Y-89314016D01*
X156334684Y-89314016D01*
X156334689Y-89314018D01*
X156477292Y-89342383D01*
X156477295Y-89342384D01*
X156537820Y-89342384D01*
X156604859Y-89362069D01*
X156650614Y-89414873D01*
X156661820Y-89466384D01*
X156661820Y-93013862D01*
X156642135Y-93080901D01*
X156589331Y-93126656D01*
X156520173Y-93136600D01*
X156456617Y-93107575D01*
X156427335Y-93070157D01*
X156410950Y-93038000D01*
X156400760Y-93018001D01*
X156289690Y-92865127D01*
X156156073Y-92731510D01*
X156003199Y-92620440D01*
X155834836Y-92534654D01*
X155655118Y-92476259D01*
X155468486Y-92446700D01*
X155468481Y-92446700D01*
X155279519Y-92446700D01*
X155279514Y-92446700D01*
X155092881Y-92476259D01*
X154913163Y-92534654D01*
X154744800Y-92620440D01*
X154717273Y-92640440D01*
X154591927Y-92731510D01*
X154591925Y-92731512D01*
X154591924Y-92731512D01*
X154458309Y-92865127D01*
X154389562Y-92959748D01*
X154334231Y-93002413D01*
X154264618Y-93008391D01*
X154202823Y-92975784D01*
X154178760Y-92943155D01*
X154136916Y-92861030D01*
X154076658Y-92778094D01*
X154076658Y-92778093D01*
X153377787Y-93476965D01*
X153366518Y-93434908D01*
X153294110Y-93309492D01*
X153191708Y-93207090D01*
X153066292Y-93134682D01*
X153024234Y-93123412D01*
X153723105Y-92424540D01*
X153723104Y-92424538D01*
X153640174Y-92364287D01*
X153429802Y-92257097D01*
X153205247Y-92184134D01*
X153205248Y-92184134D01*
X152972052Y-92147200D01*
X152735948Y-92147200D01*
X152502752Y-92184134D01*
X152278197Y-92257097D01*
X152067830Y-92364284D01*
X151984894Y-92424540D01*
X152683766Y-93123412D01*
X152641708Y-93134682D01*
X152516292Y-93207090D01*
X152413890Y-93309492D01*
X152341482Y-93434908D01*
X152330212Y-93476966D01*
X151631340Y-92778094D01*
X151571084Y-92861030D01*
X151515005Y-92971092D01*
X151467030Y-93021888D01*
X151399209Y-93038683D01*
X151333074Y-93016145D01*
X151304203Y-92987683D01*
X151229694Y-92885133D01*
X151229690Y-92885127D01*
X151096073Y-92751510D01*
X150943199Y-92640440D01*
X150827449Y-92581462D01*
X150774836Y-92554654D01*
X150595118Y-92496259D01*
X150408486Y-92466700D01*
X150408481Y-92466700D01*
X150219519Y-92466700D01*
X150219514Y-92466700D01*
X150032881Y-92496259D01*
X149853163Y-92554654D01*
X149684800Y-92640440D01*
X149597579Y-92703810D01*
X149531927Y-92751510D01*
X149531925Y-92751512D01*
X149531924Y-92751512D01*
X149398312Y-92885124D01*
X149398312Y-92885125D01*
X149398310Y-92885127D01*
X149398306Y-92885133D01*
X149287240Y-93038000D01*
X149201454Y-93206363D01*
X149165180Y-93318003D01*
X149125742Y-93375678D01*
X149061383Y-93402876D01*
X148992537Y-93390961D01*
X148941061Y-93343716D01*
X148929318Y-93318003D01*
X148893044Y-93206365D01*
X148886547Y-93186368D01*
X148886545Y-93186365D01*
X148886545Y-93186363D01*
X148810950Y-93038000D01*
X148800760Y-93018001D01*
X148689690Y-92865127D01*
X148556073Y-92731510D01*
X148403199Y-92620440D01*
X148234836Y-92534654D01*
X148055118Y-92476259D01*
X147868486Y-92446700D01*
X147868481Y-92446700D01*
X147679519Y-92446700D01*
X147679514Y-92446700D01*
X147492881Y-92476259D01*
X147313163Y-92534654D01*
X147144800Y-92620440D01*
X147117273Y-92640440D01*
X146991927Y-92731510D01*
X146991925Y-92731512D01*
X146991924Y-92731512D01*
X146858312Y-92865124D01*
X146858312Y-92865125D01*
X146858310Y-92865127D01*
X146843781Y-92885125D01*
X146747240Y-93018000D01*
X146661455Y-93186362D01*
X146618681Y-93318004D01*
X146579242Y-93375679D01*
X146514883Y-93402876D01*
X146446037Y-93390961D01*
X146394562Y-93343716D01*
X146382820Y-93318004D01*
X146346547Y-93206368D01*
X146260760Y-93038001D01*
X146149690Y-92885127D01*
X146016073Y-92751510D01*
X145863199Y-92640440D01*
X145823947Y-92620440D01*
X145694836Y-92554654D01*
X145515118Y-92496259D01*
X145328486Y-92466700D01*
X145328481Y-92466700D01*
X145139519Y-92466700D01*
X145139514Y-92466700D01*
X144952881Y-92496259D01*
X144773163Y-92554654D01*
X144604800Y-92640440D01*
X144517579Y-92703810D01*
X144451927Y-92751510D01*
X144451925Y-92751512D01*
X144451924Y-92751512D01*
X144318312Y-92885124D01*
X144318312Y-92885125D01*
X144318310Y-92885127D01*
X144318306Y-92885133D01*
X144207240Y-93038000D01*
X144121454Y-93206363D01*
X144063059Y-93386081D01*
X144033500Y-93572713D01*
X144033500Y-93761686D01*
X144063059Y-93948318D01*
X144121454Y-94128036D01*
X144199158Y-94280537D01*
X144207240Y-94296399D01*
X144318310Y-94449273D01*
X144451927Y-94582890D01*
X144604801Y-94693960D01*
X144660255Y-94722215D01*
X144711051Y-94770189D01*
X144727846Y-94838010D01*
X144705309Y-94904145D01*
X144650594Y-94947597D01*
X144603960Y-94956700D01*
X144214247Y-94956700D01*
X144155770Y-94968331D01*
X144155769Y-94968332D01*
X144089447Y-95012647D01*
X144045132Y-95078969D01*
X144045131Y-95078970D01*
X144033500Y-95137447D01*
X144033500Y-97276952D01*
X144045131Y-97335429D01*
X144045132Y-97335430D01*
X144089447Y-97401752D01*
X144155769Y-97446067D01*
X144155770Y-97446068D01*
X144214247Y-97457699D01*
X144214250Y-97457700D01*
X144214252Y-97457700D01*
X146253750Y-97457700D01*
X146253751Y-97457699D01*
X146268568Y-97454752D01*
X146312229Y-97446068D01*
X146312229Y-97446067D01*
X146312231Y-97446067D01*
X146378552Y-97401752D01*
X146422867Y-97335431D01*
X146422867Y-97335429D01*
X146422868Y-97335429D01*
X146434499Y-97276952D01*
X146434500Y-97276950D01*
X146434500Y-96739109D01*
X146454185Y-96672070D01*
X146506989Y-96626315D01*
X146576147Y-96616371D01*
X146639703Y-96645396D01*
X146668984Y-96682813D01*
X146747240Y-96836399D01*
X146858310Y-96989273D01*
X146991927Y-97122890D01*
X147144801Y-97233960D01*
X147219681Y-97272113D01*
X147313163Y-97319745D01*
X147313165Y-97319745D01*
X147313168Y-97319747D01*
X147409497Y-97351046D01*
X147492881Y-97378140D01*
X147679514Y-97407700D01*
X147679519Y-97407700D01*
X147868486Y-97407700D01*
X148055118Y-97378140D01*
X148116671Y-97358140D01*
X148234832Y-97319747D01*
X148403199Y-97233960D01*
X148556073Y-97122890D01*
X148689690Y-96989273D01*
X148800760Y-96836399D01*
X148886547Y-96668032D01*
X148922820Y-96556395D01*
X148962256Y-96498721D01*
X149026615Y-96471523D01*
X149095461Y-96483438D01*
X149146937Y-96530682D01*
X149158681Y-96556396D01*
X149201454Y-96688036D01*
X149279691Y-96841583D01*
X149287240Y-96856399D01*
X149398310Y-97009273D01*
X149531927Y-97142890D01*
X149684801Y-97253960D01*
X149764347Y-97294490D01*
X149853163Y-97339745D01*
X149853165Y-97339745D01*
X149853168Y-97339747D01*
X149949497Y-97371046D01*
X150032881Y-97398140D01*
X150219514Y-97427700D01*
X150219519Y-97427700D01*
X150408486Y-97427700D01*
X150595118Y-97398140D01*
X150774832Y-97339747D01*
X150943199Y-97253960D01*
X151096073Y-97142890D01*
X151229690Y-97009273D01*
X151316182Y-96890226D01*
X151371511Y-96847562D01*
X151441124Y-96841583D01*
X151502919Y-96874189D01*
X151526984Y-96906818D01*
X151571087Y-96993374D01*
X151631338Y-97076304D01*
X151631340Y-97076305D01*
X152330212Y-96377433D01*
X152341482Y-96419492D01*
X152413890Y-96544908D01*
X152516292Y-96647310D01*
X152641708Y-96719718D01*
X152683765Y-96730987D01*
X151984893Y-97429858D01*
X152067828Y-97490114D01*
X152278197Y-97597302D01*
X152502752Y-97670265D01*
X152502751Y-97670265D01*
X152735948Y-97707200D01*
X152972052Y-97707200D01*
X153205247Y-97670265D01*
X153429802Y-97597302D01*
X153640163Y-97490118D01*
X153640169Y-97490114D01*
X153723104Y-97429858D01*
X153723105Y-97429858D01*
X153024233Y-96730987D01*
X153066292Y-96719718D01*
X153191708Y-96647310D01*
X153294110Y-96544908D01*
X153366518Y-96419492D01*
X153377787Y-96377434D01*
X154076658Y-97076305D01*
X154076658Y-97076304D01*
X154136914Y-96993369D01*
X154136921Y-96993359D01*
X154184750Y-96899488D01*
X154232724Y-96848692D01*
X154300544Y-96831896D01*
X154366680Y-96854433D01*
X154395553Y-96882896D01*
X154458310Y-96969273D01*
X154591927Y-97102890D01*
X154744801Y-97213960D01*
X154823304Y-97253959D01*
X154913163Y-97299745D01*
X154913165Y-97299745D01*
X154913168Y-97299747D01*
X155009497Y-97331046D01*
X155092881Y-97358140D01*
X155279514Y-97387700D01*
X155279519Y-97387700D01*
X155468486Y-97387700D01*
X155655118Y-97358140D01*
X155711725Y-97339747D01*
X155834832Y-97299747D01*
X156003199Y-97213960D01*
X156156073Y-97102890D01*
X156289690Y-96969273D01*
X156400760Y-96816399D01*
X156427335Y-96764241D01*
X156475309Y-96713446D01*
X156543130Y-96696651D01*
X156609265Y-96719188D01*
X156652717Y-96773903D01*
X156661820Y-96820537D01*
X156661820Y-123540362D01*
X156642135Y-123607401D01*
X156589331Y-123653156D01*
X156520173Y-123663100D01*
X156456617Y-123634075D01*
X156430433Y-123602363D01*
X156381515Y-123517635D01*
X156270034Y-123406154D01*
X156270023Y-123406144D01*
X152404961Y-119541081D01*
X152371476Y-119479758D01*
X152376460Y-119410066D01*
X152404958Y-119365722D01*
X152430469Y-119340212D01*
X152476614Y-119260288D01*
X152500500Y-119171144D01*
X152500500Y-119078856D01*
X152476614Y-118989712D01*
X152476611Y-118989706D01*
X152430473Y-118909794D01*
X152430470Y-118909791D01*
X152430469Y-118909788D01*
X152365212Y-118844531D01*
X152365209Y-118844529D01*
X152365205Y-118844526D01*
X152285293Y-118798388D01*
X152285290Y-118798387D01*
X152285289Y-118798386D01*
X152285288Y-118798386D01*
X152196144Y-118774500D01*
X152103856Y-118774500D01*
X152014712Y-118798386D01*
X152014711Y-118798386D01*
X152014709Y-118798387D01*
X152014706Y-118798388D01*
X151934794Y-118844526D01*
X151934788Y-118844531D01*
X151909279Y-118870040D01*
X151847955Y-118903524D01*
X151778264Y-118898538D01*
X151733918Y-118870038D01*
X149767736Y-116903856D01*
X151424100Y-116903856D01*
X151424100Y-116996144D01*
X151433469Y-117031111D01*
X151447987Y-117085290D01*
X151447988Y-117085293D01*
X151494126Y-117165205D01*
X151494129Y-117165209D01*
X151494131Y-117165212D01*
X151559388Y-117230469D01*
X151559391Y-117230470D01*
X151559394Y-117230473D01*
X151639306Y-117276611D01*
X151639307Y-117276611D01*
X151639312Y-117276614D01*
X151728456Y-117300500D01*
X151728458Y-117300500D01*
X151820742Y-117300500D01*
X151820744Y-117300500D01*
X151909888Y-117276614D01*
X151989812Y-117230469D01*
X152055069Y-117165212D01*
X152101214Y-117085288D01*
X152125100Y-116996144D01*
X152125100Y-116903856D01*
X152101214Y-116814712D01*
X152098321Y-116809701D01*
X152055073Y-116734794D01*
X152055070Y-116734791D01*
X152055069Y-116734788D01*
X151989812Y-116669531D01*
X151989809Y-116669529D01*
X151989805Y-116669526D01*
X151909893Y-116623388D01*
X151909890Y-116623387D01*
X151909889Y-116623386D01*
X151909888Y-116623386D01*
X151820744Y-116599500D01*
X151728456Y-116599500D01*
X151639312Y-116623386D01*
X151639311Y-116623386D01*
X151639309Y-116623387D01*
X151639306Y-116623388D01*
X151559394Y-116669526D01*
X151559385Y-116669533D01*
X151494133Y-116734785D01*
X151494126Y-116734794D01*
X151447988Y-116814706D01*
X151447987Y-116814709D01*
X151447986Y-116814711D01*
X151447986Y-116814712D01*
X151424100Y-116903856D01*
X149767736Y-116903856D01*
X147353367Y-114489487D01*
X147353365Y-114489485D01*
X147285521Y-114450315D01*
X147222136Y-114413719D01*
X147096240Y-114379986D01*
X147040652Y-114347892D01*
X146070761Y-113378001D01*
X146070759Y-113377998D01*
X145979072Y-113286311D01*
X145979066Y-113286306D01*
X145875432Y-113226473D01*
X145871753Y-113224949D01*
X145869127Y-113222833D01*
X145868393Y-113222409D01*
X145868459Y-113222294D01*
X145846195Y-113204350D01*
X145819944Y-113184699D01*
X145819141Y-113182547D01*
X145817352Y-113181105D01*
X145806992Y-113149974D01*
X145795528Y-113119235D01*
X145796016Y-113116989D01*
X145795291Y-113114809D01*
X145803403Y-113083031D01*
X145810380Y-113050962D01*
X145812217Y-113048507D01*
X145812574Y-113047111D01*
X145831528Y-113022712D01*
X145883423Y-112970818D01*
X145944746Y-112937334D01*
X145971103Y-112934500D01*
X146818612Y-112934500D01*
X146818613Y-112934500D01*
X146915644Y-112894308D01*
X147121435Y-112688517D01*
X147177018Y-112656426D01*
X147265888Y-112632614D01*
X147345812Y-112586469D01*
X147411069Y-112521212D01*
X147457214Y-112441288D01*
X147481100Y-112352144D01*
X147481100Y-112329500D01*
X147483650Y-112320814D01*
X147482362Y-112311853D01*
X147493340Y-112287812D01*
X147500785Y-112262461D01*
X147507625Y-112256533D01*
X147511387Y-112248297D01*
X147533621Y-112234007D01*
X147553589Y-112216706D01*
X147564103Y-112214418D01*
X147570165Y-112210523D01*
X147605100Y-112205500D01*
X147618411Y-112205500D01*
X147685450Y-112225185D01*
X147706092Y-112241819D01*
X147890289Y-112426016D01*
X147909994Y-112451695D01*
X147920732Y-112470293D01*
X147950131Y-112521212D01*
X148015388Y-112586469D01*
X148015391Y-112586470D01*
X148015394Y-112586473D01*
X148095306Y-112632611D01*
X148095307Y-112632611D01*
X148095312Y-112632614D01*
X148184456Y-112656500D01*
X148184458Y-112656500D01*
X148276741Y-112656500D01*
X148276744Y-112656500D01*
X148354280Y-112635724D01*
X148386369Y-112631500D01*
X148693835Y-112631500D01*
X148760874Y-112651185D01*
X148801221Y-112693499D01*
X148819531Y-112725212D01*
X148884788Y-112790469D01*
X148884791Y-112790470D01*
X148884794Y-112790473D01*
X148964706Y-112836611D01*
X148964707Y-112836611D01*
X148964712Y-112836614D01*
X149053856Y-112860500D01*
X149053858Y-112860500D01*
X149098811Y-112860500D01*
X149165850Y-112880185D01*
X149186492Y-112896819D01*
X149614534Y-113324861D01*
X149614535Y-113324862D01*
X149675138Y-113385465D01*
X149675140Y-113385466D01*
X149675144Y-113385469D01*
X149749355Y-113428314D01*
X149749362Y-113428318D01*
X149832147Y-113450500D01*
X149963411Y-113450500D01*
X150030450Y-113470185D01*
X150051092Y-113486819D01*
X150285794Y-113721520D01*
X150285804Y-113721531D01*
X150290134Y-113725861D01*
X150290135Y-113725862D01*
X150350738Y-113786465D01*
X150350740Y-113786466D01*
X150350741Y-113786467D01*
X150424958Y-113829316D01*
X150424959Y-113829317D01*
X150424961Y-113829317D01*
X150424962Y-113829318D01*
X150507747Y-113851501D01*
X150507749Y-113851501D01*
X150601049Y-113851501D01*
X150601065Y-113851500D01*
X153074980Y-113851500D01*
X153074980Y-113854954D01*
X153076154Y-113855136D01*
X153093147Y-113852693D01*
X153109965Y-113860373D01*
X153128235Y-113863204D01*
X153141085Y-113874585D01*
X153156703Y-113881718D01*
X153166698Y-113897271D01*
X153180539Y-113909530D01*
X153185372Y-113926328D01*
X153194477Y-113940496D01*
X153199500Y-113975431D01*
X153199500Y-114042056D01*
X153179815Y-114109095D01*
X153163182Y-114129736D01*
X153133134Y-114159784D01*
X153133126Y-114159794D01*
X153086988Y-114239706D01*
X153086987Y-114239709D01*
X153086986Y-114239711D01*
X153086986Y-114239712D01*
X153063100Y-114328856D01*
X153063100Y-114421144D01*
X153083875Y-114498680D01*
X153088100Y-114530768D01*
X153088100Y-116019230D01*
X153083875Y-116051321D01*
X153063100Y-116128856D01*
X153063100Y-116221144D01*
X153083875Y-116298680D01*
X153088100Y-116330768D01*
X153088100Y-117219230D01*
X153083875Y-117251321D01*
X153063100Y-117328856D01*
X153063100Y-117421144D01*
X153077379Y-117474435D01*
X153086987Y-117510290D01*
X153086988Y-117510293D01*
X153133126Y-117590205D01*
X153138078Y-117596658D01*
X153136149Y-117598137D01*
X153163727Y-117648663D01*
X153158730Y-117718354D01*
X153136850Y-117752400D01*
X153138078Y-117753342D01*
X153133126Y-117759794D01*
X153086988Y-117839706D01*
X153086987Y-117839709D01*
X153086986Y-117839711D01*
X153086986Y-117839712D01*
X153063100Y-117928856D01*
X153063100Y-118021144D01*
X153084767Y-118102007D01*
X153086987Y-118110290D01*
X153086988Y-118110293D01*
X153133126Y-118190205D01*
X153133129Y-118190209D01*
X153133131Y-118190212D01*
X153198388Y-118255469D01*
X153198391Y-118255470D01*
X153198394Y-118255473D01*
X153278306Y-118301611D01*
X153278307Y-118301611D01*
X153278312Y-118301614D01*
X153367456Y-118325500D01*
X153367458Y-118325500D01*
X153459742Y-118325500D01*
X153459744Y-118325500D01*
X153548888Y-118301614D01*
X153628812Y-118255469D01*
X153694069Y-118190212D01*
X153740214Y-118110288D01*
X153764100Y-118021144D01*
X153764100Y-117928856D01*
X153740214Y-117839712D01*
X153740211Y-117839706D01*
X153694073Y-117759794D01*
X153694070Y-117759791D01*
X153694069Y-117759788D01*
X153694066Y-117759785D01*
X153689122Y-117753342D01*
X153691053Y-117751860D01*
X153663477Y-117701358D01*
X153668461Y-117631666D01*
X153690352Y-117597602D01*
X153689122Y-117596658D01*
X153694063Y-117590217D01*
X153694069Y-117590212D01*
X153740214Y-117510288D01*
X153764100Y-117421144D01*
X153764100Y-117328856D01*
X153743324Y-117251321D01*
X153739100Y-117219230D01*
X153739100Y-116330768D01*
X153743324Y-116298680D01*
X153764100Y-116221144D01*
X153764100Y-116128856D01*
X153743324Y-116051321D01*
X153739100Y-116019230D01*
X153739100Y-114561189D01*
X153745898Y-114538035D01*
X153748417Y-114514031D01*
X153756516Y-114501876D01*
X153758785Y-114494150D01*
X153766348Y-114483632D01*
X153770603Y-114478323D01*
X153785465Y-114463462D01*
X153788330Y-114458500D01*
X153828318Y-114389238D01*
X153850500Y-114306453D01*
X153850500Y-113180768D01*
X153854724Y-113148680D01*
X153875500Y-113071144D01*
X153875500Y-112978856D01*
X153851614Y-112889712D01*
X153848775Y-112884794D01*
X153805473Y-112809794D01*
X153805470Y-112809791D01*
X153805469Y-112809788D01*
X153740212Y-112744531D01*
X153740209Y-112744529D01*
X153740205Y-112744526D01*
X153660293Y-112698388D01*
X153660290Y-112698387D01*
X153660289Y-112698386D01*
X153660288Y-112698386D01*
X153571144Y-112674500D01*
X153478856Y-112674500D01*
X153389712Y-112698386D01*
X153389711Y-112698386D01*
X153389709Y-112698387D01*
X153389706Y-112698388D01*
X153309794Y-112744526D01*
X153309785Y-112744533D01*
X153244533Y-112809785D01*
X153244529Y-112809791D01*
X153204396Y-112879301D01*
X153184691Y-112904980D01*
X152925490Y-113164182D01*
X152864170Y-113197666D01*
X152837811Y-113200500D01*
X152249100Y-113200500D01*
X152182061Y-113180815D01*
X152136306Y-113128011D01*
X152125100Y-113076500D01*
X152125100Y-113053858D01*
X152125100Y-113053856D01*
X152101214Y-112964712D01*
X152100249Y-112963040D01*
X152055073Y-112884794D01*
X152055070Y-112884791D01*
X152055069Y-112884788D01*
X151989812Y-112819531D01*
X151989809Y-112819529D01*
X151989805Y-112819526D01*
X151909893Y-112773388D01*
X151909890Y-112773387D01*
X151909889Y-112773386D01*
X151909888Y-112773386D01*
X151820744Y-112749500D01*
X151728456Y-112749500D01*
X151639312Y-112773386D01*
X151639311Y-112773386D01*
X151639309Y-112773387D01*
X151639306Y-112773388D01*
X151559394Y-112819526D01*
X151559385Y-112819533D01*
X151494133Y-112884785D01*
X151494126Y-112884794D01*
X151447988Y-112964706D01*
X151447987Y-112964709D01*
X151424100Y-113053856D01*
X151424100Y-113076500D01*
X151404415Y-113143539D01*
X151351611Y-113189294D01*
X151300100Y-113200500D01*
X150736788Y-113200500D01*
X150669749Y-113180815D01*
X150649107Y-113164181D01*
X150508647Y-113023721D01*
X150349462Y-112864535D01*
X150301102Y-112836614D01*
X150275240Y-112821682D01*
X150230838Y-112809785D01*
X150192453Y-112799500D01*
X150192452Y-112799500D01*
X150061189Y-112799500D01*
X149994150Y-112779815D01*
X149973508Y-112763181D01*
X149680620Y-112470293D01*
X149647135Y-112408970D01*
X149644665Y-112373120D01*
X149645546Y-112361641D01*
X149656101Y-112322253D01*
X149656101Y-112236547D01*
X149656100Y-112236543D01*
X149656100Y-111984443D01*
X151649500Y-111984443D01*
X151649500Y-112076731D01*
X151667715Y-112144712D01*
X151673387Y-112165877D01*
X151673388Y-112165880D01*
X151719526Y-112245792D01*
X151719529Y-112245796D01*
X151719531Y-112245799D01*
X151784788Y-112311056D01*
X151784791Y-112311057D01*
X151784794Y-112311060D01*
X151864706Y-112357198D01*
X151864707Y-112357198D01*
X151864712Y-112357201D01*
X151953856Y-112381087D01*
X151953858Y-112381087D01*
X152046142Y-112381087D01*
X152046144Y-112381087D01*
X152135288Y-112357201D01*
X152215212Y-112311056D01*
X152280469Y-112245799D01*
X152326614Y-112165875D01*
X152350500Y-112076731D01*
X152350500Y-111984443D01*
X152326614Y-111895299D01*
X152304213Y-111856500D01*
X152280473Y-111815381D01*
X152280470Y-111815378D01*
X152280469Y-111815375D01*
X152215212Y-111750118D01*
X152215209Y-111750116D01*
X152215205Y-111750113D01*
X152135293Y-111703975D01*
X152135290Y-111703974D01*
X152135289Y-111703973D01*
X152135288Y-111703973D01*
X152046144Y-111680087D01*
X151953856Y-111680087D01*
X151864712Y-111703973D01*
X151864711Y-111703973D01*
X151864709Y-111703974D01*
X151864706Y-111703975D01*
X151784794Y-111750113D01*
X151784785Y-111750120D01*
X151719533Y-111815372D01*
X151719526Y-111815381D01*
X151673388Y-111895293D01*
X151673387Y-111895296D01*
X151673386Y-111895298D01*
X151673386Y-111895299D01*
X151649500Y-111984443D01*
X149656100Y-111984443D01*
X149656100Y-111564374D01*
X149675785Y-111497335D01*
X149692415Y-111476697D01*
X150290663Y-110878448D01*
X150338288Y-110850955D01*
X150337779Y-110849725D01*
X150345289Y-110846614D01*
X150425205Y-110800473D01*
X150425204Y-110800473D01*
X150425212Y-110800469D01*
X150490469Y-110735212D01*
X150536614Y-110655288D01*
X150560500Y-110566144D01*
X150560500Y-110473856D01*
X150536614Y-110384712D01*
X150536611Y-110384706D01*
X150490473Y-110304794D01*
X150490470Y-110304791D01*
X150490469Y-110304788D01*
X150425212Y-110239531D01*
X150425209Y-110239529D01*
X150425205Y-110239526D01*
X150345293Y-110193388D01*
X150345290Y-110193387D01*
X150345289Y-110193386D01*
X150345288Y-110193386D01*
X150256144Y-110169500D01*
X150163856Y-110169500D01*
X150074712Y-110193386D01*
X150074711Y-110193386D01*
X150070481Y-110194520D01*
X150000632Y-110192857D01*
X149950707Y-110162426D01*
X149920814Y-110132533D01*
X149920812Y-110132531D01*
X149920809Y-110132529D01*
X149920805Y-110132526D01*
X149840893Y-110086388D01*
X149840890Y-110086387D01*
X149840889Y-110086386D01*
X149840888Y-110086386D01*
X149751744Y-110062500D01*
X149659456Y-110062500D01*
X149570312Y-110086386D01*
X149570311Y-110086386D01*
X149570309Y-110086387D01*
X149570306Y-110086388D01*
X149490394Y-110132526D01*
X149490385Y-110132533D01*
X149425133Y-110197785D01*
X149425126Y-110197794D01*
X149378988Y-110277706D01*
X149378987Y-110277709D01*
X149378986Y-110277711D01*
X149378986Y-110277712D01*
X149370238Y-110310362D01*
X149370042Y-110311093D01*
X149333677Y-110370754D01*
X149270830Y-110401283D01*
X149250267Y-110403000D01*
X148182563Y-110403000D01*
X148120562Y-110386386D01*
X148040893Y-110340388D01*
X148040890Y-110340387D01*
X148040889Y-110340386D01*
X148040888Y-110340386D01*
X147951744Y-110316500D01*
X147859456Y-110316500D01*
X147770312Y-110340386D01*
X147770311Y-110340386D01*
X147770309Y-110340387D01*
X147770306Y-110340388D01*
X147690394Y-110386526D01*
X147690385Y-110386533D01*
X147625133Y-110451785D01*
X147625126Y-110451794D01*
X147578988Y-110531706D01*
X147578987Y-110531707D01*
X147569761Y-110566142D01*
X147555174Y-110620579D01*
X147547157Y-110634464D01*
X147544233Y-110647910D01*
X147523082Y-110676165D01*
X147455067Y-110744181D01*
X147393744Y-110777666D01*
X147367385Y-110780500D01*
X146724500Y-110780500D01*
X146657461Y-110760815D01*
X146611706Y-110708011D01*
X146600500Y-110656500D01*
X146600500Y-110633858D01*
X146600500Y-110633856D01*
X146576614Y-110544712D01*
X146576611Y-110544706D01*
X146530473Y-110464794D01*
X146530470Y-110464791D01*
X146530469Y-110464788D01*
X146465212Y-110399531D01*
X146465209Y-110399529D01*
X146465205Y-110399526D01*
X146385293Y-110353388D01*
X146385290Y-110353387D01*
X146385289Y-110353386D01*
X146385288Y-110353386D01*
X146296144Y-110329500D01*
X146203856Y-110329500D01*
X146114712Y-110353386D01*
X146114711Y-110353386D01*
X146114709Y-110353387D01*
X146114706Y-110353388D01*
X146034794Y-110399526D01*
X146034789Y-110399530D01*
X145971348Y-110462971D01*
X145962103Y-110468018D01*
X145955593Y-110476297D01*
X145931965Y-110484474D01*
X145910024Y-110496455D01*
X145899520Y-110495703D01*
X145889566Y-110499149D01*
X145865264Y-110493253D01*
X145840333Y-110491470D01*
X145830104Y-110484723D01*
X145821666Y-110482676D01*
X145805481Y-110468482D01*
X145793923Y-110460858D01*
X145787287Y-110453899D01*
X145786069Y-110451788D01*
X145768997Y-110434716D01*
X145767993Y-110433663D01*
X145752630Y-110403862D01*
X145736571Y-110374452D01*
X145736680Y-110372922D01*
X145735978Y-110371560D01*
X145739163Y-110338207D01*
X145741555Y-110304760D01*
X145742497Y-110303294D01*
X145742620Y-110302007D01*
X145746473Y-110297107D01*
X145770054Y-110260415D01*
X147057520Y-108972949D01*
X147118841Y-108939466D01*
X147188533Y-108944450D01*
X147244466Y-108986322D01*
X147264974Y-109028540D01*
X147266616Y-109034670D01*
X147266618Y-109034674D01*
X147312756Y-109114586D01*
X147312763Y-109114595D01*
X147335987Y-109137819D01*
X147369472Y-109199142D01*
X147364488Y-109268834D01*
X147322616Y-109324767D01*
X147257152Y-109349184D01*
X147248306Y-109349500D01*
X147203856Y-109349500D01*
X147114712Y-109373386D01*
X147114711Y-109373386D01*
X147114709Y-109373387D01*
X147114706Y-109373388D01*
X147034794Y-109419526D01*
X147034785Y-109419533D01*
X146969533Y-109484785D01*
X146969526Y-109484794D01*
X146923388Y-109564706D01*
X146923387Y-109564709D01*
X146899500Y-109653856D01*
X146899500Y-109746143D01*
X146923387Y-109835290D01*
X146923388Y-109835293D01*
X146969526Y-109915205D01*
X146969529Y-109915209D01*
X146969531Y-109915212D01*
X147034788Y-109980469D01*
X147034791Y-109980470D01*
X147034794Y-109980473D01*
X147114706Y-110026611D01*
X147114707Y-110026611D01*
X147114712Y-110026614D01*
X147203856Y-110050500D01*
X147203858Y-110050500D01*
X147296142Y-110050500D01*
X147296144Y-110050500D01*
X147385288Y-110026614D01*
X147465212Y-109980469D01*
X147530469Y-109915212D01*
X147576614Y-109835288D01*
X147600500Y-109746144D01*
X147600500Y-109653856D01*
X147576614Y-109564712D01*
X147570671Y-109554418D01*
X147554196Y-109486518D01*
X147577047Y-109420491D01*
X147631967Y-109377299D01*
X147701520Y-109370655D01*
X147760587Y-109401105D01*
X147760597Y-109401093D01*
X147760664Y-109401144D01*
X147763623Y-109402670D01*
X147765737Y-109404734D01*
X147767043Y-109406040D01*
X147767046Y-109406041D01*
X147767049Y-109406044D01*
X147846961Y-109452182D01*
X147846962Y-109452182D01*
X147846967Y-109452185D01*
X147936111Y-109476071D01*
X147936113Y-109476071D01*
X148028397Y-109476071D01*
X148028399Y-109476071D01*
X148117543Y-109452185D01*
X148197467Y-109406040D01*
X148262724Y-109340783D01*
X148308869Y-109260859D01*
X148332755Y-109171715D01*
X148332755Y-109079427D01*
X148308869Y-108990283D01*
X148302271Y-108978856D01*
X151924500Y-108978856D01*
X151924500Y-109071144D01*
X151942365Y-109137819D01*
X151948387Y-109160290D01*
X151948388Y-109160293D01*
X151994526Y-109240205D01*
X151994529Y-109240209D01*
X151994531Y-109240212D01*
X152059788Y-109305469D01*
X152059791Y-109305470D01*
X152059794Y-109305473D01*
X152139706Y-109351611D01*
X152139707Y-109351611D01*
X152139712Y-109351614D01*
X152228856Y-109375500D01*
X152228858Y-109375500D01*
X152321142Y-109375500D01*
X152321144Y-109375500D01*
X152410288Y-109351614D01*
X152490212Y-109305469D01*
X152555469Y-109240212D01*
X152601614Y-109160288D01*
X152625500Y-109071144D01*
X152625500Y-108978856D01*
X154424500Y-108978856D01*
X154424500Y-109071144D01*
X154442365Y-109137819D01*
X154448387Y-109160290D01*
X154448388Y-109160293D01*
X154494526Y-109240205D01*
X154494529Y-109240209D01*
X154494531Y-109240212D01*
X154559788Y-109305469D01*
X154559791Y-109305470D01*
X154559794Y-109305473D01*
X154639706Y-109351611D01*
X154639707Y-109351611D01*
X154639712Y-109351614D01*
X154728856Y-109375500D01*
X154728858Y-109375500D01*
X154821142Y-109375500D01*
X154821144Y-109375500D01*
X154910288Y-109351614D01*
X154990212Y-109305469D01*
X155055469Y-109240212D01*
X155101614Y-109160288D01*
X155125500Y-109071144D01*
X155125500Y-108978856D01*
X155101614Y-108889712D01*
X155080555Y-108853237D01*
X155055473Y-108809794D01*
X155055470Y-108809791D01*
X155055469Y-108809788D01*
X154990212Y-108744531D01*
X154990209Y-108744529D01*
X154990205Y-108744526D01*
X154910293Y-108698388D01*
X154910290Y-108698387D01*
X154910289Y-108698386D01*
X154910288Y-108698386D01*
X154821144Y-108674500D01*
X154728856Y-108674500D01*
X154639712Y-108698386D01*
X154639711Y-108698386D01*
X154639709Y-108698387D01*
X154639706Y-108698388D01*
X154559794Y-108744526D01*
X154559785Y-108744533D01*
X154494533Y-108809785D01*
X154494526Y-108809794D01*
X154448388Y-108889706D01*
X154448387Y-108889709D01*
X154448386Y-108889711D01*
X154448386Y-108889712D01*
X154424500Y-108978856D01*
X152625500Y-108978856D01*
X152601614Y-108889712D01*
X152580555Y-108853237D01*
X152555473Y-108809794D01*
X152555470Y-108809791D01*
X152555469Y-108809788D01*
X152490212Y-108744531D01*
X152490209Y-108744529D01*
X152490205Y-108744526D01*
X152410293Y-108698388D01*
X152410290Y-108698387D01*
X152410289Y-108698386D01*
X152410288Y-108698386D01*
X152321144Y-108674500D01*
X152228856Y-108674500D01*
X152139712Y-108698386D01*
X152139711Y-108698386D01*
X152139709Y-108698387D01*
X152139706Y-108698388D01*
X152059794Y-108744526D01*
X152059785Y-108744533D01*
X151994533Y-108809785D01*
X151994526Y-108809794D01*
X151948388Y-108889706D01*
X151948387Y-108889709D01*
X151948386Y-108889711D01*
X151948386Y-108889712D01*
X151924500Y-108978856D01*
X148302271Y-108978856D01*
X148262724Y-108910359D01*
X148262327Y-108909962D01*
X148259596Y-108904560D01*
X148255938Y-108884744D01*
X148246255Y-108848608D01*
X148246255Y-108189559D01*
X148246254Y-108189555D01*
X148219307Y-108124500D01*
X148219306Y-108124498D01*
X148206064Y-108092527D01*
X147720628Y-107607092D01*
X147623597Y-107566900D01*
X147026402Y-107566900D01*
X146997984Y-107578669D01*
X146997982Y-107578671D01*
X146963676Y-107592881D01*
X146929368Y-107607092D01*
X146929368Y-107607093D01*
X144437781Y-110098680D01*
X144376458Y-110132165D01*
X144306766Y-110127181D01*
X144250833Y-110085309D01*
X144226416Y-110019845D01*
X144226100Y-110010999D01*
X144226100Y-107078856D01*
X151924500Y-107078856D01*
X151924500Y-107171143D01*
X151948387Y-107260290D01*
X151948388Y-107260293D01*
X151994526Y-107340205D01*
X151994529Y-107340209D01*
X151994531Y-107340212D01*
X152059788Y-107405469D01*
X152059791Y-107405470D01*
X152059794Y-107405473D01*
X152139706Y-107451611D01*
X152139707Y-107451611D01*
X152139712Y-107451614D01*
X152228856Y-107475500D01*
X152228858Y-107475500D01*
X152321142Y-107475500D01*
X152321144Y-107475500D01*
X152410288Y-107451614D01*
X152490212Y-107405469D01*
X152555469Y-107340212D01*
X152601614Y-107260288D01*
X152625500Y-107171144D01*
X152625500Y-107078856D01*
X154424500Y-107078856D01*
X154424500Y-107171143D01*
X154448387Y-107260290D01*
X154448388Y-107260293D01*
X154494526Y-107340205D01*
X154494529Y-107340209D01*
X154494531Y-107340212D01*
X154559788Y-107405469D01*
X154559791Y-107405470D01*
X154559794Y-107405473D01*
X154639706Y-107451611D01*
X154639707Y-107451611D01*
X154639712Y-107451614D01*
X154728856Y-107475500D01*
X154728858Y-107475500D01*
X154821142Y-107475500D01*
X154821144Y-107475500D01*
X154910288Y-107451614D01*
X154990212Y-107405469D01*
X155055469Y-107340212D01*
X155101614Y-107260288D01*
X155125500Y-107171144D01*
X155125500Y-107078856D01*
X155101614Y-106989712D01*
X155101611Y-106989706D01*
X155055473Y-106909794D01*
X155055470Y-106909791D01*
X155055469Y-106909788D01*
X154990212Y-106844531D01*
X154990209Y-106844529D01*
X154990205Y-106844526D01*
X154910293Y-106798388D01*
X154910290Y-106798387D01*
X154910289Y-106798386D01*
X154910288Y-106798386D01*
X154821144Y-106774500D01*
X154728856Y-106774500D01*
X154639712Y-106798386D01*
X154639711Y-106798386D01*
X154639709Y-106798387D01*
X154639706Y-106798388D01*
X154559794Y-106844526D01*
X154559785Y-106844533D01*
X154494533Y-106909785D01*
X154494526Y-106909794D01*
X154448388Y-106989706D01*
X154448387Y-106989709D01*
X154424500Y-107078856D01*
X152625500Y-107078856D01*
X152601614Y-106989712D01*
X152601611Y-106989706D01*
X152555473Y-106909794D01*
X152555470Y-106909791D01*
X152555469Y-106909788D01*
X152490212Y-106844531D01*
X152490209Y-106844529D01*
X152490205Y-106844526D01*
X152410293Y-106798388D01*
X152410290Y-106798387D01*
X152410289Y-106798386D01*
X152410288Y-106798386D01*
X152321144Y-106774500D01*
X152228856Y-106774500D01*
X152139712Y-106798386D01*
X152139711Y-106798386D01*
X152139709Y-106798387D01*
X152139706Y-106798388D01*
X152059794Y-106844526D01*
X152059785Y-106844533D01*
X151994533Y-106909785D01*
X151994526Y-106909794D01*
X151948388Y-106989706D01*
X151948387Y-106989709D01*
X151924500Y-107078856D01*
X144226100Y-107078856D01*
X144226100Y-105031168D01*
X144245785Y-104964129D01*
X144262419Y-104943487D01*
X145172298Y-104033608D01*
X146123808Y-103082098D01*
X146164000Y-102985067D01*
X146164000Y-101476962D01*
X146180614Y-101414960D01*
X146226613Y-101335290D01*
X146226614Y-101335288D01*
X146250500Y-101246144D01*
X146250500Y-101153856D01*
X146226614Y-101064712D01*
X146226611Y-101064706D01*
X146180473Y-100984794D01*
X146180470Y-100984791D01*
X146180469Y-100984788D01*
X146115212Y-100919531D01*
X146115209Y-100919529D01*
X146115205Y-100919526D01*
X146035293Y-100873388D01*
X146035290Y-100873387D01*
X146035289Y-100873386D01*
X146035288Y-100873386D01*
X145946144Y-100849500D01*
X145853856Y-100849500D01*
X145764712Y-100873386D01*
X145764711Y-100873386D01*
X145764709Y-100873387D01*
X145764706Y-100873388D01*
X145684794Y-100919526D01*
X145684785Y-100919533D01*
X145619533Y-100984785D01*
X145619526Y-100984794D01*
X145573388Y-101064706D01*
X145573387Y-101064709D01*
X145549500Y-101153856D01*
X145549500Y-101246143D01*
X145573386Y-101335290D01*
X145619386Y-101414960D01*
X145636000Y-101476962D01*
X145636000Y-102771840D01*
X145616315Y-102838879D01*
X145599681Y-102859521D01*
X143738293Y-104720908D01*
X143698100Y-104817940D01*
X143698100Y-112900983D01*
X143678415Y-112968022D01*
X143625611Y-113013777D01*
X143556453Y-113023721D01*
X143492897Y-112994696D01*
X143486419Y-112988664D01*
X143404697Y-112906942D01*
X143404695Y-112906940D01*
X143391568Y-112899361D01*
X143391567Y-112899360D01*
X143336175Y-112867380D01*
X143336174Y-112867379D01*
X143307321Y-112859648D01*
X143259746Y-112846900D01*
X143259744Y-112846900D01*
X138622709Y-112846900D01*
X138555670Y-112827215D01*
X138509915Y-112774411D01*
X138498709Y-112723161D01*
X138498000Y-112386375D01*
X138498000Y-111625004D01*
X138497999Y-111624993D01*
X138497438Y-111619533D01*
X138487061Y-111518593D01*
X138439364Y-111384386D01*
X138407511Y-111339261D01*
X138357228Y-111268025D01*
X138357227Y-111268024D01*
X138246742Y-111178138D01*
X138116104Y-111121394D01*
X137975001Y-111102000D01*
X137975000Y-111102000D01*
X137213000Y-111102000D01*
X137212993Y-111102000D01*
X137106590Y-111112939D01*
X136972388Y-111160634D01*
X136972385Y-111160636D01*
X136856025Y-111242771D01*
X136856024Y-111242772D01*
X136766138Y-111353257D01*
X136709394Y-111483894D01*
X136709394Y-111483896D01*
X136690000Y-111625000D01*
X136690000Y-112387000D01*
X136702994Y-112495205D01*
X136704870Y-112510829D01*
X136757119Y-112643324D01*
X136757121Y-112643327D01*
X136757122Y-112643328D01*
X136843183Y-112756817D01*
X136843187Y-112756821D01*
X136843191Y-112756826D01*
X137605168Y-113518803D01*
X137605180Y-113518814D01*
X137605183Y-113518817D01*
X137628754Y-113537993D01*
X137668335Y-113595567D01*
X137674500Y-113634181D01*
X137674500Y-115566267D01*
X137654815Y-115633306D01*
X137638181Y-115653948D01*
X136329541Y-116962587D01*
X136329535Y-116962595D01*
X136289982Y-117031104D01*
X136289979Y-117031109D01*
X136279361Y-117070736D01*
X136269500Y-117107538D01*
X136269500Y-124935688D01*
X136289979Y-125012115D01*
X136321126Y-125066063D01*
X136329540Y-125080637D01*
X136329543Y-125080641D01*
X136685863Y-125436960D01*
X137023414Y-125774511D01*
X137079363Y-125830460D01*
X137079365Y-125830461D01*
X137079369Y-125830464D01*
X137103738Y-125844533D01*
X137147885Y-125870021D01*
X137224312Y-125890500D01*
X137224314Y-125890500D01*
X138779560Y-125890500D01*
X138779562Y-125890500D01*
X138855989Y-125870021D01*
X138924511Y-125830460D01*
X138980460Y-125774511D01*
X139173060Y-125581911D01*
X139212622Y-125513388D01*
X139233100Y-125436962D01*
X139233100Y-125357838D01*
X139233100Y-123153038D01*
X139212621Y-123076611D01*
X139184066Y-123027152D01*
X139173064Y-123008095D01*
X139173058Y-123008087D01*
X138881420Y-122716449D01*
X138847935Y-122655126D01*
X138845101Y-122628768D01*
X138845101Y-119550435D01*
X138864786Y-119483396D01*
X138881420Y-119462754D01*
X139401755Y-118942419D01*
X139463078Y-118908934D01*
X139489436Y-118906100D01*
X142727908Y-118906100D01*
X142794947Y-118925785D01*
X142815589Y-118942419D01*
X142857681Y-118984511D01*
X142913630Y-119040460D01*
X142913632Y-119040461D01*
X142913636Y-119040464D01*
X142975989Y-119076463D01*
X142982152Y-119080021D01*
X143058579Y-119100500D01*
X143137703Y-119100500D01*
X143296255Y-119100500D01*
X143358256Y-119117113D01*
X143374708Y-119126612D01*
X143374712Y-119126614D01*
X143463856Y-119150500D01*
X143463858Y-119150500D01*
X143556142Y-119150500D01*
X143556144Y-119150500D01*
X143645288Y-119126614D01*
X143690518Y-119100500D01*
X143724962Y-119080614D01*
X143740449Y-119076463D01*
X143752028Y-119069023D01*
X143786963Y-119064000D01*
X143811605Y-119064000D01*
X143878644Y-119083685D01*
X143899285Y-119100318D01*
X144418375Y-119619409D01*
X144486986Y-119647828D01*
X144515406Y-119659600D01*
X144515407Y-119659600D01*
X144620432Y-119659600D01*
X145633785Y-119659600D01*
X145700676Y-119679189D01*
X145711974Y-119686427D01*
X145750456Y-119724909D01*
X145801349Y-119745989D01*
X145847487Y-119765100D01*
X145847488Y-119765100D01*
X145847489Y-119765100D01*
X147451412Y-119765100D01*
X147451413Y-119765100D01*
X147548444Y-119724908D01*
X147748033Y-119525319D01*
X147809356Y-119491834D01*
X147835714Y-119489000D01*
X148545422Y-119489000D01*
X148612461Y-119508685D01*
X148633103Y-119525319D01*
X149186281Y-120078497D01*
X149200984Y-120105424D01*
X149217577Y-120131243D01*
X149218468Y-120137443D01*
X149219766Y-120139820D01*
X149222600Y-120166178D01*
X149222600Y-120375078D01*
X149205987Y-120437078D01*
X149178487Y-120484708D01*
X149178487Y-120484709D01*
X149178486Y-120484711D01*
X149178486Y-120484712D01*
X149154600Y-120573856D01*
X149154600Y-120666144D01*
X149172836Y-120734205D01*
X149171174Y-120804053D01*
X149132012Y-120861916D01*
X149067783Y-120889420D01*
X149020969Y-120886072D01*
X149006143Y-120882099D01*
X148962853Y-120870500D01*
X148856347Y-120870500D01*
X148753469Y-120898066D01*
X148753468Y-120898066D01*
X148753466Y-120898067D01*
X148753465Y-120898067D01*
X148721600Y-120916465D01*
X148653700Y-120932938D01*
X148597600Y-120916465D01*
X148565734Y-120898067D01*
X148565731Y-120898066D01*
X148462853Y-120870500D01*
X148356347Y-120870500D01*
X148253468Y-120898066D01*
X148161231Y-120951320D01*
X148161228Y-120951322D01*
X148085922Y-121026628D01*
X148085920Y-121026631D01*
X148032666Y-121118868D01*
X148015380Y-121183380D01*
X148005100Y-121221747D01*
X148005100Y-121328253D01*
X148032666Y-121431131D01*
X148085920Y-121523369D01*
X148161231Y-121598680D01*
X148253469Y-121651934D01*
X148356347Y-121679500D01*
X148356349Y-121679500D01*
X148462851Y-121679500D01*
X148462853Y-121679500D01*
X148565731Y-121651934D01*
X148597599Y-121633534D01*
X148665498Y-121617061D01*
X148721600Y-121633534D01*
X148753469Y-121651934D01*
X148856347Y-121679500D01*
X148856349Y-121679500D01*
X148962851Y-121679500D01*
X148962853Y-121679500D01*
X149065731Y-121651934D01*
X149157969Y-121598680D01*
X149233280Y-121523369D01*
X149286534Y-121431131D01*
X149314100Y-121328253D01*
X149314100Y-121221747D01*
X149286534Y-121118869D01*
X149286531Y-121118865D01*
X149285953Y-121116705D01*
X149287616Y-121046855D01*
X149326778Y-120988992D01*
X149391006Y-120961488D01*
X149437820Y-120964836D01*
X149458956Y-120970500D01*
X149458958Y-120970500D01*
X149551242Y-120970500D01*
X149551244Y-120970500D01*
X149640388Y-120946614D01*
X149640388Y-120946613D01*
X149648240Y-120944510D01*
X149648951Y-120947165D01*
X149705038Y-120941117D01*
X149767528Y-120972372D01*
X149770742Y-120975473D01*
X150419692Y-121624423D01*
X150493956Y-121698687D01*
X150590987Y-121738879D01*
X150590988Y-121738879D01*
X151352633Y-121738879D01*
X151352634Y-121738879D01*
X151449665Y-121698687D01*
X151840834Y-121307517D01*
X151896416Y-121275426D01*
X151985288Y-121251614D01*
X152065212Y-121205469D01*
X152130469Y-121140212D01*
X152139661Y-121124290D01*
X152190224Y-121076075D01*
X152258830Y-121062850D01*
X152323696Y-121088816D01*
X152334729Y-121098608D01*
X155309181Y-124073060D01*
X155323884Y-124099987D01*
X155340477Y-124125806D01*
X155341368Y-124132006D01*
X155342666Y-124134383D01*
X155345500Y-124160741D01*
X155345500Y-124273500D01*
X155325815Y-124340539D01*
X155273011Y-124386294D01*
X155221500Y-124397500D01*
X155177005Y-124397500D01*
X155041677Y-124424418D01*
X155041667Y-124424421D01*
X154914195Y-124477221D01*
X154914182Y-124477228D01*
X154799458Y-124553885D01*
X154799454Y-124553888D01*
X154701888Y-124651454D01*
X154701885Y-124651458D01*
X154625228Y-124766182D01*
X154625221Y-124766195D01*
X154572421Y-124893667D01*
X154572418Y-124893677D01*
X154545500Y-125029004D01*
X154545500Y-125029007D01*
X154545500Y-125741993D01*
X154545500Y-125741995D01*
X154545499Y-125741995D01*
X154572418Y-125877322D01*
X154572421Y-125877332D01*
X154625221Y-126004804D01*
X154625228Y-126004817D01*
X154701885Y-126119541D01*
X154701888Y-126119545D01*
X154799454Y-126217111D01*
X154799458Y-126217114D01*
X154914182Y-126293771D01*
X154914195Y-126293778D01*
X155026281Y-126340205D01*
X155041672Y-126346580D01*
X155041676Y-126346580D01*
X155041677Y-126346581D01*
X155177004Y-126373500D01*
X155177007Y-126373500D01*
X155314993Y-126373500D01*
X155646301Y-126373500D01*
X155713340Y-126393185D01*
X155759095Y-126445989D01*
X155769039Y-126515147D01*
X155754511Y-126558053D01*
X155679416Y-126692248D01*
X155654789Y-126761842D01*
X155644124Y-126791983D01*
X155643988Y-126792366D01*
X155603066Y-126848999D01*
X155538023Y-126874517D01*
X155527091Y-126875000D01*
X154375810Y-126875000D01*
X154374220Y-126874990D01*
X152468806Y-126850561D01*
X152402025Y-126830018D01*
X152395676Y-126825530D01*
X152351253Y-126791983D01*
X152323266Y-126770848D01*
X152323258Y-126770843D01*
X152142740Y-126680956D01*
X152142737Y-126680955D01*
X151948766Y-126625766D01*
X151948763Y-126625765D01*
X151948761Y-126625765D01*
X151747958Y-126607158D01*
X151747956Y-126607158D01*
X151547152Y-126625765D01*
X151547148Y-126625765D01*
X151547148Y-126625766D01*
X151450162Y-126653360D01*
X151353173Y-126680956D01*
X151172649Y-126770847D01*
X151011711Y-126892381D01*
X150875851Y-127041414D01*
X150769685Y-127212877D01*
X150769684Y-127212879D01*
X150719946Y-127341270D01*
X150696834Y-127400930D01*
X150659777Y-127599165D01*
X150659777Y-127599167D01*
X150659777Y-129987820D01*
X150640092Y-130054859D01*
X150587288Y-130100614D01*
X150535777Y-130111820D01*
X141242180Y-130111820D01*
X141175141Y-130092135D01*
X141129386Y-130039331D01*
X141118180Y-129987820D01*
X141118180Y-127599166D01*
X141118180Y-127599165D01*
X141082965Y-127410784D01*
X141089996Y-127341270D01*
X141133494Y-127286591D01*
X141199647Y-127264109D01*
X141204854Y-127264000D01*
X144402512Y-127264000D01*
X144402513Y-127264000D01*
X144499544Y-127223808D01*
X145215835Y-126507517D01*
X145271418Y-126475426D01*
X145360288Y-126451614D01*
X145440212Y-126405469D01*
X145505469Y-126340212D01*
X145551614Y-126260288D01*
X145575500Y-126171144D01*
X145575500Y-126078856D01*
X145551614Y-125989712D01*
X145551611Y-125989706D01*
X145505473Y-125909794D01*
X145505470Y-125909791D01*
X145505469Y-125909788D01*
X145440212Y-125844531D01*
X145440209Y-125844529D01*
X145440205Y-125844526D01*
X145360293Y-125798388D01*
X145360290Y-125798387D01*
X145360289Y-125798386D01*
X145360288Y-125798386D01*
X145271144Y-125774500D01*
X145178856Y-125774500D01*
X145089712Y-125798386D01*
X145089711Y-125798386D01*
X145089709Y-125798387D01*
X145089706Y-125798388D01*
X145009794Y-125844526D01*
X145009785Y-125844533D01*
X144944533Y-125909785D01*
X144944526Y-125909794D01*
X144898388Y-125989706D01*
X144898387Y-125989707D01*
X144874574Y-126078579D01*
X144842480Y-126134166D01*
X144276967Y-126699681D01*
X144215644Y-126733166D01*
X144189286Y-126736000D01*
X142656088Y-126736000D01*
X142589049Y-126716315D01*
X142543294Y-126663511D01*
X142533350Y-126594353D01*
X142548700Y-126550001D01*
X142550933Y-126546133D01*
X142550934Y-126546131D01*
X142578500Y-126443253D01*
X142578500Y-126336747D01*
X142550934Y-126233869D01*
X142497680Y-126141631D01*
X142422369Y-126066320D01*
X142330131Y-126013066D01*
X142227253Y-125985500D01*
X142120747Y-125985500D01*
X142017869Y-126013066D01*
X142017868Y-126013066D01*
X142017866Y-126013067D01*
X142017865Y-126013067D01*
X141986000Y-126031465D01*
X141918100Y-126047938D01*
X141862000Y-126031465D01*
X141830134Y-126013067D01*
X141830131Y-126013066D01*
X141727253Y-125985500D01*
X141620747Y-125985500D01*
X141517868Y-126013066D01*
X141425631Y-126066320D01*
X141425628Y-126066322D01*
X141350322Y-126141628D01*
X141350320Y-126141631D01*
X141297066Y-126233868D01*
X141289986Y-126260293D01*
X141269500Y-126336747D01*
X141269500Y-126443253D01*
X141278120Y-126475425D01*
X141297066Y-126546133D01*
X141299300Y-126550001D01*
X141300731Y-126555902D01*
X141304706Y-126560489D01*
X141308871Y-126589459D01*
X141315771Y-126617902D01*
X141313785Y-126623637D01*
X141314650Y-126629647D01*
X141302491Y-126656270D01*
X141292919Y-126683928D01*
X141288146Y-126687680D01*
X141285625Y-126693203D01*
X141261002Y-126709026D01*
X141237997Y-126727118D01*
X141230647Y-126728534D01*
X141226847Y-126730977D01*
X141191912Y-126736000D01*
X141167234Y-126736000D01*
X141100195Y-126716315D01*
X141079553Y-126699681D01*
X140825319Y-126445447D01*
X140791834Y-126384124D01*
X140789000Y-126357766D01*
X140789000Y-125296559D01*
X142999015Y-125296559D01*
X142999015Y-125403065D01*
X143026581Y-125505943D01*
X143079835Y-125598181D01*
X143155146Y-125673492D01*
X143247384Y-125726746D01*
X143350262Y-125754312D01*
X143350264Y-125754312D01*
X143456766Y-125754312D01*
X143456768Y-125754312D01*
X143559646Y-125726746D01*
X143591514Y-125708346D01*
X143659413Y-125691873D01*
X143715515Y-125708346D01*
X143747384Y-125726746D01*
X143850262Y-125754312D01*
X143850264Y-125754312D01*
X143956766Y-125754312D01*
X143956768Y-125754312D01*
X144059646Y-125726746D01*
X144151884Y-125673492D01*
X144227195Y-125598181D01*
X144280449Y-125505943D01*
X144308015Y-125403065D01*
X144308015Y-125296559D01*
X144280449Y-125193681D01*
X144227195Y-125101443D01*
X144151884Y-125026132D01*
X144059646Y-124972878D01*
X143956768Y-124945312D01*
X143850262Y-124945312D01*
X143747384Y-124972878D01*
X143747383Y-124972878D01*
X143747381Y-124972879D01*
X143747380Y-124972879D01*
X143715515Y-124991277D01*
X143647615Y-125007750D01*
X143591515Y-124991277D01*
X143559649Y-124972879D01*
X143559646Y-124972878D01*
X143456768Y-124945312D01*
X143350262Y-124945312D01*
X143247383Y-124972878D01*
X143155146Y-125026132D01*
X143155143Y-125026134D01*
X143079837Y-125101440D01*
X143079835Y-125101443D01*
X143026581Y-125193680D01*
X143026581Y-125193681D01*
X142999015Y-125296559D01*
X140789000Y-125296559D01*
X140789000Y-121221747D01*
X145801100Y-121221747D01*
X145801100Y-121328253D01*
X145828666Y-121431131D01*
X145881920Y-121523369D01*
X145957231Y-121598680D01*
X146049469Y-121651934D01*
X146152347Y-121679500D01*
X146152349Y-121679500D01*
X146258851Y-121679500D01*
X146258853Y-121679500D01*
X146361731Y-121651934D01*
X146393599Y-121633534D01*
X146461498Y-121617061D01*
X146517600Y-121633534D01*
X146549469Y-121651934D01*
X146652347Y-121679500D01*
X146652349Y-121679500D01*
X146758851Y-121679500D01*
X146758853Y-121679500D01*
X146861731Y-121651934D01*
X146953969Y-121598680D01*
X147029280Y-121523369D01*
X147082534Y-121431131D01*
X147110100Y-121328253D01*
X147110100Y-121221747D01*
X147082534Y-121118869D01*
X147046293Y-121056099D01*
X147029821Y-120988201D01*
X147052673Y-120922174D01*
X147100988Y-120883715D01*
X147100590Y-120883025D01*
X147105201Y-120880362D01*
X147106246Y-120879531D01*
X147107616Y-120878963D01*
X147107629Y-120878960D01*
X147107639Y-120878953D01*
X147107644Y-120878952D01*
X147187546Y-120832819D01*
X147187545Y-120832819D01*
X147187553Y-120832815D01*
X147252810Y-120767558D01*
X147298955Y-120687634D01*
X147322841Y-120598490D01*
X147322841Y-120506202D01*
X147298955Y-120417058D01*
X147298952Y-120417052D01*
X147252814Y-120337140D01*
X147252811Y-120337137D01*
X147252810Y-120337134D01*
X147187553Y-120271877D01*
X147187550Y-120271875D01*
X147187546Y-120271872D01*
X147107634Y-120225734D01*
X147107631Y-120225733D01*
X147107630Y-120225732D01*
X147107629Y-120225732D01*
X147018485Y-120201846D01*
X146926197Y-120201846D01*
X146837053Y-120225732D01*
X146837052Y-120225732D01*
X146837050Y-120225733D01*
X146837047Y-120225734D01*
X146757135Y-120271872D01*
X146757126Y-120271879D01*
X146691874Y-120337131D01*
X146691867Y-120337140D01*
X146645729Y-120417052D01*
X146645728Y-120417055D01*
X146645727Y-120417057D01*
X146645727Y-120417058D01*
X146621841Y-120506202D01*
X146621841Y-120598490D01*
X146629539Y-120627218D01*
X146645727Y-120687635D01*
X146657247Y-120707588D01*
X146661221Y-120723972D01*
X146669882Y-120738435D01*
X146669287Y-120757219D01*
X146673719Y-120775488D01*
X146668204Y-120791420D01*
X146667671Y-120808270D01*
X146657013Y-120823752D01*
X146650866Y-120841515D01*
X146637350Y-120852319D01*
X146628055Y-120865823D01*
X146607026Y-120876559D01*
X146597775Y-120883955D01*
X146590044Y-120887193D01*
X146549469Y-120898066D01*
X146510783Y-120920401D01*
X146503516Y-120923446D01*
X146476308Y-120926482D01*
X146449700Y-120932938D01*
X146441098Y-120930412D01*
X146434077Y-120931196D01*
X146419982Y-120924211D01*
X146393600Y-120916465D01*
X146361734Y-120898067D01*
X146361731Y-120898066D01*
X146258853Y-120870500D01*
X146152347Y-120870500D01*
X146049468Y-120898066D01*
X145957231Y-120951320D01*
X145957228Y-120951322D01*
X145881922Y-121026628D01*
X145881920Y-121026631D01*
X145828666Y-121118868D01*
X145811380Y-121183380D01*
X145801100Y-121221747D01*
X140789000Y-121221747D01*
X140789000Y-120485714D01*
X140808685Y-120418675D01*
X140825319Y-120398033D01*
X141313034Y-119910319D01*
X141374357Y-119876834D01*
X141400715Y-119874000D01*
X142774286Y-119874000D01*
X142803726Y-119882644D01*
X142833713Y-119889168D01*
X142838728Y-119892922D01*
X142841325Y-119893685D01*
X142861967Y-119910319D01*
X143024900Y-120073252D01*
X143056994Y-120128839D01*
X143080807Y-120217712D01*
X143080808Y-120217713D01*
X143126946Y-120297625D01*
X143126949Y-120297629D01*
X143126951Y-120297632D01*
X143192208Y-120362889D01*
X143192211Y-120362890D01*
X143192214Y-120362893D01*
X143272126Y-120409031D01*
X143272127Y-120409031D01*
X143272132Y-120409034D01*
X143361276Y-120432920D01*
X143361278Y-120432920D01*
X143453562Y-120432920D01*
X143453564Y-120432920D01*
X143542708Y-120409034D01*
X143622632Y-120362889D01*
X143687889Y-120297632D01*
X143734034Y-120217708D01*
X143757920Y-120128564D01*
X143757920Y-120036276D01*
X143734034Y-119947132D01*
X143734031Y-119947126D01*
X143687893Y-119867214D01*
X143687890Y-119867211D01*
X143687889Y-119867208D01*
X143622632Y-119801951D01*
X143622629Y-119801949D01*
X143622625Y-119801946D01*
X143542713Y-119755808D01*
X143542712Y-119755807D01*
X143453840Y-119731994D01*
X143398253Y-119699900D01*
X143084545Y-119386193D01*
X143084544Y-119386192D01*
X142987513Y-119346000D01*
X141187487Y-119346000D01*
X141187484Y-119346000D01*
X141174073Y-119351556D01*
X141174072Y-119351556D01*
X141090461Y-119386188D01*
X141090453Y-119386193D01*
X140375456Y-120101192D01*
X140301193Y-120175454D01*
X140261000Y-120272486D01*
X140261000Y-126492541D01*
X140241315Y-126559580D01*
X140188511Y-126605335D01*
X140125560Y-126616012D01*
X140030002Y-126607158D01*
X140029999Y-126607158D01*
X139829195Y-126625765D01*
X139635221Y-126680954D01*
X139635220Y-126680955D01*
X139498864Y-126748851D01*
X139442184Y-126761842D01*
X136725683Y-126730973D01*
X136658872Y-126710528D01*
X136616864Y-126660920D01*
X136615809Y-126661450D01*
X136613440Y-126656734D01*
X136613155Y-126656270D01*
X136525610Y-126513620D01*
X136525609Y-126513619D01*
X136525608Y-126513617D01*
X136414826Y-126387434D01*
X136284278Y-126281814D01*
X136168656Y-126217114D01*
X136137750Y-126199819D01*
X136056715Y-126171143D01*
X135979445Y-126143799D01*
X135979446Y-126143799D01*
X135813959Y-126115384D01*
X135802160Y-126115382D01*
X135802154Y-126115382D01*
X135794298Y-126115380D01*
X135794270Y-126115373D01*
X135762152Y-126115373D01*
X135728077Y-126105359D01*
X135695141Y-126095688D01*
X135695131Y-126095677D01*
X135695117Y-126095673D01*
X135670762Y-126067553D01*
X135649386Y-126042884D01*
X135649382Y-126042869D01*
X135649374Y-126042859D01*
X135649361Y-126042770D01*
X135638180Y-125991373D01*
X135638180Y-104434108D01*
X138589500Y-104434108D01*
X138589500Y-104945891D01*
X138623608Y-105073187D01*
X138656554Y-105130250D01*
X138689500Y-105187314D01*
X138782686Y-105280500D01*
X138896814Y-105346392D01*
X139024108Y-105380500D01*
X139024110Y-105380500D01*
X139545890Y-105380500D01*
X139545892Y-105380500D01*
X139673186Y-105346392D01*
X139787314Y-105280500D01*
X139880500Y-105187314D01*
X139946392Y-105073186D01*
X139980500Y-104945892D01*
X139980500Y-104434108D01*
X139946392Y-104306814D01*
X139880500Y-104192686D01*
X139787314Y-104099500D01*
X139730250Y-104066554D01*
X139673187Y-104033608D01*
X139609539Y-104016554D01*
X139545892Y-103999500D01*
X139155892Y-103999500D01*
X139024108Y-103999500D01*
X138896812Y-104033608D01*
X138782686Y-104099500D01*
X138782683Y-104099502D01*
X138689502Y-104192683D01*
X138689500Y-104192686D01*
X138623608Y-104306812D01*
X138589500Y-104434108D01*
X135638180Y-104434108D01*
X135638180Y-89466384D01*
X135657865Y-89399345D01*
X135710669Y-89353590D01*
X135762180Y-89342384D01*
X135822707Y-89342384D01*
X135822708Y-89342383D01*
X135870243Y-89332928D01*
X135965312Y-89314018D01*
X135965315Y-89314016D01*
X135965320Y-89314016D01*
X136099660Y-89258371D01*
X136220563Y-89177586D01*
X136323383Y-89074766D01*
X136396899Y-88964742D01*
X136450511Y-88919937D01*
X136519836Y-88911230D01*
X136582863Y-88941384D01*
X136603103Y-88964742D01*
X136676618Y-89074765D01*
X136676621Y-89074769D01*
X136779435Y-89177583D01*
X136779439Y-89177586D01*
X136900335Y-89258367D01*
X136900348Y-89258374D01*
X137001097Y-89300104D01*
X137034682Y-89314016D01*
X137034684Y-89314016D01*
X137034689Y-89314018D01*
X137177292Y-89342383D01*
X137177295Y-89342384D01*
X137177297Y-89342384D01*
X137322707Y-89342384D01*
X137322708Y-89342383D01*
X137370243Y-89332928D01*
X137465312Y-89314018D01*
X137465315Y-89314016D01*
X137465320Y-89314016D01*
X137599660Y-89258371D01*
X137720563Y-89177586D01*
X137823383Y-89074766D01*
X137896899Y-88964742D01*
X137950511Y-88919937D01*
X138019836Y-88911230D01*
X138082863Y-88941384D01*
X138103103Y-88964742D01*
X138176618Y-89074765D01*
X138176621Y-89074769D01*
X138279435Y-89177583D01*
X138279439Y-89177586D01*
X138400335Y-89258367D01*
X138400348Y-89258374D01*
X138501097Y-89300104D01*
X138534682Y-89314016D01*
X138534684Y-89314016D01*
X138534689Y-89314018D01*
X138677292Y-89342383D01*
X138677295Y-89342384D01*
X138677297Y-89342384D01*
X138822707Y-89342384D01*
X138822708Y-89342383D01*
X138870243Y-89332928D01*
X138965312Y-89314018D01*
X138965315Y-89314016D01*
X138965320Y-89314016D01*
X139099660Y-89258371D01*
X139220563Y-89177586D01*
X139323383Y-89074766D01*
X139396899Y-88964742D01*
X139450511Y-88919937D01*
X139519836Y-88911230D01*
X139582863Y-88941384D01*
X139603103Y-88964742D01*
X139676618Y-89074765D01*
X139676621Y-89074769D01*
X139779435Y-89177583D01*
X139779439Y-89177586D01*
X139900335Y-89258367D01*
X139900348Y-89258374D01*
X140001097Y-89300104D01*
X140034682Y-89314016D01*
X140034684Y-89314016D01*
X140034689Y-89314018D01*
X140177292Y-89342383D01*
X140177295Y-89342384D01*
X140177297Y-89342384D01*
X140322707Y-89342384D01*
X140322708Y-89342383D01*
X140370243Y-89332928D01*
X140465312Y-89314018D01*
X140465315Y-89314016D01*
X140465320Y-89314016D01*
X140599660Y-89258371D01*
X140720563Y-89177586D01*
X140823383Y-89074766D01*
X140896899Y-88964742D01*
X140950511Y-88919937D01*
X141019836Y-88911230D01*
X141082863Y-88941384D01*
X141103103Y-88964742D01*
X141176618Y-89074765D01*
X141176621Y-89074769D01*
X141279435Y-89177583D01*
X141279439Y-89177586D01*
X141400335Y-89258367D01*
X141400348Y-89258374D01*
X141501097Y-89300104D01*
X141534682Y-89314016D01*
X141534684Y-89314016D01*
X141534689Y-89314018D01*
X141677292Y-89342383D01*
X141677295Y-89342384D01*
X141677297Y-89342384D01*
X141822707Y-89342384D01*
X141822708Y-89342383D01*
X141870243Y-89332928D01*
X141965312Y-89314018D01*
X141965315Y-89314016D01*
X141965320Y-89314016D01*
X142099660Y-89258371D01*
X142220563Y-89177586D01*
X142323383Y-89074766D01*
X142396899Y-88964742D01*
X142450511Y-88919937D01*
X142519836Y-88911230D01*
X142582863Y-88941384D01*
X142603103Y-88964742D01*
X142676618Y-89074765D01*
X142676621Y-89074769D01*
X142779435Y-89177583D01*
X142779439Y-89177586D01*
X142900335Y-89258367D01*
X142900348Y-89258374D01*
X143001097Y-89300104D01*
X143034682Y-89314016D01*
X143034684Y-89314016D01*
X143034689Y-89314018D01*
X143177292Y-89342383D01*
X143177295Y-89342384D01*
X143177297Y-89342384D01*
X143322707Y-89342384D01*
X143322708Y-89342383D01*
X143370243Y-89332928D01*
X143465312Y-89314018D01*
X143465315Y-89314016D01*
X143465320Y-89314016D01*
X143599660Y-89258371D01*
X143720563Y-89177586D01*
X143823383Y-89074766D01*
X143904168Y-88953863D01*
X143944497Y-88856497D01*
X143988336Y-88802097D01*
X144054629Y-88780031D01*
X144122329Y-88797309D01*
G37*
%TD.AperFunction*%
%TA.AperFunction,Conductor*%
G36*
X142265964Y-113467585D02*
G01*
X142311719Y-113520389D01*
X142321663Y-113589547D01*
X142292638Y-113653103D01*
X142286610Y-113659576D01*
X142091232Y-113854954D01*
X141900005Y-114046181D01*
X141838682Y-114079666D01*
X141812324Y-114082500D01*
X141641233Y-114082500D01*
X141494863Y-114121719D01*
X141363635Y-114197485D01*
X141363632Y-114197487D01*
X137082181Y-118478939D01*
X137020858Y-118512424D01*
X136951166Y-118507440D01*
X136895233Y-118465568D01*
X136870816Y-118400104D01*
X136870500Y-118391258D01*
X136870500Y-117322933D01*
X136890185Y-117255894D01*
X136906819Y-117235252D01*
X137555608Y-116586463D01*
X138215460Y-115926611D01*
X138231554Y-115898735D01*
X138255021Y-115858089D01*
X138275500Y-115781662D01*
X138275500Y-113632970D01*
X138284218Y-113603279D01*
X138290930Y-113573066D01*
X138294200Y-113569285D01*
X138295185Y-113565931D01*
X138312205Y-113544904D01*
X138318030Y-113539129D01*
X138344817Y-113518817D01*
X138346417Y-113517217D01*
X138368303Y-113489296D01*
X138373814Y-113483834D01*
X138398001Y-113470764D01*
X138420371Y-113454783D01*
X138430856Y-113453011D01*
X138435284Y-113450619D01*
X138441998Y-113451128D01*
X138461109Y-113447900D01*
X142198925Y-113447900D01*
X142265964Y-113467585D01*
G37*
%TD.AperFunction*%
%TA.AperFunction,Conductor*%
G36*
X146957774Y-115737499D02*
G01*
X147002121Y-115766000D01*
X148972907Y-117736786D01*
X149006392Y-117798109D01*
X149001408Y-117867801D01*
X148959536Y-117923734D01*
X148894072Y-117948151D01*
X148853134Y-117944242D01*
X148779454Y-117924500D01*
X148779453Y-117924500D01*
X148017853Y-117924500D01*
X147442853Y-117924500D01*
X146165365Y-117924500D01*
X146098326Y-117904815D01*
X146052571Y-117852011D01*
X146042627Y-117782853D01*
X146062264Y-117731608D01*
X146063310Y-117730042D01*
X146094159Y-117655563D01*
X146103500Y-117633012D01*
X146103500Y-117590212D01*
X146103500Y-116321506D01*
X146094572Y-116299954D01*
X146087104Y-116230485D01*
X146118378Y-116168006D01*
X146178467Y-116132353D01*
X146209134Y-116128501D01*
X146335835Y-116128501D01*
X146335836Y-116128501D01*
X146426998Y-116104073D01*
X146427001Y-116104073D01*
X146441865Y-116100090D01*
X146451431Y-116097527D01*
X146555070Y-116037691D01*
X146639691Y-115953070D01*
X146639691Y-115953068D01*
X146649895Y-115942865D01*
X146649899Y-115942860D01*
X146826759Y-115766000D01*
X146888082Y-115732515D01*
X146957774Y-115737499D01*
G37*
%TD.AperFunction*%
%TA.AperFunction,Conductor*%
G36*
X152341482Y-93859492D02*
G01*
X152413890Y-93984908D01*
X152516292Y-94087310D01*
X152641708Y-94159718D01*
X152683765Y-94170987D01*
X151984893Y-94869858D01*
X151988641Y-94917470D01*
X151988641Y-94936928D01*
X151984893Y-94984540D01*
X152683766Y-95683412D01*
X152641708Y-95694682D01*
X152516292Y-95767090D01*
X152413890Y-95869492D01*
X152341482Y-95994908D01*
X152330212Y-96036966D01*
X151631340Y-95338094D01*
X151571084Y-95421030D01*
X151515005Y-95531092D01*
X151467030Y-95581888D01*
X151399209Y-95598683D01*
X151333074Y-95576145D01*
X151304203Y-95547683D01*
X151229694Y-95445133D01*
X151229690Y-95445127D01*
X151096073Y-95311510D01*
X150943199Y-95200440D01*
X150903947Y-95180440D01*
X150774836Y-95114654D01*
X150622420Y-95065131D01*
X150564745Y-95025693D01*
X150537547Y-94961334D01*
X150549462Y-94892488D01*
X150596706Y-94841012D01*
X150622420Y-94829269D01*
X150656671Y-94818140D01*
X150774832Y-94779747D01*
X150943199Y-94693960D01*
X151096073Y-94582890D01*
X151229690Y-94449273D01*
X151316182Y-94330226D01*
X151371511Y-94287562D01*
X151441124Y-94281583D01*
X151502919Y-94314189D01*
X151526984Y-94346818D01*
X151571087Y-94433374D01*
X151631338Y-94516304D01*
X151631340Y-94516305D01*
X152330212Y-93817433D01*
X152341482Y-93859492D01*
G37*
%TD.AperFunction*%
%TA.AperFunction,Conductor*%
G36*
X154076658Y-94516305D02*
G01*
X154076658Y-94516304D01*
X154136914Y-94433369D01*
X154136921Y-94433359D01*
X154178760Y-94351244D01*
X154226733Y-94300448D01*
X154294554Y-94283652D01*
X154360689Y-94306189D01*
X154389562Y-94334652D01*
X154454553Y-94424102D01*
X154458310Y-94429273D01*
X154591927Y-94562890D01*
X154744801Y-94673960D01*
X154819681Y-94712113D01*
X154913163Y-94759745D01*
X154913165Y-94759745D01*
X154913168Y-94759747D01*
X155002734Y-94788849D01*
X155034803Y-94799269D01*
X155092478Y-94838707D01*
X155119676Y-94903066D01*
X155107761Y-94971912D01*
X155060516Y-95023388D01*
X155034803Y-95035131D01*
X154913163Y-95074654D01*
X154744800Y-95160440D01*
X154717273Y-95180440D01*
X154591927Y-95271510D01*
X154591925Y-95271512D01*
X154591924Y-95271512D01*
X154458312Y-95405124D01*
X154458305Y-95405133D01*
X154383573Y-95507991D01*
X154328243Y-95550657D01*
X154258630Y-95556635D01*
X154196835Y-95524028D01*
X154172771Y-95491400D01*
X154136914Y-95421028D01*
X154076658Y-95338094D01*
X154076658Y-95338093D01*
X153377787Y-96036965D01*
X153366518Y-95994908D01*
X153294110Y-95869492D01*
X153191708Y-95767090D01*
X153066292Y-95694682D01*
X153024234Y-95683412D01*
X153723104Y-94984541D01*
X153719357Y-94936929D01*
X153719357Y-94917469D01*
X153723104Y-94869857D01*
X153024233Y-94170987D01*
X153066292Y-94159718D01*
X153191708Y-94087310D01*
X153294110Y-93984908D01*
X153366518Y-93859492D01*
X153377787Y-93817434D01*
X154076658Y-94516305D01*
G37*
%TD.AperFunction*%
%TA.AperFunction,Conductor*%
G36*
X144122329Y-70797309D02*
G01*
X144169940Y-70848446D01*
X144181996Y-70887766D01*
X144195838Y-70992907D01*
X144263295Y-71244659D01*
X144363028Y-71485436D01*
X144363033Y-71485447D01*
X144493338Y-71711140D01*
X144493349Y-71711156D01*
X144651999Y-71917913D01*
X144652005Y-71917920D01*
X144836284Y-72102199D01*
X144836290Y-72102204D01*
X145043057Y-72260862D01*
X145043064Y-72260866D01*
X145268757Y-72391171D01*
X145268762Y-72391173D01*
X145268765Y-72391175D01*
X145509550Y-72490911D01*
X145761294Y-72558366D01*
X146019689Y-72592384D01*
X146019696Y-72592384D01*
X146280306Y-72592384D01*
X146280313Y-72592384D01*
X146538708Y-72558366D01*
X146790452Y-72490911D01*
X147031237Y-72391175D01*
X147256945Y-72260862D01*
X147463712Y-72102204D01*
X147648001Y-71917915D01*
X147806659Y-71711148D01*
X147936972Y-71485440D01*
X148036708Y-71244655D01*
X148104163Y-70992911D01*
X148118005Y-70887765D01*
X148119240Y-70884973D01*
X148118914Y-70881935D01*
X148133281Y-70853233D01*
X148146271Y-70823870D01*
X148148823Y-70822186D01*
X148150190Y-70819456D01*
X148177781Y-70803085D01*
X148204595Y-70785399D01*
X148207652Y-70785362D01*
X148210279Y-70783804D01*
X148242347Y-70784949D01*
X148274460Y-70784567D01*
X148277051Y-70786188D01*
X148280104Y-70786298D01*
X148306475Y-70804607D01*
X148333684Y-70821640D01*
X148335742Y-70824928D01*
X148337496Y-70826146D01*
X148355505Y-70856500D01*
X148395830Y-70953856D01*
X148395837Y-70953869D01*
X148476618Y-71074765D01*
X148476621Y-71074769D01*
X148579435Y-71177583D01*
X148579439Y-71177586D01*
X148700335Y-71258367D01*
X148700348Y-71258374D01*
X148801097Y-71300104D01*
X148834682Y-71314016D01*
X148834684Y-71314016D01*
X148834689Y-71314018D01*
X148977292Y-71342383D01*
X148977295Y-71342384D01*
X148977297Y-71342384D01*
X149122707Y-71342384D01*
X149122708Y-71342383D01*
X149170243Y-71332928D01*
X149265312Y-71314018D01*
X149265315Y-71314016D01*
X149265320Y-71314016D01*
X149399660Y-71258371D01*
X149520563Y-71177586D01*
X149623383Y-71074766D01*
X149696899Y-70964742D01*
X149750511Y-70919937D01*
X149819836Y-70911230D01*
X149882863Y-70941384D01*
X149903103Y-70964742D01*
X149976618Y-71074765D01*
X149976621Y-71074769D01*
X150079435Y-71177583D01*
X150079439Y-71177586D01*
X150200335Y-71258367D01*
X150200348Y-71258374D01*
X150301097Y-71300104D01*
X150334682Y-71314016D01*
X150334684Y-71314016D01*
X150334689Y-71314018D01*
X150477292Y-71342383D01*
X150477295Y-71342384D01*
X150477297Y-71342384D01*
X150622707Y-71342384D01*
X150622708Y-71342383D01*
X150670243Y-71332928D01*
X150765312Y-71314018D01*
X150765315Y-71314016D01*
X150765320Y-71314016D01*
X150899660Y-71258371D01*
X151020563Y-71177586D01*
X151123383Y-71074766D01*
X151196899Y-70964742D01*
X151250511Y-70919937D01*
X151319836Y-70911230D01*
X151382863Y-70941384D01*
X151403103Y-70964742D01*
X151476618Y-71074765D01*
X151476621Y-71074769D01*
X151579435Y-71177583D01*
X151579439Y-71177586D01*
X151700335Y-71258367D01*
X151700348Y-71258374D01*
X151801097Y-71300104D01*
X151834682Y-71314016D01*
X151834684Y-71314016D01*
X151834689Y-71314018D01*
X151977292Y-71342383D01*
X151977295Y-71342384D01*
X151977297Y-71342384D01*
X152122707Y-71342384D01*
X152122708Y-71342383D01*
X152170243Y-71332928D01*
X152265312Y-71314018D01*
X152265315Y-71314016D01*
X152265320Y-71314016D01*
X152399660Y-71258371D01*
X152520563Y-71177586D01*
X152623383Y-71074766D01*
X152696899Y-70964742D01*
X152750511Y-70919937D01*
X152819836Y-70911230D01*
X152882863Y-70941384D01*
X152903103Y-70964742D01*
X152976618Y-71074765D01*
X152976621Y-71074769D01*
X153079435Y-71177583D01*
X153079439Y-71177586D01*
X153200335Y-71258367D01*
X153200348Y-71258374D01*
X153301097Y-71300104D01*
X153334682Y-71314016D01*
X153334684Y-71314016D01*
X153334689Y-71314018D01*
X153477292Y-71342383D01*
X153477295Y-71342384D01*
X153477297Y-71342384D01*
X153622707Y-71342384D01*
X153622708Y-71342383D01*
X153670243Y-71332928D01*
X153765312Y-71314018D01*
X153765315Y-71314016D01*
X153765320Y-71314016D01*
X153899660Y-71258371D01*
X154020563Y-71177586D01*
X154123383Y-71074766D01*
X154196899Y-70964742D01*
X154250511Y-70919937D01*
X154319836Y-70911230D01*
X154382863Y-70941384D01*
X154403103Y-70964742D01*
X154476618Y-71074765D01*
X154476621Y-71074769D01*
X154579435Y-71177583D01*
X154579439Y-71177586D01*
X154700335Y-71258367D01*
X154700348Y-71258374D01*
X154801097Y-71300104D01*
X154834682Y-71314016D01*
X154834684Y-71314016D01*
X154834689Y-71314018D01*
X154977292Y-71342383D01*
X154977295Y-71342384D01*
X154977297Y-71342384D01*
X155122707Y-71342384D01*
X155122708Y-71342383D01*
X155170243Y-71332928D01*
X155265312Y-71314018D01*
X155265315Y-71314016D01*
X155265320Y-71314016D01*
X155399660Y-71258371D01*
X155520563Y-71177586D01*
X155623383Y-71074766D01*
X155696899Y-70964742D01*
X155750511Y-70919937D01*
X155819836Y-70911230D01*
X155882863Y-70941384D01*
X155903103Y-70964742D01*
X155976618Y-71074765D01*
X155976621Y-71074769D01*
X156079435Y-71177583D01*
X156079439Y-71177586D01*
X156200335Y-71258367D01*
X156200348Y-71258374D01*
X156301097Y-71300104D01*
X156334682Y-71314016D01*
X156334684Y-71314016D01*
X156334689Y-71314018D01*
X156477292Y-71342383D01*
X156477295Y-71342384D01*
X156537820Y-71342384D01*
X156604859Y-71362069D01*
X156650614Y-71414873D01*
X156661820Y-71466384D01*
X156661820Y-87742024D01*
X156642135Y-87809063D01*
X156589331Y-87854818D01*
X156537820Y-87866024D01*
X156477294Y-87866024D01*
X156334689Y-87894389D01*
X156334680Y-87894392D01*
X156200348Y-87950033D01*
X156200335Y-87950040D01*
X156079439Y-88030821D01*
X156079435Y-88030824D01*
X155976621Y-88133638D01*
X155976618Y-88133642D01*
X155903103Y-88243665D01*
X155849491Y-88288470D01*
X155780166Y-88297177D01*
X155717138Y-88267022D01*
X155696899Y-88243665D01*
X155623383Y-88133642D01*
X155623380Y-88133638D01*
X155520566Y-88030824D01*
X155520562Y-88030821D01*
X155399666Y-87950040D01*
X155399653Y-87950033D01*
X155265321Y-87894392D01*
X155265312Y-87894389D01*
X155122708Y-87866024D01*
X155122705Y-87866024D01*
X154977297Y-87866024D01*
X154977294Y-87866024D01*
X154834689Y-87894389D01*
X154834680Y-87894392D01*
X154700348Y-87950033D01*
X154700335Y-87950040D01*
X154579439Y-88030821D01*
X154579435Y-88030824D01*
X154476621Y-88133638D01*
X154476618Y-88133642D01*
X154403103Y-88243665D01*
X154349491Y-88288470D01*
X154280166Y-88297177D01*
X154217138Y-88267022D01*
X154196899Y-88243665D01*
X154123383Y-88133642D01*
X154123380Y-88133638D01*
X154020566Y-88030824D01*
X154020562Y-88030821D01*
X153899666Y-87950040D01*
X153899653Y-87950033D01*
X153765321Y-87894392D01*
X153765312Y-87894389D01*
X153622708Y-87866024D01*
X153622705Y-87866024D01*
X153477297Y-87866024D01*
X153477294Y-87866024D01*
X153334689Y-87894389D01*
X153334680Y-87894392D01*
X153200348Y-87950033D01*
X153200335Y-87950040D01*
X153079439Y-88030821D01*
X153079435Y-88030824D01*
X152976621Y-88133638D01*
X152976618Y-88133642D01*
X152903103Y-88243665D01*
X152849491Y-88288470D01*
X152780166Y-88297177D01*
X152717138Y-88267022D01*
X152696899Y-88243665D01*
X152623383Y-88133642D01*
X152623380Y-88133638D01*
X152520566Y-88030824D01*
X152520562Y-88030821D01*
X152399666Y-87950040D01*
X152399653Y-87950033D01*
X152265321Y-87894392D01*
X152265312Y-87894389D01*
X152122708Y-87866024D01*
X152122705Y-87866024D01*
X151977297Y-87866024D01*
X151977294Y-87866024D01*
X151834689Y-87894389D01*
X151834680Y-87894392D01*
X151700348Y-87950033D01*
X151700335Y-87950040D01*
X151579439Y-88030821D01*
X151579435Y-88030824D01*
X151476621Y-88133638D01*
X151476618Y-88133642D01*
X151403103Y-88243665D01*
X151349491Y-88288470D01*
X151280166Y-88297177D01*
X151217138Y-88267022D01*
X151196899Y-88243665D01*
X151123383Y-88133642D01*
X151123380Y-88133638D01*
X151020566Y-88030824D01*
X151020562Y-88030821D01*
X150899666Y-87950040D01*
X150899653Y-87950033D01*
X150765321Y-87894392D01*
X150765312Y-87894389D01*
X150622708Y-87866024D01*
X150622705Y-87866024D01*
X150477297Y-87866024D01*
X150477294Y-87866024D01*
X150334689Y-87894389D01*
X150334680Y-87894392D01*
X150200348Y-87950033D01*
X150200335Y-87950040D01*
X150079439Y-88030821D01*
X150079435Y-88030824D01*
X149976621Y-88133638D01*
X149976618Y-88133642D01*
X149903103Y-88243665D01*
X149849491Y-88288470D01*
X149780166Y-88297177D01*
X149717138Y-88267022D01*
X149696899Y-88243665D01*
X149623383Y-88133642D01*
X149623380Y-88133638D01*
X149520566Y-88030824D01*
X149520562Y-88030821D01*
X149399666Y-87950040D01*
X149399653Y-87950033D01*
X149265321Y-87894392D01*
X149265312Y-87894389D01*
X149122708Y-87866024D01*
X149122705Y-87866024D01*
X148977297Y-87866024D01*
X148977294Y-87866024D01*
X148834689Y-87894389D01*
X148834680Y-87894392D01*
X148700348Y-87950033D01*
X148700335Y-87950040D01*
X148579439Y-88030821D01*
X148579435Y-88030824D01*
X148476621Y-88133638D01*
X148476618Y-88133642D01*
X148395837Y-88254538D01*
X148395830Y-88254551D01*
X148355505Y-88351907D01*
X148311664Y-88406311D01*
X148245370Y-88428376D01*
X148177671Y-88411097D01*
X148130060Y-88359960D01*
X148118005Y-88320640D01*
X148110946Y-88267022D01*
X148104163Y-88215497D01*
X148036708Y-87963753D01*
X147936972Y-87722968D01*
X147936970Y-87722965D01*
X147936968Y-87722960D01*
X147806663Y-87497267D01*
X147806659Y-87497260D01*
X147648001Y-87290493D01*
X147647996Y-87290487D01*
X147463717Y-87106208D01*
X147463710Y-87106202D01*
X147256953Y-86947552D01*
X147256951Y-86947550D01*
X147256945Y-86947546D01*
X147256940Y-86947543D01*
X147256937Y-86947541D01*
X147031244Y-86817236D01*
X147031233Y-86817231D01*
X146790456Y-86717498D01*
X146538704Y-86650041D01*
X146280323Y-86616025D01*
X146280318Y-86616024D01*
X146280313Y-86616024D01*
X146019689Y-86616024D01*
X146019683Y-86616024D01*
X146019678Y-86616025D01*
X145761297Y-86650041D01*
X145509545Y-86717498D01*
X145268768Y-86817231D01*
X145268757Y-86817236D01*
X145043064Y-86947541D01*
X145043048Y-86947552D01*
X144836291Y-87106202D01*
X144836284Y-87106208D01*
X144652005Y-87290487D01*
X144651999Y-87290494D01*
X144493349Y-87497251D01*
X144493338Y-87497267D01*
X144363033Y-87722960D01*
X144363028Y-87722971D01*
X144263295Y-87963748D01*
X144195838Y-88215500D01*
X144181996Y-88320641D01*
X144153729Y-88384537D01*
X144095404Y-88423008D01*
X144025540Y-88423839D01*
X143966316Y-88386767D01*
X143944498Y-88351913D01*
X143904168Y-88254545D01*
X143904166Y-88254542D01*
X143904164Y-88254538D01*
X143823383Y-88133642D01*
X143823380Y-88133638D01*
X143720566Y-88030824D01*
X143720562Y-88030821D01*
X143599666Y-87950040D01*
X143599653Y-87950033D01*
X143465321Y-87894392D01*
X143465312Y-87894389D01*
X143322708Y-87866024D01*
X143322705Y-87866024D01*
X143177297Y-87866024D01*
X143177294Y-87866024D01*
X143034689Y-87894389D01*
X143034680Y-87894392D01*
X142900348Y-87950033D01*
X142900335Y-87950040D01*
X142779439Y-88030821D01*
X142779435Y-88030824D01*
X142676621Y-88133638D01*
X142676618Y-88133642D01*
X142603103Y-88243665D01*
X142549491Y-88288470D01*
X142480166Y-88297177D01*
X142417138Y-88267022D01*
X142396899Y-88243665D01*
X142323383Y-88133642D01*
X142323380Y-88133638D01*
X142220566Y-88030824D01*
X142220562Y-88030821D01*
X142099666Y-87950040D01*
X142099653Y-87950033D01*
X141965321Y-87894392D01*
X141965312Y-87894389D01*
X141822708Y-87866024D01*
X141822705Y-87866024D01*
X141677297Y-87866024D01*
X141677294Y-87866024D01*
X141534689Y-87894389D01*
X141534680Y-87894392D01*
X141400348Y-87950033D01*
X141400335Y-87950040D01*
X141279439Y-88030821D01*
X141279435Y-88030824D01*
X141176621Y-88133638D01*
X141176618Y-88133642D01*
X141103103Y-88243665D01*
X141049491Y-88288470D01*
X140980166Y-88297177D01*
X140917138Y-88267022D01*
X140896899Y-88243665D01*
X140823383Y-88133642D01*
X140823380Y-88133638D01*
X140720566Y-88030824D01*
X140720562Y-88030821D01*
X140599666Y-87950040D01*
X140599653Y-87950033D01*
X140465321Y-87894392D01*
X140465312Y-87894389D01*
X140322708Y-87866024D01*
X140322705Y-87866024D01*
X140177297Y-87866024D01*
X140177294Y-87866024D01*
X140034689Y-87894389D01*
X140034680Y-87894392D01*
X139900348Y-87950033D01*
X139900335Y-87950040D01*
X139779439Y-88030821D01*
X139779435Y-88030824D01*
X139676621Y-88133638D01*
X139676618Y-88133642D01*
X139603103Y-88243665D01*
X139549491Y-88288470D01*
X139480166Y-88297177D01*
X139417138Y-88267022D01*
X139396899Y-88243665D01*
X139323383Y-88133642D01*
X139323380Y-88133638D01*
X139220566Y-88030824D01*
X139220562Y-88030821D01*
X139099666Y-87950040D01*
X139099653Y-87950033D01*
X138965321Y-87894392D01*
X138965312Y-87894389D01*
X138822708Y-87866024D01*
X138822705Y-87866024D01*
X138677297Y-87866024D01*
X138677294Y-87866024D01*
X138534689Y-87894389D01*
X138534680Y-87894392D01*
X138400348Y-87950033D01*
X138400335Y-87950040D01*
X138279439Y-88030821D01*
X138279435Y-88030824D01*
X138176621Y-88133638D01*
X138176618Y-88133642D01*
X138103103Y-88243665D01*
X138049491Y-88288470D01*
X137980166Y-88297177D01*
X137917138Y-88267022D01*
X137896899Y-88243665D01*
X137823383Y-88133642D01*
X137823380Y-88133638D01*
X137720566Y-88030824D01*
X137720562Y-88030821D01*
X137599666Y-87950040D01*
X137599653Y-87950033D01*
X137465321Y-87894392D01*
X137465312Y-87894389D01*
X137322708Y-87866024D01*
X137322705Y-87866024D01*
X137177297Y-87866024D01*
X137177294Y-87866024D01*
X137034689Y-87894389D01*
X137034680Y-87894392D01*
X136900348Y-87950033D01*
X136900335Y-87950040D01*
X136779439Y-88030821D01*
X136779435Y-88030824D01*
X136676621Y-88133638D01*
X136676618Y-88133642D01*
X136603103Y-88243665D01*
X136549491Y-88288470D01*
X136480166Y-88297177D01*
X136417138Y-88267022D01*
X136396899Y-88243665D01*
X136323383Y-88133642D01*
X136323380Y-88133638D01*
X136220566Y-88030824D01*
X136220562Y-88030821D01*
X136099666Y-87950040D01*
X136099653Y-87950033D01*
X135965321Y-87894392D01*
X135965312Y-87894389D01*
X135822708Y-87866024D01*
X135822705Y-87866024D01*
X135762180Y-87866024D01*
X135695141Y-87846339D01*
X135649386Y-87793535D01*
X135638180Y-87742024D01*
X135638180Y-71466384D01*
X135657865Y-71399345D01*
X135710669Y-71353590D01*
X135762180Y-71342384D01*
X135822707Y-71342384D01*
X135822708Y-71342383D01*
X135870243Y-71332928D01*
X135965312Y-71314018D01*
X135965315Y-71314016D01*
X135965320Y-71314016D01*
X136099660Y-71258371D01*
X136220563Y-71177586D01*
X136323383Y-71074766D01*
X136396899Y-70964742D01*
X136450511Y-70919937D01*
X136519836Y-70911230D01*
X136582863Y-70941384D01*
X136603103Y-70964742D01*
X136676618Y-71074765D01*
X136676621Y-71074769D01*
X136779435Y-71177583D01*
X136779439Y-71177586D01*
X136900335Y-71258367D01*
X136900348Y-71258374D01*
X137001097Y-71300104D01*
X137034682Y-71314016D01*
X137034684Y-71314016D01*
X137034689Y-71314018D01*
X137177292Y-71342383D01*
X137177295Y-71342384D01*
X137177297Y-71342384D01*
X137322707Y-71342384D01*
X137322708Y-71342383D01*
X137370243Y-71332928D01*
X137465312Y-71314018D01*
X137465315Y-71314016D01*
X137465320Y-71314016D01*
X137599660Y-71258371D01*
X137720563Y-71177586D01*
X137823383Y-71074766D01*
X137896899Y-70964742D01*
X137950511Y-70919937D01*
X138019836Y-70911230D01*
X138082863Y-70941384D01*
X138103103Y-70964742D01*
X138176618Y-71074765D01*
X138176621Y-71074769D01*
X138279435Y-71177583D01*
X138279439Y-71177586D01*
X138400335Y-71258367D01*
X138400348Y-71258374D01*
X138501097Y-71300104D01*
X138534682Y-71314016D01*
X138534684Y-71314016D01*
X138534689Y-71314018D01*
X138677292Y-71342383D01*
X138677295Y-71342384D01*
X138677297Y-71342384D01*
X138822707Y-71342384D01*
X138822708Y-71342383D01*
X138870243Y-71332928D01*
X138965312Y-71314018D01*
X138965315Y-71314016D01*
X138965320Y-71314016D01*
X139099660Y-71258371D01*
X139220563Y-71177586D01*
X139323383Y-71074766D01*
X139396899Y-70964742D01*
X139450511Y-70919937D01*
X139519836Y-70911230D01*
X139582863Y-70941384D01*
X139603103Y-70964742D01*
X139676618Y-71074765D01*
X139676621Y-71074769D01*
X139779435Y-71177583D01*
X139779439Y-71177586D01*
X139900335Y-71258367D01*
X139900348Y-71258374D01*
X140001097Y-71300104D01*
X140034682Y-71314016D01*
X140034684Y-71314016D01*
X140034689Y-71314018D01*
X140177292Y-71342383D01*
X140177295Y-71342384D01*
X140177297Y-71342384D01*
X140322707Y-71342384D01*
X140322708Y-71342383D01*
X140370243Y-71332928D01*
X140465312Y-71314018D01*
X140465315Y-71314016D01*
X140465320Y-71314016D01*
X140599660Y-71258371D01*
X140720563Y-71177586D01*
X140823383Y-71074766D01*
X140896899Y-70964742D01*
X140950511Y-70919937D01*
X141019836Y-70911230D01*
X141082863Y-70941384D01*
X141103103Y-70964742D01*
X141176618Y-71074765D01*
X141176621Y-71074769D01*
X141279435Y-71177583D01*
X141279439Y-71177586D01*
X141400335Y-71258367D01*
X141400348Y-71258374D01*
X141501097Y-71300104D01*
X141534682Y-71314016D01*
X141534684Y-71314016D01*
X141534689Y-71314018D01*
X141677292Y-71342383D01*
X141677295Y-71342384D01*
X141677297Y-71342384D01*
X141822707Y-71342384D01*
X141822708Y-71342383D01*
X141870243Y-71332928D01*
X141965312Y-71314018D01*
X141965315Y-71314016D01*
X141965320Y-71314016D01*
X142099660Y-71258371D01*
X142220563Y-71177586D01*
X142323383Y-71074766D01*
X142396899Y-70964742D01*
X142450511Y-70919937D01*
X142519836Y-70911230D01*
X142582863Y-70941384D01*
X142603103Y-70964742D01*
X142676618Y-71074765D01*
X142676621Y-71074769D01*
X142779435Y-71177583D01*
X142779439Y-71177586D01*
X142900335Y-71258367D01*
X142900348Y-71258374D01*
X143001097Y-71300104D01*
X143034682Y-71314016D01*
X143034684Y-71314016D01*
X143034689Y-71314018D01*
X143177292Y-71342383D01*
X143177295Y-71342384D01*
X143177297Y-71342384D01*
X143322707Y-71342384D01*
X143322708Y-71342383D01*
X143370243Y-71332928D01*
X143465312Y-71314018D01*
X143465315Y-71314016D01*
X143465320Y-71314016D01*
X143599660Y-71258371D01*
X143720563Y-71177586D01*
X143823383Y-71074766D01*
X143904168Y-70953863D01*
X143944497Y-70856497D01*
X143988336Y-70802097D01*
X144054629Y-70780031D01*
X144122329Y-70797309D01*
G37*
%TD.AperFunction*%
%TA.AperFunction,Conductor*%
G36*
X156537869Y-51091497D02*
G01*
X156604900Y-51111207D01*
X156650634Y-51164029D01*
X156661820Y-51215497D01*
X156661820Y-69742024D01*
X156642135Y-69809063D01*
X156589331Y-69854818D01*
X156537820Y-69866024D01*
X156477294Y-69866024D01*
X156334689Y-69894389D01*
X156334680Y-69894392D01*
X156200348Y-69950033D01*
X156200335Y-69950040D01*
X156079439Y-70030821D01*
X156079435Y-70030824D01*
X155976621Y-70133638D01*
X155976618Y-70133642D01*
X155903103Y-70243665D01*
X155849491Y-70288470D01*
X155780166Y-70297177D01*
X155717138Y-70267022D01*
X155696899Y-70243665D01*
X155623383Y-70133642D01*
X155623380Y-70133638D01*
X155520566Y-70030824D01*
X155520562Y-70030821D01*
X155399666Y-69950040D01*
X155399653Y-69950033D01*
X155265321Y-69894392D01*
X155265312Y-69894389D01*
X155122708Y-69866024D01*
X155122705Y-69866024D01*
X154977297Y-69866024D01*
X154977294Y-69866024D01*
X154834689Y-69894389D01*
X154834680Y-69894392D01*
X154700348Y-69950033D01*
X154700335Y-69950040D01*
X154579439Y-70030821D01*
X154579435Y-70030824D01*
X154476621Y-70133638D01*
X154476618Y-70133642D01*
X154403103Y-70243665D01*
X154349491Y-70288470D01*
X154280166Y-70297177D01*
X154217138Y-70267022D01*
X154196899Y-70243665D01*
X154123383Y-70133642D01*
X154123380Y-70133638D01*
X154020566Y-70030824D01*
X154020562Y-70030821D01*
X153899666Y-69950040D01*
X153899653Y-69950033D01*
X153765321Y-69894392D01*
X153765312Y-69894389D01*
X153622708Y-69866024D01*
X153622705Y-69866024D01*
X153477297Y-69866024D01*
X153477294Y-69866024D01*
X153334689Y-69894389D01*
X153334680Y-69894392D01*
X153200348Y-69950033D01*
X153200335Y-69950040D01*
X153079439Y-70030821D01*
X153079435Y-70030824D01*
X152976621Y-70133638D01*
X152976618Y-70133642D01*
X152903103Y-70243665D01*
X152849491Y-70288470D01*
X152780166Y-70297177D01*
X152717138Y-70267022D01*
X152696899Y-70243665D01*
X152623383Y-70133642D01*
X152623380Y-70133638D01*
X152520566Y-70030824D01*
X152520562Y-70030821D01*
X152399666Y-69950040D01*
X152399653Y-69950033D01*
X152265321Y-69894392D01*
X152265312Y-69894389D01*
X152122708Y-69866024D01*
X152122705Y-69866024D01*
X151977297Y-69866024D01*
X151977294Y-69866024D01*
X151834689Y-69894389D01*
X151834680Y-69894392D01*
X151700348Y-69950033D01*
X151700335Y-69950040D01*
X151579439Y-70030821D01*
X151579435Y-70030824D01*
X151476621Y-70133638D01*
X151476618Y-70133642D01*
X151403103Y-70243665D01*
X151349491Y-70288470D01*
X151280166Y-70297177D01*
X151217138Y-70267022D01*
X151196899Y-70243665D01*
X151123383Y-70133642D01*
X151123380Y-70133638D01*
X151020566Y-70030824D01*
X151020562Y-70030821D01*
X150899666Y-69950040D01*
X150899653Y-69950033D01*
X150765321Y-69894392D01*
X150765312Y-69894389D01*
X150622708Y-69866024D01*
X150622705Y-69866024D01*
X150477297Y-69866024D01*
X150477294Y-69866024D01*
X150334689Y-69894389D01*
X150334680Y-69894392D01*
X150200348Y-69950033D01*
X150200335Y-69950040D01*
X150079439Y-70030821D01*
X150079435Y-70030824D01*
X149976621Y-70133638D01*
X149976618Y-70133642D01*
X149903103Y-70243665D01*
X149849491Y-70288470D01*
X149780166Y-70297177D01*
X149717138Y-70267022D01*
X149696899Y-70243665D01*
X149623383Y-70133642D01*
X149623380Y-70133638D01*
X149520566Y-70030824D01*
X149520562Y-70030821D01*
X149399666Y-69950040D01*
X149399653Y-69950033D01*
X149265321Y-69894392D01*
X149265312Y-69894389D01*
X149122708Y-69866024D01*
X149122705Y-69866024D01*
X148977297Y-69866024D01*
X148977294Y-69866024D01*
X148834689Y-69894389D01*
X148834680Y-69894392D01*
X148700348Y-69950033D01*
X148700335Y-69950040D01*
X148579439Y-70030821D01*
X148579435Y-70030824D01*
X148476621Y-70133638D01*
X148476618Y-70133642D01*
X148395837Y-70254538D01*
X148395830Y-70254551D01*
X148355505Y-70351907D01*
X148311664Y-70406311D01*
X148245370Y-70428376D01*
X148177671Y-70411097D01*
X148130060Y-70359960D01*
X148118005Y-70320640D01*
X148110946Y-70267022D01*
X148104163Y-70215497D01*
X148036708Y-69963753D01*
X147936972Y-69722968D01*
X147936970Y-69722965D01*
X147936968Y-69722960D01*
X147806663Y-69497267D01*
X147806659Y-69497260D01*
X147648001Y-69290493D01*
X147647996Y-69290487D01*
X147463717Y-69106208D01*
X147463710Y-69106202D01*
X147256953Y-68947552D01*
X147256951Y-68947550D01*
X147256945Y-68947546D01*
X147256940Y-68947543D01*
X147256937Y-68947541D01*
X147031244Y-68817236D01*
X147031233Y-68817231D01*
X146790456Y-68717498D01*
X146538704Y-68650041D01*
X146280323Y-68616025D01*
X146280318Y-68616024D01*
X146280313Y-68616024D01*
X146019689Y-68616024D01*
X146019683Y-68616024D01*
X146019678Y-68616025D01*
X145761297Y-68650041D01*
X145509545Y-68717498D01*
X145268768Y-68817231D01*
X145268757Y-68817236D01*
X145043064Y-68947541D01*
X145043048Y-68947552D01*
X144836291Y-69106202D01*
X144836284Y-69106208D01*
X144652005Y-69290487D01*
X144651999Y-69290494D01*
X144493349Y-69497251D01*
X144493338Y-69497267D01*
X144363033Y-69722960D01*
X144363028Y-69722971D01*
X144263295Y-69963748D01*
X144195838Y-70215500D01*
X144181996Y-70320641D01*
X144153729Y-70384537D01*
X144095404Y-70423008D01*
X144025540Y-70423839D01*
X143966316Y-70386767D01*
X143944498Y-70351913D01*
X143904168Y-70254545D01*
X143904166Y-70254542D01*
X143904164Y-70254538D01*
X143823383Y-70133642D01*
X143823380Y-70133638D01*
X143720566Y-70030824D01*
X143720562Y-70030821D01*
X143599666Y-69950040D01*
X143599653Y-69950033D01*
X143465321Y-69894392D01*
X143465312Y-69894389D01*
X143322708Y-69866024D01*
X143322705Y-69866024D01*
X143177297Y-69866024D01*
X143177294Y-69866024D01*
X143034689Y-69894389D01*
X143034680Y-69894392D01*
X142900348Y-69950033D01*
X142900335Y-69950040D01*
X142779439Y-70030821D01*
X142779435Y-70030824D01*
X142676621Y-70133638D01*
X142676618Y-70133642D01*
X142603103Y-70243665D01*
X142549491Y-70288470D01*
X142480166Y-70297177D01*
X142417138Y-70267022D01*
X142396899Y-70243665D01*
X142323383Y-70133642D01*
X142323380Y-70133638D01*
X142220566Y-70030824D01*
X142220562Y-70030821D01*
X142099666Y-69950040D01*
X142099653Y-69950033D01*
X141965321Y-69894392D01*
X141965312Y-69894389D01*
X141822708Y-69866024D01*
X141822705Y-69866024D01*
X141677297Y-69866024D01*
X141677294Y-69866024D01*
X141534689Y-69894389D01*
X141534680Y-69894392D01*
X141400348Y-69950033D01*
X141400335Y-69950040D01*
X141279439Y-70030821D01*
X141279435Y-70030824D01*
X141176621Y-70133638D01*
X141176618Y-70133642D01*
X141103103Y-70243665D01*
X141049491Y-70288470D01*
X140980166Y-70297177D01*
X140917138Y-70267022D01*
X140896899Y-70243665D01*
X140823383Y-70133642D01*
X140823380Y-70133638D01*
X140720566Y-70030824D01*
X140720562Y-70030821D01*
X140599666Y-69950040D01*
X140599653Y-69950033D01*
X140465321Y-69894392D01*
X140465312Y-69894389D01*
X140322708Y-69866024D01*
X140322705Y-69866024D01*
X140177297Y-69866024D01*
X140177294Y-69866024D01*
X140034689Y-69894389D01*
X140034680Y-69894392D01*
X139900348Y-69950033D01*
X139900335Y-69950040D01*
X139779439Y-70030821D01*
X139779435Y-70030824D01*
X139676621Y-70133638D01*
X139676618Y-70133642D01*
X139603103Y-70243665D01*
X139549491Y-70288470D01*
X139480166Y-70297177D01*
X139417138Y-70267022D01*
X139396899Y-70243665D01*
X139323383Y-70133642D01*
X139323380Y-70133638D01*
X139220566Y-70030824D01*
X139220562Y-70030821D01*
X139099666Y-69950040D01*
X139099653Y-69950033D01*
X138965321Y-69894392D01*
X138965312Y-69894389D01*
X138822708Y-69866024D01*
X138822705Y-69866024D01*
X138677297Y-69866024D01*
X138677294Y-69866024D01*
X138534689Y-69894389D01*
X138534680Y-69894392D01*
X138400348Y-69950033D01*
X138400335Y-69950040D01*
X138279439Y-70030821D01*
X138279435Y-70030824D01*
X138176621Y-70133638D01*
X138176618Y-70133642D01*
X138103103Y-70243665D01*
X138049491Y-70288470D01*
X137980166Y-70297177D01*
X137917138Y-70267022D01*
X137896899Y-70243665D01*
X137823383Y-70133642D01*
X137823380Y-70133638D01*
X137720566Y-70030824D01*
X137720562Y-70030821D01*
X137599666Y-69950040D01*
X137599653Y-69950033D01*
X137465321Y-69894392D01*
X137465312Y-69894389D01*
X137322708Y-69866024D01*
X137322705Y-69866024D01*
X137177297Y-69866024D01*
X137177294Y-69866024D01*
X137034689Y-69894389D01*
X137034680Y-69894392D01*
X136900348Y-69950033D01*
X136900335Y-69950040D01*
X136779439Y-70030821D01*
X136779435Y-70030824D01*
X136676621Y-70133638D01*
X136676618Y-70133642D01*
X136603103Y-70243665D01*
X136549491Y-70288470D01*
X136480166Y-70297177D01*
X136417138Y-70267022D01*
X136396899Y-70243665D01*
X136323383Y-70133642D01*
X136323380Y-70133638D01*
X136220566Y-70030824D01*
X136220562Y-70030821D01*
X136099666Y-69950040D01*
X136099653Y-69950033D01*
X135965321Y-69894392D01*
X135965312Y-69894389D01*
X135822708Y-69866024D01*
X135822705Y-69866024D01*
X135762180Y-69866024D01*
X135695141Y-69846339D01*
X135649386Y-69793535D01*
X135638180Y-69742024D01*
X135638180Y-55347266D01*
X135649162Y-51215157D01*
X135669024Y-51148176D01*
X135721949Y-51102561D01*
X135773107Y-51091493D01*
X143867580Y-51088383D01*
X143934626Y-51108042D01*
X143980402Y-51160828D01*
X143987402Y-51180289D01*
X144026053Y-51324536D01*
X144138326Y-51595590D01*
X144138334Y-51595606D01*
X144285024Y-51849679D01*
X144285035Y-51849695D01*
X144463635Y-52082452D01*
X144463641Y-52082459D01*
X144671093Y-52289911D01*
X144671099Y-52289916D01*
X144903866Y-52468524D01*
X144903873Y-52468528D01*
X145157946Y-52615218D01*
X145157962Y-52615226D01*
X145304196Y-52675797D01*
X145429017Y-52727500D01*
X145712416Y-52803437D01*
X146003302Y-52841733D01*
X146003309Y-52841733D01*
X146296691Y-52841733D01*
X146296698Y-52841733D01*
X146587584Y-52803437D01*
X146870983Y-52727500D01*
X147084062Y-52639239D01*
X147142037Y-52615226D01*
X147142040Y-52615224D01*
X147142046Y-52615222D01*
X147396134Y-52468524D01*
X147628901Y-52289916D01*
X147836363Y-52082454D01*
X148014971Y-51849687D01*
X148161669Y-51595599D01*
X148273947Y-51324536D01*
X148312598Y-51180286D01*
X148348960Y-51120630D01*
X148411807Y-51090100D01*
X148432412Y-51088383D01*
X156537869Y-51091497D01*
G37*
%TD.AperFunction*%
%TD*%
M02*
