%TF.GenerationSoftware,KiCad,Pcbnew,9.0.8-1.fc42*%
%TF.CreationDate,2026-03-27T09:51:17+01:00*%
%TF.ProjectId,PCI2USB,50434932-5553-4422-9e6b-696361645f70,1.1.0*%
%TF.SameCoordinates,Original*%
%TF.FileFunction,Legend,Bot*%
%TF.FilePolarity,Positive*%
%FSLAX46Y46*%
G04 Gerber Fmt 4.6, Leading zero omitted, Abs format (unit mm)*
G04 Created by KiCad (PCBNEW 9.0.8-1.fc42) date 2026-03-27 09:51:17*
%MOMM*%
%LPD*%
G01*
G04 APERTURE LIST*
%ADD10C,0.101600*%
%ADD11C,0.120000*%
G04 APERTURE END LIST*
D10*
X150091571Y-119729245D02*
X150115762Y-119753436D01*
X150115762Y-119753436D02*
X150188333Y-119777626D01*
X150188333Y-119777626D02*
X150236714Y-119777626D01*
X150236714Y-119777626D02*
X150309286Y-119753436D01*
X150309286Y-119753436D02*
X150357667Y-119705055D01*
X150357667Y-119705055D02*
X150381857Y-119656674D01*
X150381857Y-119656674D02*
X150406048Y-119559912D01*
X150406048Y-119559912D02*
X150406048Y-119487340D01*
X150406048Y-119487340D02*
X150381857Y-119390578D01*
X150381857Y-119390578D02*
X150357667Y-119342197D01*
X150357667Y-119342197D02*
X150309286Y-119293816D01*
X150309286Y-119293816D02*
X150236714Y-119269626D01*
X150236714Y-119269626D02*
X150188333Y-119269626D01*
X150188333Y-119269626D02*
X150115762Y-119293816D01*
X150115762Y-119293816D02*
X150091571Y-119318007D01*
X149607762Y-119777626D02*
X149898048Y-119777626D01*
X149752905Y-119777626D02*
X149752905Y-119269626D01*
X149752905Y-119269626D02*
X149801286Y-119342197D01*
X149801286Y-119342197D02*
X149849667Y-119390578D01*
X149849667Y-119390578D02*
X149898048Y-119414769D01*
X149172333Y-119269626D02*
X149269095Y-119269626D01*
X149269095Y-119269626D02*
X149317476Y-119293816D01*
X149317476Y-119293816D02*
X149341666Y-119318007D01*
X149341666Y-119318007D02*
X149390047Y-119390578D01*
X149390047Y-119390578D02*
X149414238Y-119487340D01*
X149414238Y-119487340D02*
X149414238Y-119680864D01*
X149414238Y-119680864D02*
X149390047Y-119729245D01*
X149390047Y-119729245D02*
X149365857Y-119753436D01*
X149365857Y-119753436D02*
X149317476Y-119777626D01*
X149317476Y-119777626D02*
X149220714Y-119777626D01*
X149220714Y-119777626D02*
X149172333Y-119753436D01*
X149172333Y-119753436D02*
X149148142Y-119729245D01*
X149148142Y-119729245D02*
X149123952Y-119680864D01*
X149123952Y-119680864D02*
X149123952Y-119559912D01*
X149123952Y-119559912D02*
X149148142Y-119511531D01*
X149148142Y-119511531D02*
X149172333Y-119487340D01*
X149172333Y-119487340D02*
X149220714Y-119463150D01*
X149220714Y-119463150D02*
X149317476Y-119463150D01*
X149317476Y-119463150D02*
X149365857Y-119487340D01*
X149365857Y-119487340D02*
X149390047Y-119511531D01*
X149390047Y-119511531D02*
X149414238Y-119559912D01*
X138494666Y-122411345D02*
X138518857Y-122435536D01*
X138518857Y-122435536D02*
X138591428Y-122459726D01*
X138591428Y-122459726D02*
X138639809Y-122459726D01*
X138639809Y-122459726D02*
X138712381Y-122435536D01*
X138712381Y-122435536D02*
X138760762Y-122387155D01*
X138760762Y-122387155D02*
X138784952Y-122338774D01*
X138784952Y-122338774D02*
X138809143Y-122242012D01*
X138809143Y-122242012D02*
X138809143Y-122169440D01*
X138809143Y-122169440D02*
X138784952Y-122072678D01*
X138784952Y-122072678D02*
X138760762Y-122024297D01*
X138760762Y-122024297D02*
X138712381Y-121975916D01*
X138712381Y-121975916D02*
X138639809Y-121951726D01*
X138639809Y-121951726D02*
X138591428Y-121951726D01*
X138591428Y-121951726D02*
X138518857Y-121975916D01*
X138518857Y-121975916D02*
X138494666Y-122000107D01*
X138035047Y-121951726D02*
X138276952Y-121951726D01*
X138276952Y-121951726D02*
X138301143Y-122193631D01*
X138301143Y-122193631D02*
X138276952Y-122169440D01*
X138276952Y-122169440D02*
X138228571Y-122145250D01*
X138228571Y-122145250D02*
X138107619Y-122145250D01*
X138107619Y-122145250D02*
X138059238Y-122169440D01*
X138059238Y-122169440D02*
X138035047Y-122193631D01*
X138035047Y-122193631D02*
X138010857Y-122242012D01*
X138010857Y-122242012D02*
X138010857Y-122362964D01*
X138010857Y-122362964D02*
X138035047Y-122411345D01*
X138035047Y-122411345D02*
X138059238Y-122435536D01*
X138059238Y-122435536D02*
X138107619Y-122459726D01*
X138107619Y-122459726D02*
X138228571Y-122459726D01*
X138228571Y-122459726D02*
X138276952Y-122435536D01*
X138276952Y-122435536D02*
X138301143Y-122411345D01*
X138326571Y-98330945D02*
X138350762Y-98355136D01*
X138350762Y-98355136D02*
X138423333Y-98379326D01*
X138423333Y-98379326D02*
X138471714Y-98379326D01*
X138471714Y-98379326D02*
X138544286Y-98355136D01*
X138544286Y-98355136D02*
X138592667Y-98306755D01*
X138592667Y-98306755D02*
X138616857Y-98258374D01*
X138616857Y-98258374D02*
X138641048Y-98161612D01*
X138641048Y-98161612D02*
X138641048Y-98089040D01*
X138641048Y-98089040D02*
X138616857Y-97992278D01*
X138616857Y-97992278D02*
X138592667Y-97943897D01*
X138592667Y-97943897D02*
X138544286Y-97895516D01*
X138544286Y-97895516D02*
X138471714Y-97871326D01*
X138471714Y-97871326D02*
X138423333Y-97871326D01*
X138423333Y-97871326D02*
X138350762Y-97895516D01*
X138350762Y-97895516D02*
X138326571Y-97919707D01*
X138157238Y-97871326D02*
X137842762Y-97871326D01*
X137842762Y-97871326D02*
X138012095Y-98064850D01*
X138012095Y-98064850D02*
X137939524Y-98064850D01*
X137939524Y-98064850D02*
X137891143Y-98089040D01*
X137891143Y-98089040D02*
X137866952Y-98113231D01*
X137866952Y-98113231D02*
X137842762Y-98161612D01*
X137842762Y-98161612D02*
X137842762Y-98282564D01*
X137842762Y-98282564D02*
X137866952Y-98330945D01*
X137866952Y-98330945D02*
X137891143Y-98355136D01*
X137891143Y-98355136D02*
X137939524Y-98379326D01*
X137939524Y-98379326D02*
X138084667Y-98379326D01*
X138084667Y-98379326D02*
X138133048Y-98355136D01*
X138133048Y-98355136D02*
X138157238Y-98330945D01*
X137673428Y-97871326D02*
X137358952Y-97871326D01*
X137358952Y-97871326D02*
X137528285Y-98064850D01*
X137528285Y-98064850D02*
X137455714Y-98064850D01*
X137455714Y-98064850D02*
X137407333Y-98089040D01*
X137407333Y-98089040D02*
X137383142Y-98113231D01*
X137383142Y-98113231D02*
X137358952Y-98161612D01*
X137358952Y-98161612D02*
X137358952Y-98282564D01*
X137358952Y-98282564D02*
X137383142Y-98330945D01*
X137383142Y-98330945D02*
X137407333Y-98355136D01*
X137407333Y-98355136D02*
X137455714Y-98379326D01*
X137455714Y-98379326D02*
X137600857Y-98379326D01*
X137600857Y-98379326D02*
X137649238Y-98355136D01*
X137649238Y-98355136D02*
X137673428Y-98330945D01*
X142353631Y-108576666D02*
X142353631Y-108407333D01*
X142619726Y-108407333D02*
X142111726Y-108407333D01*
X142111726Y-108407333D02*
X142111726Y-108649238D01*
X142353631Y-109012095D02*
X142377821Y-109084667D01*
X142377821Y-109084667D02*
X142402012Y-109108857D01*
X142402012Y-109108857D02*
X142450393Y-109133048D01*
X142450393Y-109133048D02*
X142522964Y-109133048D01*
X142522964Y-109133048D02*
X142571345Y-109108857D01*
X142571345Y-109108857D02*
X142595536Y-109084667D01*
X142595536Y-109084667D02*
X142619726Y-109036286D01*
X142619726Y-109036286D02*
X142619726Y-108842762D01*
X142619726Y-108842762D02*
X142111726Y-108842762D01*
X142111726Y-108842762D02*
X142111726Y-109012095D01*
X142111726Y-109012095D02*
X142135916Y-109060476D01*
X142135916Y-109060476D02*
X142160107Y-109084667D01*
X142160107Y-109084667D02*
X142208488Y-109108857D01*
X142208488Y-109108857D02*
X142256869Y-109108857D01*
X142256869Y-109108857D02*
X142305250Y-109084667D01*
X142305250Y-109084667D02*
X142329440Y-109060476D01*
X142329440Y-109060476D02*
X142353631Y-109012095D01*
X142353631Y-109012095D02*
X142353631Y-108842762D01*
X142619726Y-109616857D02*
X142619726Y-109326571D01*
X142619726Y-109471714D02*
X142111726Y-109471714D01*
X142111726Y-109471714D02*
X142184297Y-109423333D01*
X142184297Y-109423333D02*
X142232678Y-109374952D01*
X142232678Y-109374952D02*
X142256869Y-109326571D01*
X153402071Y-120461945D02*
X153426262Y-120486136D01*
X153426262Y-120486136D02*
X153498833Y-120510326D01*
X153498833Y-120510326D02*
X153547214Y-120510326D01*
X153547214Y-120510326D02*
X153619786Y-120486136D01*
X153619786Y-120486136D02*
X153668167Y-120437755D01*
X153668167Y-120437755D02*
X153692357Y-120389374D01*
X153692357Y-120389374D02*
X153716548Y-120292612D01*
X153716548Y-120292612D02*
X153716548Y-120220040D01*
X153716548Y-120220040D02*
X153692357Y-120123278D01*
X153692357Y-120123278D02*
X153668167Y-120074897D01*
X153668167Y-120074897D02*
X153619786Y-120026516D01*
X153619786Y-120026516D02*
X153547214Y-120002326D01*
X153547214Y-120002326D02*
X153498833Y-120002326D01*
X153498833Y-120002326D02*
X153426262Y-120026516D01*
X153426262Y-120026516D02*
X153402071Y-120050707D01*
X152966643Y-120171659D02*
X152966643Y-120510326D01*
X153087595Y-119978136D02*
X153208548Y-120340993D01*
X153208548Y-120340993D02*
X152894071Y-120340993D01*
X152627976Y-120220040D02*
X152676357Y-120195850D01*
X152676357Y-120195850D02*
X152700547Y-120171659D01*
X152700547Y-120171659D02*
X152724738Y-120123278D01*
X152724738Y-120123278D02*
X152724738Y-120099088D01*
X152724738Y-120099088D02*
X152700547Y-120050707D01*
X152700547Y-120050707D02*
X152676357Y-120026516D01*
X152676357Y-120026516D02*
X152627976Y-120002326D01*
X152627976Y-120002326D02*
X152531214Y-120002326D01*
X152531214Y-120002326D02*
X152482833Y-120026516D01*
X152482833Y-120026516D02*
X152458642Y-120050707D01*
X152458642Y-120050707D02*
X152434452Y-120099088D01*
X152434452Y-120099088D02*
X152434452Y-120123278D01*
X152434452Y-120123278D02*
X152458642Y-120171659D01*
X152458642Y-120171659D02*
X152482833Y-120195850D01*
X152482833Y-120195850D02*
X152531214Y-120220040D01*
X152531214Y-120220040D02*
X152627976Y-120220040D01*
X152627976Y-120220040D02*
X152676357Y-120244231D01*
X152676357Y-120244231D02*
X152700547Y-120268421D01*
X152700547Y-120268421D02*
X152724738Y-120316802D01*
X152724738Y-120316802D02*
X152724738Y-120413564D01*
X152724738Y-120413564D02*
X152700547Y-120461945D01*
X152700547Y-120461945D02*
X152676357Y-120486136D01*
X152676357Y-120486136D02*
X152627976Y-120510326D01*
X152627976Y-120510326D02*
X152531214Y-120510326D01*
X152531214Y-120510326D02*
X152482833Y-120486136D01*
X152482833Y-120486136D02*
X152458642Y-120461945D01*
X152458642Y-120461945D02*
X152434452Y-120413564D01*
X152434452Y-120413564D02*
X152434452Y-120316802D01*
X152434452Y-120316802D02*
X152458642Y-120268421D01*
X152458642Y-120268421D02*
X152482833Y-120244231D01*
X152482833Y-120244231D02*
X152531214Y-120220040D01*
X140614666Y-121121345D02*
X140638857Y-121145536D01*
X140638857Y-121145536D02*
X140711428Y-121169726D01*
X140711428Y-121169726D02*
X140759809Y-121169726D01*
X140759809Y-121169726D02*
X140832381Y-121145536D01*
X140832381Y-121145536D02*
X140880762Y-121097155D01*
X140880762Y-121097155D02*
X140904952Y-121048774D01*
X140904952Y-121048774D02*
X140929143Y-120952012D01*
X140929143Y-120952012D02*
X140929143Y-120879440D01*
X140929143Y-120879440D02*
X140904952Y-120782678D01*
X140904952Y-120782678D02*
X140880762Y-120734297D01*
X140880762Y-120734297D02*
X140832381Y-120685916D01*
X140832381Y-120685916D02*
X140759809Y-120661726D01*
X140759809Y-120661726D02*
X140711428Y-120661726D01*
X140711428Y-120661726D02*
X140638857Y-120685916D01*
X140638857Y-120685916D02*
X140614666Y-120710107D01*
X140324381Y-120879440D02*
X140372762Y-120855250D01*
X140372762Y-120855250D02*
X140396952Y-120831059D01*
X140396952Y-120831059D02*
X140421143Y-120782678D01*
X140421143Y-120782678D02*
X140421143Y-120758488D01*
X140421143Y-120758488D02*
X140396952Y-120710107D01*
X140396952Y-120710107D02*
X140372762Y-120685916D01*
X140372762Y-120685916D02*
X140324381Y-120661726D01*
X140324381Y-120661726D02*
X140227619Y-120661726D01*
X140227619Y-120661726D02*
X140179238Y-120685916D01*
X140179238Y-120685916D02*
X140155047Y-120710107D01*
X140155047Y-120710107D02*
X140130857Y-120758488D01*
X140130857Y-120758488D02*
X140130857Y-120782678D01*
X140130857Y-120782678D02*
X140155047Y-120831059D01*
X140155047Y-120831059D02*
X140179238Y-120855250D01*
X140179238Y-120855250D02*
X140227619Y-120879440D01*
X140227619Y-120879440D02*
X140324381Y-120879440D01*
X140324381Y-120879440D02*
X140372762Y-120903631D01*
X140372762Y-120903631D02*
X140396952Y-120927821D01*
X140396952Y-120927821D02*
X140421143Y-120976202D01*
X140421143Y-120976202D02*
X140421143Y-121072964D01*
X140421143Y-121072964D02*
X140396952Y-121121345D01*
X140396952Y-121121345D02*
X140372762Y-121145536D01*
X140372762Y-121145536D02*
X140324381Y-121169726D01*
X140324381Y-121169726D02*
X140227619Y-121169726D01*
X140227619Y-121169726D02*
X140179238Y-121145536D01*
X140179238Y-121145536D02*
X140155047Y-121121345D01*
X140155047Y-121121345D02*
X140130857Y-121072964D01*
X140130857Y-121072964D02*
X140130857Y-120976202D01*
X140130857Y-120976202D02*
X140155047Y-120927821D01*
X140155047Y-120927821D02*
X140179238Y-120903631D01*
X140179238Y-120903631D02*
X140227619Y-120879440D01*
X140526571Y-99400545D02*
X140550762Y-99424736D01*
X140550762Y-99424736D02*
X140623333Y-99448926D01*
X140623333Y-99448926D02*
X140671714Y-99448926D01*
X140671714Y-99448926D02*
X140744286Y-99424736D01*
X140744286Y-99424736D02*
X140792667Y-99376355D01*
X140792667Y-99376355D02*
X140816857Y-99327974D01*
X140816857Y-99327974D02*
X140841048Y-99231212D01*
X140841048Y-99231212D02*
X140841048Y-99158640D01*
X140841048Y-99158640D02*
X140816857Y-99061878D01*
X140816857Y-99061878D02*
X140792667Y-99013497D01*
X140792667Y-99013497D02*
X140744286Y-98965116D01*
X140744286Y-98965116D02*
X140671714Y-98940926D01*
X140671714Y-98940926D02*
X140623333Y-98940926D01*
X140623333Y-98940926D02*
X140550762Y-98965116D01*
X140550762Y-98965116D02*
X140526571Y-98989307D01*
X140357238Y-98940926D02*
X140042762Y-98940926D01*
X140042762Y-98940926D02*
X140212095Y-99134450D01*
X140212095Y-99134450D02*
X140139524Y-99134450D01*
X140139524Y-99134450D02*
X140091143Y-99158640D01*
X140091143Y-99158640D02*
X140066952Y-99182831D01*
X140066952Y-99182831D02*
X140042762Y-99231212D01*
X140042762Y-99231212D02*
X140042762Y-99352164D01*
X140042762Y-99352164D02*
X140066952Y-99400545D01*
X140066952Y-99400545D02*
X140091143Y-99424736D01*
X140091143Y-99424736D02*
X140139524Y-99448926D01*
X140139524Y-99448926D02*
X140284667Y-99448926D01*
X140284667Y-99448926D02*
X140333048Y-99424736D01*
X140333048Y-99424736D02*
X140357238Y-99400545D01*
X139800857Y-99448926D02*
X139704095Y-99448926D01*
X139704095Y-99448926D02*
X139655714Y-99424736D01*
X139655714Y-99424736D02*
X139631523Y-99400545D01*
X139631523Y-99400545D02*
X139583142Y-99327974D01*
X139583142Y-99327974D02*
X139558952Y-99231212D01*
X139558952Y-99231212D02*
X139558952Y-99037688D01*
X139558952Y-99037688D02*
X139583142Y-98989307D01*
X139583142Y-98989307D02*
X139607333Y-98965116D01*
X139607333Y-98965116D02*
X139655714Y-98940926D01*
X139655714Y-98940926D02*
X139752476Y-98940926D01*
X139752476Y-98940926D02*
X139800857Y-98965116D01*
X139800857Y-98965116D02*
X139825047Y-98989307D01*
X139825047Y-98989307D02*
X139849238Y-99037688D01*
X139849238Y-99037688D02*
X139849238Y-99158640D01*
X139849238Y-99158640D02*
X139825047Y-99207021D01*
X139825047Y-99207021D02*
X139800857Y-99231212D01*
X139800857Y-99231212D02*
X139752476Y-99255402D01*
X139752476Y-99255402D02*
X139655714Y-99255402D01*
X139655714Y-99255402D02*
X139607333Y-99231212D01*
X139607333Y-99231212D02*
X139583142Y-99207021D01*
X139583142Y-99207021D02*
X139558952Y-99158640D01*
X138326571Y-96451345D02*
X138350762Y-96475536D01*
X138350762Y-96475536D02*
X138423333Y-96499726D01*
X138423333Y-96499726D02*
X138471714Y-96499726D01*
X138471714Y-96499726D02*
X138544286Y-96475536D01*
X138544286Y-96475536D02*
X138592667Y-96427155D01*
X138592667Y-96427155D02*
X138616857Y-96378774D01*
X138616857Y-96378774D02*
X138641048Y-96282012D01*
X138641048Y-96282012D02*
X138641048Y-96209440D01*
X138641048Y-96209440D02*
X138616857Y-96112678D01*
X138616857Y-96112678D02*
X138592667Y-96064297D01*
X138592667Y-96064297D02*
X138544286Y-96015916D01*
X138544286Y-96015916D02*
X138471714Y-95991726D01*
X138471714Y-95991726D02*
X138423333Y-95991726D01*
X138423333Y-95991726D02*
X138350762Y-96015916D01*
X138350762Y-96015916D02*
X138326571Y-96040107D01*
X138157238Y-95991726D02*
X137842762Y-95991726D01*
X137842762Y-95991726D02*
X138012095Y-96185250D01*
X138012095Y-96185250D02*
X137939524Y-96185250D01*
X137939524Y-96185250D02*
X137891143Y-96209440D01*
X137891143Y-96209440D02*
X137866952Y-96233631D01*
X137866952Y-96233631D02*
X137842762Y-96282012D01*
X137842762Y-96282012D02*
X137842762Y-96402964D01*
X137842762Y-96402964D02*
X137866952Y-96451345D01*
X137866952Y-96451345D02*
X137891143Y-96475536D01*
X137891143Y-96475536D02*
X137939524Y-96499726D01*
X137939524Y-96499726D02*
X138084667Y-96499726D01*
X138084667Y-96499726D02*
X138133048Y-96475536D01*
X138133048Y-96475536D02*
X138157238Y-96451345D01*
X137358952Y-96499726D02*
X137649238Y-96499726D01*
X137504095Y-96499726D02*
X137504095Y-95991726D01*
X137504095Y-95991726D02*
X137552476Y-96064297D01*
X137552476Y-96064297D02*
X137600857Y-96112678D01*
X137600857Y-96112678D02*
X137649238Y-96136869D01*
X137006571Y-109191345D02*
X137030762Y-109215536D01*
X137030762Y-109215536D02*
X137103333Y-109239726D01*
X137103333Y-109239726D02*
X137151714Y-109239726D01*
X137151714Y-109239726D02*
X137224286Y-109215536D01*
X137224286Y-109215536D02*
X137272667Y-109167155D01*
X137272667Y-109167155D02*
X137296857Y-109118774D01*
X137296857Y-109118774D02*
X137321048Y-109022012D01*
X137321048Y-109022012D02*
X137321048Y-108949440D01*
X137321048Y-108949440D02*
X137296857Y-108852678D01*
X137296857Y-108852678D02*
X137272667Y-108804297D01*
X137272667Y-108804297D02*
X137224286Y-108755916D01*
X137224286Y-108755916D02*
X137151714Y-108731726D01*
X137151714Y-108731726D02*
X137103333Y-108731726D01*
X137103333Y-108731726D02*
X137030762Y-108755916D01*
X137030762Y-108755916D02*
X137006571Y-108780107D01*
X136837238Y-108731726D02*
X136498571Y-108731726D01*
X136498571Y-108731726D02*
X136716286Y-109239726D01*
X138326571Y-93721345D02*
X138350762Y-93745536D01*
X138350762Y-93745536D02*
X138423333Y-93769726D01*
X138423333Y-93769726D02*
X138471714Y-93769726D01*
X138471714Y-93769726D02*
X138544286Y-93745536D01*
X138544286Y-93745536D02*
X138592667Y-93697155D01*
X138592667Y-93697155D02*
X138616857Y-93648774D01*
X138616857Y-93648774D02*
X138641048Y-93552012D01*
X138641048Y-93552012D02*
X138641048Y-93479440D01*
X138641048Y-93479440D02*
X138616857Y-93382678D01*
X138616857Y-93382678D02*
X138592667Y-93334297D01*
X138592667Y-93334297D02*
X138544286Y-93285916D01*
X138544286Y-93285916D02*
X138471714Y-93261726D01*
X138471714Y-93261726D02*
X138423333Y-93261726D01*
X138423333Y-93261726D02*
X138350762Y-93285916D01*
X138350762Y-93285916D02*
X138326571Y-93310107D01*
X138133048Y-93310107D02*
X138108857Y-93285916D01*
X138108857Y-93285916D02*
X138060476Y-93261726D01*
X138060476Y-93261726D02*
X137939524Y-93261726D01*
X137939524Y-93261726D02*
X137891143Y-93285916D01*
X137891143Y-93285916D02*
X137866952Y-93310107D01*
X137866952Y-93310107D02*
X137842762Y-93358488D01*
X137842762Y-93358488D02*
X137842762Y-93406869D01*
X137842762Y-93406869D02*
X137866952Y-93479440D01*
X137866952Y-93479440D02*
X138157238Y-93769726D01*
X138157238Y-93769726D02*
X137842762Y-93769726D01*
X137552476Y-93479440D02*
X137600857Y-93455250D01*
X137600857Y-93455250D02*
X137625047Y-93431059D01*
X137625047Y-93431059D02*
X137649238Y-93382678D01*
X137649238Y-93382678D02*
X137649238Y-93358488D01*
X137649238Y-93358488D02*
X137625047Y-93310107D01*
X137625047Y-93310107D02*
X137600857Y-93285916D01*
X137600857Y-93285916D02*
X137552476Y-93261726D01*
X137552476Y-93261726D02*
X137455714Y-93261726D01*
X137455714Y-93261726D02*
X137407333Y-93285916D01*
X137407333Y-93285916D02*
X137383142Y-93310107D01*
X137383142Y-93310107D02*
X137358952Y-93358488D01*
X137358952Y-93358488D02*
X137358952Y-93382678D01*
X137358952Y-93382678D02*
X137383142Y-93431059D01*
X137383142Y-93431059D02*
X137407333Y-93455250D01*
X137407333Y-93455250D02*
X137455714Y-93479440D01*
X137455714Y-93479440D02*
X137552476Y-93479440D01*
X137552476Y-93479440D02*
X137600857Y-93503631D01*
X137600857Y-93503631D02*
X137625047Y-93527821D01*
X137625047Y-93527821D02*
X137649238Y-93576202D01*
X137649238Y-93576202D02*
X137649238Y-93672964D01*
X137649238Y-93672964D02*
X137625047Y-93721345D01*
X137625047Y-93721345D02*
X137600857Y-93745536D01*
X137600857Y-93745536D02*
X137552476Y-93769726D01*
X137552476Y-93769726D02*
X137455714Y-93769726D01*
X137455714Y-93769726D02*
X137407333Y-93745536D01*
X137407333Y-93745536D02*
X137383142Y-93721345D01*
X137383142Y-93721345D02*
X137358952Y-93672964D01*
X137358952Y-93672964D02*
X137358952Y-93576202D01*
X137358952Y-93576202D02*
X137383142Y-93527821D01*
X137383142Y-93527821D02*
X137407333Y-93503631D01*
X137407333Y-93503631D02*
X137455714Y-93479440D01*
X138326571Y-97391145D02*
X138350762Y-97415336D01*
X138350762Y-97415336D02*
X138423333Y-97439526D01*
X138423333Y-97439526D02*
X138471714Y-97439526D01*
X138471714Y-97439526D02*
X138544286Y-97415336D01*
X138544286Y-97415336D02*
X138592667Y-97366955D01*
X138592667Y-97366955D02*
X138616857Y-97318574D01*
X138616857Y-97318574D02*
X138641048Y-97221812D01*
X138641048Y-97221812D02*
X138641048Y-97149240D01*
X138641048Y-97149240D02*
X138616857Y-97052478D01*
X138616857Y-97052478D02*
X138592667Y-97004097D01*
X138592667Y-97004097D02*
X138544286Y-96955716D01*
X138544286Y-96955716D02*
X138471714Y-96931526D01*
X138471714Y-96931526D02*
X138423333Y-96931526D01*
X138423333Y-96931526D02*
X138350762Y-96955716D01*
X138350762Y-96955716D02*
X138326571Y-96979907D01*
X138157238Y-96931526D02*
X137842762Y-96931526D01*
X137842762Y-96931526D02*
X138012095Y-97125050D01*
X138012095Y-97125050D02*
X137939524Y-97125050D01*
X137939524Y-97125050D02*
X137891143Y-97149240D01*
X137891143Y-97149240D02*
X137866952Y-97173431D01*
X137866952Y-97173431D02*
X137842762Y-97221812D01*
X137842762Y-97221812D02*
X137842762Y-97342764D01*
X137842762Y-97342764D02*
X137866952Y-97391145D01*
X137866952Y-97391145D02*
X137891143Y-97415336D01*
X137891143Y-97415336D02*
X137939524Y-97439526D01*
X137939524Y-97439526D02*
X138084667Y-97439526D01*
X138084667Y-97439526D02*
X138133048Y-97415336D01*
X138133048Y-97415336D02*
X138157238Y-97391145D01*
X137649238Y-96979907D02*
X137625047Y-96955716D01*
X137625047Y-96955716D02*
X137576666Y-96931526D01*
X137576666Y-96931526D02*
X137455714Y-96931526D01*
X137455714Y-96931526D02*
X137407333Y-96955716D01*
X137407333Y-96955716D02*
X137383142Y-96979907D01*
X137383142Y-96979907D02*
X137358952Y-97028288D01*
X137358952Y-97028288D02*
X137358952Y-97076669D01*
X137358952Y-97076669D02*
X137383142Y-97149240D01*
X137383142Y-97149240D02*
X137673428Y-97439526D01*
X137673428Y-97439526D02*
X137358952Y-97439526D01*
X140526571Y-101280145D02*
X140550762Y-101304336D01*
X140550762Y-101304336D02*
X140623333Y-101328526D01*
X140623333Y-101328526D02*
X140671714Y-101328526D01*
X140671714Y-101328526D02*
X140744286Y-101304336D01*
X140744286Y-101304336D02*
X140792667Y-101255955D01*
X140792667Y-101255955D02*
X140816857Y-101207574D01*
X140816857Y-101207574D02*
X140841048Y-101110812D01*
X140841048Y-101110812D02*
X140841048Y-101038240D01*
X140841048Y-101038240D02*
X140816857Y-100941478D01*
X140816857Y-100941478D02*
X140792667Y-100893097D01*
X140792667Y-100893097D02*
X140744286Y-100844716D01*
X140744286Y-100844716D02*
X140671714Y-100820526D01*
X140671714Y-100820526D02*
X140623333Y-100820526D01*
X140623333Y-100820526D02*
X140550762Y-100844716D01*
X140550762Y-100844716D02*
X140526571Y-100868907D01*
X140357238Y-100820526D02*
X140042762Y-100820526D01*
X140042762Y-100820526D02*
X140212095Y-101014050D01*
X140212095Y-101014050D02*
X140139524Y-101014050D01*
X140139524Y-101014050D02*
X140091143Y-101038240D01*
X140091143Y-101038240D02*
X140066952Y-101062431D01*
X140066952Y-101062431D02*
X140042762Y-101110812D01*
X140042762Y-101110812D02*
X140042762Y-101231764D01*
X140042762Y-101231764D02*
X140066952Y-101280145D01*
X140066952Y-101280145D02*
X140091143Y-101304336D01*
X140091143Y-101304336D02*
X140139524Y-101328526D01*
X140139524Y-101328526D02*
X140284667Y-101328526D01*
X140284667Y-101328526D02*
X140333048Y-101304336D01*
X140333048Y-101304336D02*
X140357238Y-101280145D01*
X139873428Y-100820526D02*
X139534761Y-100820526D01*
X139534761Y-100820526D02*
X139752476Y-101328526D01*
X143579726Y-116545333D02*
X143337821Y-116375999D01*
X143579726Y-116255047D02*
X143071726Y-116255047D01*
X143071726Y-116255047D02*
X143071726Y-116448571D01*
X143071726Y-116448571D02*
X143095916Y-116496952D01*
X143095916Y-116496952D02*
X143120107Y-116521142D01*
X143120107Y-116521142D02*
X143168488Y-116545333D01*
X143168488Y-116545333D02*
X143241059Y-116545333D01*
X143241059Y-116545333D02*
X143289440Y-116521142D01*
X143289440Y-116521142D02*
X143313631Y-116496952D01*
X143313631Y-116496952D02*
X143337821Y-116448571D01*
X143337821Y-116448571D02*
X143337821Y-116255047D01*
X143071726Y-116714666D02*
X143071726Y-117053333D01*
X143071726Y-117053333D02*
X143579726Y-116835618D01*
X153402071Y-118582345D02*
X153426262Y-118606536D01*
X153426262Y-118606536D02*
X153498833Y-118630726D01*
X153498833Y-118630726D02*
X153547214Y-118630726D01*
X153547214Y-118630726D02*
X153619786Y-118606536D01*
X153619786Y-118606536D02*
X153668167Y-118558155D01*
X153668167Y-118558155D02*
X153692357Y-118509774D01*
X153692357Y-118509774D02*
X153716548Y-118413012D01*
X153716548Y-118413012D02*
X153716548Y-118340440D01*
X153716548Y-118340440D02*
X153692357Y-118243678D01*
X153692357Y-118243678D02*
X153668167Y-118195297D01*
X153668167Y-118195297D02*
X153619786Y-118146916D01*
X153619786Y-118146916D02*
X153547214Y-118122726D01*
X153547214Y-118122726D02*
X153498833Y-118122726D01*
X153498833Y-118122726D02*
X153426262Y-118146916D01*
X153426262Y-118146916D02*
X153402071Y-118171107D01*
X152942452Y-118122726D02*
X153184357Y-118122726D01*
X153184357Y-118122726D02*
X153208548Y-118364631D01*
X153208548Y-118364631D02*
X153184357Y-118340440D01*
X153184357Y-118340440D02*
X153135976Y-118316250D01*
X153135976Y-118316250D02*
X153015024Y-118316250D01*
X153015024Y-118316250D02*
X152966643Y-118340440D01*
X152966643Y-118340440D02*
X152942452Y-118364631D01*
X152942452Y-118364631D02*
X152918262Y-118413012D01*
X152918262Y-118413012D02*
X152918262Y-118533964D01*
X152918262Y-118533964D02*
X152942452Y-118582345D01*
X152942452Y-118582345D02*
X152966643Y-118606536D01*
X152966643Y-118606536D02*
X153015024Y-118630726D01*
X153015024Y-118630726D02*
X153135976Y-118630726D01*
X153135976Y-118630726D02*
X153184357Y-118606536D01*
X153184357Y-118606536D02*
X153208548Y-118582345D01*
X152603785Y-118122726D02*
X152555404Y-118122726D01*
X152555404Y-118122726D02*
X152507023Y-118146916D01*
X152507023Y-118146916D02*
X152482833Y-118171107D01*
X152482833Y-118171107D02*
X152458642Y-118219488D01*
X152458642Y-118219488D02*
X152434452Y-118316250D01*
X152434452Y-118316250D02*
X152434452Y-118437202D01*
X152434452Y-118437202D02*
X152458642Y-118533964D01*
X152458642Y-118533964D02*
X152482833Y-118582345D01*
X152482833Y-118582345D02*
X152507023Y-118606536D01*
X152507023Y-118606536D02*
X152555404Y-118630726D01*
X152555404Y-118630726D02*
X152603785Y-118630726D01*
X152603785Y-118630726D02*
X152652166Y-118606536D01*
X152652166Y-118606536D02*
X152676357Y-118582345D01*
X152676357Y-118582345D02*
X152700547Y-118533964D01*
X152700547Y-118533964D02*
X152724738Y-118437202D01*
X152724738Y-118437202D02*
X152724738Y-118316250D01*
X152724738Y-118316250D02*
X152700547Y-118219488D01*
X152700547Y-118219488D02*
X152676357Y-118171107D01*
X152676357Y-118171107D02*
X152652166Y-118146916D01*
X152652166Y-118146916D02*
X152603785Y-118122726D01*
X136657047Y-112641726D02*
X136657047Y-113052964D01*
X136657047Y-113052964D02*
X136632857Y-113101345D01*
X136632857Y-113101345D02*
X136608666Y-113125536D01*
X136608666Y-113125536D02*
X136560285Y-113149726D01*
X136560285Y-113149726D02*
X136463523Y-113149726D01*
X136463523Y-113149726D02*
X136415142Y-113125536D01*
X136415142Y-113125536D02*
X136390952Y-113101345D01*
X136390952Y-113101345D02*
X136366761Y-113052964D01*
X136366761Y-113052964D02*
X136366761Y-112641726D01*
X136173238Y-112641726D02*
X135858762Y-112641726D01*
X135858762Y-112641726D02*
X136028095Y-112835250D01*
X136028095Y-112835250D02*
X135955524Y-112835250D01*
X135955524Y-112835250D02*
X135907143Y-112859440D01*
X135907143Y-112859440D02*
X135882952Y-112883631D01*
X135882952Y-112883631D02*
X135858762Y-112932012D01*
X135858762Y-112932012D02*
X135858762Y-113052964D01*
X135858762Y-113052964D02*
X135882952Y-113101345D01*
X135882952Y-113101345D02*
X135907143Y-113125536D01*
X135907143Y-113125536D02*
X135955524Y-113149726D01*
X135955524Y-113149726D02*
X136100667Y-113149726D01*
X136100667Y-113149726D02*
X136149048Y-113125536D01*
X136149048Y-113125536D02*
X136173238Y-113101345D01*
X138326571Y-94571745D02*
X138350762Y-94595936D01*
X138350762Y-94595936D02*
X138423333Y-94620126D01*
X138423333Y-94620126D02*
X138471714Y-94620126D01*
X138471714Y-94620126D02*
X138544286Y-94595936D01*
X138544286Y-94595936D02*
X138592667Y-94547555D01*
X138592667Y-94547555D02*
X138616857Y-94499174D01*
X138616857Y-94499174D02*
X138641048Y-94402412D01*
X138641048Y-94402412D02*
X138641048Y-94329840D01*
X138641048Y-94329840D02*
X138616857Y-94233078D01*
X138616857Y-94233078D02*
X138592667Y-94184697D01*
X138592667Y-94184697D02*
X138544286Y-94136316D01*
X138544286Y-94136316D02*
X138471714Y-94112126D01*
X138471714Y-94112126D02*
X138423333Y-94112126D01*
X138423333Y-94112126D02*
X138350762Y-94136316D01*
X138350762Y-94136316D02*
X138326571Y-94160507D01*
X138133048Y-94160507D02*
X138108857Y-94136316D01*
X138108857Y-94136316D02*
X138060476Y-94112126D01*
X138060476Y-94112126D02*
X137939524Y-94112126D01*
X137939524Y-94112126D02*
X137891143Y-94136316D01*
X137891143Y-94136316D02*
X137866952Y-94160507D01*
X137866952Y-94160507D02*
X137842762Y-94208888D01*
X137842762Y-94208888D02*
X137842762Y-94257269D01*
X137842762Y-94257269D02*
X137866952Y-94329840D01*
X137866952Y-94329840D02*
X138157238Y-94620126D01*
X138157238Y-94620126D02*
X137842762Y-94620126D01*
X137600857Y-94620126D02*
X137504095Y-94620126D01*
X137504095Y-94620126D02*
X137455714Y-94595936D01*
X137455714Y-94595936D02*
X137431523Y-94571745D01*
X137431523Y-94571745D02*
X137383142Y-94499174D01*
X137383142Y-94499174D02*
X137358952Y-94402412D01*
X137358952Y-94402412D02*
X137358952Y-94208888D01*
X137358952Y-94208888D02*
X137383142Y-94160507D01*
X137383142Y-94160507D02*
X137407333Y-94136316D01*
X137407333Y-94136316D02*
X137455714Y-94112126D01*
X137455714Y-94112126D02*
X137552476Y-94112126D01*
X137552476Y-94112126D02*
X137600857Y-94136316D01*
X137600857Y-94136316D02*
X137625047Y-94160507D01*
X137625047Y-94160507D02*
X137649238Y-94208888D01*
X137649238Y-94208888D02*
X137649238Y-94329840D01*
X137649238Y-94329840D02*
X137625047Y-94378221D01*
X137625047Y-94378221D02*
X137600857Y-94402412D01*
X137600857Y-94402412D02*
X137552476Y-94426602D01*
X137552476Y-94426602D02*
X137455714Y-94426602D01*
X137455714Y-94426602D02*
X137407333Y-94402412D01*
X137407333Y-94402412D02*
X137383142Y-94378221D01*
X137383142Y-94378221D02*
X137358952Y-94329840D01*
X153402071Y-124221145D02*
X153426262Y-124245336D01*
X153426262Y-124245336D02*
X153498833Y-124269526D01*
X153498833Y-124269526D02*
X153547214Y-124269526D01*
X153547214Y-124269526D02*
X153619786Y-124245336D01*
X153619786Y-124245336D02*
X153668167Y-124196955D01*
X153668167Y-124196955D02*
X153692357Y-124148574D01*
X153692357Y-124148574D02*
X153716548Y-124051812D01*
X153716548Y-124051812D02*
X153716548Y-123979240D01*
X153716548Y-123979240D02*
X153692357Y-123882478D01*
X153692357Y-123882478D02*
X153668167Y-123834097D01*
X153668167Y-123834097D02*
X153619786Y-123785716D01*
X153619786Y-123785716D02*
X153547214Y-123761526D01*
X153547214Y-123761526D02*
X153498833Y-123761526D01*
X153498833Y-123761526D02*
X153426262Y-123785716D01*
X153426262Y-123785716D02*
X153402071Y-123809907D01*
X152942452Y-123761526D02*
X153184357Y-123761526D01*
X153184357Y-123761526D02*
X153208548Y-124003431D01*
X153208548Y-124003431D02*
X153184357Y-123979240D01*
X153184357Y-123979240D02*
X153135976Y-123955050D01*
X153135976Y-123955050D02*
X153015024Y-123955050D01*
X153015024Y-123955050D02*
X152966643Y-123979240D01*
X152966643Y-123979240D02*
X152942452Y-124003431D01*
X152942452Y-124003431D02*
X152918262Y-124051812D01*
X152918262Y-124051812D02*
X152918262Y-124172764D01*
X152918262Y-124172764D02*
X152942452Y-124221145D01*
X152942452Y-124221145D02*
X152966643Y-124245336D01*
X152966643Y-124245336D02*
X153015024Y-124269526D01*
X153015024Y-124269526D02*
X153135976Y-124269526D01*
X153135976Y-124269526D02*
X153184357Y-124245336D01*
X153184357Y-124245336D02*
X153208548Y-124221145D01*
X152748928Y-123761526D02*
X152410261Y-123761526D01*
X152410261Y-123761526D02*
X152627976Y-124269526D01*
X143599726Y-118855333D02*
X143357821Y-118685999D01*
X143599726Y-118565047D02*
X143091726Y-118565047D01*
X143091726Y-118565047D02*
X143091726Y-118758571D01*
X143091726Y-118758571D02*
X143115916Y-118806952D01*
X143115916Y-118806952D02*
X143140107Y-118831142D01*
X143140107Y-118831142D02*
X143188488Y-118855333D01*
X143188488Y-118855333D02*
X143261059Y-118855333D01*
X143261059Y-118855333D02*
X143309440Y-118831142D01*
X143309440Y-118831142D02*
X143333631Y-118806952D01*
X143333631Y-118806952D02*
X143357821Y-118758571D01*
X143357821Y-118758571D02*
X143357821Y-118565047D01*
X143309440Y-119145618D02*
X143285250Y-119097237D01*
X143285250Y-119097237D02*
X143261059Y-119073047D01*
X143261059Y-119073047D02*
X143212678Y-119048856D01*
X143212678Y-119048856D02*
X143188488Y-119048856D01*
X143188488Y-119048856D02*
X143140107Y-119073047D01*
X143140107Y-119073047D02*
X143115916Y-119097237D01*
X143115916Y-119097237D02*
X143091726Y-119145618D01*
X143091726Y-119145618D02*
X143091726Y-119242380D01*
X143091726Y-119242380D02*
X143115916Y-119290761D01*
X143115916Y-119290761D02*
X143140107Y-119314952D01*
X143140107Y-119314952D02*
X143188488Y-119339142D01*
X143188488Y-119339142D02*
X143212678Y-119339142D01*
X143212678Y-119339142D02*
X143261059Y-119314952D01*
X143261059Y-119314952D02*
X143285250Y-119290761D01*
X143285250Y-119290761D02*
X143309440Y-119242380D01*
X143309440Y-119242380D02*
X143309440Y-119145618D01*
X143309440Y-119145618D02*
X143333631Y-119097237D01*
X143333631Y-119097237D02*
X143357821Y-119073047D01*
X143357821Y-119073047D02*
X143406202Y-119048856D01*
X143406202Y-119048856D02*
X143502964Y-119048856D01*
X143502964Y-119048856D02*
X143551345Y-119073047D01*
X143551345Y-119073047D02*
X143575536Y-119097237D01*
X143575536Y-119097237D02*
X143599726Y-119145618D01*
X143599726Y-119145618D02*
X143599726Y-119242380D01*
X143599726Y-119242380D02*
X143575536Y-119290761D01*
X143575536Y-119290761D02*
X143551345Y-119314952D01*
X143551345Y-119314952D02*
X143502964Y-119339142D01*
X143502964Y-119339142D02*
X143406202Y-119339142D01*
X143406202Y-119339142D02*
X143357821Y-119314952D01*
X143357821Y-119314952D02*
X143333631Y-119290761D01*
X143333631Y-119290761D02*
X143309440Y-119242380D01*
X153402071Y-122341545D02*
X153426262Y-122365736D01*
X153426262Y-122365736D02*
X153498833Y-122389926D01*
X153498833Y-122389926D02*
X153547214Y-122389926D01*
X153547214Y-122389926D02*
X153619786Y-122365736D01*
X153619786Y-122365736D02*
X153668167Y-122317355D01*
X153668167Y-122317355D02*
X153692357Y-122268974D01*
X153692357Y-122268974D02*
X153716548Y-122172212D01*
X153716548Y-122172212D02*
X153716548Y-122099640D01*
X153716548Y-122099640D02*
X153692357Y-122002878D01*
X153692357Y-122002878D02*
X153668167Y-121954497D01*
X153668167Y-121954497D02*
X153619786Y-121906116D01*
X153619786Y-121906116D02*
X153547214Y-121881926D01*
X153547214Y-121881926D02*
X153498833Y-121881926D01*
X153498833Y-121881926D02*
X153426262Y-121906116D01*
X153426262Y-121906116D02*
X153402071Y-121930307D01*
X152966643Y-122051259D02*
X152966643Y-122389926D01*
X153087595Y-121857736D02*
X153208548Y-122220593D01*
X153208548Y-122220593D02*
X152894071Y-122220593D01*
X152482833Y-121881926D02*
X152579595Y-121881926D01*
X152579595Y-121881926D02*
X152627976Y-121906116D01*
X152627976Y-121906116D02*
X152652166Y-121930307D01*
X152652166Y-121930307D02*
X152700547Y-122002878D01*
X152700547Y-122002878D02*
X152724738Y-122099640D01*
X152724738Y-122099640D02*
X152724738Y-122293164D01*
X152724738Y-122293164D02*
X152700547Y-122341545D01*
X152700547Y-122341545D02*
X152676357Y-122365736D01*
X152676357Y-122365736D02*
X152627976Y-122389926D01*
X152627976Y-122389926D02*
X152531214Y-122389926D01*
X152531214Y-122389926D02*
X152482833Y-122365736D01*
X152482833Y-122365736D02*
X152458642Y-122341545D01*
X152458642Y-122341545D02*
X152434452Y-122293164D01*
X152434452Y-122293164D02*
X152434452Y-122172212D01*
X152434452Y-122172212D02*
X152458642Y-122123831D01*
X152458642Y-122123831D02*
X152482833Y-122099640D01*
X152482833Y-122099640D02*
X152531214Y-122075450D01*
X152531214Y-122075450D02*
X152627976Y-122075450D01*
X152627976Y-122075450D02*
X152676357Y-122099640D01*
X152676357Y-122099640D02*
X152700547Y-122123831D01*
X152700547Y-122123831D02*
X152724738Y-122172212D01*
X140526571Y-100340345D02*
X140550762Y-100364536D01*
X140550762Y-100364536D02*
X140623333Y-100388726D01*
X140623333Y-100388726D02*
X140671714Y-100388726D01*
X140671714Y-100388726D02*
X140744286Y-100364536D01*
X140744286Y-100364536D02*
X140792667Y-100316155D01*
X140792667Y-100316155D02*
X140816857Y-100267774D01*
X140816857Y-100267774D02*
X140841048Y-100171012D01*
X140841048Y-100171012D02*
X140841048Y-100098440D01*
X140841048Y-100098440D02*
X140816857Y-100001678D01*
X140816857Y-100001678D02*
X140792667Y-99953297D01*
X140792667Y-99953297D02*
X140744286Y-99904916D01*
X140744286Y-99904916D02*
X140671714Y-99880726D01*
X140671714Y-99880726D02*
X140623333Y-99880726D01*
X140623333Y-99880726D02*
X140550762Y-99904916D01*
X140550762Y-99904916D02*
X140526571Y-99929107D01*
X140357238Y-99880726D02*
X140042762Y-99880726D01*
X140042762Y-99880726D02*
X140212095Y-100074250D01*
X140212095Y-100074250D02*
X140139524Y-100074250D01*
X140139524Y-100074250D02*
X140091143Y-100098440D01*
X140091143Y-100098440D02*
X140066952Y-100122631D01*
X140066952Y-100122631D02*
X140042762Y-100171012D01*
X140042762Y-100171012D02*
X140042762Y-100291964D01*
X140042762Y-100291964D02*
X140066952Y-100340345D01*
X140066952Y-100340345D02*
X140091143Y-100364536D01*
X140091143Y-100364536D02*
X140139524Y-100388726D01*
X140139524Y-100388726D02*
X140284667Y-100388726D01*
X140284667Y-100388726D02*
X140333048Y-100364536D01*
X140333048Y-100364536D02*
X140357238Y-100340345D01*
X139752476Y-100098440D02*
X139800857Y-100074250D01*
X139800857Y-100074250D02*
X139825047Y-100050059D01*
X139825047Y-100050059D02*
X139849238Y-100001678D01*
X139849238Y-100001678D02*
X139849238Y-99977488D01*
X139849238Y-99977488D02*
X139825047Y-99929107D01*
X139825047Y-99929107D02*
X139800857Y-99904916D01*
X139800857Y-99904916D02*
X139752476Y-99880726D01*
X139752476Y-99880726D02*
X139655714Y-99880726D01*
X139655714Y-99880726D02*
X139607333Y-99904916D01*
X139607333Y-99904916D02*
X139583142Y-99929107D01*
X139583142Y-99929107D02*
X139558952Y-99977488D01*
X139558952Y-99977488D02*
X139558952Y-100001678D01*
X139558952Y-100001678D02*
X139583142Y-100050059D01*
X139583142Y-100050059D02*
X139607333Y-100074250D01*
X139607333Y-100074250D02*
X139655714Y-100098440D01*
X139655714Y-100098440D02*
X139752476Y-100098440D01*
X139752476Y-100098440D02*
X139800857Y-100122631D01*
X139800857Y-100122631D02*
X139825047Y-100146821D01*
X139825047Y-100146821D02*
X139849238Y-100195202D01*
X139849238Y-100195202D02*
X139849238Y-100291964D01*
X139849238Y-100291964D02*
X139825047Y-100340345D01*
X139825047Y-100340345D02*
X139800857Y-100364536D01*
X139800857Y-100364536D02*
X139752476Y-100388726D01*
X139752476Y-100388726D02*
X139655714Y-100388726D01*
X139655714Y-100388726D02*
X139607333Y-100364536D01*
X139607333Y-100364536D02*
X139583142Y-100340345D01*
X139583142Y-100340345D02*
X139558952Y-100291964D01*
X139558952Y-100291964D02*
X139558952Y-100195202D01*
X139558952Y-100195202D02*
X139583142Y-100146821D01*
X139583142Y-100146821D02*
X139607333Y-100122631D01*
X139607333Y-100122631D02*
X139655714Y-100098440D01*
X140526571Y-97520945D02*
X140550762Y-97545136D01*
X140550762Y-97545136D02*
X140623333Y-97569326D01*
X140623333Y-97569326D02*
X140671714Y-97569326D01*
X140671714Y-97569326D02*
X140744286Y-97545136D01*
X140744286Y-97545136D02*
X140792667Y-97496755D01*
X140792667Y-97496755D02*
X140816857Y-97448374D01*
X140816857Y-97448374D02*
X140841048Y-97351612D01*
X140841048Y-97351612D02*
X140841048Y-97279040D01*
X140841048Y-97279040D02*
X140816857Y-97182278D01*
X140816857Y-97182278D02*
X140792667Y-97133897D01*
X140792667Y-97133897D02*
X140744286Y-97085516D01*
X140744286Y-97085516D02*
X140671714Y-97061326D01*
X140671714Y-97061326D02*
X140623333Y-97061326D01*
X140623333Y-97061326D02*
X140550762Y-97085516D01*
X140550762Y-97085516D02*
X140526571Y-97109707D01*
X140091143Y-97230659D02*
X140091143Y-97569326D01*
X140212095Y-97037136D02*
X140333048Y-97399993D01*
X140333048Y-97399993D02*
X140018571Y-97399993D01*
X139558952Y-97569326D02*
X139849238Y-97569326D01*
X139704095Y-97569326D02*
X139704095Y-97061326D01*
X139704095Y-97061326D02*
X139752476Y-97133897D01*
X139752476Y-97133897D02*
X139800857Y-97182278D01*
X139800857Y-97182278D02*
X139849238Y-97206469D01*
X151102145Y-114543428D02*
X151126336Y-114519237D01*
X151126336Y-114519237D02*
X151150526Y-114446666D01*
X151150526Y-114446666D02*
X151150526Y-114398285D01*
X151150526Y-114398285D02*
X151126336Y-114325713D01*
X151126336Y-114325713D02*
X151077955Y-114277332D01*
X151077955Y-114277332D02*
X151029574Y-114253142D01*
X151029574Y-114253142D02*
X150932812Y-114228951D01*
X150932812Y-114228951D02*
X150860240Y-114228951D01*
X150860240Y-114228951D02*
X150763478Y-114253142D01*
X150763478Y-114253142D02*
X150715097Y-114277332D01*
X150715097Y-114277332D02*
X150666716Y-114325713D01*
X150666716Y-114325713D02*
X150642526Y-114398285D01*
X150642526Y-114398285D02*
X150642526Y-114446666D01*
X150642526Y-114446666D02*
X150666716Y-114519237D01*
X150666716Y-114519237D02*
X150690907Y-114543428D01*
X150690907Y-114736951D02*
X150666716Y-114761142D01*
X150666716Y-114761142D02*
X150642526Y-114809523D01*
X150642526Y-114809523D02*
X150642526Y-114930475D01*
X150642526Y-114930475D02*
X150666716Y-114978856D01*
X150666716Y-114978856D02*
X150690907Y-115003047D01*
X150690907Y-115003047D02*
X150739288Y-115027237D01*
X150739288Y-115027237D02*
X150787669Y-115027237D01*
X150787669Y-115027237D02*
X150860240Y-115003047D01*
X150860240Y-115003047D02*
X151150526Y-114712761D01*
X151150526Y-114712761D02*
X151150526Y-115027237D01*
X151150526Y-115511047D02*
X151150526Y-115220761D01*
X151150526Y-115365904D02*
X150642526Y-115365904D01*
X150642526Y-115365904D02*
X150715097Y-115317523D01*
X150715097Y-115317523D02*
X150763478Y-115269142D01*
X150763478Y-115269142D02*
X150787669Y-115220761D01*
X142561345Y-112385333D02*
X142585536Y-112361142D01*
X142585536Y-112361142D02*
X142609726Y-112288571D01*
X142609726Y-112288571D02*
X142609726Y-112240190D01*
X142609726Y-112240190D02*
X142585536Y-112167618D01*
X142585536Y-112167618D02*
X142537155Y-112119237D01*
X142537155Y-112119237D02*
X142488774Y-112095047D01*
X142488774Y-112095047D02*
X142392012Y-112070856D01*
X142392012Y-112070856D02*
X142319440Y-112070856D01*
X142319440Y-112070856D02*
X142222678Y-112095047D01*
X142222678Y-112095047D02*
X142174297Y-112119237D01*
X142174297Y-112119237D02*
X142125916Y-112167618D01*
X142125916Y-112167618D02*
X142101726Y-112240190D01*
X142101726Y-112240190D02*
X142101726Y-112288571D01*
X142101726Y-112288571D02*
X142125916Y-112361142D01*
X142125916Y-112361142D02*
X142150107Y-112385333D01*
X142271059Y-112820761D02*
X142609726Y-112820761D01*
X142077536Y-112699809D02*
X142440393Y-112578856D01*
X142440393Y-112578856D02*
X142440393Y-112893333D01*
X140526571Y-94701545D02*
X140550762Y-94725736D01*
X140550762Y-94725736D02*
X140623333Y-94749926D01*
X140623333Y-94749926D02*
X140671714Y-94749926D01*
X140671714Y-94749926D02*
X140744286Y-94725736D01*
X140744286Y-94725736D02*
X140792667Y-94677355D01*
X140792667Y-94677355D02*
X140816857Y-94628974D01*
X140816857Y-94628974D02*
X140841048Y-94532212D01*
X140841048Y-94532212D02*
X140841048Y-94459640D01*
X140841048Y-94459640D02*
X140816857Y-94362878D01*
X140816857Y-94362878D02*
X140792667Y-94314497D01*
X140792667Y-94314497D02*
X140744286Y-94266116D01*
X140744286Y-94266116D02*
X140671714Y-94241926D01*
X140671714Y-94241926D02*
X140623333Y-94241926D01*
X140623333Y-94241926D02*
X140550762Y-94266116D01*
X140550762Y-94266116D02*
X140526571Y-94290307D01*
X140091143Y-94411259D02*
X140091143Y-94749926D01*
X140212095Y-94217736D02*
X140333048Y-94580593D01*
X140333048Y-94580593D02*
X140018571Y-94580593D01*
X139607333Y-94411259D02*
X139607333Y-94749926D01*
X139728285Y-94217736D02*
X139849238Y-94580593D01*
X139849238Y-94580593D02*
X139534761Y-94580593D01*
X136184666Y-122759726D02*
X136354000Y-122517821D01*
X136474952Y-122759726D02*
X136474952Y-122251726D01*
X136474952Y-122251726D02*
X136281428Y-122251726D01*
X136281428Y-122251726D02*
X136233047Y-122275916D01*
X136233047Y-122275916D02*
X136208857Y-122300107D01*
X136208857Y-122300107D02*
X136184666Y-122348488D01*
X136184666Y-122348488D02*
X136184666Y-122421059D01*
X136184666Y-122421059D02*
X136208857Y-122469440D01*
X136208857Y-122469440D02*
X136233047Y-122493631D01*
X136233047Y-122493631D02*
X136281428Y-122517821D01*
X136281428Y-122517821D02*
X136474952Y-122517821D01*
X135749238Y-122251726D02*
X135846000Y-122251726D01*
X135846000Y-122251726D02*
X135894381Y-122275916D01*
X135894381Y-122275916D02*
X135918571Y-122300107D01*
X135918571Y-122300107D02*
X135966952Y-122372678D01*
X135966952Y-122372678D02*
X135991143Y-122469440D01*
X135991143Y-122469440D02*
X135991143Y-122662964D01*
X135991143Y-122662964D02*
X135966952Y-122711345D01*
X135966952Y-122711345D02*
X135942762Y-122735536D01*
X135942762Y-122735536D02*
X135894381Y-122759726D01*
X135894381Y-122759726D02*
X135797619Y-122759726D01*
X135797619Y-122759726D02*
X135749238Y-122735536D01*
X135749238Y-122735536D02*
X135725047Y-122711345D01*
X135725047Y-122711345D02*
X135700857Y-122662964D01*
X135700857Y-122662964D02*
X135700857Y-122542012D01*
X135700857Y-122542012D02*
X135725047Y-122493631D01*
X135725047Y-122493631D02*
X135749238Y-122469440D01*
X135749238Y-122469440D02*
X135797619Y-122445250D01*
X135797619Y-122445250D02*
X135894381Y-122445250D01*
X135894381Y-122445250D02*
X135942762Y-122469440D01*
X135942762Y-122469440D02*
X135966952Y-122493631D01*
X135966952Y-122493631D02*
X135991143Y-122542012D01*
X153402071Y-121401745D02*
X153426262Y-121425936D01*
X153426262Y-121425936D02*
X153498833Y-121450126D01*
X153498833Y-121450126D02*
X153547214Y-121450126D01*
X153547214Y-121450126D02*
X153619786Y-121425936D01*
X153619786Y-121425936D02*
X153668167Y-121377555D01*
X153668167Y-121377555D02*
X153692357Y-121329174D01*
X153692357Y-121329174D02*
X153716548Y-121232412D01*
X153716548Y-121232412D02*
X153716548Y-121159840D01*
X153716548Y-121159840D02*
X153692357Y-121063078D01*
X153692357Y-121063078D02*
X153668167Y-121014697D01*
X153668167Y-121014697D02*
X153619786Y-120966316D01*
X153619786Y-120966316D02*
X153547214Y-120942126D01*
X153547214Y-120942126D02*
X153498833Y-120942126D01*
X153498833Y-120942126D02*
X153426262Y-120966316D01*
X153426262Y-120966316D02*
X153402071Y-120990507D01*
X152966643Y-121111459D02*
X152966643Y-121450126D01*
X153087595Y-120917936D02*
X153208548Y-121280793D01*
X153208548Y-121280793D02*
X152894071Y-121280793D01*
X152748928Y-120942126D02*
X152410261Y-120942126D01*
X152410261Y-120942126D02*
X152627976Y-121450126D01*
X140526571Y-96581145D02*
X140550762Y-96605336D01*
X140550762Y-96605336D02*
X140623333Y-96629526D01*
X140623333Y-96629526D02*
X140671714Y-96629526D01*
X140671714Y-96629526D02*
X140744286Y-96605336D01*
X140744286Y-96605336D02*
X140792667Y-96556955D01*
X140792667Y-96556955D02*
X140816857Y-96508574D01*
X140816857Y-96508574D02*
X140841048Y-96411812D01*
X140841048Y-96411812D02*
X140841048Y-96339240D01*
X140841048Y-96339240D02*
X140816857Y-96242478D01*
X140816857Y-96242478D02*
X140792667Y-96194097D01*
X140792667Y-96194097D02*
X140744286Y-96145716D01*
X140744286Y-96145716D02*
X140671714Y-96121526D01*
X140671714Y-96121526D02*
X140623333Y-96121526D01*
X140623333Y-96121526D02*
X140550762Y-96145716D01*
X140550762Y-96145716D02*
X140526571Y-96169907D01*
X140091143Y-96290859D02*
X140091143Y-96629526D01*
X140212095Y-96097336D02*
X140333048Y-96460193D01*
X140333048Y-96460193D02*
X140018571Y-96460193D01*
X139849238Y-96169907D02*
X139825047Y-96145716D01*
X139825047Y-96145716D02*
X139776666Y-96121526D01*
X139776666Y-96121526D02*
X139655714Y-96121526D01*
X139655714Y-96121526D02*
X139607333Y-96145716D01*
X139607333Y-96145716D02*
X139583142Y-96169907D01*
X139583142Y-96169907D02*
X139558952Y-96218288D01*
X139558952Y-96218288D02*
X139558952Y-96266669D01*
X139558952Y-96266669D02*
X139583142Y-96339240D01*
X139583142Y-96339240D02*
X139873428Y-96629526D01*
X139873428Y-96629526D02*
X139558952Y-96629526D01*
X156106571Y-116641345D02*
X156130762Y-116665536D01*
X156130762Y-116665536D02*
X156203333Y-116689726D01*
X156203333Y-116689726D02*
X156251714Y-116689726D01*
X156251714Y-116689726D02*
X156324286Y-116665536D01*
X156324286Y-116665536D02*
X156372667Y-116617155D01*
X156372667Y-116617155D02*
X156396857Y-116568774D01*
X156396857Y-116568774D02*
X156421048Y-116472012D01*
X156421048Y-116472012D02*
X156421048Y-116399440D01*
X156421048Y-116399440D02*
X156396857Y-116302678D01*
X156396857Y-116302678D02*
X156372667Y-116254297D01*
X156372667Y-116254297D02*
X156324286Y-116205916D01*
X156324286Y-116205916D02*
X156251714Y-116181726D01*
X156251714Y-116181726D02*
X156203333Y-116181726D01*
X156203333Y-116181726D02*
X156130762Y-116205916D01*
X156130762Y-116205916D02*
X156106571Y-116230107D01*
X155646952Y-116181726D02*
X155888857Y-116181726D01*
X155888857Y-116181726D02*
X155913048Y-116423631D01*
X155913048Y-116423631D02*
X155888857Y-116399440D01*
X155888857Y-116399440D02*
X155840476Y-116375250D01*
X155840476Y-116375250D02*
X155719524Y-116375250D01*
X155719524Y-116375250D02*
X155671143Y-116399440D01*
X155671143Y-116399440D02*
X155646952Y-116423631D01*
X155646952Y-116423631D02*
X155622762Y-116472012D01*
X155622762Y-116472012D02*
X155622762Y-116592964D01*
X155622762Y-116592964D02*
X155646952Y-116641345D01*
X155646952Y-116641345D02*
X155671143Y-116665536D01*
X155671143Y-116665536D02*
X155719524Y-116689726D01*
X155719524Y-116689726D02*
X155840476Y-116689726D01*
X155840476Y-116689726D02*
X155888857Y-116665536D01*
X155888857Y-116665536D02*
X155913048Y-116641345D01*
X155187333Y-116181726D02*
X155284095Y-116181726D01*
X155284095Y-116181726D02*
X155332476Y-116205916D01*
X155332476Y-116205916D02*
X155356666Y-116230107D01*
X155356666Y-116230107D02*
X155405047Y-116302678D01*
X155405047Y-116302678D02*
X155429238Y-116399440D01*
X155429238Y-116399440D02*
X155429238Y-116592964D01*
X155429238Y-116592964D02*
X155405047Y-116641345D01*
X155405047Y-116641345D02*
X155380857Y-116665536D01*
X155380857Y-116665536D02*
X155332476Y-116689726D01*
X155332476Y-116689726D02*
X155235714Y-116689726D01*
X155235714Y-116689726D02*
X155187333Y-116665536D01*
X155187333Y-116665536D02*
X155163142Y-116641345D01*
X155163142Y-116641345D02*
X155138952Y-116592964D01*
X155138952Y-116592964D02*
X155138952Y-116472012D01*
X155138952Y-116472012D02*
X155163142Y-116423631D01*
X155163142Y-116423631D02*
X155187333Y-116399440D01*
X155187333Y-116399440D02*
X155235714Y-116375250D01*
X155235714Y-116375250D02*
X155332476Y-116375250D01*
X155332476Y-116375250D02*
X155380857Y-116399440D01*
X155380857Y-116399440D02*
X155405047Y-116423631D01*
X155405047Y-116423631D02*
X155429238Y-116472012D01*
X150123631Y-99057047D02*
X150123631Y-98887714D01*
X150389726Y-98887714D02*
X149881726Y-98887714D01*
X149881726Y-98887714D02*
X149881726Y-99129619D01*
X150389726Y-99565048D02*
X150389726Y-99323143D01*
X150389726Y-99323143D02*
X149881726Y-99323143D01*
X149930107Y-99710190D02*
X149905916Y-99734381D01*
X149905916Y-99734381D02*
X149881726Y-99782762D01*
X149881726Y-99782762D02*
X149881726Y-99903714D01*
X149881726Y-99903714D02*
X149905916Y-99952095D01*
X149905916Y-99952095D02*
X149930107Y-99976286D01*
X149930107Y-99976286D02*
X149978488Y-100000476D01*
X149978488Y-100000476D02*
X150026869Y-100000476D01*
X150026869Y-100000476D02*
X150099440Y-99976286D01*
X150099440Y-99976286D02*
X150389726Y-99686000D01*
X150389726Y-99686000D02*
X150389726Y-100000476D01*
X144956571Y-103562145D02*
X144980762Y-103586336D01*
X144980762Y-103586336D02*
X145053333Y-103610526D01*
X145053333Y-103610526D02*
X145101714Y-103610526D01*
X145101714Y-103610526D02*
X145174286Y-103586336D01*
X145174286Y-103586336D02*
X145222667Y-103537955D01*
X145222667Y-103537955D02*
X145246857Y-103489574D01*
X145246857Y-103489574D02*
X145271048Y-103392812D01*
X145271048Y-103392812D02*
X145271048Y-103320240D01*
X145271048Y-103320240D02*
X145246857Y-103223478D01*
X145246857Y-103223478D02*
X145222667Y-103175097D01*
X145222667Y-103175097D02*
X145174286Y-103126716D01*
X145174286Y-103126716D02*
X145101714Y-103102526D01*
X145101714Y-103102526D02*
X145053333Y-103102526D01*
X145053333Y-103102526D02*
X144980762Y-103126716D01*
X144980762Y-103126716D02*
X144956571Y-103150907D01*
X144496952Y-103102526D02*
X144738857Y-103102526D01*
X144738857Y-103102526D02*
X144763048Y-103344431D01*
X144763048Y-103344431D02*
X144738857Y-103320240D01*
X144738857Y-103320240D02*
X144690476Y-103296050D01*
X144690476Y-103296050D02*
X144569524Y-103296050D01*
X144569524Y-103296050D02*
X144521143Y-103320240D01*
X144521143Y-103320240D02*
X144496952Y-103344431D01*
X144496952Y-103344431D02*
X144472762Y-103392812D01*
X144472762Y-103392812D02*
X144472762Y-103513764D01*
X144472762Y-103513764D02*
X144496952Y-103562145D01*
X144496952Y-103562145D02*
X144521143Y-103586336D01*
X144521143Y-103586336D02*
X144569524Y-103610526D01*
X144569524Y-103610526D02*
X144690476Y-103610526D01*
X144690476Y-103610526D02*
X144738857Y-103586336D01*
X144738857Y-103586336D02*
X144763048Y-103562145D01*
X144303428Y-103102526D02*
X143988952Y-103102526D01*
X143988952Y-103102526D02*
X144158285Y-103296050D01*
X144158285Y-103296050D02*
X144085714Y-103296050D01*
X144085714Y-103296050D02*
X144037333Y-103320240D01*
X144037333Y-103320240D02*
X144013142Y-103344431D01*
X144013142Y-103344431D02*
X143988952Y-103392812D01*
X143988952Y-103392812D02*
X143988952Y-103513764D01*
X143988952Y-103513764D02*
X144013142Y-103562145D01*
X144013142Y-103562145D02*
X144037333Y-103586336D01*
X144037333Y-103586336D02*
X144085714Y-103610526D01*
X144085714Y-103610526D02*
X144230857Y-103610526D01*
X144230857Y-103610526D02*
X144279238Y-103586336D01*
X144279238Y-103586336D02*
X144303428Y-103562145D01*
X144956571Y-107321345D02*
X144980762Y-107345536D01*
X144980762Y-107345536D02*
X145053333Y-107369726D01*
X145053333Y-107369726D02*
X145101714Y-107369726D01*
X145101714Y-107369726D02*
X145174286Y-107345536D01*
X145174286Y-107345536D02*
X145222667Y-107297155D01*
X145222667Y-107297155D02*
X145246857Y-107248774D01*
X145246857Y-107248774D02*
X145271048Y-107152012D01*
X145271048Y-107152012D02*
X145271048Y-107079440D01*
X145271048Y-107079440D02*
X145246857Y-106982678D01*
X145246857Y-106982678D02*
X145222667Y-106934297D01*
X145222667Y-106934297D02*
X145174286Y-106885916D01*
X145174286Y-106885916D02*
X145101714Y-106861726D01*
X145101714Y-106861726D02*
X145053333Y-106861726D01*
X145053333Y-106861726D02*
X144980762Y-106885916D01*
X144980762Y-106885916D02*
X144956571Y-106910107D01*
X144496952Y-106861726D02*
X144738857Y-106861726D01*
X144738857Y-106861726D02*
X144763048Y-107103631D01*
X144763048Y-107103631D02*
X144738857Y-107079440D01*
X144738857Y-107079440D02*
X144690476Y-107055250D01*
X144690476Y-107055250D02*
X144569524Y-107055250D01*
X144569524Y-107055250D02*
X144521143Y-107079440D01*
X144521143Y-107079440D02*
X144496952Y-107103631D01*
X144496952Y-107103631D02*
X144472762Y-107152012D01*
X144472762Y-107152012D02*
X144472762Y-107272964D01*
X144472762Y-107272964D02*
X144496952Y-107321345D01*
X144496952Y-107321345D02*
X144521143Y-107345536D01*
X144521143Y-107345536D02*
X144569524Y-107369726D01*
X144569524Y-107369726D02*
X144690476Y-107369726D01*
X144690476Y-107369726D02*
X144738857Y-107345536D01*
X144738857Y-107345536D02*
X144763048Y-107321345D01*
X143988952Y-107369726D02*
X144279238Y-107369726D01*
X144134095Y-107369726D02*
X144134095Y-106861726D01*
X144134095Y-106861726D02*
X144182476Y-106934297D01*
X144182476Y-106934297D02*
X144230857Y-106982678D01*
X144230857Y-106982678D02*
X144279238Y-107006869D01*
X144956571Y-104501945D02*
X144980762Y-104526136D01*
X144980762Y-104526136D02*
X145053333Y-104550326D01*
X145053333Y-104550326D02*
X145101714Y-104550326D01*
X145101714Y-104550326D02*
X145174286Y-104526136D01*
X145174286Y-104526136D02*
X145222667Y-104477755D01*
X145222667Y-104477755D02*
X145246857Y-104429374D01*
X145246857Y-104429374D02*
X145271048Y-104332612D01*
X145271048Y-104332612D02*
X145271048Y-104260040D01*
X145271048Y-104260040D02*
X145246857Y-104163278D01*
X145246857Y-104163278D02*
X145222667Y-104114897D01*
X145222667Y-104114897D02*
X145174286Y-104066516D01*
X145174286Y-104066516D02*
X145101714Y-104042326D01*
X145101714Y-104042326D02*
X145053333Y-104042326D01*
X145053333Y-104042326D02*
X144980762Y-104066516D01*
X144980762Y-104066516D02*
X144956571Y-104090707D01*
X144496952Y-104042326D02*
X144738857Y-104042326D01*
X144738857Y-104042326D02*
X144763048Y-104284231D01*
X144763048Y-104284231D02*
X144738857Y-104260040D01*
X144738857Y-104260040D02*
X144690476Y-104235850D01*
X144690476Y-104235850D02*
X144569524Y-104235850D01*
X144569524Y-104235850D02*
X144521143Y-104260040D01*
X144521143Y-104260040D02*
X144496952Y-104284231D01*
X144496952Y-104284231D02*
X144472762Y-104332612D01*
X144472762Y-104332612D02*
X144472762Y-104453564D01*
X144472762Y-104453564D02*
X144496952Y-104501945D01*
X144496952Y-104501945D02*
X144521143Y-104526136D01*
X144521143Y-104526136D02*
X144569524Y-104550326D01*
X144569524Y-104550326D02*
X144690476Y-104550326D01*
X144690476Y-104550326D02*
X144738857Y-104526136D01*
X144738857Y-104526136D02*
X144763048Y-104501945D01*
X144037333Y-104211659D02*
X144037333Y-104550326D01*
X144158285Y-104018136D02*
X144279238Y-104380993D01*
X144279238Y-104380993D02*
X143964761Y-104380993D01*
X148039726Y-110623428D02*
X147797821Y-110454094D01*
X148039726Y-110333142D02*
X147531726Y-110333142D01*
X147531726Y-110333142D02*
X147531726Y-110526666D01*
X147531726Y-110526666D02*
X147555916Y-110575047D01*
X147555916Y-110575047D02*
X147580107Y-110599237D01*
X147580107Y-110599237D02*
X147628488Y-110623428D01*
X147628488Y-110623428D02*
X147701059Y-110623428D01*
X147701059Y-110623428D02*
X147749440Y-110599237D01*
X147749440Y-110599237D02*
X147773631Y-110575047D01*
X147773631Y-110575047D02*
X147797821Y-110526666D01*
X147797821Y-110526666D02*
X147797821Y-110333142D01*
X148039726Y-111107237D02*
X148039726Y-110816951D01*
X148039726Y-110962094D02*
X147531726Y-110962094D01*
X147531726Y-110962094D02*
X147604297Y-110913713D01*
X147604297Y-110913713D02*
X147652678Y-110865332D01*
X147652678Y-110865332D02*
X147676869Y-110816951D01*
X147531726Y-111421714D02*
X147531726Y-111470095D01*
X147531726Y-111470095D02*
X147555916Y-111518476D01*
X147555916Y-111518476D02*
X147580107Y-111542666D01*
X147580107Y-111542666D02*
X147628488Y-111566857D01*
X147628488Y-111566857D02*
X147725250Y-111591047D01*
X147725250Y-111591047D02*
X147846202Y-111591047D01*
X147846202Y-111591047D02*
X147942964Y-111566857D01*
X147942964Y-111566857D02*
X147991345Y-111542666D01*
X147991345Y-111542666D02*
X148015536Y-111518476D01*
X148015536Y-111518476D02*
X148039726Y-111470095D01*
X148039726Y-111470095D02*
X148039726Y-111421714D01*
X148039726Y-111421714D02*
X148015536Y-111373333D01*
X148015536Y-111373333D02*
X147991345Y-111349142D01*
X147991345Y-111349142D02*
X147942964Y-111324952D01*
X147942964Y-111324952D02*
X147846202Y-111300761D01*
X147846202Y-111300761D02*
X147725250Y-111300761D01*
X147725250Y-111300761D02*
X147628488Y-111324952D01*
X147628488Y-111324952D02*
X147580107Y-111349142D01*
X147580107Y-111349142D02*
X147555916Y-111373333D01*
X147555916Y-111373333D02*
X147531726Y-111421714D01*
X153402071Y-119522145D02*
X153426262Y-119546336D01*
X153426262Y-119546336D02*
X153498833Y-119570526D01*
X153498833Y-119570526D02*
X153547214Y-119570526D01*
X153547214Y-119570526D02*
X153619786Y-119546336D01*
X153619786Y-119546336D02*
X153668167Y-119497955D01*
X153668167Y-119497955D02*
X153692357Y-119449574D01*
X153692357Y-119449574D02*
X153716548Y-119352812D01*
X153716548Y-119352812D02*
X153716548Y-119280240D01*
X153716548Y-119280240D02*
X153692357Y-119183478D01*
X153692357Y-119183478D02*
X153668167Y-119135097D01*
X153668167Y-119135097D02*
X153619786Y-119086716D01*
X153619786Y-119086716D02*
X153547214Y-119062526D01*
X153547214Y-119062526D02*
X153498833Y-119062526D01*
X153498833Y-119062526D02*
X153426262Y-119086716D01*
X153426262Y-119086716D02*
X153402071Y-119110907D01*
X152966643Y-119231859D02*
X152966643Y-119570526D01*
X153087595Y-119038336D02*
X153208548Y-119401193D01*
X153208548Y-119401193D02*
X152894071Y-119401193D01*
X152676357Y-119570526D02*
X152579595Y-119570526D01*
X152579595Y-119570526D02*
X152531214Y-119546336D01*
X152531214Y-119546336D02*
X152507023Y-119522145D01*
X152507023Y-119522145D02*
X152458642Y-119449574D01*
X152458642Y-119449574D02*
X152434452Y-119352812D01*
X152434452Y-119352812D02*
X152434452Y-119159288D01*
X152434452Y-119159288D02*
X152458642Y-119110907D01*
X152458642Y-119110907D02*
X152482833Y-119086716D01*
X152482833Y-119086716D02*
X152531214Y-119062526D01*
X152531214Y-119062526D02*
X152627976Y-119062526D01*
X152627976Y-119062526D02*
X152676357Y-119086716D01*
X152676357Y-119086716D02*
X152700547Y-119110907D01*
X152700547Y-119110907D02*
X152724738Y-119159288D01*
X152724738Y-119159288D02*
X152724738Y-119280240D01*
X152724738Y-119280240D02*
X152700547Y-119328621D01*
X152700547Y-119328621D02*
X152676357Y-119352812D01*
X152676357Y-119352812D02*
X152627976Y-119377002D01*
X152627976Y-119377002D02*
X152531214Y-119377002D01*
X152531214Y-119377002D02*
X152482833Y-119352812D01*
X152482833Y-119352812D02*
X152458642Y-119328621D01*
X152458642Y-119328621D02*
X152434452Y-119280240D01*
X137006571Y-110011345D02*
X137030762Y-110035536D01*
X137030762Y-110035536D02*
X137103333Y-110059726D01*
X137103333Y-110059726D02*
X137151714Y-110059726D01*
X137151714Y-110059726D02*
X137224286Y-110035536D01*
X137224286Y-110035536D02*
X137272667Y-109987155D01*
X137272667Y-109987155D02*
X137296857Y-109938774D01*
X137296857Y-109938774D02*
X137321048Y-109842012D01*
X137321048Y-109842012D02*
X137321048Y-109769440D01*
X137321048Y-109769440D02*
X137296857Y-109672678D01*
X137296857Y-109672678D02*
X137272667Y-109624297D01*
X137272667Y-109624297D02*
X137224286Y-109575916D01*
X137224286Y-109575916D02*
X137151714Y-109551726D01*
X137151714Y-109551726D02*
X137103333Y-109551726D01*
X137103333Y-109551726D02*
X137030762Y-109575916D01*
X137030762Y-109575916D02*
X137006571Y-109600107D01*
X136837238Y-109551726D02*
X136522762Y-109551726D01*
X136522762Y-109551726D02*
X136692095Y-109745250D01*
X136692095Y-109745250D02*
X136619524Y-109745250D01*
X136619524Y-109745250D02*
X136571143Y-109769440D01*
X136571143Y-109769440D02*
X136546952Y-109793631D01*
X136546952Y-109793631D02*
X136522762Y-109842012D01*
X136522762Y-109842012D02*
X136522762Y-109962964D01*
X136522762Y-109962964D02*
X136546952Y-110011345D01*
X136546952Y-110011345D02*
X136571143Y-110035536D01*
X136571143Y-110035536D02*
X136619524Y-110059726D01*
X136619524Y-110059726D02*
X136764667Y-110059726D01*
X136764667Y-110059726D02*
X136813048Y-110035536D01*
X136813048Y-110035536D02*
X136837238Y-110011345D01*
X136087333Y-109721059D02*
X136087333Y-110059726D01*
X136208285Y-109527536D02*
X136329238Y-109890393D01*
X136329238Y-109890393D02*
X136014761Y-109890393D01*
X136184666Y-123589726D02*
X136354000Y-123347821D01*
X136474952Y-123589726D02*
X136474952Y-123081726D01*
X136474952Y-123081726D02*
X136281428Y-123081726D01*
X136281428Y-123081726D02*
X136233047Y-123105916D01*
X136233047Y-123105916D02*
X136208857Y-123130107D01*
X136208857Y-123130107D02*
X136184666Y-123178488D01*
X136184666Y-123178488D02*
X136184666Y-123251059D01*
X136184666Y-123251059D02*
X136208857Y-123299440D01*
X136208857Y-123299440D02*
X136233047Y-123323631D01*
X136233047Y-123323631D02*
X136281428Y-123347821D01*
X136281428Y-123347821D02*
X136474952Y-123347821D01*
X135725047Y-123081726D02*
X135966952Y-123081726D01*
X135966952Y-123081726D02*
X135991143Y-123323631D01*
X135991143Y-123323631D02*
X135966952Y-123299440D01*
X135966952Y-123299440D02*
X135918571Y-123275250D01*
X135918571Y-123275250D02*
X135797619Y-123275250D01*
X135797619Y-123275250D02*
X135749238Y-123299440D01*
X135749238Y-123299440D02*
X135725047Y-123323631D01*
X135725047Y-123323631D02*
X135700857Y-123372012D01*
X135700857Y-123372012D02*
X135700857Y-123492964D01*
X135700857Y-123492964D02*
X135725047Y-123541345D01*
X135725047Y-123541345D02*
X135749238Y-123565536D01*
X135749238Y-123565536D02*
X135797619Y-123589726D01*
X135797619Y-123589726D02*
X135918571Y-123589726D01*
X135918571Y-123589726D02*
X135966952Y-123565536D01*
X135966952Y-123565536D02*
X135991143Y-123541345D01*
X148313945Y-115783928D02*
X148338136Y-115759737D01*
X148338136Y-115759737D02*
X148362326Y-115687166D01*
X148362326Y-115687166D02*
X148362326Y-115638785D01*
X148362326Y-115638785D02*
X148338136Y-115566213D01*
X148338136Y-115566213D02*
X148289755Y-115517832D01*
X148289755Y-115517832D02*
X148241374Y-115493642D01*
X148241374Y-115493642D02*
X148144612Y-115469451D01*
X148144612Y-115469451D02*
X148072040Y-115469451D01*
X148072040Y-115469451D02*
X147975278Y-115493642D01*
X147975278Y-115493642D02*
X147926897Y-115517832D01*
X147926897Y-115517832D02*
X147878516Y-115566213D01*
X147878516Y-115566213D02*
X147854326Y-115638785D01*
X147854326Y-115638785D02*
X147854326Y-115687166D01*
X147854326Y-115687166D02*
X147878516Y-115759737D01*
X147878516Y-115759737D02*
X147902707Y-115783928D01*
X148362326Y-116267737D02*
X148362326Y-115977451D01*
X148362326Y-116122594D02*
X147854326Y-116122594D01*
X147854326Y-116122594D02*
X147926897Y-116074213D01*
X147926897Y-116074213D02*
X147975278Y-116025832D01*
X147975278Y-116025832D02*
X147999469Y-115977451D01*
X148362326Y-116509642D02*
X148362326Y-116606404D01*
X148362326Y-116606404D02*
X148338136Y-116654785D01*
X148338136Y-116654785D02*
X148313945Y-116678976D01*
X148313945Y-116678976D02*
X148241374Y-116727357D01*
X148241374Y-116727357D02*
X148144612Y-116751547D01*
X148144612Y-116751547D02*
X147951088Y-116751547D01*
X147951088Y-116751547D02*
X147902707Y-116727357D01*
X147902707Y-116727357D02*
X147878516Y-116703166D01*
X147878516Y-116703166D02*
X147854326Y-116654785D01*
X147854326Y-116654785D02*
X147854326Y-116558023D01*
X147854326Y-116558023D02*
X147878516Y-116509642D01*
X147878516Y-116509642D02*
X147902707Y-116485452D01*
X147902707Y-116485452D02*
X147951088Y-116461261D01*
X147951088Y-116461261D02*
X148072040Y-116461261D01*
X148072040Y-116461261D02*
X148120421Y-116485452D01*
X148120421Y-116485452D02*
X148144612Y-116509642D01*
X148144612Y-116509642D02*
X148168802Y-116558023D01*
X148168802Y-116558023D02*
X148168802Y-116654785D01*
X148168802Y-116654785D02*
X148144612Y-116703166D01*
X148144612Y-116703166D02*
X148120421Y-116727357D01*
X148120421Y-116727357D02*
X148072040Y-116751547D01*
X145104952Y-111579726D02*
X145104952Y-111071726D01*
X145104952Y-111071726D02*
X144984000Y-111071726D01*
X144984000Y-111071726D02*
X144911428Y-111095916D01*
X144911428Y-111095916D02*
X144863047Y-111144297D01*
X144863047Y-111144297D02*
X144838857Y-111192678D01*
X144838857Y-111192678D02*
X144814666Y-111289440D01*
X144814666Y-111289440D02*
X144814666Y-111362012D01*
X144814666Y-111362012D02*
X144838857Y-111458774D01*
X144838857Y-111458774D02*
X144863047Y-111507155D01*
X144863047Y-111507155D02*
X144911428Y-111555536D01*
X144911428Y-111555536D02*
X144984000Y-111579726D01*
X144984000Y-111579726D02*
X145104952Y-111579726D01*
X144645333Y-111071726D02*
X144330857Y-111071726D01*
X144330857Y-111071726D02*
X144500190Y-111265250D01*
X144500190Y-111265250D02*
X144427619Y-111265250D01*
X144427619Y-111265250D02*
X144379238Y-111289440D01*
X144379238Y-111289440D02*
X144355047Y-111313631D01*
X144355047Y-111313631D02*
X144330857Y-111362012D01*
X144330857Y-111362012D02*
X144330857Y-111482964D01*
X144330857Y-111482964D02*
X144355047Y-111531345D01*
X144355047Y-111531345D02*
X144379238Y-111555536D01*
X144379238Y-111555536D02*
X144427619Y-111579726D01*
X144427619Y-111579726D02*
X144572762Y-111579726D01*
X144572762Y-111579726D02*
X144621143Y-111555536D01*
X144621143Y-111555536D02*
X144645333Y-111531345D01*
X146459745Y-115783928D02*
X146483936Y-115759737D01*
X146483936Y-115759737D02*
X146508126Y-115687166D01*
X146508126Y-115687166D02*
X146508126Y-115638785D01*
X146508126Y-115638785D02*
X146483936Y-115566213D01*
X146483936Y-115566213D02*
X146435555Y-115517832D01*
X146435555Y-115517832D02*
X146387174Y-115493642D01*
X146387174Y-115493642D02*
X146290412Y-115469451D01*
X146290412Y-115469451D02*
X146217840Y-115469451D01*
X146217840Y-115469451D02*
X146121078Y-115493642D01*
X146121078Y-115493642D02*
X146072697Y-115517832D01*
X146072697Y-115517832D02*
X146024316Y-115566213D01*
X146024316Y-115566213D02*
X146000126Y-115638785D01*
X146000126Y-115638785D02*
X146000126Y-115687166D01*
X146000126Y-115687166D02*
X146024316Y-115759737D01*
X146024316Y-115759737D02*
X146048507Y-115783928D01*
X146508126Y-116267737D02*
X146508126Y-115977451D01*
X146508126Y-116122594D02*
X146000126Y-116122594D01*
X146000126Y-116122594D02*
X146072697Y-116074213D01*
X146072697Y-116074213D02*
X146121078Y-116025832D01*
X146121078Y-116025832D02*
X146145269Y-115977451D01*
X146000126Y-116437071D02*
X146000126Y-116775738D01*
X146000126Y-116775738D02*
X146508126Y-116558023D01*
X150086571Y-118942226D02*
X150255905Y-118700321D01*
X150376857Y-118942226D02*
X150376857Y-118434226D01*
X150376857Y-118434226D02*
X150183333Y-118434226D01*
X150183333Y-118434226D02*
X150134952Y-118458416D01*
X150134952Y-118458416D02*
X150110762Y-118482607D01*
X150110762Y-118482607D02*
X150086571Y-118530988D01*
X150086571Y-118530988D02*
X150086571Y-118603559D01*
X150086571Y-118603559D02*
X150110762Y-118651940D01*
X150110762Y-118651940D02*
X150134952Y-118676131D01*
X150134952Y-118676131D02*
X150183333Y-118700321D01*
X150183333Y-118700321D02*
X150376857Y-118700321D01*
X149893048Y-118482607D02*
X149868857Y-118458416D01*
X149868857Y-118458416D02*
X149820476Y-118434226D01*
X149820476Y-118434226D02*
X149699524Y-118434226D01*
X149699524Y-118434226D02*
X149651143Y-118458416D01*
X149651143Y-118458416D02*
X149626952Y-118482607D01*
X149626952Y-118482607D02*
X149602762Y-118530988D01*
X149602762Y-118530988D02*
X149602762Y-118579369D01*
X149602762Y-118579369D02*
X149626952Y-118651940D01*
X149626952Y-118651940D02*
X149917238Y-118942226D01*
X149917238Y-118942226D02*
X149602762Y-118942226D01*
X149312476Y-118651940D02*
X149360857Y-118627750D01*
X149360857Y-118627750D02*
X149385047Y-118603559D01*
X149385047Y-118603559D02*
X149409238Y-118555178D01*
X149409238Y-118555178D02*
X149409238Y-118530988D01*
X149409238Y-118530988D02*
X149385047Y-118482607D01*
X149385047Y-118482607D02*
X149360857Y-118458416D01*
X149360857Y-118458416D02*
X149312476Y-118434226D01*
X149312476Y-118434226D02*
X149215714Y-118434226D01*
X149215714Y-118434226D02*
X149167333Y-118458416D01*
X149167333Y-118458416D02*
X149143142Y-118482607D01*
X149143142Y-118482607D02*
X149118952Y-118530988D01*
X149118952Y-118530988D02*
X149118952Y-118555178D01*
X149118952Y-118555178D02*
X149143142Y-118603559D01*
X149143142Y-118603559D02*
X149167333Y-118627750D01*
X149167333Y-118627750D02*
X149215714Y-118651940D01*
X149215714Y-118651940D02*
X149312476Y-118651940D01*
X149312476Y-118651940D02*
X149360857Y-118676131D01*
X149360857Y-118676131D02*
X149385047Y-118700321D01*
X149385047Y-118700321D02*
X149409238Y-118748702D01*
X149409238Y-118748702D02*
X149409238Y-118845464D01*
X149409238Y-118845464D02*
X149385047Y-118893845D01*
X149385047Y-118893845D02*
X149360857Y-118918036D01*
X149360857Y-118918036D02*
X149312476Y-118942226D01*
X149312476Y-118942226D02*
X149215714Y-118942226D01*
X149215714Y-118942226D02*
X149167333Y-118918036D01*
X149167333Y-118918036D02*
X149143142Y-118893845D01*
X149143142Y-118893845D02*
X149118952Y-118845464D01*
X149118952Y-118845464D02*
X149118952Y-118748702D01*
X149118952Y-118748702D02*
X149143142Y-118700321D01*
X149143142Y-118700321D02*
X149167333Y-118676131D01*
X149167333Y-118676131D02*
X149215714Y-118651940D01*
X147386845Y-115783928D02*
X147411036Y-115759737D01*
X147411036Y-115759737D02*
X147435226Y-115687166D01*
X147435226Y-115687166D02*
X147435226Y-115638785D01*
X147435226Y-115638785D02*
X147411036Y-115566213D01*
X147411036Y-115566213D02*
X147362655Y-115517832D01*
X147362655Y-115517832D02*
X147314274Y-115493642D01*
X147314274Y-115493642D02*
X147217512Y-115469451D01*
X147217512Y-115469451D02*
X147144940Y-115469451D01*
X147144940Y-115469451D02*
X147048178Y-115493642D01*
X147048178Y-115493642D02*
X146999797Y-115517832D01*
X146999797Y-115517832D02*
X146951416Y-115566213D01*
X146951416Y-115566213D02*
X146927226Y-115638785D01*
X146927226Y-115638785D02*
X146927226Y-115687166D01*
X146927226Y-115687166D02*
X146951416Y-115759737D01*
X146951416Y-115759737D02*
X146975607Y-115783928D01*
X147435226Y-116267737D02*
X147435226Y-115977451D01*
X147435226Y-116122594D02*
X146927226Y-116122594D01*
X146927226Y-116122594D02*
X146999797Y-116074213D01*
X146999797Y-116074213D02*
X147048178Y-116025832D01*
X147048178Y-116025832D02*
X147072369Y-115977451D01*
X147144940Y-116558023D02*
X147120750Y-116509642D01*
X147120750Y-116509642D02*
X147096559Y-116485452D01*
X147096559Y-116485452D02*
X147048178Y-116461261D01*
X147048178Y-116461261D02*
X147023988Y-116461261D01*
X147023988Y-116461261D02*
X146975607Y-116485452D01*
X146975607Y-116485452D02*
X146951416Y-116509642D01*
X146951416Y-116509642D02*
X146927226Y-116558023D01*
X146927226Y-116558023D02*
X146927226Y-116654785D01*
X146927226Y-116654785D02*
X146951416Y-116703166D01*
X146951416Y-116703166D02*
X146975607Y-116727357D01*
X146975607Y-116727357D02*
X147023988Y-116751547D01*
X147023988Y-116751547D02*
X147048178Y-116751547D01*
X147048178Y-116751547D02*
X147096559Y-116727357D01*
X147096559Y-116727357D02*
X147120750Y-116703166D01*
X147120750Y-116703166D02*
X147144940Y-116654785D01*
X147144940Y-116654785D02*
X147144940Y-116558023D01*
X147144940Y-116558023D02*
X147169131Y-116509642D01*
X147169131Y-116509642D02*
X147193321Y-116485452D01*
X147193321Y-116485452D02*
X147241702Y-116461261D01*
X147241702Y-116461261D02*
X147338464Y-116461261D01*
X147338464Y-116461261D02*
X147386845Y-116485452D01*
X147386845Y-116485452D02*
X147411036Y-116509642D01*
X147411036Y-116509642D02*
X147435226Y-116558023D01*
X147435226Y-116558023D02*
X147435226Y-116654785D01*
X147435226Y-116654785D02*
X147411036Y-116703166D01*
X147411036Y-116703166D02*
X147386845Y-116727357D01*
X147386845Y-116727357D02*
X147338464Y-116751547D01*
X147338464Y-116751547D02*
X147241702Y-116751547D01*
X147241702Y-116751547D02*
X147193321Y-116727357D01*
X147193321Y-116727357D02*
X147169131Y-116703166D01*
X147169131Y-116703166D02*
X147144940Y-116654785D01*
X149139445Y-115783928D02*
X149163636Y-115759737D01*
X149163636Y-115759737D02*
X149187826Y-115687166D01*
X149187826Y-115687166D02*
X149187826Y-115638785D01*
X149187826Y-115638785D02*
X149163636Y-115566213D01*
X149163636Y-115566213D02*
X149115255Y-115517832D01*
X149115255Y-115517832D02*
X149066874Y-115493642D01*
X149066874Y-115493642D02*
X148970112Y-115469451D01*
X148970112Y-115469451D02*
X148897540Y-115469451D01*
X148897540Y-115469451D02*
X148800778Y-115493642D01*
X148800778Y-115493642D02*
X148752397Y-115517832D01*
X148752397Y-115517832D02*
X148704016Y-115566213D01*
X148704016Y-115566213D02*
X148679826Y-115638785D01*
X148679826Y-115638785D02*
X148679826Y-115687166D01*
X148679826Y-115687166D02*
X148704016Y-115759737D01*
X148704016Y-115759737D02*
X148728207Y-115783928D01*
X148728207Y-115977451D02*
X148704016Y-116001642D01*
X148704016Y-116001642D02*
X148679826Y-116050023D01*
X148679826Y-116050023D02*
X148679826Y-116170975D01*
X148679826Y-116170975D02*
X148704016Y-116219356D01*
X148704016Y-116219356D02*
X148728207Y-116243547D01*
X148728207Y-116243547D02*
X148776588Y-116267737D01*
X148776588Y-116267737D02*
X148824969Y-116267737D01*
X148824969Y-116267737D02*
X148897540Y-116243547D01*
X148897540Y-116243547D02*
X149187826Y-115953261D01*
X149187826Y-115953261D02*
X149187826Y-116267737D01*
X148679826Y-116582214D02*
X148679826Y-116630595D01*
X148679826Y-116630595D02*
X148704016Y-116678976D01*
X148704016Y-116678976D02*
X148728207Y-116703166D01*
X148728207Y-116703166D02*
X148776588Y-116727357D01*
X148776588Y-116727357D02*
X148873350Y-116751547D01*
X148873350Y-116751547D02*
X148994302Y-116751547D01*
X148994302Y-116751547D02*
X149091064Y-116727357D01*
X149091064Y-116727357D02*
X149139445Y-116703166D01*
X149139445Y-116703166D02*
X149163636Y-116678976D01*
X149163636Y-116678976D02*
X149187826Y-116630595D01*
X149187826Y-116630595D02*
X149187826Y-116582214D01*
X149187826Y-116582214D02*
X149163636Y-116533833D01*
X149163636Y-116533833D02*
X149139445Y-116509642D01*
X149139445Y-116509642D02*
X149091064Y-116485452D01*
X149091064Y-116485452D02*
X148994302Y-116461261D01*
X148994302Y-116461261D02*
X148873350Y-116461261D01*
X148873350Y-116461261D02*
X148776588Y-116485452D01*
X148776588Y-116485452D02*
X148728207Y-116509642D01*
X148728207Y-116509642D02*
X148704016Y-116533833D01*
X148704016Y-116533833D02*
X148679826Y-116582214D01*
X138243631Y-110660666D02*
X138243631Y-110491333D01*
X138509726Y-110491333D02*
X138001726Y-110491333D01*
X138001726Y-110491333D02*
X138001726Y-110733238D01*
X138001726Y-110878381D02*
X138001726Y-111192857D01*
X138001726Y-111192857D02*
X138195250Y-111023524D01*
X138195250Y-111023524D02*
X138195250Y-111096095D01*
X138195250Y-111096095D02*
X138219440Y-111144476D01*
X138219440Y-111144476D02*
X138243631Y-111168667D01*
X138243631Y-111168667D02*
X138292012Y-111192857D01*
X138292012Y-111192857D02*
X138412964Y-111192857D01*
X138412964Y-111192857D02*
X138461345Y-111168667D01*
X138461345Y-111168667D02*
X138485536Y-111144476D01*
X138485536Y-111144476D02*
X138509726Y-111096095D01*
X138509726Y-111096095D02*
X138509726Y-110950952D01*
X138509726Y-110950952D02*
X138485536Y-110902571D01*
X138485536Y-110902571D02*
X138461345Y-110878381D01*
X153402071Y-123281345D02*
X153426262Y-123305536D01*
X153426262Y-123305536D02*
X153498833Y-123329726D01*
X153498833Y-123329726D02*
X153547214Y-123329726D01*
X153547214Y-123329726D02*
X153619786Y-123305536D01*
X153619786Y-123305536D02*
X153668167Y-123257155D01*
X153668167Y-123257155D02*
X153692357Y-123208774D01*
X153692357Y-123208774D02*
X153716548Y-123112012D01*
X153716548Y-123112012D02*
X153716548Y-123039440D01*
X153716548Y-123039440D02*
X153692357Y-122942678D01*
X153692357Y-122942678D02*
X153668167Y-122894297D01*
X153668167Y-122894297D02*
X153619786Y-122845916D01*
X153619786Y-122845916D02*
X153547214Y-122821726D01*
X153547214Y-122821726D02*
X153498833Y-122821726D01*
X153498833Y-122821726D02*
X153426262Y-122845916D01*
X153426262Y-122845916D02*
X153402071Y-122870107D01*
X152966643Y-122991059D02*
X152966643Y-123329726D01*
X153087595Y-122797536D02*
X153208548Y-123160393D01*
X153208548Y-123160393D02*
X152894071Y-123160393D01*
X152458642Y-122821726D02*
X152700547Y-122821726D01*
X152700547Y-122821726D02*
X152724738Y-123063631D01*
X152724738Y-123063631D02*
X152700547Y-123039440D01*
X152700547Y-123039440D02*
X152652166Y-123015250D01*
X152652166Y-123015250D02*
X152531214Y-123015250D01*
X152531214Y-123015250D02*
X152482833Y-123039440D01*
X152482833Y-123039440D02*
X152458642Y-123063631D01*
X152458642Y-123063631D02*
X152434452Y-123112012D01*
X152434452Y-123112012D02*
X152434452Y-123232964D01*
X152434452Y-123232964D02*
X152458642Y-123281345D01*
X152458642Y-123281345D02*
X152482833Y-123305536D01*
X152482833Y-123305536D02*
X152531214Y-123329726D01*
X152531214Y-123329726D02*
X152652166Y-123329726D01*
X152652166Y-123329726D02*
X152700547Y-123305536D01*
X152700547Y-123305536D02*
X152724738Y-123281345D01*
X145544666Y-108599726D02*
X145714000Y-108357821D01*
X145834952Y-108599726D02*
X145834952Y-108091726D01*
X145834952Y-108091726D02*
X145641428Y-108091726D01*
X145641428Y-108091726D02*
X145593047Y-108115916D01*
X145593047Y-108115916D02*
X145568857Y-108140107D01*
X145568857Y-108140107D02*
X145544666Y-108188488D01*
X145544666Y-108188488D02*
X145544666Y-108261059D01*
X145544666Y-108261059D02*
X145568857Y-108309440D01*
X145568857Y-108309440D02*
X145593047Y-108333631D01*
X145593047Y-108333631D02*
X145641428Y-108357821D01*
X145641428Y-108357821D02*
X145834952Y-108357821D01*
X145109238Y-108261059D02*
X145109238Y-108599726D01*
X145230190Y-108067536D02*
X145351143Y-108430393D01*
X145351143Y-108430393D02*
X145036666Y-108430393D01*
X151414666Y-111861345D02*
X151438857Y-111885536D01*
X151438857Y-111885536D02*
X151511428Y-111909726D01*
X151511428Y-111909726D02*
X151559809Y-111909726D01*
X151559809Y-111909726D02*
X151632381Y-111885536D01*
X151632381Y-111885536D02*
X151680762Y-111837155D01*
X151680762Y-111837155D02*
X151704952Y-111788774D01*
X151704952Y-111788774D02*
X151729143Y-111692012D01*
X151729143Y-111692012D02*
X151729143Y-111619440D01*
X151729143Y-111619440D02*
X151704952Y-111522678D01*
X151704952Y-111522678D02*
X151680762Y-111474297D01*
X151680762Y-111474297D02*
X151632381Y-111425916D01*
X151632381Y-111425916D02*
X151559809Y-111401726D01*
X151559809Y-111401726D02*
X151511428Y-111401726D01*
X151511428Y-111401726D02*
X151438857Y-111425916D01*
X151438857Y-111425916D02*
X151414666Y-111450107D01*
X150979238Y-111401726D02*
X151076000Y-111401726D01*
X151076000Y-111401726D02*
X151124381Y-111425916D01*
X151124381Y-111425916D02*
X151148571Y-111450107D01*
X151148571Y-111450107D02*
X151196952Y-111522678D01*
X151196952Y-111522678D02*
X151221143Y-111619440D01*
X151221143Y-111619440D02*
X151221143Y-111812964D01*
X151221143Y-111812964D02*
X151196952Y-111861345D01*
X151196952Y-111861345D02*
X151172762Y-111885536D01*
X151172762Y-111885536D02*
X151124381Y-111909726D01*
X151124381Y-111909726D02*
X151027619Y-111909726D01*
X151027619Y-111909726D02*
X150979238Y-111885536D01*
X150979238Y-111885536D02*
X150955047Y-111861345D01*
X150955047Y-111861345D02*
X150930857Y-111812964D01*
X150930857Y-111812964D02*
X150930857Y-111692012D01*
X150930857Y-111692012D02*
X150955047Y-111643631D01*
X150955047Y-111643631D02*
X150979238Y-111619440D01*
X150979238Y-111619440D02*
X151027619Y-111595250D01*
X151027619Y-111595250D02*
X151124381Y-111595250D01*
X151124381Y-111595250D02*
X151172762Y-111619440D01*
X151172762Y-111619440D02*
X151196952Y-111643631D01*
X151196952Y-111643631D02*
X151221143Y-111692012D01*
X143524471Y-95284847D02*
X143524471Y-95115514D01*
X143790566Y-95115514D02*
X143282566Y-95115514D01*
X143282566Y-95115514D02*
X143282566Y-95357419D01*
X143790566Y-95792848D02*
X143790566Y-95550943D01*
X143790566Y-95550943D02*
X143282566Y-95550943D01*
X143790566Y-96228276D02*
X143790566Y-95937990D01*
X143790566Y-96083133D02*
X143282566Y-96083133D01*
X143282566Y-96083133D02*
X143355137Y-96034752D01*
X143355137Y-96034752D02*
X143403518Y-95986371D01*
X143403518Y-95986371D02*
X143427709Y-95937990D01*
X138326571Y-95511545D02*
X138350762Y-95535736D01*
X138350762Y-95535736D02*
X138423333Y-95559926D01*
X138423333Y-95559926D02*
X138471714Y-95559926D01*
X138471714Y-95559926D02*
X138544286Y-95535736D01*
X138544286Y-95535736D02*
X138592667Y-95487355D01*
X138592667Y-95487355D02*
X138616857Y-95438974D01*
X138616857Y-95438974D02*
X138641048Y-95342212D01*
X138641048Y-95342212D02*
X138641048Y-95269640D01*
X138641048Y-95269640D02*
X138616857Y-95172878D01*
X138616857Y-95172878D02*
X138592667Y-95124497D01*
X138592667Y-95124497D02*
X138544286Y-95076116D01*
X138544286Y-95076116D02*
X138471714Y-95051926D01*
X138471714Y-95051926D02*
X138423333Y-95051926D01*
X138423333Y-95051926D02*
X138350762Y-95076116D01*
X138350762Y-95076116D02*
X138326571Y-95100307D01*
X138157238Y-95051926D02*
X137842762Y-95051926D01*
X137842762Y-95051926D02*
X138012095Y-95245450D01*
X138012095Y-95245450D02*
X137939524Y-95245450D01*
X137939524Y-95245450D02*
X137891143Y-95269640D01*
X137891143Y-95269640D02*
X137866952Y-95293831D01*
X137866952Y-95293831D02*
X137842762Y-95342212D01*
X137842762Y-95342212D02*
X137842762Y-95463164D01*
X137842762Y-95463164D02*
X137866952Y-95511545D01*
X137866952Y-95511545D02*
X137891143Y-95535736D01*
X137891143Y-95535736D02*
X137939524Y-95559926D01*
X137939524Y-95559926D02*
X138084667Y-95559926D01*
X138084667Y-95559926D02*
X138133048Y-95535736D01*
X138133048Y-95535736D02*
X138157238Y-95511545D01*
X137528285Y-95051926D02*
X137479904Y-95051926D01*
X137479904Y-95051926D02*
X137431523Y-95076116D01*
X137431523Y-95076116D02*
X137407333Y-95100307D01*
X137407333Y-95100307D02*
X137383142Y-95148688D01*
X137383142Y-95148688D02*
X137358952Y-95245450D01*
X137358952Y-95245450D02*
X137358952Y-95366402D01*
X137358952Y-95366402D02*
X137383142Y-95463164D01*
X137383142Y-95463164D02*
X137407333Y-95511545D01*
X137407333Y-95511545D02*
X137431523Y-95535736D01*
X137431523Y-95535736D02*
X137479904Y-95559926D01*
X137479904Y-95559926D02*
X137528285Y-95559926D01*
X137528285Y-95559926D02*
X137576666Y-95535736D01*
X137576666Y-95535736D02*
X137600857Y-95511545D01*
X137600857Y-95511545D02*
X137625047Y-95463164D01*
X137625047Y-95463164D02*
X137649238Y-95366402D01*
X137649238Y-95366402D02*
X137649238Y-95245450D01*
X137649238Y-95245450D02*
X137625047Y-95148688D01*
X137625047Y-95148688D02*
X137600857Y-95100307D01*
X137600857Y-95100307D02*
X137576666Y-95076116D01*
X137576666Y-95076116D02*
X137528285Y-95051926D01*
X144956571Y-105441745D02*
X144980762Y-105465936D01*
X144980762Y-105465936D02*
X145053333Y-105490126D01*
X145053333Y-105490126D02*
X145101714Y-105490126D01*
X145101714Y-105490126D02*
X145174286Y-105465936D01*
X145174286Y-105465936D02*
X145222667Y-105417555D01*
X145222667Y-105417555D02*
X145246857Y-105369174D01*
X145246857Y-105369174D02*
X145271048Y-105272412D01*
X145271048Y-105272412D02*
X145271048Y-105199840D01*
X145271048Y-105199840D02*
X145246857Y-105103078D01*
X145246857Y-105103078D02*
X145222667Y-105054697D01*
X145222667Y-105054697D02*
X145174286Y-105006316D01*
X145174286Y-105006316D02*
X145101714Y-104982126D01*
X145101714Y-104982126D02*
X145053333Y-104982126D01*
X145053333Y-104982126D02*
X144980762Y-105006316D01*
X144980762Y-105006316D02*
X144956571Y-105030507D01*
X144496952Y-104982126D02*
X144738857Y-104982126D01*
X144738857Y-104982126D02*
X144763048Y-105224031D01*
X144763048Y-105224031D02*
X144738857Y-105199840D01*
X144738857Y-105199840D02*
X144690476Y-105175650D01*
X144690476Y-105175650D02*
X144569524Y-105175650D01*
X144569524Y-105175650D02*
X144521143Y-105199840D01*
X144521143Y-105199840D02*
X144496952Y-105224031D01*
X144496952Y-105224031D02*
X144472762Y-105272412D01*
X144472762Y-105272412D02*
X144472762Y-105393364D01*
X144472762Y-105393364D02*
X144496952Y-105441745D01*
X144496952Y-105441745D02*
X144521143Y-105465936D01*
X144521143Y-105465936D02*
X144569524Y-105490126D01*
X144569524Y-105490126D02*
X144690476Y-105490126D01*
X144690476Y-105490126D02*
X144738857Y-105465936D01*
X144738857Y-105465936D02*
X144763048Y-105441745D01*
X144013142Y-104982126D02*
X144255047Y-104982126D01*
X144255047Y-104982126D02*
X144279238Y-105224031D01*
X144279238Y-105224031D02*
X144255047Y-105199840D01*
X144255047Y-105199840D02*
X144206666Y-105175650D01*
X144206666Y-105175650D02*
X144085714Y-105175650D01*
X144085714Y-105175650D02*
X144037333Y-105199840D01*
X144037333Y-105199840D02*
X144013142Y-105224031D01*
X144013142Y-105224031D02*
X143988952Y-105272412D01*
X143988952Y-105272412D02*
X143988952Y-105393364D01*
X143988952Y-105393364D02*
X144013142Y-105441745D01*
X144013142Y-105441745D02*
X144037333Y-105465936D01*
X144037333Y-105465936D02*
X144085714Y-105490126D01*
X144085714Y-105490126D02*
X144206666Y-105490126D01*
X144206666Y-105490126D02*
X144255047Y-105465936D01*
X144255047Y-105465936D02*
X144279238Y-105441745D01*
X144956571Y-106381545D02*
X144980762Y-106405736D01*
X144980762Y-106405736D02*
X145053333Y-106429926D01*
X145053333Y-106429926D02*
X145101714Y-106429926D01*
X145101714Y-106429926D02*
X145174286Y-106405736D01*
X145174286Y-106405736D02*
X145222667Y-106357355D01*
X145222667Y-106357355D02*
X145246857Y-106308974D01*
X145246857Y-106308974D02*
X145271048Y-106212212D01*
X145271048Y-106212212D02*
X145271048Y-106139640D01*
X145271048Y-106139640D02*
X145246857Y-106042878D01*
X145246857Y-106042878D02*
X145222667Y-105994497D01*
X145222667Y-105994497D02*
X145174286Y-105946116D01*
X145174286Y-105946116D02*
X145101714Y-105921926D01*
X145101714Y-105921926D02*
X145053333Y-105921926D01*
X145053333Y-105921926D02*
X144980762Y-105946116D01*
X144980762Y-105946116D02*
X144956571Y-105970307D01*
X144496952Y-105921926D02*
X144738857Y-105921926D01*
X144738857Y-105921926D02*
X144763048Y-106163831D01*
X144763048Y-106163831D02*
X144738857Y-106139640D01*
X144738857Y-106139640D02*
X144690476Y-106115450D01*
X144690476Y-106115450D02*
X144569524Y-106115450D01*
X144569524Y-106115450D02*
X144521143Y-106139640D01*
X144521143Y-106139640D02*
X144496952Y-106163831D01*
X144496952Y-106163831D02*
X144472762Y-106212212D01*
X144472762Y-106212212D02*
X144472762Y-106333164D01*
X144472762Y-106333164D02*
X144496952Y-106381545D01*
X144496952Y-106381545D02*
X144521143Y-106405736D01*
X144521143Y-106405736D02*
X144569524Y-106429926D01*
X144569524Y-106429926D02*
X144690476Y-106429926D01*
X144690476Y-106429926D02*
X144738857Y-106405736D01*
X144738857Y-106405736D02*
X144763048Y-106381545D01*
X144279238Y-105970307D02*
X144255047Y-105946116D01*
X144255047Y-105946116D02*
X144206666Y-105921926D01*
X144206666Y-105921926D02*
X144085714Y-105921926D01*
X144085714Y-105921926D02*
X144037333Y-105946116D01*
X144037333Y-105946116D02*
X144013142Y-105970307D01*
X144013142Y-105970307D02*
X143988952Y-106018688D01*
X143988952Y-106018688D02*
X143988952Y-106067069D01*
X143988952Y-106067069D02*
X144013142Y-106139640D01*
X144013142Y-106139640D02*
X144303428Y-106429926D01*
X144303428Y-106429926D02*
X143988952Y-106429926D01*
X143323631Y-113690666D02*
X143323631Y-113521333D01*
X143589726Y-113521333D02*
X143081726Y-113521333D01*
X143081726Y-113521333D02*
X143081726Y-113763238D01*
X143589726Y-114222857D02*
X143589726Y-113932571D01*
X143589726Y-114077714D02*
X143081726Y-114077714D01*
X143081726Y-114077714D02*
X143154297Y-114029333D01*
X143154297Y-114029333D02*
X143202678Y-113980952D01*
X143202678Y-113980952D02*
X143226869Y-113932571D01*
X140526571Y-95641345D02*
X140550762Y-95665536D01*
X140550762Y-95665536D02*
X140623333Y-95689726D01*
X140623333Y-95689726D02*
X140671714Y-95689726D01*
X140671714Y-95689726D02*
X140744286Y-95665536D01*
X140744286Y-95665536D02*
X140792667Y-95617155D01*
X140792667Y-95617155D02*
X140816857Y-95568774D01*
X140816857Y-95568774D02*
X140841048Y-95472012D01*
X140841048Y-95472012D02*
X140841048Y-95399440D01*
X140841048Y-95399440D02*
X140816857Y-95302678D01*
X140816857Y-95302678D02*
X140792667Y-95254297D01*
X140792667Y-95254297D02*
X140744286Y-95205916D01*
X140744286Y-95205916D02*
X140671714Y-95181726D01*
X140671714Y-95181726D02*
X140623333Y-95181726D01*
X140623333Y-95181726D02*
X140550762Y-95205916D01*
X140550762Y-95205916D02*
X140526571Y-95230107D01*
X140091143Y-95351059D02*
X140091143Y-95689726D01*
X140212095Y-95157536D02*
X140333048Y-95520393D01*
X140333048Y-95520393D02*
X140018571Y-95520393D01*
X139873428Y-95181726D02*
X139558952Y-95181726D01*
X139558952Y-95181726D02*
X139728285Y-95375250D01*
X139728285Y-95375250D02*
X139655714Y-95375250D01*
X139655714Y-95375250D02*
X139607333Y-95399440D01*
X139607333Y-95399440D02*
X139583142Y-95423631D01*
X139583142Y-95423631D02*
X139558952Y-95472012D01*
X139558952Y-95472012D02*
X139558952Y-95592964D01*
X139558952Y-95592964D02*
X139583142Y-95641345D01*
X139583142Y-95641345D02*
X139607333Y-95665536D01*
X139607333Y-95665536D02*
X139655714Y-95689726D01*
X139655714Y-95689726D02*
X139800857Y-95689726D01*
X139800857Y-95689726D02*
X139849238Y-95665536D01*
X139849238Y-95665536D02*
X139873428Y-95641345D01*
X140526571Y-98460745D02*
X140550762Y-98484936D01*
X140550762Y-98484936D02*
X140623333Y-98509126D01*
X140623333Y-98509126D02*
X140671714Y-98509126D01*
X140671714Y-98509126D02*
X140744286Y-98484936D01*
X140744286Y-98484936D02*
X140792667Y-98436555D01*
X140792667Y-98436555D02*
X140816857Y-98388174D01*
X140816857Y-98388174D02*
X140841048Y-98291412D01*
X140841048Y-98291412D02*
X140841048Y-98218840D01*
X140841048Y-98218840D02*
X140816857Y-98122078D01*
X140816857Y-98122078D02*
X140792667Y-98073697D01*
X140792667Y-98073697D02*
X140744286Y-98025316D01*
X140744286Y-98025316D02*
X140671714Y-98001126D01*
X140671714Y-98001126D02*
X140623333Y-98001126D01*
X140623333Y-98001126D02*
X140550762Y-98025316D01*
X140550762Y-98025316D02*
X140526571Y-98049507D01*
X140091143Y-98170459D02*
X140091143Y-98509126D01*
X140212095Y-97976936D02*
X140333048Y-98339793D01*
X140333048Y-98339793D02*
X140018571Y-98339793D01*
X139728285Y-98001126D02*
X139679904Y-98001126D01*
X139679904Y-98001126D02*
X139631523Y-98025316D01*
X139631523Y-98025316D02*
X139607333Y-98049507D01*
X139607333Y-98049507D02*
X139583142Y-98097888D01*
X139583142Y-98097888D02*
X139558952Y-98194650D01*
X139558952Y-98194650D02*
X139558952Y-98315602D01*
X139558952Y-98315602D02*
X139583142Y-98412364D01*
X139583142Y-98412364D02*
X139607333Y-98460745D01*
X139607333Y-98460745D02*
X139631523Y-98484936D01*
X139631523Y-98484936D02*
X139679904Y-98509126D01*
X139679904Y-98509126D02*
X139728285Y-98509126D01*
X139728285Y-98509126D02*
X139776666Y-98484936D01*
X139776666Y-98484936D02*
X139800857Y-98460745D01*
X139800857Y-98460745D02*
X139825047Y-98412364D01*
X139825047Y-98412364D02*
X139849238Y-98315602D01*
X139849238Y-98315602D02*
X139849238Y-98194650D01*
X139849238Y-98194650D02*
X139825047Y-98097888D01*
X139825047Y-98097888D02*
X139800857Y-98049507D01*
X139800857Y-98049507D02*
X139776666Y-98025316D01*
X139776666Y-98025316D02*
X139728285Y-98001126D01*
D11*
%TO.C,C16*%
X150295835Y-117427900D02*
X150064165Y-117427900D01*
X150295835Y-118147900D02*
X150064165Y-118147900D01*
%TO.C,C5*%
X138040000Y-120584165D02*
X138040000Y-120815835D01*
X138760000Y-120584165D02*
X138760000Y-120815835D01*
%TO.C,C33*%
X138415336Y-103729800D02*
X138199664Y-103729800D01*
X138415336Y-104449800D02*
X138199664Y-104449800D01*
%TO.C,FB1*%
X142940000Y-109762221D02*
X142940000Y-110087779D01*
X143960000Y-109762221D02*
X143960000Y-110087779D01*
%TO.C,C48*%
X154999664Y-119920600D02*
X155215336Y-119920600D01*
X154999664Y-120640600D02*
X155215336Y-120640600D01*
%TO.C,C8*%
X140059664Y-119715000D02*
X140275336Y-119715000D01*
X140059664Y-120435000D02*
X140275336Y-120435000D01*
%TO.C,C39*%
X140384664Y-106290000D02*
X140600336Y-106290000D01*
X140384664Y-107010000D02*
X140600336Y-107010000D01*
%TO.C,C31*%
X138415336Y-101850200D02*
X138199664Y-101850200D01*
X138415336Y-102570200D02*
X138199664Y-102570200D01*
%TO.C,C7*%
X137786252Y-104790000D02*
X137263748Y-104790000D01*
X137786252Y-106260000D02*
X137263748Y-106260000D01*
%TO.C,C28*%
X138415336Y-98810600D02*
X138199664Y-98810600D01*
X138415336Y-99530600D02*
X138199664Y-99530600D01*
%TO.C,C32*%
X138415336Y-102790000D02*
X138199664Y-102790000D01*
X138415336Y-103510000D02*
X138199664Y-103510000D01*
%TO.C,C37*%
X140384664Y-108169600D02*
X140600336Y-108169600D01*
X140384664Y-108889600D02*
X140600336Y-108889600D01*
%TO.C,R7*%
X142020000Y-116121359D02*
X142020000Y-116428641D01*
X142780000Y-116121359D02*
X142780000Y-116428641D01*
%TO.C,C50*%
X154999664Y-118041000D02*
X155215336Y-118041000D01*
X154999664Y-118761000D02*
X155215336Y-118761000D01*
D10*
%TO.C,U3*%
X136712500Y-113649500D02*
G75*
G02*
X136387500Y-113649500I-162500J0D01*
G01*
X136387500Y-113649500D02*
G75*
G02*
X136712500Y-113649500I162500J0D01*
G01*
D11*
%TO.C,C29*%
X138415336Y-99970600D02*
X138199664Y-99970600D01*
X138415336Y-100690600D02*
X138199664Y-100690600D01*
%TO.C,C57*%
X154999664Y-123679800D02*
X155215336Y-123679800D01*
X154999664Y-124399800D02*
X155215336Y-124399800D01*
%TO.C,R8*%
X142020000Y-118343859D02*
X142020000Y-118651141D01*
X142780000Y-118343859D02*
X142780000Y-118651141D01*
%TO.C,C46*%
X154999664Y-121800200D02*
X155215336Y-121800200D01*
X154999664Y-122520200D02*
X155215336Y-122520200D01*
%TO.C,C38*%
X140384664Y-107229800D02*
X140600336Y-107229800D01*
X140384664Y-107949800D02*
X140600336Y-107949800D01*
%TO.C,C41*%
X140384664Y-104410400D02*
X140600336Y-104410400D01*
X140384664Y-105130400D02*
X140600336Y-105130400D01*
%TO.C,C21*%
X149626800Y-114440336D02*
X149626800Y-114224664D01*
X150346800Y-114440336D02*
X150346800Y-114224664D01*
%TO.C,C4*%
X140386252Y-111690000D02*
X139863748Y-111690000D01*
X140386252Y-113160000D02*
X139863748Y-113160000D01*
%TO.C,C44*%
X140384664Y-101591000D02*
X140600336Y-101591000D01*
X140384664Y-102311000D02*
X140600336Y-102311000D01*
%TO.C,R6*%
X136571359Y-120195000D02*
X136878641Y-120195000D01*
X136571359Y-120955000D02*
X136878641Y-120955000D01*
%TO.C,C47*%
X154999664Y-120860400D02*
X155215336Y-120860400D01*
X154999664Y-121580400D02*
X155215336Y-121580400D01*
%TO.C,C42*%
X140384664Y-103470600D02*
X140600336Y-103470600D01*
X140384664Y-104190600D02*
X140600336Y-104190600D01*
%TO.C,C56*%
X154815000Y-113863748D02*
X154815000Y-114386252D01*
X156285000Y-113863748D02*
X156285000Y-114386252D01*
D10*
%TO.C,FL2*%
X149335000Y-100590000D02*
X149335000Y-100590000D01*
X149335000Y-100690000D02*
X149335000Y-100690000D01*
X149335000Y-100590000D02*
G75*
G02*
X149335000Y-100690000I0J-50000D01*
G01*
X149335000Y-100690000D02*
G75*
G02*
X149335000Y-100590000I0J50000D01*
G01*
D11*
%TO.C,C53*%
X142782836Y-102982000D02*
X142567164Y-102982000D01*
X142782836Y-103702000D02*
X142567164Y-103702000D01*
%TO.C,C51*%
X142782836Y-106741200D02*
X142567164Y-106741200D01*
X142782836Y-107461200D02*
X142567164Y-107461200D01*
%TO.C,C54*%
X142782836Y-103921800D02*
X142567164Y-103921800D01*
X142782836Y-104641800D02*
X142567164Y-104641800D01*
%TO.C,R10*%
X146445000Y-110821359D02*
X146445000Y-111128641D01*
X147205000Y-110821359D02*
X147205000Y-111128641D01*
%TO.C,C49*%
X154999664Y-118980800D02*
X155215336Y-118980800D01*
X154999664Y-119700800D02*
X155215336Y-119700800D01*
%TO.C,C34*%
X137786252Y-106745800D02*
X137263748Y-106745800D01*
X137786252Y-108215800D02*
X137263748Y-108215800D01*
%TO.C,R5*%
X136571359Y-121170000D02*
X136878641Y-121170000D01*
X136571359Y-121930000D02*
X136878641Y-121930000D01*
%TO.C,C19*%
X147772600Y-114440336D02*
X147772600Y-114224664D01*
X148492600Y-114440336D02*
X148492600Y-114224664D01*
D10*
%TO.C,D3*%
X143130000Y-112600000D02*
X144800000Y-112600000D01*
X143600000Y-111800000D02*
X144800000Y-111800000D01*
D11*
%TO.C,C17*%
X145918400Y-114440336D02*
X145918400Y-114224664D01*
X146638400Y-114440336D02*
X146638400Y-114224664D01*
%TO.C,R28*%
X150353641Y-116457500D02*
X150046359Y-116457500D01*
X150353641Y-117217500D02*
X150046359Y-117217500D01*
%TO.C,C18*%
X146845500Y-114440336D02*
X146845500Y-114224664D01*
X147565500Y-114440336D02*
X147565500Y-114224664D01*
%TO.C,C20*%
X148699700Y-114440336D02*
X148699700Y-114224664D01*
X149419700Y-114440336D02*
X149419700Y-114224664D01*
%TO.C,F3*%
X140187221Y-110165000D02*
X140512779Y-110165000D01*
X140187221Y-111185000D02*
X140512779Y-111185000D01*
%TO.C,C45*%
X154999664Y-122740000D02*
X155215336Y-122740000D01*
X154999664Y-123460000D02*
X155215336Y-123460000D01*
%TO.C,R4*%
X146153641Y-108995000D02*
X145846359Y-108995000D01*
X146153641Y-109755000D02*
X145846359Y-109755000D01*
%TO.C,C6*%
X150642164Y-112190000D02*
X150857836Y-112190000D01*
X150642164Y-112910000D02*
X150857836Y-112910000D01*
D10*
%TO.C,FL1*%
X142725000Y-96838000D02*
X142725000Y-96838000D01*
X142725000Y-96938000D02*
X142725000Y-96938000D01*
X142725000Y-96838000D02*
G75*
G02*
X142725000Y-96938000I0J-50000D01*
G01*
X142725000Y-96938000D02*
G75*
G02*
X142725000Y-96838000I0J50000D01*
G01*
D11*
%TO.C,C30*%
X138415336Y-100910400D02*
X138199664Y-100910400D01*
X138415336Y-101630400D02*
X138199664Y-101630400D01*
%TO.C,C55*%
X142782836Y-104861600D02*
X142567164Y-104861600D01*
X142782836Y-105581600D02*
X142567164Y-105581600D01*
%TO.C,C52*%
X142782836Y-105801400D02*
X142567164Y-105801400D01*
X142782836Y-106521400D02*
X142567164Y-106521400D01*
%TO.C,F1*%
X143940000Y-114587779D02*
X143940000Y-114262221D01*
X144960000Y-114587779D02*
X144960000Y-114262221D01*
%TO.C,C43*%
X140384664Y-102530800D02*
X140600336Y-102530800D01*
X140384664Y-103250800D02*
X140600336Y-103250800D01*
%TO.C,C40*%
X140384664Y-105350200D02*
X140600336Y-105350200D01*
X140384664Y-106070200D02*
X140600336Y-106070200D01*
%TD*%
M02*
