%TF.GenerationSoftware,KiCad,Pcbnew,9.0.6-1.fc42*%
%TF.CreationDate,2025-12-08T15:01:24+01:00*%
%TF.ProjectId,PCI2USB,50434932-5553-4422-9e6b-696361645f70,1.0.0*%
%TF.SameCoordinates,Original*%
%TF.FileFunction,Profile,NP*%
%FSLAX46Y46*%
G04 Gerber Fmt 4.6, Leading zero omitted, Abs format (unit mm)*
G04 Created by KiCad (PCBNEW 9.0.6-1.fc42) date 2025-12-08 15:01:24*
%MOMM*%
%LPD*%
G01*
G04 APERTURE LIST*
%TA.AperFunction,Profile*%
%ADD10C,0.050000*%
%TD*%
%TA.AperFunction,Profile*%
%ADD11C,0.500000*%
%TD*%
%TA.AperFunction,Profile*%
%ADD12C,1.750000*%
%TD*%
G04 APERTURE END LIST*
D10*
X135150000Y-126603553D02*
X135150000Y-50603553D01*
D11*
X137500001Y-88604204D02*
G75*
G02*
X137000001Y-88604204I-250000J0D01*
G01*
X137000001Y-88604204D02*
G75*
G02*
X137500001Y-88604204I250000J0D01*
G01*
X139000001Y-88604204D02*
G75*
G02*
X138500001Y-88604204I-250000J0D01*
G01*
X138500001Y-88604204D02*
G75*
G02*
X139000001Y-88604204I250000J0D01*
G01*
D10*
X151147957Y-127700000D02*
G75*
G02*
X152347957Y-127700000I600000J0D01*
G01*
X140630000Y-130600000D02*
X140630000Y-127750000D01*
D11*
X156800001Y-88604204D02*
G75*
G02*
X156300001Y-88604204I-250000J0D01*
G01*
X156300001Y-88604204D02*
G75*
G02*
X156800001Y-88604204I250000J0D01*
G01*
D10*
X157150000Y-50603553D02*
X157150000Y-126603553D01*
X140630000Y-130600000D02*
X151147957Y-130600000D01*
D12*
X147025001Y-70604204D02*
G75*
G02*
X145275001Y-70604204I-875000J0D01*
G01*
X145275001Y-70604204D02*
G75*
G02*
X147025001Y-70604204I875000J0D01*
G01*
D11*
X152300001Y-88604204D02*
G75*
G02*
X151800001Y-88604204I-250000J0D01*
G01*
X151800001Y-88604204D02*
G75*
G02*
X152300001Y-88604204I250000J0D01*
G01*
D10*
X156083150Y-127100000D02*
G75*
G02*
X156560000Y-126603553I496850J0D01*
G01*
X152347957Y-130600000D02*
X152347957Y-127700000D01*
D11*
X143500001Y-88604204D02*
G75*
G02*
X143000001Y-88604204I-250000J0D01*
G01*
X143000001Y-88604204D02*
G75*
G02*
X143500001Y-88604204I250000J0D01*
G01*
X156800001Y-70604204D02*
G75*
G02*
X156300001Y-70604204I-250000J0D01*
G01*
X156300001Y-70604204D02*
G75*
G02*
X156800001Y-70604204I250000J0D01*
G01*
X149300001Y-88604204D02*
G75*
G02*
X148800001Y-88604204I-250000J0D01*
G01*
X148800001Y-88604204D02*
G75*
G02*
X149300001Y-88604204I250000J0D01*
G01*
D10*
X151147957Y-127700000D02*
X151147957Y-130600000D01*
D11*
X155300001Y-88604204D02*
G75*
G02*
X154800001Y-88604204I-250000J0D01*
G01*
X154800001Y-88604204D02*
G75*
G02*
X155300001Y-88604204I250000J0D01*
G01*
D10*
X135730000Y-126603553D02*
G75*
G02*
X136226444Y-127080403I0J-496847D01*
G01*
D11*
X142000001Y-88604204D02*
G75*
G02*
X141500001Y-88604204I-250000J0D01*
G01*
X141500001Y-88604204D02*
G75*
G02*
X142000001Y-88604204I250000J0D01*
G01*
X136000001Y-70604204D02*
G75*
G02*
X135500001Y-70604204I-250000J0D01*
G01*
X135500001Y-70604204D02*
G75*
G02*
X136000001Y-70604204I250000J0D01*
G01*
D10*
X139430000Y-127700000D02*
G75*
G02*
X140630000Y-127700000I600000J0D01*
G01*
D11*
X137500001Y-70604204D02*
G75*
G02*
X137000001Y-70604204I-250000J0D01*
G01*
X137000001Y-70604204D02*
G75*
G02*
X137500001Y-70604204I250000J0D01*
G01*
X136000001Y-88604204D02*
G75*
G02*
X135500001Y-88604204I-250000J0D01*
G01*
X135500001Y-88604204D02*
G75*
G02*
X136000001Y-88604204I250000J0D01*
G01*
X140500001Y-88604204D02*
G75*
G02*
X140000001Y-88604204I-250000J0D01*
G01*
X140000001Y-88604204D02*
G75*
G02*
X140500001Y-88604204I250000J0D01*
G01*
D10*
X139430000Y-127700000D02*
X139430000Y-130600000D01*
X139430000Y-130600000D02*
X136230000Y-130600000D01*
D11*
X149300001Y-70604204D02*
G75*
G02*
X148800001Y-70604204I-250000J0D01*
G01*
X148800001Y-70604204D02*
G75*
G02*
X149300001Y-70604204I250000J0D01*
G01*
X143500001Y-70604204D02*
G75*
G02*
X143000001Y-70604204I-250000J0D01*
G01*
X143000001Y-70604204D02*
G75*
G02*
X143500001Y-70604204I250000J0D01*
G01*
D10*
X135730000Y-126603553D02*
X135150000Y-126603553D01*
X157150000Y-50603553D02*
X147900000Y-50600000D01*
D11*
X140500001Y-70604204D02*
G75*
G02*
X140000001Y-70604204I-250000J0D01*
G01*
X140000001Y-70604204D02*
G75*
G02*
X140500001Y-70604204I250000J0D01*
G01*
X152300001Y-70604204D02*
G75*
G02*
X151800001Y-70604204I-250000J0D01*
G01*
X151800001Y-70604204D02*
G75*
G02*
X152300001Y-70604204I250000J0D01*
G01*
D10*
X140630000Y-127700000D02*
X140630000Y-127750000D01*
D11*
X155300001Y-70604204D02*
G75*
G02*
X154800001Y-70604204I-250000J0D01*
G01*
X154800001Y-70604204D02*
G75*
G02*
X155300001Y-70604204I250000J0D01*
G01*
D12*
X147025001Y-88604204D02*
G75*
G02*
X145275001Y-88604204I-875000J0D01*
G01*
X145275001Y-88604204D02*
G75*
G02*
X147025001Y-88604204I875000J0D01*
G01*
D10*
X156083150Y-130600000D02*
X152347957Y-130600000D01*
X136230000Y-130600000D02*
X136230000Y-127200000D01*
D11*
X150800001Y-88604204D02*
G75*
G02*
X150300001Y-88604204I-250000J0D01*
G01*
X150300001Y-88604204D02*
G75*
G02*
X150800001Y-88604204I250000J0D01*
G01*
D10*
X156560000Y-126603553D02*
X157150000Y-126603553D01*
D11*
X139000001Y-70604204D02*
G75*
G02*
X138500001Y-70604204I-250000J0D01*
G01*
X138500001Y-70604204D02*
G75*
G02*
X139000001Y-70604204I250000J0D01*
G01*
X153800001Y-70604204D02*
G75*
G02*
X153300001Y-70604204I-250000J0D01*
G01*
X153300001Y-70604204D02*
G75*
G02*
X153800001Y-70604204I250000J0D01*
G01*
X150800001Y-70604204D02*
G75*
G02*
X150300001Y-70604204I-250000J0D01*
G01*
X150300001Y-70604204D02*
G75*
G02*
X150800001Y-70604204I250000J0D01*
G01*
X142000001Y-70604204D02*
G75*
G02*
X141500001Y-70604204I-250000J0D01*
G01*
X141500001Y-70604204D02*
G75*
G02*
X142000001Y-70604204I250000J0D01*
G01*
D10*
X136226447Y-127080403D02*
X136230000Y-127200000D01*
X147900000Y-50603553D02*
G75*
G02*
X144400000Y-50603553I-1750000J0D01*
G01*
X135150000Y-50603553D02*
X144400000Y-50600000D01*
D11*
X153800001Y-88604204D02*
G75*
G02*
X153300001Y-88604204I-250000J0D01*
G01*
X153300001Y-88604204D02*
G75*
G02*
X153800001Y-88604204I250000J0D01*
G01*
D10*
X156083150Y-127100000D02*
X156083150Y-130600000D01*
M02*
