%TF.GenerationSoftware,KiCad,Pcbnew,9.0.8-1.fc42*%
%TF.CreationDate,2026-03-27T09:51:17+01:00*%
%TF.ProjectId,PCI2USB,50434932-5553-4422-9e6b-696361645f70,1.1.0*%
%TF.SameCoordinates,Original*%
%TF.FileFunction,Soldermask,Bot*%
%TF.FilePolarity,Negative*%
%FSLAX46Y46*%
G04 Gerber Fmt 4.6, Leading zero omitted, Abs format (unit mm)*
G04 Created by KiCad (PCBNEW 9.0.8-1.fc42) date 2026-03-27 09:51:17*
%MOMM*%
%LPD*%
G01*
G04 APERTURE LIST*
G04 Aperture macros list*
%AMRoundRect*
0 Rectangle with rounded corners*
0 $1 Rounding radius*
0 $2 $3 $4 $5 $6 $7 $8 $9 X,Y pos of 4 corners*
0 Add a 4 corners polygon primitive as box body*
4,1,4,$2,$3,$4,$5,$6,$7,$8,$9,$2,$3,0*
0 Add four circle primitives for the rounded corners*
1,1,$1+$1,$2,$3*
1,1,$1+$1,$4,$5*
1,1,$1+$1,$6,$7*
1,1,$1+$1,$8,$9*
0 Add four rect primitives between the rounded corners*
20,1,$1+$1,$2,$3,$4,$5,0*
20,1,$1+$1,$4,$5,$6,$7,0*
20,1,$1+$1,$6,$7,$8,$9,0*
20,1,$1+$1,$8,$9,$2,$3,0*%
G04 Aperture macros list end*
%ADD10RoundRect,0.155000X0.212500X0.155000X-0.212500X0.155000X-0.212500X-0.155000X0.212500X-0.155000X0*%
%ADD11RoundRect,0.155000X-0.155000X0.212500X-0.155000X-0.212500X0.155000X-0.212500X0.155000X0.212500X0*%
%ADD12R,0.350000X3.000000*%
%ADD13R,2.000000X2.100000*%
%ADD14C,2.000000*%
%ADD15RoundRect,0.140000X0.140000X0.170000X-0.140000X0.170000X-0.140000X-0.170000X0.140000X-0.170000X0*%
%ADD16RoundRect,0.218750X-0.256250X0.218750X-0.256250X-0.218750X0.256250X-0.218750X0.256250X0.218750X0*%
%ADD17RoundRect,0.140000X-0.140000X-0.170000X0.140000X-0.170000X0.140000X0.170000X-0.140000X0.170000X0*%
%ADD18RoundRect,0.250000X0.250000X0.475000X-0.250000X0.475000X-0.250000X-0.475000X0.250000X-0.475000X0*%
%ADD19RoundRect,0.135000X-0.185000X0.135000X-0.185000X-0.135000X0.185000X-0.135000X0.185000X0.135000X0*%
%ADD20R,0.350000X1.000000*%
%ADD21R,1.000000X0.350000*%
%ADD22R,3.250000X3.250000*%
%ADD23RoundRect,0.140000X0.170000X-0.140000X0.170000X0.140000X-0.170000X0.140000X-0.170000X-0.140000X0*%
%ADD24RoundRect,0.135000X-0.135000X-0.185000X0.135000X-0.185000X0.135000X0.185000X-0.135000X0.185000X0*%
%ADD25RoundRect,0.250000X-0.475000X0.250000X-0.475000X-0.250000X0.475000X-0.250000X0.475000X0.250000X0*%
%ADD26R,0.300000X0.500000*%
%ADD27R,0.540000X0.420000*%
%ADD28RoundRect,0.135000X0.135000X0.185000X-0.135000X0.185000X-0.135000X-0.185000X0.135000X-0.185000X0*%
%ADD29RoundRect,0.218750X-0.218750X-0.256250X0.218750X-0.256250X0.218750X0.256250X-0.218750X0.256250X0*%
%ADD30RoundRect,0.218750X0.256250X-0.218750X0.256250X0.218750X-0.256250X0.218750X-0.256250X-0.218750X0*%
%ADD31C,0.558800*%
G04 APERTURE END LIST*
D10*
%TO.C,C16*%
X150747500Y-117787900D03*
X149612500Y-117787900D03*
%TD*%
D11*
%TO.C,C5*%
X138400000Y-120132500D03*
X138400000Y-121267500D03*
%TD*%
D12*
%TO.C,J1*%
X155153515Y-128909812D03*
X154653515Y-128909812D03*
X154153515Y-128909812D03*
X153653515Y-128909812D03*
X153153515Y-128909812D03*
X150653515Y-128909812D03*
X150153515Y-128909812D03*
X149653515Y-128909812D03*
X149153515Y-128909812D03*
X148653515Y-128909812D03*
X148153515Y-128909812D03*
X147653515Y-128909812D03*
X147153515Y-128909812D03*
X146653515Y-128909812D03*
X146153515Y-128909812D03*
X145653515Y-128909812D03*
X145153515Y-128909812D03*
X144653515Y-128909812D03*
X144153515Y-128909812D03*
X143653515Y-128909812D03*
X143153515Y-128909812D03*
X142653515Y-128909812D03*
X142153515Y-128909812D03*
X141653515Y-128909812D03*
X141153515Y-128909812D03*
X138653515Y-128909812D03*
X138153515Y-128909812D03*
X137653515Y-128909812D03*
X137153515Y-128909812D03*
%TD*%
D13*
%TO.C,J2*%
X145234000Y-96207200D03*
D14*
X145234000Y-93667200D03*
X147774000Y-96207200D03*
X147774000Y-93647200D03*
X150314000Y-96227200D03*
X150314000Y-93667200D03*
X152854000Y-96207200D03*
X152854000Y-93647200D03*
X155374000Y-96187200D03*
X155374000Y-93647200D03*
%TD*%
D15*
%TO.C,C33*%
X138787500Y-104089800D03*
X137827500Y-104089800D03*
%TD*%
D16*
%TO.C,FB1*%
X143450000Y-109137500D03*
X143450000Y-110712500D03*
%TD*%
D17*
%TO.C,C48*%
X154627500Y-120280600D03*
X155587500Y-120280600D03*
%TD*%
%TO.C,C8*%
X139687500Y-120075000D03*
X140647500Y-120075000D03*
%TD*%
%TO.C,C39*%
X140012500Y-106650000D03*
X140972500Y-106650000D03*
%TD*%
D15*
%TO.C,C31*%
X138787500Y-102210200D03*
X137827500Y-102210200D03*
%TD*%
D18*
%TO.C,C7*%
X138475000Y-105525000D03*
X136575000Y-105525000D03*
%TD*%
D15*
%TO.C,C28*%
X138787500Y-99170600D03*
X137827500Y-99170600D03*
%TD*%
%TO.C,C32*%
X138787500Y-103150000D03*
X137827500Y-103150000D03*
%TD*%
D17*
%TO.C,C37*%
X140012500Y-108529600D03*
X140972500Y-108529600D03*
%TD*%
D19*
%TO.C,R7*%
X142400000Y-115765000D03*
X142400000Y-116785000D03*
%TD*%
D17*
%TO.C,C50*%
X154627500Y-118401000D03*
X155587500Y-118401000D03*
%TD*%
D20*
%TO.C,U3*%
X137525000Y-114150000D03*
X138175000Y-114150000D03*
X138825000Y-114150000D03*
X139475000Y-114150000D03*
X140125000Y-114150000D03*
D21*
X141175000Y-115200000D03*
X141175000Y-115850000D03*
X141175000Y-116500000D03*
X141175000Y-117150000D03*
X141175000Y-117800000D03*
D20*
X140125000Y-118850000D03*
X139475000Y-118850000D03*
X138825000Y-118850000D03*
X138175000Y-118850000D03*
X137525000Y-118850000D03*
D21*
X136475000Y-117800000D03*
X136475000Y-117150000D03*
X136475000Y-116500000D03*
X136475000Y-115850000D03*
X136475000Y-115200000D03*
D22*
X138825000Y-116500000D03*
%TD*%
D15*
%TO.C,C29*%
X138787500Y-100330600D03*
X137827500Y-100330600D03*
%TD*%
D17*
%TO.C,C57*%
X154627500Y-124039800D03*
X155587500Y-124039800D03*
%TD*%
D19*
%TO.C,R8*%
X142400000Y-117987500D03*
X142400000Y-119007500D03*
%TD*%
D17*
%TO.C,C46*%
X154627500Y-122160200D03*
X155587500Y-122160200D03*
%TD*%
%TO.C,C38*%
X140012500Y-107589800D03*
X140972500Y-107589800D03*
%TD*%
%TO.C,C41*%
X140012500Y-104770400D03*
X140972500Y-104770400D03*
%TD*%
D23*
%TO.C,C21*%
X149986800Y-114812500D03*
X149986800Y-113852500D03*
%TD*%
D18*
%TO.C,C4*%
X141075000Y-112425000D03*
X139175000Y-112425000D03*
%TD*%
D17*
%TO.C,C44*%
X140012500Y-101951000D03*
X140972500Y-101951000D03*
%TD*%
D24*
%TO.C,R6*%
X136215000Y-120575000D03*
X137235000Y-120575000D03*
%TD*%
D17*
%TO.C,C47*%
X154627500Y-121220400D03*
X155587500Y-121220400D03*
%TD*%
%TO.C,C42*%
X140012500Y-103830600D03*
X140972500Y-103830600D03*
%TD*%
D25*
%TO.C,C56*%
X155550000Y-113175000D03*
X155550000Y-115075000D03*
%TD*%
D26*
%TO.C,FL2*%
X148785000Y-100003000D03*
X149335000Y-100003000D03*
X149335000Y-98777000D03*
X148785000Y-98777000D03*
%TD*%
D15*
%TO.C,C53*%
X143155000Y-103342000D03*
X142195000Y-103342000D03*
%TD*%
%TO.C,C51*%
X143155000Y-107101200D03*
X142195000Y-107101200D03*
%TD*%
%TO.C,C54*%
X143155000Y-104281800D03*
X142195000Y-104281800D03*
%TD*%
D19*
%TO.C,R10*%
X146825000Y-110465000D03*
X146825000Y-111485000D03*
%TD*%
D17*
%TO.C,C49*%
X154627500Y-119340800D03*
X155587500Y-119340800D03*
%TD*%
D18*
%TO.C,C34*%
X138475000Y-107480800D03*
X136575000Y-107480800D03*
%TD*%
D24*
%TO.C,R5*%
X136215000Y-121550000D03*
X137235000Y-121550000D03*
%TD*%
D23*
%TO.C,C19*%
X148132600Y-114812500D03*
X148132600Y-113852500D03*
%TD*%
D27*
%TO.C,D3*%
X143400000Y-112200000D03*
X145000000Y-112200000D03*
%TD*%
D23*
%TO.C,C17*%
X146278400Y-114812500D03*
X146278400Y-113852500D03*
%TD*%
D28*
%TO.C,R28*%
X150710000Y-116837500D03*
X149690000Y-116837500D03*
%TD*%
D23*
%TO.C,C18*%
X147205500Y-114812500D03*
X147205500Y-113852500D03*
%TD*%
%TO.C,C20*%
X149059700Y-114812500D03*
X149059700Y-113852500D03*
%TD*%
D29*
%TO.C,F3*%
X139562500Y-110675000D03*
X141137500Y-110675000D03*
%TD*%
D17*
%TO.C,C45*%
X154627500Y-123100000D03*
X155587500Y-123100000D03*
%TD*%
D28*
%TO.C,R4*%
X146510000Y-109375000D03*
X145490000Y-109375000D03*
%TD*%
D17*
%TO.C,C6*%
X150270000Y-112550000D03*
X151230000Y-112550000D03*
%TD*%
D26*
%TO.C,FL1*%
X142175000Y-96251000D03*
X142725000Y-96251000D03*
X142725000Y-95025000D03*
X142175000Y-95025000D03*
%TD*%
D15*
%TO.C,C30*%
X138787500Y-101270400D03*
X137827500Y-101270400D03*
%TD*%
%TO.C,C55*%
X143155000Y-105221600D03*
X142195000Y-105221600D03*
%TD*%
%TO.C,C52*%
X143155000Y-106161400D03*
X142195000Y-106161400D03*
%TD*%
D30*
%TO.C,F1*%
X144450000Y-115212500D03*
X144450000Y-113637500D03*
%TD*%
D17*
%TO.C,C43*%
X140012500Y-102890800D03*
X140972500Y-102890800D03*
%TD*%
%TO.C,C40*%
X140012500Y-105710200D03*
X140972500Y-105710200D03*
%TD*%
D31*
X148240376Y-89546741D03*
X148629776Y-51506955D03*
X147741638Y-90256220D03*
X147753596Y-68973103D03*
X147840000Y-52545000D03*
X144063646Y-87687143D03*
X147050000Y-53025000D03*
X144067225Y-89539601D03*
X146156352Y-72905746D03*
X144073576Y-71543791D03*
X145304072Y-72735598D03*
X144572011Y-68971590D03*
X148246727Y-71550931D03*
X147012702Y-72739084D03*
X144069997Y-69691333D03*
X147006351Y-90734894D03*
X147010421Y-86492323D03*
X144565660Y-86967400D03*
X148243954Y-87680000D03*
X145293649Y-86495810D03*
X145297721Y-90731408D03*
X143673000Y-51508910D03*
X146152776Y-53200865D03*
X148250305Y-69684190D03*
X147747989Y-72260410D03*
X145252776Y-53026955D03*
X147747245Y-86968913D03*
X146150001Y-86329556D03*
X147016772Y-68496513D03*
X144577620Y-72261924D03*
X144571269Y-90257734D03*
X145300000Y-68500000D03*
X144462776Y-52546955D03*
X146156352Y-68333746D03*
X146150001Y-90901556D03*
M02*
