%TF.GenerationSoftware,KiCad,Pcbnew,9.0.6-1.fc42*%
%TF.CreationDate,2025-12-08T14:01:42+01:00*%
%TF.ProjectId,PCI2USB,50434932-5553-4422-9e6b-696361645f70,1.0.0*%
%TF.SameCoordinates,Original*%
%TF.FileFunction,Component,L1,Top*%
%TF.FilePolarity,Positive*%
%FSLAX46Y46*%
G04 Gerber Fmt 4.6, Leading zero omitted, Abs format (unit mm)*
G04 Created by KiCad (PCBNEW 9.0.6-1.fc42) date 2025-12-08 14:01:42*
%MOMM*%
%LPD*%
G01*
G04 APERTURE LIST*
%TA.AperFunction,ComponentMain*%
%ADD10C,0.300000*%
%TD*%
%TA.AperFunction,ComponentOutline,Courtyard*%
%ADD11C,0.100000*%
%TD*%
%TA.AperFunction,ComponentPin*%
%ADD12P,0.360000X4X0.000000*%
%TD*%
%TA.AperFunction,ComponentPin*%
%ADD13C,0.100000*%
%TD*%
G04 APERTURE END LIST*
D10*
%TO.C,R24*%
%TO.CFtp,R_0402_1005Metric_Pad0.72x0.64mm_HandSolder*%
%TO.CVal,0 Ohm*%
%TO.CLbN,Resistor_SMD*%
%TO.CMnt,SMD*%
%TO.CRot,0*%
X155325000Y-122364800D03*
D11*
X156430000Y-121899800D02*
X156430000Y-122829800D01*
X154220000Y-122829800D01*
X154220000Y-121899800D01*
X156430000Y-121899800D01*
D12*
%TO.P,R24,1*%
X154727500Y-122364800D03*
D13*
%TO.P,R24,2*%
X155922500Y-122364800D03*
%TD*%
D10*
%TO.C,C25*%
%TO.CFtp,C_0402_1005Metric_Pad0.74x0.62mm_HandSolder*%
%TO.CVal,0.01 μF*%
%TO.CLbN,Capacitor_SMD*%
%TO.CMnt,SMD*%
%TO.CRot,0*%
X155307500Y-117989800D03*
D11*
X156392500Y-117534800D02*
X156392500Y-118444800D01*
X154222500Y-118444800D01*
X154222500Y-117534800D01*
X156392500Y-117534800D01*
D12*
%TO.P,C25,1*%
X154740000Y-117989800D03*
D13*
%TO.P,C25,2*%
X155875000Y-117989800D03*
%TD*%
D10*
%TO.C,Y1*%
%TO.CFtp,ABM3B-48.000MHZ-B2-T*%
%TO.CVal,48 MHz*%
%TO.CLbN,ABM3B*%
%TO.CMnt,SMD*%
%TO.CRot,-90*%
X140400000Y-117250000D03*
D11*
X142795000Y-113655000D02*
X142795000Y-120795000D01*
X137955000Y-120795000D01*
X137955000Y-113655000D01*
X142795000Y-113655000D01*
D12*
%TO.P,Y1,1,1*%
X139200000Y-115250000D03*
D13*
%TO.P,Y1,2,2*%
X139200000Y-119250000D03*
%TO.P,Y1,3,3*%
X141600000Y-119250000D03*
%TO.P,Y1,4,4*%
X141600000Y-115250000D03*
%TD*%
D10*
%TO.C,R26*%
%TO.CFtp,R_0402_1005Metric_Pad0.72x0.64mm_HandSolder*%
%TO.CVal,4.7 KOhm*%
%TO.CLbN,Resistor_SMD*%
%TO.CMnt,SMD*%
%TO.CRot,180*%
X155450000Y-113600000D03*
D11*
X156555000Y-113135000D02*
X156555000Y-114065000D01*
X154345000Y-114065000D01*
X154345000Y-113135000D01*
X156555000Y-113135000D01*
D12*
%TO.P,R26,1*%
X156047500Y-113600000D03*
D13*
%TO.P,R26,2*%
X154852500Y-113600000D03*
%TD*%
D10*
%TO.C,C15*%
%TO.CFtp,C_0402_1005Metric*%
%TO.CVal,0.1uF*%
%TO.CLbN,Capacitor_SMD*%
%TO.CMnt,SMD*%
%TO.CRot,90*%
X146496650Y-123985550D03*
D11*
X146951650Y-123080550D02*
X146951650Y-124890550D01*
X146041650Y-124890550D01*
X146041650Y-123080550D01*
X146951650Y-123080550D01*
D12*
%TO.P,C15,1*%
X146496650Y-124465550D03*
D13*
%TO.P,C15,2*%
X146496650Y-123505550D03*
%TD*%
D10*
%TO.C,R20*%
%TO.CFtp,R_0402_1005Metric_Pad0.72x0.64mm_HandSolder*%
%TO.CVal,680 Ohm*%
%TO.CLbN,Resistor_SMD*%
%TO.CMnt,SMD*%
%TO.CRot,90*%
X143298222Y-96300000D03*
D11*
X143763222Y-95195000D02*
X143763222Y-97405000D01*
X142833222Y-97405000D01*
X142833222Y-95195000D01*
X143763222Y-95195000D01*
D12*
%TO.P,R20,1*%
X143298222Y-96897500D03*
D13*
%TO.P,R20,2*%
X143298222Y-95702500D03*
%TD*%
D10*
%TO.C,C1*%
%TO.CFtp,C_0805_2012Metric_Pad1.18x1.45mm_HandSolder*%
%TO.CVal,22 μF*%
%TO.CLbN,Capacitor_SMD*%
%TO.CMnt,SMD*%
%TO.CRot,90*%
X136650000Y-114225000D03*
D11*
X137625000Y-112350000D02*
X137625000Y-116100000D01*
X135675000Y-116100000D01*
X135675000Y-112350000D01*
X137625000Y-112350000D01*
D12*
%TO.P,C1,1*%
X136650000Y-115262500D03*
D13*
%TO.P,C1,2*%
X136650000Y-113187500D03*
%TD*%
D10*
%TO.C,R19*%
%TO.CFtp,R_0402_1005Metric_Pad0.72x0.64mm_HandSolder*%
%TO.CVal,10 KOhm*%
%TO.CLbN,Resistor_SMD*%
%TO.CMnt,SMD*%
%TO.CRot,-90*%
X155225000Y-100500000D03*
D11*
X155690000Y-99395000D02*
X155690000Y-101605000D01*
X154760000Y-101605000D01*
X154760000Y-99395000D01*
X155690000Y-99395000D01*
D12*
%TO.P,R19,1*%
X155225000Y-99902500D03*
D13*
%TO.P,R19,2*%
X155225000Y-101097500D03*
%TD*%
D10*
%TO.C,C35*%
%TO.CFtp,C_0402_1005Metric_Pad0.74x0.62mm_HandSolder*%
%TO.CVal,18pF*%
%TO.CLbN,Capacitor_SMD*%
%TO.CMnt,SMD*%
%TO.CRot,-90*%
X137475000Y-120950000D03*
D11*
X137930000Y-119865000D02*
X137930000Y-122035000D01*
X137020000Y-122035000D01*
X137020000Y-119865000D01*
X137930000Y-119865000D01*
D12*
%TO.P,C35,1*%
X137475000Y-120382500D03*
D13*
%TO.P,C35,2*%
X137475000Y-121517500D03*
%TD*%
D10*
%TO.C,C13*%
%TO.CFtp,CP_Elec_6.3x5.9*%
%TO.CVal,150uF*%
%TO.CLbN,Capacitor_SMD*%
%TO.CMnt,SMD*%
%TO.CRot,-90*%
X139250000Y-104237600D03*
D11*
X140295000Y-99442600D02*
X140295000Y-100692600D01*
X141647928Y-100692600D01*
X142795000Y-101839672D01*
X142795000Y-107782600D01*
X140295000Y-107782600D01*
X140295000Y-109032600D01*
X138205000Y-109032600D01*
X138205000Y-107782600D01*
X135705000Y-107782600D01*
X135705000Y-101839672D01*
X136852072Y-100692600D01*
X138205000Y-100692600D01*
X138205000Y-99442600D01*
X140295000Y-99442600D01*
D12*
%TO.P,C13,1*%
X139250000Y-101437600D03*
D13*
%TO.P,C13,2*%
X139250000Y-107037600D03*
%TD*%
D10*
%TO.C,D6*%
%TO.CFtp,LED_0603_1608Metric_Pad1.05x0.95mm_HandSolder*%
%TO.CVal,LED*%
%TO.CLbN,LED_SMD*%
%TO.CMnt,SMD*%
%TO.CRot,180*%
X141952100Y-98440000D03*
D11*
X143597100Y-97715000D02*
X143597100Y-99165000D01*
X140307100Y-99165000D01*
X140307100Y-97715000D01*
X143597100Y-97715000D01*
D12*
%TO.P,D6,1,K*%
X142827100Y-98440000D03*
D13*
%TO.P,D6,2,A*%
X141077100Y-98440000D03*
%TD*%
D10*
%TO.C,D2*%
%TO.CFtp,PJSD0XTS-AU*%
%TO.CVal,6V/9V/5A*%
%TO.CLbN,PJSD0XTS-AU*%
%TO.CMnt,SMD*%
%TO.CRot,180*%
X144040000Y-107450000D03*
D11*
X145255000Y-106880000D02*
X145255000Y-108020000D01*
X142825000Y-108020000D01*
X142825000Y-106880000D01*
X145255000Y-106880000D01*
D12*
%TO.P,D2,1,K*%
X144840000Y-107450000D03*
D13*
%TO.P,D2,2,A*%
X143240000Y-107450000D03*
%TD*%
D10*
%TO.C,C23*%
%TO.CFtp,C_0402_1005Metric_Pad0.74x0.62mm_HandSolder*%
%TO.CVal,0.1 μF*%
%TO.CLbN,Capacitor_SMD*%
%TO.CMnt,SMD*%
%TO.CRot,0*%
X155307500Y-116110200D03*
D11*
X156392500Y-115655200D02*
X156392500Y-116565200D01*
X154222500Y-116565200D01*
X154222500Y-115655200D01*
X156392500Y-115655200D01*
D12*
%TO.P,C23,1*%
X154740000Y-116110200D03*
D13*
%TO.P,C23,2*%
X155875000Y-116110200D03*
%TD*%
D10*
%TO.C,C26*%
%TO.CFtp,C_0402_1005Metric_Pad0.74x0.62mm_HandSolder*%
%TO.CVal,0.1 μF*%
%TO.CLbN,Capacitor_SMD*%
%TO.CMnt,SMD*%
%TO.CRot,0*%
X155307500Y-118929600D03*
D11*
X156392500Y-118474600D02*
X156392500Y-119384600D01*
X154222500Y-119384600D01*
X154222500Y-118474600D01*
X156392500Y-118474600D01*
D12*
%TO.P,C26,1*%
X154740000Y-118929600D03*
D13*
%TO.P,C26,2*%
X155875000Y-118929600D03*
%TD*%
D10*
%TO.C,R27*%
%TO.CFtp,R_0402_1005Metric_Pad0.72x0.64mm_HandSolder*%
%TO.CVal,1 MOhm*%
%TO.CLbN,Resistor_SMD*%
%TO.CMnt,SMD*%
%TO.CRot,180*%
X139050000Y-121275000D03*
D11*
X140155000Y-120810000D02*
X140155000Y-121740000D01*
X137945000Y-121740000D01*
X137945000Y-120810000D01*
X140155000Y-120810000D01*
D12*
%TO.P,R27,1*%
X139647500Y-121275000D03*
D13*
%TO.P,R27,2*%
X138452500Y-121275000D03*
%TD*%
D10*
%TO.C,R1*%
%TO.CFtp,R_0603_1608Metric_Pad0.98x0.95mm_HandSolder*%
%TO.CVal,732 KOhm*%
%TO.CLbN,Resistor_SMD*%
%TO.CMnt,SMD*%
%TO.CRot,0*%
X142025000Y-109075000D03*
D11*
X143670000Y-108350000D02*
X143670000Y-109800000D01*
X140380000Y-109800000D01*
X140380000Y-108350000D01*
X143670000Y-108350000D01*
D12*
%TO.P,R1,1*%
X141112500Y-109075000D03*
D13*
%TO.P,R1,2*%
X142937500Y-109075000D03*
%TD*%
D10*
%TO.C,C3*%
%TO.CFtp,C_0805_2012Metric_Pad1.18x1.45mm_HandSolder*%
%TO.CVal,22 μF*%
%TO.CLbN,Capacitor_SMD*%
%TO.CMnt,SMD*%
%TO.CRot,90*%
X141275000Y-111775000D03*
D11*
X142250000Y-109900000D02*
X142250000Y-113650000D01*
X140300000Y-113650000D01*
X140300000Y-109900000D01*
X142250000Y-109900000D01*
D12*
%TO.P,C3,1*%
X141275000Y-112812500D03*
D13*
%TO.P,C3,2*%
X141275000Y-110737500D03*
%TD*%
D10*
%TO.C,C11*%
%TO.CFtp,C_0402_1005Metric_Pad0.74x0.62mm_HandSolder*%
%TO.CVal,0.1 μF*%
%TO.CLbN,Capacitor_SMD*%
%TO.CMnt,SMD*%
%TO.CRot,90*%
X136792700Y-98850000D03*
D11*
X137247700Y-97765000D02*
X137247700Y-99935000D01*
X136337700Y-99935000D01*
X136337700Y-97765000D01*
X137247700Y-97765000D01*
D12*
%TO.P,C11,1*%
X136792700Y-99417500D03*
D13*
%TO.P,C11,2*%
X136792700Y-98282500D03*
%TD*%
D10*
%TO.C,C12*%
%TO.CFtp,CP_Elec_6.3x5.9*%
%TO.CVal,150uF*%
%TO.CLbN,Capacitor_SMD*%
%TO.CMnt,SMD*%
%TO.CRot,90*%
X139250000Y-94155400D03*
D11*
X140295000Y-89360400D02*
X140295000Y-90610400D01*
X142795000Y-90610400D01*
X142795000Y-96553328D01*
X141647928Y-97700400D01*
X140295000Y-97700400D01*
X140295000Y-98950400D01*
X138205000Y-98950400D01*
X138205000Y-97700400D01*
X136852072Y-97700400D01*
X135705000Y-96553328D01*
X135705000Y-90610400D01*
X138205000Y-90610400D01*
X138205000Y-89360400D01*
X140295000Y-89360400D01*
D12*
%TO.P,C12,1*%
X139250000Y-96955400D03*
D13*
%TO.P,C12,2*%
X139250000Y-91355400D03*
%TD*%
D10*
%TO.C,L1*%
%TO.CFtp,L_Chilisin_BMRx00050515*%
%TO.CVal,1 μH*%
%TO.CLbN,Inductor_SMD*%
%TO.CMnt,SMD*%
%TO.CRot,180*%
X146050000Y-103925000D03*
D11*
X149145000Y-100980000D02*
X149145000Y-102430000D01*
X149295000Y-102430000D01*
X149295000Y-105420000D01*
X149145000Y-105420000D01*
X149145000Y-106870000D01*
X142955000Y-106870000D01*
X142955000Y-105420000D01*
X142805000Y-105420000D01*
X142805000Y-102430000D01*
X142955000Y-102430000D01*
X142955000Y-100980000D01*
X149145000Y-100980000D01*
D12*
%TO.P,L1,1,1*%
X148100000Y-103925000D03*
D13*
%TO.P,L1,2,2*%
X144000000Y-103925000D03*
%TD*%
D10*
%TO.C,F2*%
%TO.CFtp,Fuse_0603_1608Metric_Pad1.05x0.95mm_HandSolder*%
%TO.CVal,5A*%
%TO.CLbN,Fuse*%
%TO.CMnt,SMD*%
%TO.CRot,0*%
X146930000Y-107600000D03*
D11*
X148575000Y-106875000D02*
X148575000Y-108325000D01*
X145285000Y-108325000D01*
X145285000Y-106875000D01*
X148575000Y-106875000D01*
D12*
%TO.P,F2,1*%
X146055000Y-107600000D03*
D13*
%TO.P,F2,2*%
X147805000Y-107600000D03*
%TD*%
D10*
%TO.C,C22*%
%TO.CFtp,C_0402_1005Metric_Pad0.74x0.62mm_HandSolder*%
%TO.CVal,0.01 μF*%
%TO.CLbN,Capacitor_SMD*%
%TO.CMnt,SMD*%
%TO.CRot,0*%
X155307500Y-115170400D03*
D11*
X156392500Y-114715400D02*
X156392500Y-115625400D01*
X154222500Y-115625400D01*
X154222500Y-114715400D01*
X156392500Y-114715400D01*
D12*
%TO.P,C22,1*%
X154740000Y-115170400D03*
D13*
%TO.P,C22,2*%
X155875000Y-115170400D03*
%TD*%
D10*
%TO.C,C14*%
%TO.CFtp,C_0402_1005Metric*%
%TO.CVal,0.1uF*%
%TO.CLbN,Capacitor_SMD*%
%TO.CMnt,SMD*%
%TO.CRot,90*%
X147446650Y-123985550D03*
D11*
X147901650Y-123080550D02*
X147901650Y-124890550D01*
X146991650Y-124890550D01*
X146991650Y-123080550D01*
X147901650Y-123080550D01*
D12*
%TO.P,C14,1*%
X147446650Y-124465550D03*
D13*
%TO.P,C14,2*%
X147446650Y-123505550D03*
%TD*%
D10*
%TO.C,C10*%
%TO.CFtp,C_0402_1005Metric_Pad0.74x0.62mm_HandSolder*%
%TO.CVal,0.1 μF*%
%TO.CLbN,Capacitor_SMD*%
%TO.CMnt,SMD*%
%TO.CRot,180*%
X141417500Y-90150000D03*
D11*
X142502500Y-89695000D02*
X142502500Y-90605000D01*
X140332500Y-90605000D01*
X140332500Y-89695000D01*
X142502500Y-89695000D01*
D12*
%TO.P,C10,1*%
X141985000Y-90150000D03*
D13*
%TO.P,C10,2*%
X140850000Y-90150000D03*
%TD*%
D10*
%TO.C,D4*%
%TO.CFtp,LED_0603_1608Metric_Pad1.05x0.95mm_HandSolder*%
%TO.CVal,LED*%
%TO.CLbN,LED_SMD*%
%TO.CMnt,SMD*%
%TO.CRot,180*%
X145325000Y-109075000D03*
D11*
X146970000Y-108350000D02*
X146970000Y-109800000D01*
X143680000Y-109800000D01*
X143680000Y-108350000D01*
X146970000Y-108350000D01*
D12*
%TO.P,D4,1,K*%
X146200000Y-109075000D03*
D13*
%TO.P,D4,2,A*%
X144450000Y-109075000D03*
%TD*%
D10*
%TO.C,C24*%
%TO.CFtp,C_0402_1005Metric_Pad0.74x0.62mm_HandSolder*%
%TO.CVal,0.1 μF*%
%TO.CLbN,Capacitor_SMD*%
%TO.CMnt,SMD*%
%TO.CRot,0*%
X155307500Y-117050000D03*
D11*
X156392500Y-116595000D02*
X156392500Y-117505000D01*
X154222500Y-117505000D01*
X154222500Y-116595000D01*
X156392500Y-116595000D01*
D12*
%TO.P,C24,1*%
X154740000Y-117050000D03*
D13*
%TO.P,C24,2*%
X155875000Y-117050000D03*
%TD*%
D10*
%TO.C,C36*%
%TO.CFtp,C_0402_1005Metric_Pad0.74x0.62mm_HandSolder*%
%TO.CVal,18pF*%
%TO.CLbN,Capacitor_SMD*%
%TO.CMnt,SMD*%
%TO.CRot,90*%
X137475000Y-118742500D03*
D11*
X137930000Y-117657500D02*
X137930000Y-119827500D01*
X137020000Y-119827500D01*
X137020000Y-117657500D01*
X137930000Y-117657500D01*
D12*
%TO.P,C36,1*%
X137475000Y-119310000D03*
D13*
%TO.P,C36,2*%
X137475000Y-118175000D03*
%TD*%
D10*
%TO.C,C2*%
%TO.CFtp,C_0805_2012Metric_Pad1.18x1.45mm_HandSolder*%
%TO.CVal,22 μF*%
%TO.CLbN,Capacitor_SMD*%
%TO.CMnt,SMD*%
%TO.CRot,90*%
X139300000Y-111775000D03*
D11*
X140275000Y-109900000D02*
X140275000Y-113650000D01*
X138325000Y-113650000D01*
X138325000Y-109900000D01*
X140275000Y-109900000D01*
D12*
%TO.P,C2,1*%
X139300000Y-112812500D03*
D13*
%TO.P,C2,2*%
X139300000Y-110737500D03*
%TD*%
D10*
%TO.C,C27*%
%TO.CFtp,C_0402_1005Metric_Pad0.74x0.62mm_HandSolder*%
%TO.CVal,0.1 μF*%
%TO.CLbN,Capacitor_SMD*%
%TO.CMnt,SMD*%
%TO.CRot,0*%
X155307500Y-119869400D03*
D11*
X156392500Y-119414400D02*
X156392500Y-120324400D01*
X154222500Y-120324400D01*
X154222500Y-119414400D01*
X156392500Y-119414400D01*
D12*
%TO.P,C27,1*%
X154740000Y-119869400D03*
D13*
%TO.P,C27,2*%
X155875000Y-119869400D03*
%TD*%
D10*
%TO.C,U1*%
%TO.CFtp,TPS61023DRLR*%
%TO.CVal,TPS61023DRLR*%
%TO.CLbN,TPS61023*%
%TO.CMnt,SMD*%
%TO.CRot,0*%
X137087000Y-110400800D03*
D11*
X138307000Y-109405800D02*
X138307000Y-111395800D01*
X135867000Y-111395800D01*
X135867000Y-109405800D01*
X138307000Y-109405800D01*
D12*
%TO.P,U1,1,FB*%
X136249000Y-109900800D03*
D13*
%TO.P,U1,2,EN*%
X136249000Y-110400800D03*
%TO.P,U1,3,VIN*%
X136249000Y-110900800D03*
%TO.P,U1,4,GND*%
X137925000Y-110900800D03*
%TO.P,U1,5,SW*%
X137925000Y-110400800D03*
%TO.P,U1,6,VOUT*%
X137925000Y-109900800D03*
%TD*%
D10*
%TO.C,D8*%
%TO.CFtp,ESDS304DBVR*%
%TO.CVal,ESDS304DBVR*%
%TO.CLbN,ESDS304*%
%TO.CMnt,SMD*%
%TO.CRot,180*%
X153525000Y-108075000D03*
D11*
X155620000Y-106305000D02*
X155620000Y-109845000D01*
X151430000Y-109845000D01*
X151430000Y-106305000D01*
X155620000Y-106305000D01*
D12*
%TO.P,D8,1,I/O1*%
X154775000Y-109025000D03*
D13*
%TO.P,D8,2,GND*%
X154775000Y-108075000D03*
%TO.P,D8,3,I/O3*%
X154775000Y-107125000D03*
%TO.P,D8,4,I/O4*%
X152275000Y-109025000D03*
%TO.P,D8,5,I/O5*%
X152275000Y-107125000D03*
%TD*%
D10*
%TO.C,D7*%
%TO.CFtp,LED_0603_1608Metric_Pad1.05x0.95mm_HandSolder*%
%TO.CVal,LED*%
%TO.CLbN,LED_SMD*%
%TO.CMnt,SMD*%
%TO.CRot,0*%
X142175000Y-99925000D03*
D11*
X143820000Y-99200000D02*
X143820000Y-100650000D01*
X140530000Y-100650000D01*
X140530000Y-99200000D01*
X143820000Y-99200000D01*
D12*
%TO.P,D7,1,K*%
X141300000Y-99925000D03*
D13*
%TO.P,D7,2,A*%
X143050000Y-99925000D03*
%TD*%
D10*
%TO.C,J2*%
%TO.CFtp,USB 9 Pin internal header*%
%TO.CVal,USB_9PIN_Internal*%
%TO.CLbN,Connectors*%
%TO.CMnt,TH*%
%TO.CRot,0*%
X150281500Y-95007200D03*
D11*
X156676500Y-92402200D02*
X156676500Y-97472200D01*
X143986500Y-97472200D01*
X143986500Y-92402200D01*
X156676500Y-92402200D01*
D12*
%TO.P,J2,1,5V*%
X145234000Y-96207200D03*
D13*
%TO.P,J2,2,5V*%
X145234000Y-93667200D03*
%TO.P,J2,3,D-*%
X147774000Y-96207200D03*
%TO.P,J2,4,D-*%
X147774000Y-93647200D03*
%TO.P,J2,5,D+*%
X150314000Y-96227200D03*
%TO.P,J2,6,D+*%
X150314000Y-93667200D03*
%TO.P,J2,7,GND*%
X152854000Y-96207200D03*
%TO.P,J2,8,GND*%
X152854000Y-93647200D03*
%TO.P,J2,9,Key*%
X155374000Y-96187200D03*
%TO.P,J2,10,NC*%
X155374000Y-93647200D03*
%TD*%
D10*
%TO.C,R18*%
%TO.CFtp,R_0402_1005Metric_Pad0.72x0.64mm_HandSolder*%
%TO.CVal,10 KOhm*%
%TO.CLbN,Resistor_SMD*%
%TO.CMnt,SMD*%
%TO.CRot,180*%
X148225000Y-99525000D03*
D11*
X149330000Y-99060000D02*
X149330000Y-99990000D01*
X147120000Y-99990000D01*
X147120000Y-99060000D01*
X149330000Y-99060000D01*
D12*
%TO.P,R18,1*%
X148822500Y-99525000D03*
D13*
%TO.P,R18,2*%
X147627500Y-99525000D03*
%TD*%
D10*
%TO.C,R29*%
%TO.CFtp,R_0402_1005Metric_Pad0.72x0.64mm_HandSolder*%
%TO.CVal,100 KOhm*%
%TO.CLbN,Resistor_SMD*%
%TO.CMnt,SMD*%
%TO.CRot,180*%
X136752500Y-111875000D03*
D11*
X137857500Y-111410000D02*
X137857500Y-112340000D01*
X135647500Y-112340000D01*
X135647500Y-111410000D01*
X137857500Y-111410000D01*
D12*
%TO.P,R29,1*%
X137350000Y-111875000D03*
D13*
%TO.P,R29,2*%
X136155000Y-111875000D03*
%TD*%
D10*
%TO.C,R23*%
%TO.CFtp,R_0402_1005Metric_Pad0.72x0.64mm_HandSolder*%
%TO.CVal,10 KOhm*%
%TO.CLbN,Resistor_SMD*%
%TO.CMnt,SMD*%
%TO.CRot,-90*%
X152841400Y-124001200D03*
D11*
X153306400Y-122896200D02*
X153306400Y-125106200D01*
X152376400Y-125106200D01*
X152376400Y-122896200D01*
X153306400Y-122896200D01*
D12*
%TO.P,R23,1*%
X152841400Y-123403700D03*
D13*
%TO.P,R23,2*%
X152841400Y-124598700D03*
%TD*%
D10*
%TO.C,IC1*%
%TO.CFtp,TUSB7320RKMT*%
%TO.CVal,TUSB7320*%
%TO.CLbN,TUSB7320*%
%TO.CMnt,SMD*%
%TO.CRot,90*%
X148505600Y-115575000D03*
D11*
X154200600Y-109880000D02*
X154200600Y-121270000D01*
X142810600Y-121270000D01*
X142810600Y-109880000D01*
X154200600Y-109880000D01*
D12*
%TO.P,IC1,A1,VDD11*%
X152905600Y-119175000D03*
D13*
%TO.P,IC1,A2,SDA*%
X152905600Y-118575000D03*
%TO.P,IC1,A3,VDD33*%
X152905600Y-117975000D03*
%TO.P,IC1,A4,VDD11*%
X152905600Y-117375000D03*
%TO.P,IC1,A5,NC*%
X152905600Y-116775000D03*
%TO.P,IC1,A6,VDD11*%
X152905600Y-116175000D03*
%TO.P,IC1,A7,NC*%
X152905600Y-115575000D03*
%TO.P,IC1,A8,NC*%
X152905600Y-114975000D03*
%TO.P,IC1,A9,VDD11*%
X152905600Y-114375000D03*
%TO.P,IC1,A10,USB_SSRXN_DN2*%
X152905600Y-113775000D03*
%TO.P,IC1,A11,USB_SSTXP_DN2*%
X152905600Y-113175000D03*
%TO.P,IC1,A12,VDD11*%
X152905600Y-112575000D03*
%TO.P,IC1,A13,USB_DM_DN2*%
X152905600Y-111975000D03*
%TO.P,IC1,A14,NC*%
X152105600Y-111175000D03*
%TO.P,IC1,A15,GRST#*%
X151505600Y-111175000D03*
%TO.P,IC1,A16,VDD11*%
X150905600Y-111175000D03*
%TO.P,IC1,A17,USB_SSTXP_DN1*%
X150305600Y-111175000D03*
%TO.P,IC1,A18,USB_SSRXP_DN1*%
X149705600Y-111175000D03*
%TO.P,IC1,A19,VDDA_3P3*%
X149105600Y-111175000D03*
%TO.P,IC1,A20,USB_DP_DN1*%
X148505600Y-111175000D03*
%TO.P,IC1,A21,VDDA_3P3*%
X147905600Y-111175000D03*
%TO.P,IC1,A22,XO*%
X147305600Y-111175000D03*
%TO.P,IC1,A23,XI*%
X146705600Y-111175000D03*
%TO.P,IC1,A24,R1EXT*%
X146105600Y-111175000D03*
%TO.P,IC1,A25,VDDA_3P3*%
X145505600Y-111175000D03*
%TO.P,IC1,A26,NC*%
X144905600Y-111175000D03*
%TO.P,IC1,A27,NC*%
X144105600Y-111975000D03*
%TO.P,IC1,A28,VDD11*%
X144105600Y-112575000D03*
%TO.P,IC1,A29,NC*%
X144105600Y-113175000D03*
%TO.P,IC1,A30,NC*%
X144105600Y-113775000D03*
%TO.P,IC1,A31,VDD11*%
X144105600Y-114375000D03*
%TO.P,IC1,A32,JTAG_TCK*%
X144105600Y-114975000D03*
%TO.P,IC1,A33,VDD11*%
X144105600Y-115575000D03*
%TO.P,IC1,A34,VDD33*%
X144105600Y-116175000D03*
%TO.P,IC1,A35,JTAG_TDI*%
X144105600Y-116775000D03*
%TO.P,IC1,A36,OVERCUR1#*%
X144105600Y-117375000D03*
%TO.P,IC1,A37,OVERCUR2#*%
X144105600Y-117975000D03*
%TO.P,IC1,A38,VDD11*%
X144105600Y-118575000D03*
%TO.P,IC1,A39,VDD33*%
X144105600Y-119175000D03*
%TO.P,IC1,A40,PERST#*%
X144905600Y-119975000D03*
%TO.P,IC1,A41,PCIE_TXN*%
X145505600Y-119975000D03*
%TO.P,IC1,A42,PCIE_RXN*%
X146105600Y-119975000D03*
%TO.P,IC1,A43,NC*%
X146705600Y-119975000D03*
%TO.P,IC1,A44,VDDA_3P3*%
X147305600Y-119975000D03*
%TO.P,IC1,A45,PCIE_REFCLKP*%
X147905600Y-119975000D03*
%TO.P,IC1,A46,NC*%
X148505600Y-119975000D03*
%TO.P,IC1,A47,VDD33*%
X149105600Y-119975000D03*
%TO.P,IC1,A48,NC*%
X149705600Y-119975000D03*
%TO.P,IC1,A49,GPIO0*%
X150305600Y-119975000D03*
%TO.P,IC1,A50,VDD11*%
X150905600Y-119975000D03*
%TO.P,IC1,A51,VDD33*%
X151505600Y-119975000D03*
%TO.P,IC1,A52,AUX_DET*%
X152105600Y-119975000D03*
%TO.P,IC1,A53,GND*%
X148505600Y-115575000D03*
%TO.P,IC1,B1,VDD11*%
X152155600Y-118600000D03*
%TO.P,IC1,B2,SCL*%
X152155600Y-118050000D03*
%TO.P,IC1,B3,SMI*%
X152155600Y-117500000D03*
%TO.P,IC1,B4,VDDA_3P3*%
X152155600Y-116950000D03*
%TO.P,IC1,B5,NC*%
X152155600Y-116400000D03*
%TO.P,IC1,B6,NC*%
X152155600Y-115850000D03*
%TO.P,IC1,B7,NC*%
X152155600Y-115300000D03*
%TO.P,IC1,B8,NC*%
X152155600Y-114750000D03*
%TO.P,IC1,B9,USB_SSRXP_DN2*%
X152155600Y-114200000D03*
%TO.P,IC1,B10,USB_SSTXN_DN2*%
X152155600Y-113650000D03*
%TO.P,IC1,B11,VDDA_3P3*%
X152155600Y-113100000D03*
%TO.P,IC1,B12,USB_DP_DN2*%
X152155600Y-112550000D03*
%TO.P,IC1,B13,NC*%
X151530600Y-111925000D03*
%TO.P,IC1,B14,FREQSEL*%
X150980600Y-111925000D03*
%TO.P,IC1,B15,USB_SSTXN_DN1*%
X150430600Y-111925000D03*
%TO.P,IC1,B16,USB_SSRXN_DN1*%
X149880600Y-111925000D03*
%TO.P,IC1,B17,VDD11*%
X149330600Y-111925000D03*
%TO.P,IC1,B18,USB_DM_DN1*%
X148780600Y-111925000D03*
%TO.P,IC1,B19,VDD11*%
X148230600Y-111925000D03*
%TO.P,IC1,B20,GND*%
X147680600Y-111925000D03*
%TO.P,IC1,B21,VSS_OSC*%
X147130600Y-111925000D03*
%TO.P,IC1,B22,VDDA_3P3*%
X146580600Y-111925000D03*
%TO.P,IC1,B23,R1EXTRTN*%
X146030600Y-111925000D03*
%TO.P,IC1,B24,VDD11*%
X145480600Y-111925000D03*
%TO.P,IC1,B25,NC*%
X144855600Y-112550000D03*
%TO.P,IC1,B26,VDDA_3P3*%
X144855600Y-113100000D03*
%TO.P,IC1,B27,NC*%
X144855600Y-113650000D03*
%TO.P,IC1,B28,NC*%
X144855600Y-114200000D03*
%TO.P,IC1,B29,NC*%
X144855600Y-114750000D03*
%TO.P,IC1,B30,JTAG_TMS*%
X144855600Y-115300000D03*
%TO.P,IC1,B31,JTAG_TDO*%
X144855600Y-115850000D03*
%TO.P,IC1,B32,JTAG_RST#*%
X144855600Y-116400000D03*
%TO.P,IC1,B33,PWRON1#*%
X144855600Y-116950000D03*
%TO.P,IC1,B34,PWRON2#*%
X144855600Y-117500000D03*
%TO.P,IC1,B35,WAKE#*%
X144855600Y-118050000D03*
%TO.P,IC1,B36,CLKREQ#*%
X144855600Y-118600000D03*
%TO.P,IC1,B37,VDD11*%
X145480600Y-119225000D03*
%TO.P,IC1,B38,PCIE_TXP*%
X146030600Y-119225000D03*
%TO.P,IC1,B39,PCIE_RXP*%
X146580600Y-119225000D03*
%TO.P,IC1,B40,VDD11*%
X147130600Y-119225000D03*
%TO.P,IC1,B41,PCIE_REFCLKN*%
X147680600Y-119225000D03*
%TO.P,IC1,B42,VDD11*%
X148230600Y-119225000D03*
%TO.P,IC1,B43,NC*%
X148780600Y-119225000D03*
%TO.P,IC1,B44,VDD11*%
X149330600Y-119225000D03*
%TO.P,IC1,B45,NC*%
X149880600Y-119225000D03*
%TO.P,IC1,B46,GPIO1*%
X150430600Y-119225000D03*
%TO.P,IC1,B47,GPIO2*%
X150980600Y-119225000D03*
%TO.P,IC1,B48,GPIO3*%
X151530600Y-119225000D03*
%TO.P,IC1,C1,NC*%
X152755600Y-119825000D03*
%TO.P,IC1,C2,NC*%
X152755600Y-111325000D03*
%TO.P,IC1,C3,NC*%
X144255600Y-111325000D03*
%TO.P,IC1,C4,NC*%
X144255600Y-119825000D03*
%TD*%
D10*
%TO.C,R21*%
%TO.CFtp,R_0402_1005Metric_Pad0.72x0.64mm_HandSolder*%
%TO.CVal,680 Ohm*%
%TO.CLbN,Resistor_SMD*%
%TO.CMnt,SMD*%
%TO.CRot,90*%
X137725000Y-98820000D03*
D11*
X138190000Y-97715000D02*
X138190000Y-99925000D01*
X137260000Y-99925000D01*
X137260000Y-97715000D01*
X138190000Y-97715000D01*
D12*
%TO.P,R21,1*%
X137725000Y-99417500D03*
D13*
%TO.P,R21,2*%
X137725000Y-98222500D03*
%TD*%
D10*
%TO.C,R17*%
%TO.CFtp,R_0402_1005Metric_Pad0.72x0.64mm_HandSolder*%
%TO.CVal,30.9 KOhm*%
%TO.CLbN,Resistor_SMD*%
%TO.CMnt,SMD*%
%TO.CRot,-90*%
X156160000Y-99190000D03*
D11*
X156625000Y-98085000D02*
X156625000Y-100295000D01*
X155695000Y-100295000D01*
X155695000Y-98085000D01*
X156625000Y-98085000D01*
D12*
%TO.P,R17,1*%
X156160000Y-98592500D03*
D13*
%TO.P,R17,2*%
X156160000Y-99787500D03*
%TD*%
D10*
%TO.C,R25*%
%TO.CFtp,R_0402_1005Metric_Pad0.72x0.64mm_HandSolder*%
%TO.CVal,0 Ohm*%
%TO.CLbN,Resistor_SMD*%
%TO.CMnt,SMD*%
%TO.CRot,0*%
X155325000Y-121399600D03*
D11*
X156430000Y-120934600D02*
X156430000Y-121864600D01*
X154220000Y-121864600D01*
X154220000Y-120934600D01*
X156430000Y-120934600D01*
D12*
%TO.P,R25,1*%
X154727500Y-121399600D03*
D13*
%TO.P,R25,2*%
X155922500Y-121399600D03*
%TD*%
D10*
%TO.C,R2*%
%TO.CFtp,R_0402_1005Metric_Pad0.72x0.64mm_HandSolder*%
%TO.CVal,100 KOhm*%
%TO.CLbN,Resistor_SMD*%
%TO.CMnt,SMD*%
%TO.CRot,0*%
X137050000Y-108275000D03*
D11*
X138155000Y-107810000D02*
X138155000Y-108740000D01*
X135945000Y-108740000D01*
X135945000Y-107810000D01*
X138155000Y-107810000D01*
D12*
%TO.P,R2,1*%
X136452500Y-108275000D03*
D13*
%TO.P,R2,2*%
X137647500Y-108275000D03*
%TD*%
D10*
%TO.C,U2*%
%TO.CFtp,TPS2560DRCT*%
%TO.CVal,TPS2560DRC*%
%TO.CLbN,TPS2560*%
%TO.CMnt,SMD*%
%TO.CRot,90*%
X152050000Y-101175000D03*
D11*
X154745000Y-98480000D02*
X154745000Y-103870000D01*
X149355000Y-103870000D01*
X149355000Y-98480000D01*
X154745000Y-98480000D01*
D12*
%TO.P,U2,1,GND_1*%
X151050000Y-102575000D03*
D13*
%TO.P,U2,2,IN_1*%
X151550000Y-102575000D03*
%TO.P,U2,3,IN_2*%
X152050000Y-102575000D03*
%TO.P,U2,4,EN1*%
X152550000Y-102575000D03*
%TO.P,U2,5,EN2*%
X153050000Y-102575000D03*
%TO.P,U2,6,~{FAULT2}*%
X153050000Y-99775000D03*
%TO.P,U2,7,ILIM*%
X152550000Y-99775000D03*
%TO.P,U2,8,OUT2*%
X152050000Y-99775000D03*
%TO.P,U2,9,OUT1*%
X151550000Y-99775000D03*
%TO.P,U2,10,~{FAULT1}*%
X151050000Y-99775000D03*
%TO.P,U2,11,GND_2*%
X152050000Y-101175000D03*
%TO.P,U2,12,GND_3*%
X153500000Y-101425000D03*
%TO.P,U2,13,GND_4*%
X153500000Y-100925000D03*
%TO.P,U2,14,GND_5*%
X150600000Y-100925000D03*
%TO.P,U2,15,GND_6*%
X150600000Y-101425000D03*
%TD*%
D10*
%TO.C,C9*%
%TO.CFtp,C_0402_1005Metric_Pad0.74x0.62mm_HandSolder*%
%TO.CVal,0.1 μF*%
%TO.CLbN,Capacitor_SMD*%
%TO.CMnt,SMD*%
%TO.CRot,0*%
X151425000Y-104350000D03*
D11*
X152510000Y-103895000D02*
X152510000Y-104805000D01*
X150340000Y-104805000D01*
X150340000Y-103895000D01*
X152510000Y-103895000D01*
D12*
%TO.P,C9,1*%
X150857500Y-104350000D03*
D13*
%TO.P,C9,2*%
X151992500Y-104350000D03*
%TD*%
M02*
