%TF.GenerationSoftware,KiCad,Pcbnew,9.0.6-1.fc42*%
%TF.CreationDate,2025-12-08T13:43:58+01:00*%
%TF.ProjectId,PCI2USB,50434932-5553-4422-9e6b-696361645f70,1.0.0*%
%TF.SameCoordinates,Original*%
%TF.FileFunction,Paste,Bot*%
%TF.FilePolarity,Positive*%
%FSLAX46Y46*%
G04 Gerber Fmt 4.6, Leading zero omitted, Abs format (unit mm)*
G04 Created by KiCad (PCBNEW 9.0.6-1.fc42) date 2025-12-08 13:43:58*
%MOMM*%
%LPD*%
G01*
G04 APERTURE LIST*
G04 Aperture macros list*
%AMRoundRect*
0 Rectangle with rounded corners*
0 $1 Rounding radius*
0 $2 $3 $4 $5 $6 $7 $8 $9 X,Y pos of 4 corners*
0 Add a 4 corners polygon primitive as box body*
4,1,4,$2,$3,$4,$5,$6,$7,$8,$9,$2,$3,0*
0 Add four circle primitives for the rounded corners*
1,1,$1+$1,$2,$3*
1,1,$1+$1,$4,$5*
1,1,$1+$1,$6,$7*
1,1,$1+$1,$8,$9*
0 Add four rect primitives between the rounded corners*
20,1,$1+$1,$2,$3,$4,$5,0*
20,1,$1+$1,$4,$5,$6,$7,0*
20,1,$1+$1,$6,$7,$8,$9,0*
20,1,$1+$1,$8,$9,$2,$3,0*%
G04 Aperture macros list end*
%ADD10RoundRect,0.155000X0.212500X0.155000X-0.212500X0.155000X-0.212500X-0.155000X0.212500X-0.155000X0*%
%ADD11RoundRect,0.237500X-0.237500X0.287500X-0.237500X-0.287500X0.237500X-0.287500X0.237500X0.287500X0*%
%ADD12RoundRect,0.155000X-0.212500X-0.155000X0.212500X-0.155000X0.212500X0.155000X-0.212500X0.155000X0*%
%ADD13RoundRect,0.250000X0.337500X0.475000X-0.337500X0.475000X-0.337500X-0.475000X0.337500X-0.475000X0*%
%ADD14RoundRect,0.160000X-0.160000X0.197500X-0.160000X-0.197500X0.160000X-0.197500X0.160000X0.197500X0*%
%ADD15R,0.350000X1.000000*%
%ADD16R,1.000000X0.350000*%
%ADD17R,3.250000X3.250000*%
%ADD18RoundRect,0.155000X0.155000X-0.212500X0.155000X0.212500X-0.155000X0.212500X-0.155000X-0.212500X0*%
%ADD19RoundRect,0.155000X-0.155000X0.212500X-0.155000X-0.212500X0.155000X-0.212500X0.155000X0.212500X0*%
%ADD20RoundRect,0.160000X-0.197500X-0.160000X0.197500X-0.160000X0.197500X0.160000X-0.197500X0.160000X0*%
%ADD21RoundRect,0.250000X-0.475000X0.337500X-0.475000X-0.337500X0.475000X-0.337500X0.475000X0.337500X0*%
%ADD22R,0.300000X0.500000*%
%ADD23R,0.540000X0.420000*%
%ADD24RoundRect,0.160000X0.197500X0.160000X-0.197500X0.160000X-0.197500X-0.160000X0.197500X-0.160000X0*%
%ADD25RoundRect,0.237500X-0.287500X-0.237500X0.287500X-0.237500X0.287500X0.237500X-0.287500X0.237500X0*%
%ADD26RoundRect,0.237500X0.237500X-0.287500X0.237500X0.287500X-0.237500X0.287500X-0.237500X-0.287500X0*%
G04 APERTURE END LIST*
D10*
%TO.C,C33*%
X138875000Y-104089800D03*
X137740000Y-104089800D03*
%TD*%
D11*
%TO.C,FB1*%
X143450000Y-109050000D03*
X143450000Y-110800000D03*
%TD*%
D12*
%TO.C,C48*%
X154540000Y-120280600D03*
X155675000Y-120280600D03*
%TD*%
%TO.C,C8*%
X139600000Y-120075000D03*
X140735000Y-120075000D03*
%TD*%
%TO.C,C39*%
X139925000Y-106650000D03*
X141060000Y-106650000D03*
%TD*%
D10*
%TO.C,C31*%
X138875000Y-102210200D03*
X137740000Y-102210200D03*
%TD*%
D13*
%TO.C,C7*%
X138562500Y-105525000D03*
X136487500Y-105525000D03*
%TD*%
D10*
%TO.C,C28*%
X138875000Y-99170600D03*
X137740000Y-99170600D03*
%TD*%
%TO.C,C32*%
X138875000Y-103150000D03*
X137740000Y-103150000D03*
%TD*%
D12*
%TO.C,C37*%
X139925000Y-108529600D03*
X141060000Y-108529600D03*
%TD*%
D14*
%TO.C,R7*%
X142400000Y-115677500D03*
X142400000Y-116872500D03*
%TD*%
D12*
%TO.C,C50*%
X154540000Y-118401000D03*
X155675000Y-118401000D03*
%TD*%
D15*
%TO.C,U3*%
X137525000Y-114150000D03*
X138175000Y-114150000D03*
X138825000Y-114150000D03*
X139475000Y-114150000D03*
X140125000Y-114150000D03*
D16*
X141175000Y-115200000D03*
X141175000Y-115850000D03*
X141175000Y-116500000D03*
X141175000Y-117150000D03*
X141175000Y-117800000D03*
D15*
X140125000Y-118850000D03*
X139475000Y-118850000D03*
X138825000Y-118850000D03*
X138175000Y-118850000D03*
X137525000Y-118850000D03*
D16*
X136475000Y-117800000D03*
X136475000Y-117150000D03*
X136475000Y-116500000D03*
X136475000Y-115850000D03*
X136475000Y-115200000D03*
D17*
X138825000Y-116500000D03*
%TD*%
D10*
%TO.C,C29*%
X138875000Y-100330600D03*
X137740000Y-100330600D03*
%TD*%
D12*
%TO.C,C57*%
X154540000Y-124039800D03*
X155675000Y-124039800D03*
%TD*%
D14*
%TO.C,R8*%
X142400000Y-117900000D03*
X142400000Y-119095000D03*
%TD*%
D12*
%TO.C,C46*%
X154540000Y-122160200D03*
X155675000Y-122160200D03*
%TD*%
%TO.C,C38*%
X139925000Y-107589800D03*
X141060000Y-107589800D03*
%TD*%
%TO.C,C41*%
X139925000Y-104770400D03*
X141060000Y-104770400D03*
%TD*%
D18*
%TO.C,C21*%
X149986800Y-114900000D03*
X149986800Y-113765000D03*
%TD*%
D13*
%TO.C,C4*%
X141162500Y-112425000D03*
X139087500Y-112425000D03*
%TD*%
D19*
%TO.C,C5*%
X138400000Y-120132500D03*
X138400000Y-121267500D03*
%TD*%
D12*
%TO.C,C44*%
X139925000Y-101951000D03*
X141060000Y-101951000D03*
%TD*%
D10*
%TO.C,C16*%
X150747500Y-117787900D03*
X149612500Y-117787900D03*
%TD*%
D20*
%TO.C,R6*%
X136127500Y-120575000D03*
X137322500Y-120575000D03*
%TD*%
D12*
%TO.C,C47*%
X154540000Y-121220400D03*
X155675000Y-121220400D03*
%TD*%
%TO.C,C42*%
X139925000Y-103830600D03*
X141060000Y-103830600D03*
%TD*%
D21*
%TO.C,C56*%
X155550000Y-113087500D03*
X155550000Y-115162500D03*
%TD*%
D22*
%TO.C,FL2*%
X148785000Y-100003000D03*
X149335000Y-100003000D03*
X149335000Y-98777000D03*
X148785000Y-98777000D03*
%TD*%
D10*
%TO.C,C53*%
X143242500Y-103342000D03*
X142107500Y-103342000D03*
%TD*%
%TO.C,C51*%
X143242500Y-107101200D03*
X142107500Y-107101200D03*
%TD*%
%TO.C,C54*%
X143242500Y-104281800D03*
X142107500Y-104281800D03*
%TD*%
D14*
%TO.C,R10*%
X146825000Y-110377500D03*
X146825000Y-111572500D03*
%TD*%
D12*
%TO.C,C49*%
X154540000Y-119340800D03*
X155675000Y-119340800D03*
%TD*%
D13*
%TO.C,C34*%
X138562500Y-107480800D03*
X136487500Y-107480800D03*
%TD*%
D20*
%TO.C,R5*%
X136127500Y-121550000D03*
X137322500Y-121550000D03*
%TD*%
D18*
%TO.C,C19*%
X148132600Y-114900000D03*
X148132600Y-113765000D03*
%TD*%
D23*
%TO.C,D3*%
X143400000Y-112200000D03*
X145000000Y-112200000D03*
%TD*%
D18*
%TO.C,C17*%
X146278400Y-114900000D03*
X146278400Y-113765000D03*
%TD*%
D24*
%TO.C,R28*%
X150797500Y-116837500D03*
X149602500Y-116837500D03*
%TD*%
D18*
%TO.C,C18*%
X147205500Y-114900000D03*
X147205500Y-113765000D03*
%TD*%
%TO.C,C20*%
X149059700Y-114900000D03*
X149059700Y-113765000D03*
%TD*%
D25*
%TO.C,F3*%
X139475000Y-110675000D03*
X141225000Y-110675000D03*
%TD*%
D12*
%TO.C,C45*%
X154540000Y-123100000D03*
X155675000Y-123100000D03*
%TD*%
D24*
%TO.C,R4*%
X146597500Y-109375000D03*
X145402500Y-109375000D03*
%TD*%
D12*
%TO.C,C6*%
X150182500Y-112550000D03*
X151317500Y-112550000D03*
%TD*%
D22*
%TO.C,FL1*%
X142175000Y-96251000D03*
X142725000Y-96251000D03*
X142725000Y-95025000D03*
X142175000Y-95025000D03*
%TD*%
D10*
%TO.C,C30*%
X138875000Y-101270400D03*
X137740000Y-101270400D03*
%TD*%
%TO.C,C55*%
X143242500Y-105221600D03*
X142107500Y-105221600D03*
%TD*%
%TO.C,C52*%
X143242500Y-106161400D03*
X142107500Y-106161400D03*
%TD*%
D26*
%TO.C,F1*%
X144450000Y-115300000D03*
X144450000Y-113550000D03*
%TD*%
D12*
%TO.C,C43*%
X139925000Y-102890800D03*
X141060000Y-102890800D03*
%TD*%
%TO.C,C40*%
X139925000Y-105710200D03*
X141060000Y-105710200D03*
%TD*%
M02*
