%TF.GenerationSoftware,KiCad,Pcbnew,9.0.6-1.fc42*%
%TF.CreationDate,2025-12-08T13:43:58+01:00*%
%TF.ProjectId,PCI2USB,50434932-5553-4422-9e6b-696361645f70,1.0.0*%
%TF.SameCoordinates,Original*%
%TF.FileFunction,Paste,Top*%
%TF.FilePolarity,Positive*%
%FSLAX46Y46*%
G04 Gerber Fmt 4.6, Leading zero omitted, Abs format (unit mm)*
G04 Created by KiCad (PCBNEW 9.0.6-1.fc42) date 2025-12-08 13:43:58*
%MOMM*%
%LPD*%
G01*
G04 APERTURE LIST*
G04 Aperture macros list*
%AMRoundRect*
0 Rectangle with rounded corners*
0 $1 Rounding radius*
0 $2 $3 $4 $5 $6 $7 $8 $9 X,Y pos of 4 corners*
0 Add a 4 corners polygon primitive as box body*
4,1,4,$2,$3,$4,$5,$6,$7,$8,$9,$2,$3,0*
0 Add four circle primitives for the rounded corners*
1,1,$1+$1,$2,$3*
1,1,$1+$1,$4,$5*
1,1,$1+$1,$6,$7*
1,1,$1+$1,$8,$9*
0 Add four rect primitives between the rounded corners*
20,1,$1+$1,$2,$3,$4,$5,0*
20,1,$1+$1,$4,$5,$6,$7,0*
20,1,$1+$1,$6,$7,$8,$9,0*
20,1,$1+$1,$8,$9,$2,$3,0*%
G04 Aperture macros list end*
%ADD10RoundRect,0.160000X-0.197500X-0.160000X0.197500X-0.160000X0.197500X0.160000X-0.197500X0.160000X0*%
%ADD11RoundRect,0.155000X-0.212500X-0.155000X0.212500X-0.155000X0.212500X0.155000X-0.212500X0.155000X0*%
%ADD12R,1.200000X1.800000*%
%ADD13RoundRect,0.160000X0.160000X-0.197500X0.160000X0.197500X-0.160000X0.197500X-0.160000X-0.197500X0*%
%ADD14RoundRect,0.160000X0.197500X0.160000X-0.197500X0.160000X-0.197500X-0.160000X0.197500X-0.160000X0*%
%ADD15RoundRect,0.140000X0.170000X-0.140000X0.170000X0.140000X-0.170000X0.140000X-0.170000X-0.140000X0*%
%ADD16RoundRect,0.250000X0.475000X-0.337500X0.475000X0.337500X-0.475000X0.337500X-0.475000X-0.337500X0*%
%ADD17RoundRect,0.160000X-0.160000X0.197500X-0.160000X-0.197500X0.160000X-0.197500X0.160000X0.197500X0*%
%ADD18RoundRect,0.155000X-0.155000X0.212500X-0.155000X-0.212500X0.155000X-0.212500X0.155000X0.212500X0*%
%ADD19RoundRect,0.250000X-0.550000X1.500000X-0.550000X-1.500000X0.550000X-1.500000X0.550000X1.500000X0*%
%ADD20RoundRect,0.237500X0.287500X0.237500X-0.287500X0.237500X-0.287500X-0.237500X0.287500X-0.237500X0*%
%ADD21R,0.540000X0.420000*%
%ADD22RoundRect,0.237500X-0.250000X-0.237500X0.250000X-0.237500X0.250000X0.237500X-0.250000X0.237500X0*%
%ADD23RoundRect,0.155000X0.155000X-0.212500X0.155000X0.212500X-0.155000X0.212500X-0.155000X-0.212500X0*%
%ADD24RoundRect,0.250000X0.550000X-1.500000X0.550000X1.500000X-0.550000X1.500000X-0.550000X-1.500000X0*%
%ADD25RoundRect,0.250000X0.700000X1.000000X-0.700000X1.000000X-0.700000X-1.000000X0.700000X-1.000000X0*%
%ADD26RoundRect,0.237500X-0.287500X-0.237500X0.287500X-0.237500X0.287500X0.237500X-0.287500X0.237500X0*%
%ADD27RoundRect,0.155000X0.212500X0.155000X-0.212500X0.155000X-0.212500X-0.155000X0.212500X-0.155000X0*%
%ADD28R,0.475000X0.300000*%
%ADD29R,1.200000X0.600000*%
%ADD30R,0.600000X0.250000*%
%ADD31R,0.250000X0.600000*%
%ADD32R,5.500000X5.500000*%
%ADD33R,0.400000X0.250000*%
%ADD34R,0.250000X0.400000*%
%ADD35R,0.300000X0.300000*%
%ADD36R,0.240000X0.600000*%
%ADD37R,2.400000X1.650000*%
%ADD38R,0.500000X0.250000*%
G04 APERTURE END LIST*
D10*
%TO.C,R24*%
X154727500Y-122364800D03*
X155922500Y-122364800D03*
%TD*%
D11*
%TO.C,C25*%
X154740000Y-117989800D03*
X155875000Y-117989800D03*
%TD*%
D12*
%TO.C,Y1*%
X139200000Y-115250000D03*
X139200000Y-119250000D03*
X141600000Y-119250000D03*
X141600000Y-115250000D03*
%TD*%
D13*
%TO.C,R14*%
X148980600Y-124598700D03*
X148980600Y-123403700D03*
%TD*%
D14*
%TO.C,R26*%
X156047500Y-113600000D03*
X154852500Y-113600000D03*
%TD*%
D15*
%TO.C,C15*%
X146496650Y-124465550D03*
X146496650Y-123505550D03*
%TD*%
D13*
%TO.C,R20*%
X143298222Y-96897500D03*
X143298222Y-95702500D03*
%TD*%
D16*
%TO.C,C1*%
X136650000Y-115262500D03*
X136650000Y-113187500D03*
%TD*%
D17*
%TO.C,R19*%
X155225000Y-99902500D03*
X155225000Y-101097500D03*
%TD*%
D18*
%TO.C,C35*%
X137475000Y-120382500D03*
X137475000Y-121517500D03*
%TD*%
D10*
%TO.C,R15*%
X153030000Y-104350000D03*
X154225000Y-104350000D03*
%TD*%
D17*
%TO.C,R16*%
X155225000Y-102452500D03*
X155225000Y-103647500D03*
%TD*%
D19*
%TO.C,C13*%
X139250000Y-101437600D03*
X139250000Y-107037600D03*
%TD*%
D20*
%TO.C,D6*%
X142827100Y-98440000D03*
X141077100Y-98440000D03*
%TD*%
D21*
%TO.C,D2*%
X144840000Y-107450000D03*
X143240000Y-107450000D03*
%TD*%
D11*
%TO.C,C23*%
X154740000Y-116110200D03*
X155875000Y-116110200D03*
%TD*%
%TO.C,C26*%
X154740000Y-118929600D03*
X155875000Y-118929600D03*
%TD*%
D14*
%TO.C,R27*%
X139647500Y-121275000D03*
X138452500Y-121275000D03*
%TD*%
D22*
%TO.C,R1*%
X141112500Y-109075000D03*
X142937500Y-109075000D03*
%TD*%
D16*
%TO.C,C3*%
X141275000Y-112812500D03*
X141275000Y-110737500D03*
%TD*%
D23*
%TO.C,C11*%
X136792700Y-99417500D03*
X136792700Y-98282500D03*
%TD*%
D24*
%TO.C,C12*%
X139250000Y-96955400D03*
X139250000Y-91355400D03*
%TD*%
D25*
%TO.C,L1*%
X148100000Y-103925000D03*
X144000000Y-103925000D03*
%TD*%
D26*
%TO.C,F2*%
X146055000Y-107600000D03*
X147805000Y-107600000D03*
%TD*%
D11*
%TO.C,C22*%
X154740000Y-115170400D03*
X155875000Y-115170400D03*
%TD*%
D15*
%TO.C,C14*%
X147446650Y-124465550D03*
X147446650Y-123505550D03*
%TD*%
D27*
%TO.C,C10*%
X141985000Y-90150000D03*
X140850000Y-90150000D03*
%TD*%
D20*
%TO.C,D4*%
X146200000Y-109075000D03*
X144450000Y-109075000D03*
%TD*%
D11*
%TO.C,C24*%
X154740000Y-117050000D03*
X155875000Y-117050000D03*
%TD*%
D23*
%TO.C,C36*%
X137475000Y-119310000D03*
X137475000Y-118175000D03*
%TD*%
D16*
%TO.C,C2*%
X139300000Y-112812500D03*
X139300000Y-110737500D03*
%TD*%
D11*
%TO.C,C27*%
X154740000Y-119869400D03*
X155875000Y-119869400D03*
%TD*%
D13*
%TO.C,R11*%
X151876200Y-124598700D03*
X151876200Y-123403700D03*
%TD*%
D28*
%TO.C,U1*%
X136249000Y-109900800D03*
X136249000Y-110400800D03*
X136249000Y-110900800D03*
X137925000Y-110900800D03*
X137925000Y-110400800D03*
X137925000Y-109900800D03*
%TD*%
D29*
%TO.C,D8*%
X154775000Y-109025000D03*
X154775000Y-108075000D03*
X154775000Y-107125000D03*
X152275000Y-109025000D03*
X152275000Y-107125000D03*
%TD*%
D26*
%TO.C,D7*%
X141300000Y-99925000D03*
X143050000Y-99925000D03*
%TD*%
D14*
%TO.C,R18*%
X148822500Y-99525000D03*
X147627500Y-99525000D03*
%TD*%
%TO.C,R29*%
X137350000Y-111875000D03*
X136155000Y-111875000D03*
%TD*%
D13*
%TO.C,R12*%
X150911000Y-124598700D03*
X150911000Y-123403700D03*
%TD*%
D17*
%TO.C,R22*%
X153816800Y-123403700D03*
X153816800Y-124598700D03*
%TD*%
%TO.C,R23*%
X152841400Y-123403700D03*
X152841400Y-124598700D03*
%TD*%
D30*
%TO.C,IC1*%
X152905600Y-119175000D03*
X152905600Y-118575000D03*
X152905600Y-117975000D03*
X152905600Y-117375000D03*
X152905600Y-116775000D03*
X152905600Y-116175000D03*
X152905600Y-115575000D03*
X152905600Y-114975000D03*
X152905600Y-114375000D03*
X152905600Y-113775000D03*
X152905600Y-113175000D03*
X152905600Y-112575000D03*
X152905600Y-111975000D03*
D31*
X152105600Y-111175000D03*
X151505600Y-111175000D03*
X150905600Y-111175000D03*
X150305600Y-111175000D03*
X149705600Y-111175000D03*
X149105600Y-111175000D03*
X148505600Y-111175000D03*
X147905600Y-111175000D03*
X147305600Y-111175000D03*
X146705600Y-111175000D03*
X146105600Y-111175000D03*
X145505600Y-111175000D03*
X144905600Y-111175000D03*
D30*
X144105600Y-111975000D03*
X144105600Y-112575000D03*
X144105600Y-113175000D03*
X144105600Y-113775000D03*
X144105600Y-114375000D03*
X144105600Y-114975000D03*
X144105600Y-115575000D03*
X144105600Y-116175000D03*
X144105600Y-116775000D03*
X144105600Y-117375000D03*
X144105600Y-117975000D03*
X144105600Y-118575000D03*
X144105600Y-119175000D03*
D31*
X144905600Y-119975000D03*
X145505600Y-119975000D03*
X146105600Y-119975000D03*
X146705600Y-119975000D03*
X147305600Y-119975000D03*
X147905600Y-119975000D03*
X148505600Y-119975000D03*
X149105600Y-119975000D03*
X149705600Y-119975000D03*
X150305600Y-119975000D03*
X150905600Y-119975000D03*
X151505600Y-119975000D03*
X152105600Y-119975000D03*
D32*
X148505600Y-115575000D03*
D33*
X152155600Y-118600000D03*
X152155600Y-118050000D03*
X152155600Y-117500000D03*
X152155600Y-116950000D03*
X152155600Y-116400000D03*
X152155600Y-115850000D03*
X152155600Y-115300000D03*
X152155600Y-114750000D03*
X152155600Y-114200000D03*
X152155600Y-113650000D03*
X152155600Y-113100000D03*
X152155600Y-112550000D03*
D34*
X151530600Y-111925000D03*
X150980600Y-111925000D03*
X150430600Y-111925000D03*
X149880600Y-111925000D03*
X149330600Y-111925000D03*
X148780600Y-111925000D03*
X148230600Y-111925000D03*
X147680600Y-111925000D03*
X147130600Y-111925000D03*
X146580600Y-111925000D03*
X146030600Y-111925000D03*
X145480600Y-111925000D03*
D33*
X144855600Y-112550000D03*
X144855600Y-113100000D03*
X144855600Y-113650000D03*
X144855600Y-114200000D03*
X144855600Y-114750000D03*
X144855600Y-115300000D03*
X144855600Y-115850000D03*
X144855600Y-116400000D03*
X144855600Y-116950000D03*
X144855600Y-117500000D03*
X144855600Y-118050000D03*
X144855600Y-118600000D03*
D34*
X145480600Y-119225000D03*
X146030600Y-119225000D03*
X146580600Y-119225000D03*
X147130600Y-119225000D03*
X147680600Y-119225000D03*
X148230600Y-119225000D03*
X148780600Y-119225000D03*
X149330600Y-119225000D03*
X149880600Y-119225000D03*
X150430600Y-119225000D03*
X150980600Y-119225000D03*
X151530600Y-119225000D03*
D35*
X152755600Y-119825000D03*
X152755600Y-111325000D03*
X144255600Y-111325000D03*
X144255600Y-119825000D03*
%TD*%
D13*
%TO.C,R21*%
X137725000Y-99417500D03*
X137725000Y-98222500D03*
%TD*%
%TO.C,R13*%
X149945800Y-124598700D03*
X149945800Y-123403700D03*
%TD*%
D17*
%TO.C,R17*%
X156160000Y-98592500D03*
X156160000Y-99787500D03*
%TD*%
D10*
%TO.C,R25*%
X154727500Y-121399600D03*
X155922500Y-121399600D03*
%TD*%
%TO.C,R2*%
X136452500Y-108275000D03*
X137647500Y-108275000D03*
%TD*%
D36*
%TO.C,U2*%
X151050000Y-102575000D03*
X151550000Y-102575000D03*
X152050000Y-102575000D03*
X152550000Y-102575000D03*
X153050000Y-102575000D03*
X153050000Y-99775000D03*
X152550000Y-99775000D03*
X152050000Y-99775000D03*
X151550000Y-99775000D03*
X151050000Y-99775000D03*
D37*
X152050000Y-101175000D03*
D38*
X153500000Y-101425000D03*
X153500000Y-100925000D03*
X150600000Y-100925000D03*
X150600000Y-101425000D03*
%TD*%
D11*
%TO.C,C9*%
X150857500Y-104350000D03*
X151992500Y-104350000D03*
%TD*%
M02*
